<!-- Generator: Adobe Illustrator 18.0.0, SVG Export Plug-In  -->
<svg version="1.1"
	 xmlns="http://www.w3.org/2000/svg" xmlns:xlink="http://www.w3.org/1999/xlink" xmlns:a="http://ns.adobe.com/AdobeSVGViewerExtensions/3.0/"
	 x="0px" y="0px" width="318.137px" height="728.615px" viewBox="0 0 318.137 728.615"
	 style="enable-background:new 0 0 318.137 728.615;" xml:space="preserve">
<defs>
	<symbol  id="search_icon" viewBox="-9 -9.707 19 18.553">
		<path style="fill:none;stroke:#000000;stroke-width:2;stroke-miterlimit:10;" d="M5.488,1.179c0,3.682-2.985,6.667-6.667,6.667
			s-6.667-2.985-6.667-6.667s2.985-6.667,6.667-6.667S5.488-2.503,5.488,1.179z"/>
		<line style="fill:none;stroke:#000000;stroke-width:2;stroke-miterlimit:10;" x1="3.503" y1="-3.503" x2="9" y2="-9"/>
		<polygon style="display:none;fill:none;" points="-9,8 10,8 10,-9 -9,-9 		"/>
	</symbol>
</defs>
<g>
	<text transform="matrix(1 0 0 1 32.3183 15.359)" style="font-family:'Avenir-Book'; font-size:16;">Transfer </text>
</g>
<rect x="0" y="101.695" style="fill:none;" width="317.946" height="303.801"/>
<text transform="matrix(1 0 0 1 -1.283253e-05 112.2792)"><tspan x="0" y="0" style="font-family:'Avenir-Medium'; font-size:14;">HTC One® A9 (AT&amp;T) - Ways to transfer content</tspan><tspan x="0" y="27.906" style="fill:#666666; font-family:'Avenir-Book'; font-size:14;">On your old Android phone, download the HTC </tspan><tspan x="0" y="44.706" style="fill:#666666; font-family:'Avenir-Book'; font-size:14;">Transfer Tool and use it to transfer your content to </tspan><tspan x="0" y="61.506" style="fill:#666666; font-family:'Avenir-Book'; font-size:14;">HTC One A9. ...</tspan><tspan x="0" y="89.412" style="font-family:'Avenir-Medium'; font-size:14;">HTC 10 (AT&amp;T) - Ways of transferring content </tspan><tspan x="0" y="106.213" style="font-family:'Avenir-Medium'; font-size:14;">from an iPhone</tspan><tspan x="0" y="134.119" style="fill:#666666; font-family:'Avenir-Book'; font-size:14;">If you have an iPhone®, there are easy ways to </tspan><tspan x="0" y="150.919" style="fill:#666666; font-family:'Avenir-Book'; font-size:14;">transfer your contacts, messages, and oalso ena</tspan><tspan x="298.452" y="150.919" style="fill:#666666; font-family:'Avenir-Book'; font-size:14;">-</tspan><tspan x="0" y="167.719" style="fill:#666666; font-family:'Avenir-Book'; font-size:14;">bles your phone to find and install the same apps </tspan><tspan x="0" y="184.519" style="fill:#666666; font-family:'Avenir-Book'; font-size:14;">that you were using on your iPhone.</tspan><tspan x="0" y="212.425" style="font-family:'Avenir-Medium'; font-size:14;">HTC One® M9 (AT&amp;T) - Transferring photos, </tspan><tspan x="0" y="229.225" style="font-family:'Avenir-Medium'; font-size:14;">videos, and music between your phone and com</tspan><tspan x="306.6" y="229.225" style="font-family:'Avenir-Medium'; font-size:14;">-</tspan><tspan x="0" y="246.025" style="font-family:'Avenir-Medium'; font-size:14;">puter</tspan><tspan x="0" y="273.932" style="fill:#666666; font-family:'Avenir-Book'; font-size:14;">Here are ways you can transfer your media from or </tspan><tspan x="0" y="290.731" style="fill:#666666; font-family:'Avenir-Book'; font-size:14;">to your computer.</tspan></text>
<rect x="0" y="423.268" style="fill:none;" width="317.946" height="303.801"/>
<text transform="matrix(1 0 0 1 -1.283253e-05 433.8513)"><tspan x="0" y="0" style="font-family:'Avenir-Medium'; font-size:14;">HTC One® A9 (AT&amp;T) - Ways to transfer content</tspan><tspan x="0" y="27.906" style="fill:#666666; font-family:'Avenir-Book'; font-size:14;">On your old Android phone, download the HTC </tspan><tspan x="0" y="44.706" style="fill:#666666; font-family:'Avenir-Book'; font-size:14;">Transfer Tool and use it to transfer your content to </tspan><tspan x="0" y="61.506" style="fill:#666666; font-family:'Avenir-Book'; font-size:14;">HTC One A9. ...</tspan><tspan x="0" y="89.412" style="font-family:'Avenir-Medium'; font-size:14;">HTC 10 (AT&amp;T) - Ways of transferring content </tspan><tspan x="0" y="106.213" style="font-family:'Avenir-Medium'; font-size:14;">from an iPhone</tspan><tspan x="0" y="134.119" style="fill:#666666; font-family:'Avenir-Book'; font-size:14;">If you have an iPhone®, there are easy ways to </tspan><tspan x="0" y="150.919" style="fill:#666666; font-family:'Avenir-Book'; font-size:14;">transfer your contacts, messages, and oalso ena</tspan><tspan x="298.452" y="150.919" style="fill:#666666; font-family:'Avenir-Book'; font-size:14;">-</tspan><tspan x="0" y="167.719" style="fill:#666666; font-family:'Avenir-Book'; font-size:14;">bles your phone to find and install the same apps </tspan><tspan x="0" y="184.519" style="fill:#666666; font-family:'Avenir-Book'; font-size:14;">that you were using on your iPhone.</tspan><tspan x="0" y="212.425" style="font-family:'Avenir-Medium'; font-size:14;">HTC One® M9 (AT&amp;T) - Transferring photos, </tspan><tspan x="0" y="229.225" style="font-family:'Avenir-Medium'; font-size:14;">videos, and music between your phone and com</tspan><tspan x="306.6" y="229.225" style="font-family:'Avenir-Medium'; font-size:14;">-</tspan><tspan x="0" y="246.025" style="font-family:'Avenir-Medium'; font-size:14;">puter</tspan><tspan x="0" y="273.932" style="fill:#666666; font-family:'Avenir-Book'; font-size:14;">Here are ways you can transfer your media from or </tspan><tspan x="0" y="290.731" style="fill:#666666; font-family:'Avenir-Book'; font-size:14;">to your computer.</tspan></text>
<rect x="2.16" y="44.757" style="fill:#F1F1F1;" width="89.916" height="30.296"/>
<g>
	<text transform="matrix(1 0 0 1 18.666 64.2273)" style="font-family:'Avenir-Book'; font-size:14;">Product</text>
</g>
<rect x="104.146" y="44.757" style="fill:#F1F1F1;" width="89.916" height="30.296"/>
<g>
	<text transform="matrix(1 0 0 1 128.8198 64.2273)" style="font-family:'Avenir-Book'; font-size:14;">Type</text>
</g>
<polyline points="82.451,63.282 80.415,60.136 84.487,60.136 "/>
<polyline points="185.917,63.282 183.881,60.136 187.953,60.136 "/>
<use xlink:href="#search_icon"  width="19" height="18.553" id="XMLID_1_" x="-9" y="-9.707" transform="matrix(0.9841 0 0 -0.9841 9.3463 9.9588)" style="overflow:visible;"/>
<line style="fill:none;stroke:#989898;stroke-miterlimit:10;" x1="2.058" y1="31.867" x2="310.058" y2="31.867"/>
</svg>
