<!-- Generator: Adobe Illustrator 18.0.0, SVG Export Plug-In  -->
<svg version="1.1"
	 xmlns="http://www.w3.org/2000/svg" xmlns:xlink="http://www.w3.org/1999/xlink" xmlns:a="http://ns.adobe.com/AdobeSVGViewerExtensions/3.0/"
	 x="0px" y="0px" width="360px" height="1156.533px" viewBox="0 0 360 1156.533" style="enable-background:new 0 0 360 1156.533;"
	 xml:space="preserve">
<defs>
	<symbol  id="video" viewBox="-19 -19 38 38">
		<path style="fill:none;stroke:#000000;stroke-width:2;stroke-miterlimit:10;" d="M18,0c0,9.941-8.059,18-18,18S-18,9.941-18,0
			s8.059-18,18-18S18-9.941,18,0z"/>
		<polygon style="fill:none;stroke:#000000;stroke-width:2;stroke-miterlimit:10;" points="-4.538,6.283 7.615,-0.734 
			-4.538,-7.751 		"/>
	</symbol>
</defs>
<g id="product_landing_copy">
	
		<line style="opacity:0.8;fill:none;stroke:#000000;stroke-width:1.1217;stroke-miterlimit:10;" x1="0" y1="48.014" x2="360" y2="48.014"/>
	<g style="opacity:0.8;">
		<text transform="matrix(1 0 0 1 118.563 669.871)" style="font-family:'Avenir-Medium'; font-size:16;">HTC A9 Camera</text>
	</g>
	<g style="opacity:0.8;">
		<text transform="matrix(1 0 0 1 116.0047 686.7276)" style="font-family:'Avenir-Book'; font-size:13;">World’s first dual OIS</text>
	</g>
	<g style="opacity:0.8;">
		<text transform="matrix(1 0 0 1 136.6535 781.5538)" style="font-family:'Avenir-Medium'; font-size:16;">HTC One A9</text>
	</g>
	<g style="opacity:0.8;">
		<text transform="matrix(1 0 0 1 136.6535 805.3361)" style="font-family:'Avenir-Book'; font-size:13;">Battery</text>
	</g>
	<g style="opacity:0.8;">
		<text transform="matrix(1 0 0 1 134.4048 155.7156)" style="font-family:'Avenir-Book'; font-size:18;">Hot topics</text>
	</g>
	<g>
		<text transform="matrix(1 0 0 1 116.3419 502.8035)" style="font-family:'Avenir-Book'; font-size:18;">How-to Videos</text>
	</g>
	<polygon style="opacity:0.8;fill:none;stroke:#000000;stroke-width:1.1194;stroke-miterlimit:10;" points="339.725,733.922 
		18.469,734.927 18.469,533.598 339.725,532.593 	"/>
	
		<rect x="18.563" y="745.994" style="opacity:0.8;fill:none;stroke:#000000;stroke-width:1.0158;stroke-miterlimit:10;" width="95.145" height="78.355"/>
	<polygon style="opacity:0.8;fill:none;stroke:#000000;stroke-width:1.0158;stroke-miterlimit:10;" points="339.72,824.349 
		113.699,824.349 113.699,745.994 340.364,746.403 	"/>
	<g style="opacity:0.8;">
		<text transform="matrix(1 0 0 1 136.6535 869.7394)" style="font-family:'Avenir-Medium'; font-size:16;">HTC One A9</text>
	</g>
	<g style="opacity:0.8;">
		<text transform="matrix(1 0 0 1 136.6535 893.5236)" style="font-family:'Avenir-Book'; font-size:13;">On screen Keyborad</text>
	</g>
	
		<rect x="18.563" y="834.18" style="opacity:0.8;fill:none;stroke:#000000;stroke-width:1.0158;stroke-miterlimit:10;" width="95.145" height="78.355"/>
	<polygon style="opacity:0.8;fill:none;stroke:#000000;stroke-width:1.0158;stroke-miterlimit:10;" points="339.72,912.535 
		113.699,912.535 113.699,834.18 340.364,834.588 	"/>
	
		<use xlink:href="#video"  width="38" height="38" x="-19" y="-19" transform="matrix(1.1029 0 0 -1.1029 177.4028 612.4019)" style="overflow:visible;opacity:0.8;"/>
	<g>
		<rect x="22.673" y="187.229" style="fill:none;" width="306.424" height="33.543"/>
		<text transform="matrix(1 0 0 1 22.6722 197.8136)"><tspan x="0" y="0" style="font-family:'Avenir-Book'; font-size:14;">Am I required to use the provided USB Type-C </tspan><tspan x="0" y="14" style="font-family:'Avenir-Book'; font-size:14;">cable?</tspan></text>
	</g>
	<g>
		<rect x="22.673" y="229.746" style="fill:none;" width="306.424" height="33.543"/>
		<text transform="matrix(1 0 0 1 22.6722 239.574)"><tspan x="0" y="0" style="fill:#666666; font-family:'Avenir-Book'; font-size:13;">The main difference is that USB Type-C is reversible </tspan><tspan x="0" y="14" style="fill:#666666; font-family:'Avenir-Book'; font-size:13;">and you can insert the connector to the ...</tspan></text>
	</g>
	
		<line style="opacity:0.8;fill:none;stroke:#CCCCCC;stroke-width:1.1194;stroke-miterlimit:10;" x1="15.257" y1="281.935" x2="336.513" y2="281.935"/>
	<g>
		<rect x="22.673" y="314.69" style="fill:none;" width="306.424" height="16.772"/>
		<text transform="matrix(1 0 0 1 22.6725 325.275)" style="font-family:'Avenir-Book'; font-size:14;">What&apos;s new and special with Camera?</text>
	</g>
	<g>
		<rect x="22.673" y="342.936" style="fill:none;" width="306.424" height="33.543"/>
		<text transform="matrix(1 0 0 1 22.6722 352.7642)"><tspan x="0" y="0" style="fill:#666666; font-family:'Avenir-Book'; font-size:13;">Enjoy taking great camera shots on HTC One A9. </tspan><tspan x="0" y="14" style="fill:#666666; font-family:'Avenir-Book'; font-size:13;">The camera interface has a fresh new look...</tspan></text>
	</g>
	
		<line style="opacity:0.8;fill:none;stroke:#CCCCCC;stroke-width:1.1194;stroke-miterlimit:10;" x1="15.257" y1="395.125" x2="336.513" y2="395.125"/>
	
		<line style="opacity:0.8;fill:none;stroke:#000000;stroke-width:1.1194;stroke-miterlimit:10;" x1="15.257" y1="456.434" x2="336.513" y2="456.434"/>
	<g style="opacity:0.8;">
		<g>
			<text transform="matrix(1 0 0 1 117.9256 434.8042)" style="fill:#3FA9F5; font-family:'Avenir-Book'; font-size:14;">Show More Topics</text>
		</g>
	</g>
	
		<line style="opacity:0.8;fill:none;stroke:#000000;stroke-width:1.1194;stroke-miterlimit:10;" x1="15.852" y1="967.544" x2="337.108" y2="967.544"/>
	<g style="opacity:0.8;">
		<path d="M34.026,5.96c-1.073-1.093-2.706-1.548-3.78-1.605c-0.931-0.05-4.599-0.037-5.461,0c-1.216,0.05-2.097,0.413-2.539,0.748
			c-0.004,0.002-0.012,0-0.012-0.009V0h-2.805v17.969l2.801,0.002c0,0-0.052-7.354,0.011-8.157c0.109-1.423,1.187-2.54,2.558-2.661
			c1.104-0.094,4.407-0.072,5.444,0c1.422,0.099,2.475,1.216,2.557,2.718c0.03,0.553-0.001,8.098-0.001,8.098h2.807
			c0,0,0.009-7.515,0-8.159C35.583,8.301,35.053,7.005,34.026,5.96 M38.519,7.313h6.644v10.608h2.809V7.313h6.642V4.512H38.519
			V7.313z M62.609,15.171c-1.528-0.134-2.549-1.135-2.668-2.608c-0.075-0.967-0.078-1.769-0.004-2.53
			c0.139-1.434,1.337-2.803,2.67-2.868c0.477-0.024,1.752-0.02,4.066-0.011l6.74,0.011l-0.001-2.798c0,0-5.367-0.011-6.977-0.015
			c-2.168-0.009-3.255-0.013-3.946,0.015c-1.518,0.055-2.789,0.597-3.78,1.605c-0.934,0.951-1.493,2.467-1.577,3.995
			c-0.047,0.83-0.06,1.911,0,2.553c0.155,1.645,0.688,2.938,1.577,3.843c0.954,0.973,2.404,1.587,3.782,1.607
			c1.128,0.015,10.921,0.002,10.921,0.002v-2.801c0,0-2.978,0.011-4.489,0.022C66.063,15.216,63.359,15.236,62.609,15.171"/>
	</g>
	<g style="opacity:0.8;">
		<rect x="324.933" y="4.66" width="16.79" height="2.239"/>
		<rect x="324.933" y="9.127" width="16.79" height="2.239"/>
		<rect x="324.933" y="13.593" width="16.79" height="2.239"/>
	</g>
	<g>
		<g>
			<g>
				<text transform="matrix(1 0 0 1 117.744 943.179)" style="fill:#3FA9F5; font-family:'Avenir-Book'; font-size:14;">Show More Videos</text>
			</g>
		</g>
	</g>
	<g>
		<g>
			<text transform="matrix(1 0 0 1 113.5985 1027.5082)"><tspan x="0" y="0" style="font-family:'Avenir-Book'; font-size:17.872;">Can’t find what </tspan><tspan x="-11.759" y="21.446" style="font-family:'Avenir-Book'; font-size:17.872;">you’re looking for?</tspan></text>
		</g>
		<g>
			<g>
				<g>
					<text transform="matrix(0.9998 0.0175 -0.0175 0.9998 148.2594 1152.5199)"><tspan x="0" y="0" style="font-family:'Avenir-Book'; font-size:13.404;">G</tspan><tspan x="10.66" y="-0.161" style="font-family:'Avenir-Book'; font-size:13.404;">e</tspan><tspan x="18.344" y="-0.268" style="font-family:'Avenir-Book'; font-size:13.404;">t</tspan><tspan x="23.027" y="-0.343" style="font-family:'Avenir-Book'; font-size:13.404;"> </tspan><tspan x="26.985" y="-0.464" style="font-family:'Avenir-Book'; font-size:13.404;">H</tspan><tspan x="36.894" y="-0.619" style="font-family:'Avenir-Book'; font-size:13.404;">e</tspan><tspan x="44.579" y="-0.716" style="font-family:'Avenir-Book'; font-size:13.404;">l</tspan><tspan x="48.028" y="-0.819" style="font-family:'Avenir-Book'; font-size:13.404;">p</tspan></text>
				</g>
			</g>
		</g>
		<g>
			<path style="fill:none;stroke:#000000;stroke-width:2.2387;stroke-linejoin:bevel;stroke-miterlimit:10;" d="M175.154,1090.631
				c-13.755,0-24.906,7.396-24.906,16.519c0,6.745,6.103,12.536,14.838,15.102l-1.115,6.299l5.233-5.376
				c1.91,0.311,3.895,0.494,5.949,0.494c13.755,0,24.906-7.396,24.906-16.519C200.06,1098.027,188.909,1090.631,175.154,1090.631z"
				/>
			<text transform="matrix(1 0 0 1 169.1545 1115.5356)" style="font-family:'Avenir-Medium'; font-size:24.3974;">?</text>
		</g>
	</g>
</g>
</svg>
