<!-- Generator: Adobe Illustrator 18.0.0, SVG Export Plug-In  -->
<svg version="1.1"
	 xmlns="http://www.w3.org/2000/svg" xmlns:xlink="http://www.w3.org/1999/xlink" xmlns:a="http://ns.adobe.com/AdobeSVGViewerExtensions/3.0/"
	 x="0px" y="0px" width="305.748px" height="182.148px" viewBox="0 0 305.748 182.148"
	 style="enable-background:new 0 0 305.748 182.148;" xml:space="preserve">
<defs>
</defs>
<path style="fill:#E6E6E6;" d="M299.218,182.148H6.531c-3.592,0-6.531-2.939-6.531-6.531V6.531C0,2.939,2.939,0,6.531,0h292.687
	c3.592,0,6.531,2.939,6.531,6.531v169.087C305.748,179.209,302.809,182.148,299.218,182.148z"/>
<g>
	
		<rect x="131.468" y="31.619" style="fill:none;stroke:#000000;stroke-width:2;stroke-miterlimit:10;" width="33.574" height="32.855"/>
	
		<rect x="131.468" y="31.619" style="fill:none;stroke:#000000;stroke-width:2;stroke-miterlimit:10;" width="15.261" height="32.855"/>
	<line style="fill:none;stroke:#000000;stroke-width:2;stroke-miterlimit:10;" x1="130.816" y1="38.172" x2="146.816" y2="38.172"/>
	<line style="fill:none;stroke:#000000;stroke-width:2;stroke-miterlimit:10;" x1="130.816" y1="46.172" x2="146.816" y2="46.172"/>
	<path style="fill:none;stroke:#000000;stroke-width:2;stroke-miterlimit:10;" d="M147.888,48.313"/>
	<path style="fill:none;stroke:#000000;stroke-width:2;stroke-miterlimit:10;" d="M131.923,48.313"/>
	<line style="fill:none;stroke:#000000;stroke-width:2;stroke-miterlimit:10;" x1="130.816" y1="52.172" x2="146.816" y2="52.172"/>
	<line style="fill:none;stroke:#000000;stroke-width:2;stroke-miterlimit:10;" x1="130.816" y1="58.172" x2="146.816" y2="58.172"/>
</g>
<text transform="matrix(1 0 0 1 36.3069 100.3372)"><tspan x="0" y="0" style="font-family:'Avenir-Book'; font-size:13;">You can tap on the upper left button to </tspan><tspan x="35.379" y="19" style="font-family:'Avenir-Book'; font-size:13;">see all the A9 related issues</tspan></text>
<rect x="100.318" y="140.094" style="fill:none;stroke:#000000;stroke-width:0.77;stroke-miterlimit:10;" width="95.447" height="30.386"/>
<text transform="matrix(1 0 0 1 138.4998 160.6758)" style="font-family:'Avenir-Book'; font-size:13;">OK</text>
</svg>
