<?xml version="1.0" encoding="UTF-8" standalone="no"?>
<svg width="328px" height="596px" viewBox="0 0 328 596" version="1.1" xmlns="http://www.w3.org/2000/svg" xmlns:xlink="http://www.w3.org/1999/xlink">
    <!-- Generator: Sketch 39 (31667) - http://www.bohemiancoding.com/sketch -->
    <title>Group 19</title>
    <desc>Created with Sketch.</desc>
    <defs></defs>
    <g id="Page-1" stroke="none" stroke-width="1" fill="none" fill-rule="evenodd">
        <g id="Group-19" transform="translate(1.000000, 0.000000)">
            <g id="Group-8" transform="translate(0.000000, 0.059000)" fill="#000000">
                <path d="M43.4562,15.8471 C41.9212,15.7131 40.8962,14.7081 40.7772,13.2281 C40.7012,12.2571 40.6992,11.4521 40.7722,10.6881 C40.9122,9.2481 42.1152,7.8741 43.4542,7.8081 C43.9322,7.7841 45.2132,7.7881 47.5372,7.7961 L54.3052,7.8081 L54.3042,4.9981 C54.3042,4.9981 48.9142,4.9871 47.2982,4.9831 C45.1212,4.9741 44.0292,4.9691 43.3352,4.9981 C41.8112,5.0531 40.5352,5.5971 39.5402,6.6091 C38.6022,7.5641 38.0402,9.0861 37.9562,10.6201 C37.9092,11.4541 37.8952,12.5391 37.9562,13.1841 C38.1122,14.8351 38.6462,16.1341 39.5402,17.0431 C40.4982,18.0201 41.9532,18.6371 43.3372,18.6571 C44.4702,18.6721 54.3042,18.6591 54.3042,18.6591 L54.3042,15.8471 C54.3042,15.8471 51.3142,15.8581 49.7962,15.8691 C46.9242,15.8931 44.2092,15.9121 43.4562,15.8471 L43.4562,15.8471 Z M19.2672,7.9571 L25.9382,7.9571 L25.9382,18.6081 L28.7592,18.6081 L28.7592,7.9571 L35.4282,7.9571 L35.4282,5.1451 L19.2672,5.1451 L19.2672,7.9571 Z M14.7552,6.5981 C13.6772,5.5011 12.0382,5.0441 10.9602,4.9871 C10.0252,4.9361 6.3422,4.9501 5.4762,4.9871 C4.2552,5.0371 3.3712,5.4021 2.9262,5.7381 C2.9222,5.7401 2.9142,5.7381 2.9142,5.7291 L2.9142,0.6141 L0.0982,0.6141 L0.0982,18.6571 L2.9102,18.6591 C2.9102,18.6591 2.8572,11.2751 2.9212,10.4681 C3.0312,9.0391 4.1132,7.9171 5.4892,7.7961 C6.5982,7.7021 9.9152,7.7251 10.9552,7.7961 C12.3832,7.8951 13.4402,9.0171 13.5232,10.5261 C13.5522,11.0811 13.5222,18.6571 13.5222,18.6571 L16.3402,18.6571 C16.3402,18.6571 16.3492,11.1111 16.3402,10.4641 C16.3192,8.9491 15.7872,7.6471 14.7552,6.5981 L14.7552,6.5981 Z" id="Fill-1"></path>
                <g id="Group-7" transform="translate(306.000000, 5.000000)">
                    <polygon id="Fill-3" points="0.861 2.541 17.72 2.541 17.72 0.293 0.861 0.293"></polygon>
                    <polygon id="Fill-5" points="0.861 7.026 17.72 7.026 17.72 4.778 0.861 4.778"></polygon>
                    <polygon id="Fill-6" points="0.861 11.511 17.72 11.511 17.72 9.263 0.861 9.263"></polygon>
                </g>
            </g>
            <polygon id="Stroke-9" stroke="#000000" stroke-width="1.124" points="0.354 307.403 323.976 307.403 323.976 274.673 0.354 274.673"></polygon>
            <polygon id="Stroke-10" stroke="#000000" stroke-width="1.124" points="0.354 230.456 323.976 230.456 323.976 197.726 0.354 197.726"></polygon>
            <polygon id="Stroke-11" stroke="#000000" stroke-width="1.124" points="0.354 384.103 323.976 384.103 323.976 351.373 0.354 351.373"></polygon>
            <polygon id="Stroke-15" stroke="#000000" stroke-width="1.124" points="0.354 527.385 323.976 527.385 323.976 437.468 0.354 437.468"></polygon>
            <text id="Email-Support" font-family="Avenir-Book, Avenir" font-size="21" font-weight="normal" fill="#000000">
                <tspan x="96.2135" y="72">Email Support</tspan>
            </text>
            <text id="Please-fill-out-the" font-family="Avenir-Book, Avenir" font-size="18" font-weight="normal" fill="#000000">
                <tspan x="42.858" y="122">Please fill out the form below. </tspan>
            </text>
            <text id="Email" font-family="Avenir-Book, Avenir" font-size="14" font-weight="normal" fill="#000000">
                <tspan x="0" y="188">Email</tspan>
            </text>
            <text id="Your-email" font-family="Avenir-Book, Avenir" font-size="14" font-weight="normal" fill="#B9B9B9">
                <tspan x="11" y="219">Your email</tspan>
            </text>
            <text id="From" font-family="Avenir-Book, Avenir" font-size="14" font-weight="normal" fill="#000000">
                <tspan x="0" y="266">From</tspan>
            </text>
            <text id="Your-name" font-family="Avenir-Book, Avenir" font-size="14" font-weight="normal" fill="#B9B9B9">
                <tspan x="11" y="297">Your name</tspan>
            </text>
            <text id="Phone-Number" font-family="Avenir-Book, Avenir" font-size="14" font-weight="normal" fill="#000000">
                <tspan x="0" y="341">Phone Number</tspan>
            </text>
            <text id="+1" font-family="Avenir-Book, Avenir" font-size="14" font-weight="normal" fill="#B9B9B9">
                <tspan x="11" y="372">+1</tspan>
            </text>
            <text id="Your-Question" font-family="Avenir-Book, Avenir" font-size="14" font-weight="normal" fill="#000000">
                <tspan x="0" y="425">Your Question</tspan>
            </text>
            <text id="Please-describe-the" font-family="Avenir-Book, Avenir" font-size="14" font-weight="normal" fill="#B9B9B9">
                <tspan x="11" y="456">Please describe the problem you're having.</tspan>
            </text>
            <rect id="Rectangle-6" fill="#D8D8D8" x="0" y="561" width="327" height="35"></rect>
            <text id="Submit" font-family="Avenir-Book, Avenir" font-size="14" font-weight="normal" fill="#FFFFFF">
                <tspan x="141" y="582">Submit</tspan>
            </text>
        </g>
    </g>
</svg>