<?xml version="1.0" encoding="UTF-8" standalone="no"?>
<svg width="370px" height="125px" viewBox="0 0 370 125" version="1.1" xmlns="http://www.w3.org/2000/svg" xmlns:xlink="http://www.w3.org/1999/xlink">
    <!-- Generator: Sketch 39 (31667) - http://www.bohemiancoding.com/sketch -->
    <title>livechat_icon</title>
    <desc>Created with Sketch.</desc>
    <defs></defs>
    <g id="Page-1" stroke="none" stroke-width="1" fill="none" fill-rule="evenodd">
        <g id="v" transform="translate(-115.000000, -69.000000)">
            <g id="Chat-Window">
                <g id="livechat_icon" transform="translate(113.000000, 50.000000)">
                    <text id="Please-provide-the-f" font-family="Avenir-Medium, Avenir" font-size="20" font-weight="400" fill="#FFFFFF">
                        <tspan x="0.65" y="138">Please provide the following information.</tspan>
                    </text>
                    <g id="Live_chat" transform="translate(137.000000, 0.000000)" stroke="#FFFFFF" stroke-linejoin="round">
                        <g id="Page-1" transform="translate(9.000000, 20.000000)">
                            <path d="M33.27128,0 C14.8958133,0 -0.000186666666,11.7104848 -0.000186666666,26.1564848 C-0.000186666666,35.3155758 5.99741333,43.3624242 15.0638133,48.0349697 L15.32888,60.0329091 L25.6907467,51.6046667 C28.13048,52.0518182 30.6598133,52.3129697 33.27128,52.3129697 C51.6467467,52.3129697 66.5427467,40.6024848 66.5427467,26.1564848 C66.5427467,11.7104848 51.6467467,0 33.27128,0 L33.27128,0 Z" id="Stroke-1" stroke-width="2"></path>
                            <path d="M83.12864,36.3947515 C83.12864,26.5254788 72.9515733,18.5237212 60.3963733,18.5237212 C47.84304,18.5237212 37.6659733,26.5254788 37.6659733,36.3947515 C37.6659733,46.2640242 47.84304,54.2657818 60.3963733,54.2657818 C62.0633067,54.2657818 63.6817067,54.1154788 65.2459733,53.8486909 L74.9489067,61.7396 L75.2083733,49.933297 C80.0505067,46.6548121 83.12864,41.811297 83.12864,36.3947515 L83.12864,36.3947515 Z" id="Stroke-3" stroke-width="2"></path>
                        </g>
                    </g>
                </g>
            </g>
        </g>
    </g>
</svg>