<?xml version="1.0" encoding="UTF-8" standalone="no"?>
<svg width="325px" height="675px" viewBox="0 0 325 675" version="1.1" xmlns="http://www.w3.org/2000/svg" xmlns:xlink="http://www.w3.org/1999/xlink">
    <!-- Generator: Sketch 39 (31667) - http://www.bohemiancoding.com/sketch -->
    <title>Group 30</title>
    <desc>Created with Sketch.</desc>
    <defs>
        <polygon id="path-1" points="54.3718 0.646 0.1148 0.646 0.1148 18.7130278 54.3718 18.7130278 54.3718 0.646"></polygon>
    </defs>
    <g id="Page-1" stroke="none" stroke-width="1" fill="none" fill-rule="evenodd">
        <g id="Group-30">
            <g id="Group-9" transform="translate(0.036041, 0.000000)">
                <g id="Group-3">
                    <mask id="mask-2" fill="white">
                        <use xlink:href="#path-1"></use>
                    </mask>
                    <g id="Clip-2"></g>
                    <path d="M43.5128,15.8928 C41.9768,15.7588 40.9508,14.7528 40.8308,13.2718 C40.7548,12.2998 40.7528,11.4938 40.8268,10.7288 C40.9658,9.2878 42.1698,7.9128 43.5108,7.8458 C43.9898,7.8218 45.2718,7.8258 47.5978,7.8348 L54.3718,7.8458 L54.3708,5.0338 C54.3708,5.0338 48.9758,5.0228 47.3578,5.0188 C45.1798,5.0098 44.0858,5.0048 43.3918,5.0338 C41.8658,5.0888 40.5888,5.6338 39.5928,6.6468 C38.6548,7.6018 38.0918,9.1258 38.0078,10.6608 C37.9598,11.4958 37.9468,12.5818 38.0078,13.2268 C38.1638,14.8798 38.6988,16.1808 39.5928,17.0898 C40.5518,18.0678 42.0088,18.6858 43.3938,18.7058 C44.5278,18.7208 54.3708,18.7078 54.3708,18.7078 L54.3708,15.8928 C54.3708,15.8928 51.3778,15.9038 49.8588,15.9148 C46.9848,15.9388 44.2668,15.9588 43.5128,15.8928 L43.5128,15.8928 Z M19.3008,7.9958 L25.9788,7.9958 L25.9788,18.6568 L28.8018,18.6568 L28.8018,7.9958 L35.4778,7.9958 L35.4778,5.1808 L19.3008,5.1808 L19.3008,7.9958 Z M14.7858,6.6358 C13.7068,5.5368 12.0658,5.0798 10.9868,5.0228 C10.0508,4.9718 6.3648,4.9858 5.4978,5.0228 C4.2758,5.0728 3.3908,5.4378 2.9458,5.7738 C2.9418,5.7758 2.9338,5.7738 2.9338,5.7658 L2.9338,0.6458 L0.1148,0.6458 L0.1148,18.7058 L2.9298,18.7078 C2.9298,18.7078 2.8768,11.3158 2.9398,10.5088 C3.0498,9.0788 4.1338,7.9558 5.5108,7.8348 C6.6208,7.7408 9.9408,7.7628 10.9818,7.8348 C12.4118,7.9338 13.4698,9.0568 13.5518,10.5668 C13.5818,11.1218 13.5508,18.7058 13.5508,18.7058 L16.3718,18.7058 C16.3718,18.7058 16.3808,11.1528 16.3718,10.5048 C16.3508,8.9888 15.8188,7.6858 14.7858,6.6358 L14.7858,6.6358 Z" id="Fill-1" fill="#000000" mask="url(#mask-2)"></path>
                </g>
                <g id="Group-8" transform="translate(307.000000, 5.000000)" fill="#000000">
                    <polygon id="Fill-4" points="0.159 2.579 17.034 2.579 17.034 0.329 0.159 0.329"></polygon>
                    <polygon id="Fill-6" points="0.159 7.068 17.034 7.068 17.034 4.818 0.159 4.818"></polygon>
                    <polygon id="Fill-7" points="0.159 11.557 17.034 11.557 17.034 9.307 0.159 9.307"></polygon>
                </g>
            </g>
            <text id="Topic:" font-family="Avenir-Black, Avenir" font-size="14" font-weight="700" fill="#000000">
                <tspan x="1" y="289.306664">Topic: </tspan>
            </text>
            <text id="Product-Issue-/-HTC-One-A9" font-family="Avenir-Book, Avenir" font-size="14" font-weight="normal" fill="#000000">
                <tspan x="1" y="312.306664">Product Issue / HTC One A9</tspan>
            </text>
            <text id="Issue:-" font-family="Avenir-Black, Avenir" font-size="14" font-weight="700" fill="#000000">
                <tspan x="1" y="350.306664">Issue: </tspan>
            </text>
            <text id="Schedule-time:" font-family="Avenir-Black, Avenir" font-size="14" font-weight="700" fill="#000000">
                <tspan x="1" y="202.306664">Schedule time:  </tspan>
            </text>
            <text id="Transfer-my-content-from-my-old-phone?" font-family="Avenir-Book, Avenir" font-size="14" font-weight="normal" fill="#000000">
                <tspan x="1" y="374.306664">Transfer my content from my old phone?</tspan>
            </text>
            <text id="Monday,-May-27th,-20" font-family="Avenir-Book, Avenir" font-size="14" font-weight="normal" fill="#000000">
                <tspan x="1" y="226.306664">Monday, May 27th, 2016 at 11:00AM </tspan>
            </text>
            <text id="Name:-" font-family="Avenir-Black, Avenir" font-size="14" font-weight="700" fill="#000000">
                <tspan x="1" y="428.306664">Name: </tspan>
            </text>
            <path d="M3,397.306664 L325,397.306664" id="Stroke-10" stroke="#ADADAD"></path>
            <path d="M3,258.306664 L325,258.306664" id="Stroke-10-Copy" stroke="#ADADAD"></path>
            <path d="M3,618 L325,618" id="Stroke-11" stroke="#ADADAD"></path>
            <path d="M104.5,674.306664 L215.382706,674.306664" id="Stroke-11-Copy" stroke="#ADADAD"></path>
            <text id="Jamie" font-family="Avenir-Book, Avenir" font-size="14" font-weight="normal" fill="#000000">
                <tspan x="1" y="452.306664">Jamie</tspan>
            </text>
            <text id="Email-address:-" font-family="Avenir-Black, Avenir" font-size="14" font-weight="700" fill="#000000">
                <tspan x="1" y="491.306664">Email address: </tspan>
            </text>
            <text id="jamie@gmail.com" font-family="Avenir-Book, Avenir" font-size="14" font-weight="normal" fill="#000000">
                <tspan x="1" y="515.306664">jamie@gmail.com</tspan>
            </text>
            <text id="Phone-number:" font-family="Avenir-Black, Avenir" font-size="14" font-weight="700" fill="#000000">
                <tspan x="1" y="557.306664">Phone number:</tspan>
            </text>
            <text id="+1-(206)-213-4509" font-family="Avenir-Book, Avenir" font-size="14" font-weight="normal" fill="#000000">
                <tspan x="1" y="581.306664">+1 (206) 213 4509</tspan>
            </text>
            <g id="Group-20" transform="translate(109.000000, 645.306664)" font-size="14" font-family="Avenir-Book, Avenir" fill="#000000" font-weight="normal">
                <text id="Sync-to-calendar">
                    <tspan x="0.396" y="14">Sync to calendar</tspan>
                </text>
            </g>
            <g id="Group-23" transform="translate(42.036041, 53.000000)" font-family="Avenir-Book, Avenir" fill="#000000" font-weight="normal">
                <text id="We-will-call-you-at" font-size="14">
                    <tspan x="2.8745" y="48.1210363">We will call you at the scheduled time </tspan>
                    <tspan x="41.1085" y="67.1210363">to answer your questions. </tspan>
                </text>
                <text id="Thank-you,-Jamie." font-size="18">
                    <tspan x="41.6523" y="18.7738483">Thank you, Jamie.</tspan>
                </text>
            </g>
        </g>
    </g>
</svg>