<!-- Generator: Adobe Illustrator 18.0.0, SVG Export Plug-In  -->
<svg version="1.1"
	 xmlns="http://www.w3.org/2000/svg" xmlns:xlink="http://www.w3.org/1999/xlink" xmlns:a="http://ns.adobe.com/AdobeSVGViewerExtensions/3.0/"
	 x="0px" y="0px" width="282px" height="407.193px" viewBox="0 0 282 407.193" style="enable-background:new 0 0 282 407.193;"
	 xml:space="preserve">
<defs>
</defs>
<rect x="0" y="3.26" style="fill:none;" width="282" height="25.711"/>
<text transform="matrix(1 0 0 1 73.9921 15.3596)" style="font-family:'Avenir-Book'; font-size:16;">Monday, May 27th</text>
<rect x="0" y="66.298" style="fill:none;" width="282" height="25.711"/>
<text transform="matrix(1 0 0 1 71.1845 78.3928)" style="font-family:'Avenir-Book'; font-size:16;"> Tuseday, May 28th</text>
<rect x="0" y="129.335" style="fill:none;" width="282" height="25.711"/>
<text transform="matrix(1 0 0 1 61.1125 141.4299)" style="font-family:'Avenir-Book'; font-size:16;">Wednesday, May 29th</text>
<rect x="0" y="192.372" style="fill:none;" width="282" height="25.711"/>
<text transform="matrix(1 0 0 1 68.5285 204.468)" style="font-family:'Avenir-Book'; font-size:16;"> Thursday, May 30th</text>
<rect x="0" y="255.409" style="fill:none;" width="282" height="25.711"/>
<text transform="matrix(1 0 0 1 81.2805 267.5051)" style="font-family:'Avenir-Book'; font-size:16;">Friday, May 31th</text>
<rect x="0" y="318.445" style="fill:none;" width="282" height="25.711"/>
<text transform="matrix(1 0 0 1 75.3606 330.5413)" style="font-family:'Avenir-Book'; font-size:16;">Saturday, June 1st</text>
<g>
	<rect x="0" y="381.483" style="fill:none;" width="282" height="25.711"/>
	<text transform="matrix(1 0 0 1 77.1042 393.5784)" style="font-family:'Avenir-Book'; font-size:16;">Sunday, June 2nd</text>
</g>
<line style="fill:none;stroke:#CBCBCB;stroke-width:0.9352;stroke-miterlimit:10;" x1="1.747" y1="160.427" x2="264.086" y2="160.427"/>
<line style="fill:none;stroke:#CBCBCB;stroke-width:0.9352;stroke-miterlimit:10;" x1="1.747" y1="224.555" x2="264.086" y2="224.555"/>
<line style="fill:none;stroke:#CBCBCB;stroke-width:0.9352;stroke-miterlimit:10;" x1="1.747" y1="288.684" x2="264.086" y2="288.684"/>
<line style="fill:none;stroke:#CBCBCB;stroke-width:0.9352;stroke-miterlimit:10;" x1="1.747" y1="352.813" x2="264.086" y2="352.813"/>
<line style="fill:none;stroke:#CBCBCB;stroke-width:0.9352;stroke-miterlimit:10;" x1="1.747" y1="32.169" x2="264.086" y2="32.169"/>
<line style="fill:none;stroke:#CBCBCB;stroke-width:0.9352;stroke-miterlimit:10;" x1="1.747" y1="96.298" x2="264.086" y2="96.298"/>
</svg>
