<?xml version="1.0" encoding="UTF-8" standalone="no"?>
<svg width="351px" height="21px" viewBox="0 0 351 21" version="1.1" xmlns="http://www.w3.org/2000/svg" xmlns:xlink="http://www.w3.org/1999/xlink">
    <!-- Generator: Sketch 39 (31667) - http://www.bohemiancoding.com/sketch -->
    <title>btn</title>
    <desc>Created with Sketch.</desc>
    <defs>
        <polygon id="path-1" points="9.87304054 13.1612903 0 13.1612903 0 0.00520967742 19.7460811 0.00520967742 19.7460811 13.1612903 9.87304054 13.1612903"></polygon>
        <polygon id="path-3" points="0 16.971429 19.7462162 16.971429 19.7462162 -5.48387097e-05 0 -5.48387097e-05"></polygon>
    </defs>
    <g id="Page-1" stroke="none" stroke-width="1" fill="none" fill-rule="evenodd">
        <g id="5.3.5-Preview-form" transform="translate(-799.000000, -1215.000000)">
            <g id="Preview" transform="translate(210.000000, 291.000000)">
                <g id="btn" transform="translate(587.000000, 922.000000)">
                    <g id="Print-it-out">
                        <text font-family="Avenir-Medium, Avenir" font-size="16" font-weight="400" fill="#000000">
                            <tspan x="32" y="17">Print it out</tspan>
                        </text>
                        <g id="Print_it_out">
                            <g id="Page-1" transform="translate(2.000000, 3.000000)">
                                <g id="Group-3" transform="translate(0.000000, 3.810139)">
                                    <mask id="mask-2" fill="white">
                                        <use xlink:href="#path-1"></use>
                                    </mask>
                                    <g id="Clip-2"></g>
                                    <path d="M19.7460811,13.1612903 L-0.000135135135,13.1612903 L-0.000135135135,3.45483871 C-0.000135135135,1.55275806 1.52527027,0.00520967742 3.40040541,0.00520967742 L4.19040541,0.00520967742 L4.19040541,1.37617742 L3.40040541,1.37617742 C2.27040541,1.37617742 1.35121622,2.30870968 1.35121622,3.45483871 L1.35121622,11.7903226 L18.3947297,11.7903226 L18.3947297,3.45483871 C18.3947297,2.30870968 17.4755405,1.37617742 16.3455405,1.37617742 L15.6036486,1.37617742 L15.6036486,0.00520967742 L16.3455405,0.00520967742 C18.2204054,0.00520967742 19.7460811,1.55275806 19.7460811,3.45483871 L19.7460811,13.1612903 Z" id="Fill-1" fill="#000000" mask="url(#mask-2)"></path>
                                </g>
                                <mask id="mask-4" fill="white">
                                    <use xlink:href="#path-3"></use>
                                </mask>
                                <g id="Clip-5"></g>
                                <path d="M4.77783784,9.09028387 L14.9681081,9.09028387 L14.9681081,1.3709129 L4.77783784,1.3709129 L4.77783784,9.09028387 Z M3.42648649,10.4612516 L16.3194595,10.4612516 L16.3194595,-5.48387097e-05 L3.42648649,-5.48387097e-05 L3.42648649,10.4612516 Z" id="Fill-4" fill="#000000" mask="url(#mask-4)"></path>
                                <polygon id="Fill-6" fill="#000000" mask="url(#mask-4)" points="6 4 14 4 14 3 6 3"></polygon>
                                <polygon id="Fill-6-Copy" fill="#000000" mask="url(#mask-4)" points="6 7 14 7 14 6 6 6"></polygon>
                            </g>
                        </g>
                    </g>
                    <g id="Sync-with-my-calendar" transform="translate(160.000000, 0.000000)">
                        <text id="Sync-with-my-calenda" font-family="Avenir-Medium, Avenir" font-size="16" font-weight="400" fill="#000000">
                            <tspan x="32" y="16">Sync with my calendar</tspan>
                        </text>
                        <g id="Calendar" stroke="#000000">
                            <g id="Page-1" transform="translate(1.000000, 3.000000)">
                                <path d="M19.2951423,18.4236955 L2.84306538,18.4236955 C1.51702692,18.4236955 0.442219231,17.3743773 0.442219231,16.0797864 L0.442219231,6.73437727 C0.442219231,5.43978636 1.51702692,4.39046818 2.84306538,4.39046818 L19.2951423,4.39046818 C20.6211808,4.39046818 21.6959885,5.43978636 21.6959885,6.73437727 L21.6959885,16.0797864 C21.6959885,17.3743773 20.6211808,18.4236955 19.2951423,18.4236955 L19.2951423,18.4236955 Z" id="Stroke-1" stroke-width="1.5"></path>
                                <polygon id="Stroke-3" stroke-width="1.5" points="5.15996154 8.40708182 7.81380769 8.40708182 7.81380769 0.431559091 5.15996154 0.431559091"></polygon>
                                <polygon id="Stroke-5" stroke-width="1.5" points="13.8468846 8.40708182 16.5007308 8.40708182 16.5007308 0.431559091 13.8468846 0.431559091"></polygon>
                            </g>
                        </g>
                    </g>
                </g>
            </g>
        </g>
    </g>
</svg>