<?xml version="1.0" encoding="UTF-8" standalone="no"?>
<svg width="700px" height="187px" viewBox="0 0 700 187" version="1.1" xmlns="http://www.w3.org/2000/svg" xmlns:xlink="http://www.w3.org/1999/xlink">
    <!-- Generator: Sketch 39 (31667) - http://www.bohemiancoding.com/sketch -->
    <title>issue</title>
    <desc>Created with Sketch.</desc>
    <defs>
        <rect id="path-1" x="0" y="35" width="700" height="50"></rect>
        <mask id="mask-2" maskContentUnits="userSpaceOnUse" maskUnits="objectBoundingBox" x="0" y="0" width="700" height="50" fill="white">
            <use xlink:href="#path-1"></use>
        </mask>
    </defs>
    <g id="Page-1" stroke="none" stroke-width="1" fill="none" fill-rule="evenodd">
        <g id="5.3.1-Bring-for-repair-Landing-page" transform="translate(-450.000000, -530.000000)">
            <g id="Bring-for-repairs" transform="translate(211.000000, 291.000000)">
                <g id="issue" transform="translate(239.000000, 235.000000)">
                    <g id="Search-Location" transform="translate(0.000000, 106.000000)">
                        <use id="Rectangle-3" stroke="#DADADA" mask="url(#mask-2)" stroke-width="6" xlink:href="#path-1"></use>
                        <text id="Current-Location" font-family="Avenir-Medium, Avenir" font-size="16" font-weight="400" fill="#A5A5A5">
                            <tspan x="20" y="65">Current Location</tspan>
                        </text>
                        <g id="Current_location" transform="translate(663.000000, 48.000000)">
                            <g id="Page-1" transform="translate(1.000000, 1.000000)">
                                <path d="M16.03151,11.02563 C16.03151,13.74593 13.82601,15.95253 11.10461,15.95253 C8.38431,15.95253 6.17881,13.74593 6.17881,11.02563 C6.17881,8.30533 8.38431,6.09873 11.10461,6.09873 C13.82601,6.09873 16.03151,8.30533 16.03151,11.02563" id="Fill-1" fill="#58C4DD"></path>
                                <path d="M18.40652,11.02563 C18.40652,15.05823 15.13732,18.32743 11.10472,18.32743 C7.07212,18.32743 3.80402,15.05823 3.80402,11.02563 C3.80402,6.99303 7.07212,3.72383 11.10472,3.72383 C15.13732,3.72383 18.40652,6.99303 18.40652,11.02563 L18.40652,11.02563 Z" id="Stroke-3" stroke="#29A6DD" stroke-width="0.769"></path>
                                <path d="M11.55,18.7 L11.55,22" id="Stroke-5" stroke="#29A6DD"></path>
                                <path d="M11.55,0 L11.55,3.85" id="Stroke-7" stroke="#29A6DD"></path>
                                <path d="M3.85,11.55 L0,11.55" id="Stroke-9" stroke="#29A6DD"></path>
                                <path d="M22,11.55 L18.7,11.55" id="Stroke-11" stroke="#29A6DD"></path>
                            </g>
                        </g>
                        <text font-family="Avenir-Book, Avenir" font-size="20" font-weight="normal" fill="#404040">
                            <tspan x="0" y="20">Search Location</tspan>
                        </text>
                    </g>
                    <text id="Issue-:-Transfer-my" font-family="Avenir-Book, Avenir" font-size="20" font-weight="normal">
                        <tspan x="0" y="73" fill="#404040">Issue : </tspan>
                        <tspan x="61.24" y="73" font-family="Avenir-Medium, Avenir" font-weight="400" fill="#000000">Transfer my content from my old phone?</tspan>
                    </text>
                    <text id="Topic-:-Product-Issu" font-family="Avenir-Book, Avenir" font-size="20" font-weight="normal">
                        <tspan x="0" y="20" fill="#404040">Topic : </tspan>
                        <tspan x="64.46" y="20" font-family="Avenir-Medium, Avenir" font-weight="400" fill="#000000">Product Issue / HTC One A9</tspan>
                    </text>
                </g>
            </g>
        </g>
    </g>
</svg>