<!-- Generator: Adobe Illustrator 18.0.0, SVG Export Plug-In  -->
<svg version="1.1"
	 xmlns="http://www.w3.org/2000/svg" xmlns:xlink="http://www.w3.org/1999/xlink" xmlns:a="http://ns.adobe.com/AdobeSVGViewerExtensions/3.0/"
	 x="0px" y="0px" width="313px" height="124.078px" viewBox="0 0 313 124.078" style="enable-background:new 0 0 313 124.078;"
	 xml:space="preserve">
<defs>
</defs>
<g>
	<text transform="matrix(1 0 0 1 1.5078 16.3341)" style="fill:#808080; font-family:'Avenir-Book'; font-size:15.75;">Current location</text>
</g>
<line style="fill:none;stroke:#989898;stroke-miterlimit:10;" x1="0" y1="33.5" x2="313" y2="33.5"/>
<g>
	<g>
		<text transform="matrix(1 0 0 1 278.835 119.4765)" style="fill:#808080; font-family:'Avenir-Medium'; font-size:11.25;">1.1Km</text>
	</g>
	<g>
		<text transform="matrix(1 0 0 1 1.5078 92.664)" style="fill:#808080; font-family:'Avenir-Book'; font-size:13.5;">701, 5th Ave Street 303, Seattle</text>
	</g>
	<g>
		<text transform="matrix(1 0 0 1 1.5078 116.2881)" style="fill:#808080; font-family:'Avenir-Book'; font-size:13.5;">Tel : (1) 203-422-189</text>
	</g>
	<text transform="matrix(1 0 0 1 1.5078 68.7501)" style="font-family:'Avenir-Medium'; font-size:15.75;">Seattle Pioneer Square</text>
</g>
<g>
	<g>
		<circle style="fill:#58C3DC;" cx="296.29" cy="11.233" r="5.038"/>
		<circle style="fill:none;stroke:#29A5DC;stroke-width:0.8654;stroke-miterlimit:10;" cx="296.29" cy="11.233" r="7.467"/>
	</g>
	<line style="fill:none;stroke:#29A5DC;stroke-miterlimit:10;" x1="296.5" y1="20" x2="296.5" y2="23"/>
	<line style="fill:none;stroke:#29A5DC;stroke-miterlimit:10;" x1="296.5" y1="0" x2="296.5" y2="4"/>
	<line style="fill:none;stroke:#29A5DC;stroke-miterlimit:10;" x1="288" y1="12.5" x2="285" y2="12.5"/>
	<line style="fill:none;stroke:#29A5DC;stroke-miterlimit:10;" x1="308" y1="12.5" x2="304" y2="12.5"/>
</g>
</svg>
