<!-- Generator: Adobe Illustrator 18.0.0, SVG Export Plug-In  -->
<svg version="1.1"
	 xmlns="http://www.w3.org/2000/svg" xmlns:xlink="http://www.w3.org/1999/xlink" xmlns:a="http://ns.adobe.com/AdobeSVGViewerExtensions/3.0/"
	 x="0px" y="0px" width="282px" height="365.35px" viewBox="0 0 282 365.35" style="enable-background:new 0 0 282 365.35;"
	 xml:space="preserve">
<defs>
</defs>
<rect x="0" y="3.263" style="fill:none;" width="282" height="25.711"/>
<text transform="matrix(1 0 0 1 73.9921 15.3596)" style="font-family:'Avenir-Book'; font-size:16;">Monday, May 27th</text>
<rect x="0" y="60.296" style="fill:none;" width="282" height="25.711"/>
<text transform="matrix(1 0 0 1 71.1843 72.3928)" style="font-family:'Avenir-Book'; font-size:16;"> Tuseday, May 28th</text>
<rect x="0" y="118.345" style="fill:none;" width="282" height="25.711"/>
<text transform="matrix(1 0 0 1 61.1123 130.4415)" style="font-family:'Avenir-Book'; font-size:16;">Wednesday, May 29th</text>
<rect x="0" y="175.19" style="fill:none;" width="282" height="25.711"/>
<text transform="matrix(1 0 0 1 68.5283 187.2874)" style="font-family:'Avenir-Book'; font-size:16;"> Thursday, May 30th</text>
<rect x="0" y="231.397" style="fill:none;" width="282" height="25.711"/>
<text transform="matrix(1 0 0 1 81.2802 243.4944)" style="font-family:'Avenir-Book'; font-size:16;">Friday, May 31th</text>
<rect x="0" y="289.047" style="fill:none;" width="282" height="25.711"/>
<text transform="matrix(1 0 0 1 75.3603 301.1448)" style="font-family:'Avenir-Book'; font-size:16;">Saturday, June 1st</text>
<g>
	<rect x="0" y="339.64" style="fill:none;" width="282" height="25.711"/>
	<text transform="matrix(1 0 0 1 77.1035 351.7365)" style="font-family:'Avenir-Book'; font-size:16;">Sunday, June 2nd</text>
</g>
<line style="fill:none;stroke:#CBCBCB;stroke-width:0.9352;stroke-miterlimit:10;" x1="1.747" y1="28.973" x2="264.086" y2="28.973"/>
<line style="fill:none;stroke:#CBCBCB;stroke-width:0.9352;stroke-miterlimit:10;" x1="1.747" y1="86.007" x2="264.086" y2="86.007"/>
<line style="fill:none;stroke:#CBCBCB;stroke-width:0.9352;stroke-miterlimit:10;" x1="1.747" y1="143.04" x2="264.086" y2="143.04"/>
<line style="fill:none;stroke:#CBCBCB;stroke-width:0.9352;stroke-miterlimit:10;" x1="1.747" y1="200.074" x2="264.086" y2="200.074"/>
<line style="fill:none;stroke:#CBCBCB;stroke-width:0.9352;stroke-miterlimit:10;" x1="1.747" y1="257.108" x2="264.086" y2="257.108"/>
<line style="fill:none;stroke:#CBCBCB;stroke-width:0.9352;stroke-miterlimit:10;" x1="1.747" y1="314.141" x2="264.086" y2="314.141"/>
</svg>
