<!-- Generator: Adobe Illustrator 18.0.0, SVG Export Plug-In  -->
<svg version="1.1"
	 xmlns="http://www.w3.org/2000/svg" xmlns:xlink="http://www.w3.org/1999/xlink" xmlns:a="http://ns.adobe.com/AdobeSVGViewerExtensions/3.0/"
	 x="0px" y="0px" width="318.119px" height="417.077px" viewBox="0 0 318.119 417.077"
	 style="enable-background:new 0 0 318.119 417.077;" xml:space="preserve">
<defs>
</defs>
<g>
	<rect x="0" y="3.213" style="fill:none;" width="317.25" height="28.924"/>
	<text transform="matrix(1 0 0 1 124.3218 15.1206)" style="font-family:'Avenir-Book'; font-size:15.75;">9 : 00 AM</text>
	<rect x="0" y="67.376" style="fill:none;" width="317.25" height="28.924"/>
	<text transform="matrix(1 0 0 1 124.3218 79.2843)" style="font-family:'Avenir-Book'; font-size:15.75;">9 : 30 AM</text>
	<rect x="0" y="132.68" style="fill:none;" width="317.25" height="28.924"/>
	<text transform="matrix(1 0 0 1 119.9439 144.5879)" style="font-family:'Avenir-Book'; font-size:15.75;">10 : 00 AM</text>
	<rect x="0" y="196.632" style="fill:none;" width="317.25" height="28.924"/>
	<text transform="matrix(1 0 0 1 119.9439 208.5388)" style="font-family:'Avenir-Book'; font-size:15.75;">10 : 30 AM</text>
	<rect x="0" y="259.864" style="fill:none;" width="317.25" height="28.924"/>
	<text transform="matrix(1 0 0 1 119.9439 271.7727)" style="font-family:'Avenir-Book'; font-size:15.75;">11 : 00 AM</text>
	<rect x="0" y="324.721" style="fill:none;" width="317.25" height="28.924"/>
	<text transform="matrix(1 0 0 1 119.9439 336.6289)" style="font-family:'Avenir-Book'; font-size:15.75;">11 : 30 AM</text>
	<g>
		<rect x="0.868" y="381.637" style="fill:none;" width="317.25" height="28.924"/>
		<text transform="matrix(1 0 0 1 120.8104 393.5452)" style="font-family:'Avenir-Book'; font-size:15.75;">12 : 00 AM</text>
	</g>
	
		<line style="fill:none;stroke:#CBCBCB;stroke-width:1.0521;stroke-miterlimit:10;" x1="2.744" y1="32.138" x2="297.875" y2="32.138"/>
	
		<line style="fill:none;stroke:#CBCBCB;stroke-width:1.0521;stroke-miterlimit:10;" x1="2.744" y1="96.301" x2="297.875" y2="96.301"/>
	
		<line style="fill:none;stroke:#CBCBCB;stroke-width:1.0521;stroke-miterlimit:10;" x1="2.744" y1="160.463" x2="297.875" y2="160.463"/>
	
		<line style="fill:none;stroke:#CBCBCB;stroke-width:1.0521;stroke-miterlimit:10;" x1="2.744" y1="224.626" x2="297.875" y2="224.626"/>
	
		<line style="fill:none;stroke:#CBCBCB;stroke-width:1.0521;stroke-miterlimit:10;" x1="2.744" y1="288.789" x2="297.875" y2="288.789"/>
	
		<line style="fill:none;stroke:#CBCBCB;stroke-width:1.0521;stroke-miterlimit:10;" x1="2.744" y1="352.952" x2="297.875" y2="352.952"/>
	
		<line style="fill:none;stroke:#CBCBCB;stroke-width:1.0521;stroke-miterlimit:10;" x1="2.744" y1="416.551" x2="297.875" y2="416.551"/>
</g>
</svg>
