<!-- Generator: Adobe Illustrator 18.0.0, SVG Export Plug-In  -->
<svg version="1.1"
	 xmlns="http://www.w3.org/2000/svg" xmlns:xlink="http://www.w3.org/1999/xlink" xmlns:a="http://ns.adobe.com/AdobeSVGViewerExtensions/3.0/"
	 x="0px" y="0px" width="309.841px" height="279.327px" viewBox="0 0 309.841 279.327"
	 style="enable-background:new 0 0 309.841 279.327;" xml:space="preserve">
<defs>
</defs>
<g>
	<text transform="matrix(1 0 0 1 277.328 65.8799)" style="fill:#808080; font-family:'Avenir-Medium'; font-size:11.25;">2.3Km</text>
</g>
<g>
	<text transform="matrix(1 0 0 1 1.220703e-04 39.0654)" style="fill:#808080; font-family:'Avenir-Book'; font-size:13.5;">999 Third Avenue, Seattle</text>
</g>
<g>
	<text transform="matrix(1 0 0 1 1.220703e-04 62.6904)" style="fill:#808080; font-family:'Avenir-Book'; font-size:13.5;">Tel : (1) 206-623-3425</text>
</g>
<text transform="matrix(1 0 0 1 1.220703e-04 15.1514)" style="font-family:'Avenir-Medium'; font-size:15.75;">3rd &amp; Madison</text>
<g>
	<text transform="matrix(1 0 0 1 277.328 171.8975)" style="fill:#808080; font-family:'Avenir-Medium'; font-size:11.25;">3.4Km</text>
</g>
<g>
	<text transform="matrix(1 0 0 1 1.220703e-04 145.084)" style="fill:#808080; font-family:'Avenir-Book'; font-size:13.5;">701 5th Avenue, Seattle</text>
</g>
<g>
	<text transform="matrix(1 0 0 1 1.220703e-04 168.708)" style="fill:#808080; font-family:'Avenir-Book'; font-size:13.5;">Tel : (1) 206-623-3425</text>
</g>
<text transform="matrix(1 0 0 1 1.220703e-04 121.1689)" style="font-family:'Avenir-Medium'; font-size:15.75;">Columbia Tower 40th Floor</text>
<g>
	<text transform="matrix(1 0 0 1 277.328 274.7256)" style="fill:#808080; font-family:'Avenir-Medium'; font-size:11.25;">4.1Km</text>
</g>
<g>
	<text transform="matrix(1 0 0 1 1.220703e-04 251.1016)" style="fill:#808080; font-family:'Avenir-Book'; font-size:13.5;">1125 4th Avenue, Seattle</text>
</g>
<g>
	<text transform="matrix(1 0 0 1 1.220703e-04 274.7246)" style="fill:#808080; font-family:'Avenir-Book'; font-size:13.5;">Tel : (1) 206-623-3425</text>
</g>
<text transform="matrix(1 0 0 1 1.220703e-04 227.1875)" style="font-family:'Avenir-Medium'; font-size:15.75;">4th &amp; Seneca</text>
</svg>
