<!-- Generator: Adobe Illustrator 18.0.0, SVG Export Plug-In  -->
<svg version="1.1"
	 xmlns="http://www.w3.org/2000/svg" xmlns:xlink="http://www.w3.org/1999/xlink" xmlns:a="http://ns.adobe.com/AdobeSVGViewerExtensions/3.0/"
	 x="0px" y="0px" width="356.166px" height="1276.3px" viewBox="0 0 356.166 1276.3"
	 style="enable-background:new 0 0 356.166 1276.3;" xml:space="preserve">
<defs>
	<symbol  id="Community" viewBox="-26.018 -17.872 52.036 35.744">
		<path style="fill:#FFFFFF;stroke:#000000;stroke-width:2;stroke-miterlimit:10;" d="M22.117,5.573
			c0,2.895-2.347,5.242-5.242,5.242s-5.242-2.347-5.242-5.242s2.347-5.242,5.242-5.242S22.117,2.678,22.117,5.573z"/>
		<path style="fill:#FFFFFF;stroke:#000000;stroke-width:2;stroke-miterlimit:10;" d="M25.018-12.429
			c0,5.505-3.646,9.043-8.143,9.043s-8.143-3.537-8.143-9.043H25.018z"/>
		<path style="fill:#FFFFFF;stroke:#000000;stroke-width:2;stroke-miterlimit:10;" d="M-11.633,5.573
			c0,2.895-2.347,5.242-5.242,5.242s-5.242-2.347-5.242-5.242s2.347-5.242,5.242-5.242S-11.633,2.678-11.633,5.573z"/>
		<path style="fill:#FFFFFF;stroke:#000000;stroke-width:2;stroke-miterlimit:10;" d="M-8.732-12.429
			c0,5.505-3.646,9.043-8.143,9.043s-8.143-3.537-8.143-9.043H-8.732z"/>
		<path style="fill:#FFFFFF;stroke:#000000;stroke-width:2;stroke-miterlimit:10;" d="M8.079,8.802c0,4.457-3.613,8.07-8.07,8.07
			s-8.07-3.613-8.07-8.07s3.613-8.07,8.07-8.07S8.079,4.345,8.079,8.802z"/>
		<path style="fill:#FFFFFF;stroke:#000000;stroke-width:2;stroke-miterlimit:10;" d="M11.622-16.872
			c0,7.851-5.199,12.896-11.613,12.896s-11.613-5.045-11.613-12.896H11.622z"/>
	</symbol>
</defs>
<g style="opacity:0.8;">
	<rect x="0" y="47.483" width="356.166" height="1.12"/>
</g>
<g style="opacity:0.8;">
	<path d="M33.833,5.963c-1.067-1.094-2.691-1.549-3.759-1.606c-0.926-0.05-4.573-0.037-5.43,0c-1.209,0.051-2.085,0.414-2.525,0.748
		c-0.004,0.002-0.012,0-0.012-0.009V0h-2.789v17.98l2.785,0.002c0,0-0.052-7.359,0.011-8.162c0.109-1.424,1.18-2.542,2.543-2.663
		c1.098-0.094,4.383-0.072,5.413,0c1.414,0.099,2.461,1.217,2.542,2.72c0.029,0.553-0.001,8.103-0.001,8.103h2.791
		c0,0,0.009-7.519,0-8.164C35.382,8.306,34.855,7.009,33.833,5.963 M38.3,7.318h6.606v10.614H47.7V7.318h6.604V4.515H38.3V7.318z
		 M62.254,15.18c-1.52-0.134-2.535-1.135-2.653-2.61c-0.075-0.967-0.077-1.77-0.004-2.531c0.138-1.435,1.329-2.804,2.655-2.87
		c0.474-0.024,1.742-0.02,4.043-0.011l6.702,0.011l-0.001-2.8c0,0-5.337-0.011-6.938-0.015c-2.155-0.009-3.237-0.013-3.924,0.015
		c-1.51,0.055-2.773,0.597-3.759,1.606c-0.928,0.952-1.485,2.468-1.568,3.997c-0.047,0.831-0.06,1.912,0,2.555
		c0.154,1.646,0.684,2.94,1.568,3.846c0.949,0.974,2.39,1.588,3.761,1.608c1.122,0.015,10.859,0.002,10.859,0.002V15.18
		c0,0-2.961,0.011-4.464,0.022C65.689,15.226,63,15.245,62.254,15.18"/>
</g>
<g style="opacity:0.8;">
	<rect x="323.093" y="4.663" width="16.695" height="2.24"/>
	<rect x="323.093" y="9.132" width="16.695" height="2.24"/>
	<rect x="323.093" y="13.602" width="16.695" height="2.24"/>
</g>
<g>
	<text transform="matrix(1 0 0 1 133.7785 647.6753)" style="font-family:'Avenir-Book'; font-size:18;">Learn more</text>
</g>
<g>
	<rect x="20.853" y="214.471" style="fill:none;" width="320.475" height="124.852"/>
	<text transform="matrix(1 0 0 1 20.853 224.3)"><tspan x="0" y="0" style="font-family:'Avenir-Book'; font-size:13;">On your old Android phone, download the HTC Trans</tspan><tspan x="313.244" y="0" style="font-family:'Avenir-Book'; font-size:13;">-</tspan><tspan x="0" y="14" style="font-family:'Avenir-Book'; font-size:13;">fer Tool and use it to transfer your content to HTC One </tspan><tspan x="0" y="28" style="font-family:'Avenir-Book'; font-size:13;">A9.</tspan><tspan x="0" y="51.006" style="font-family:'Avenir-Book'; font-size:13;">The types of locally stored content on your old phone </tspan><tspan x="0" y="65.006" style="font-family:'Avenir-Book'; font-size:13;">that the HTC Transfer Tool can transfer include con</tspan><tspan x="296.085" y="65.006" style="font-family:'Avenir-Book'; font-size:13;">-</tspan><tspan x="0" y="79.006" style="font-family:'Avenir-Book'; font-size:13;">tacts, messages, calendar events, music, photos, </tspan><tspan x="0" y="93.006" style="font-family:'Avenir-Book'; font-size:13;">videos, and some settings. More types of data such as </tspan><tspan x="0" y="107.006" style="font-family:'Avenir-Book'; font-size:13;">call histories, email accounts.</tspan></text>
</g>
<g>
	<rect x="20.853" y="364.681" style="fill:none;" width="320.475" height="41.167"/>
	<text transform="matrix(1 0 0 1 20.853 374.5109)"><tspan x="0" y="0" style="font-family:'Avenir-Medium'; font-size:13;">Important : </tspan><tspan x="69.602" y="0" style="font-family:'Avenir-Book'; font-size:13;">Android version 2.2 or later to use the HTC </tspan><tspan x="0" y="14" style="font-family:'Avenir-Book'; font-size:13;">Transfer Tool. </tspan></text>
</g>
<g>
	<rect x="47.7" y="435.621" style="fill:none;" width="276.721" height="41.167"/>
	<text transform="matrix(1 0 0 1 47.7001 445.4503)"><tspan x="0" y="0" style="font-family:'Avenir-Book'; font-size:13;">From the Home screen, tap   &gt; Settings &gt; Get </tspan><tspan x="0" y="14" style="font-family:'Avenir-Book'; font-size:13;">content from another phone.</tspan></text>
</g>
<g>
	<text transform="matrix(1 0 0 1 22.5485 456.2043)" style="font-family:'Avenir-Book'; font-size:24;">1</text>
</g>
<g>
	<rect x="47.7" y="492.597" style="fill:none;" width="276.721" height="41.167"/>
	<text transform="matrix(1 0 0 1 47.7001 502.4265)"><tspan x="0" y="0" style="font-family:'Avenir-Book'; font-size:13;">Choose whether to transfer from an HTC </tspan><tspan x="0" y="14" style="font-family:'Avenir-Book'; font-size:13;">Android phone or other Android phone.</tspan></text>
</g>
<g>
	<text transform="matrix(1 0 0 1 22.5485 513.1804)" style="font-family:'Avenir-Book'; font-size:24;">2</text>
</g>
<rect x="22.551" y="152.489" style="fill:none;" width="313.217" height="41.899"/>
<text transform="matrix(1 0 0 1 22.5505 164.6466)"><tspan x="0" y="0" style="font-family:'Avenir-Book'; font-size:16.0807;">Transferring content from an Android </tspan><tspan x="0" y="19.297" style="font-family:'Avenir-Book'; font-size:16.0807;">phone</tspan></text>
<rect x="18.247" y="136.614" style="fill:none;" width="323.081" height="435.414"/>
<g>
	<g>
		<g>
			<path style="fill:#4D4D4D;" d="M270.112,559.457c-11.368,0-17.142-2.677-22.725-5.265c-5.482-2.541-11.151-5.169-22.291-5.169
				c-11.139,0-16.807,2.628-22.288,5.169c-5.583,2.588-11.356,5.265-22.722,5.265c-11.367,0-17.14-2.677-22.723-5.265
				c-5.482-2.541-11.15-5.169-22.289-5.169c-11.139,0-16.807,2.628-22.288,5.169c-5.583,2.588-11.356,5.265-22.722,5.265
				c-11.366,0-17.139-2.677-22.722-5.265c-5.481-2.541-11.149-5.169-22.288-5.169v-1.043c11.366,0,17.139,2.677,22.722,5.265
				c5.481,2.541,11.149,5.169,22.288,5.169c11.139,0,16.807-2.628,22.288-5.169c5.583-2.588,11.356-5.265,22.722-5.265
				c11.367,0,17.14,2.677,22.723,5.265c5.482,2.541,11.15,5.169,22.289,5.169c11.139,0,16.807-2.628,22.288-5.169
				c5.583-2.588,11.356-5.265,22.722-5.265c11.368,0,17.142,2.677,22.725,5.265c5.482,2.541,11.151,5.169,22.291,5.169
				c11.141,0,16.809-2.628,22.292-5.169c5.584-2.588,11.357-5.265,22.725-5.265v1.043c-11.141,0-16.809,2.628-22.291,5.169
				C287.254,556.78,281.48,559.457,270.112,559.457z"/>
		</g>
	</g>
	<g>
		<g>
			<path style="fill:#4D4D4D;" d="M270.112,579.719c-11.368,0-17.142-2.677-22.725-5.265c-5.482-2.541-11.151-5.169-22.291-5.169
				c-11.139,0-16.807,2.628-22.288,5.169c-5.583,2.588-11.356,5.265-22.722,5.265c-11.367,0-17.14-2.677-22.723-5.265
				c-5.482-2.541-11.15-5.169-22.289-5.169c-11.139,0-16.807,2.628-22.288,5.169c-5.583,2.588-11.356,5.265-22.722,5.265
				c-11.366,0-17.139-2.677-22.722-5.265c-5.481-2.541-11.149-5.169-22.288-5.169v-1.043c11.366,0,17.139,2.677,22.722,5.265
				c5.481,2.541,11.149,5.169,22.288,5.169c11.139,0,16.807-2.628,22.288-5.169c5.583-2.589,11.356-5.265,22.722-5.265
				c11.367,0,17.14,2.677,22.723,5.265c5.482,2.541,11.15,5.169,22.289,5.169c11.139,0,16.807-2.628,22.288-5.169
				c5.583-2.589,11.356-5.265,22.722-5.265c11.368,0,17.142,2.677,22.725,5.265c5.482,2.541,11.151,5.169,22.291,5.169
				c11.141,0,16.809-2.628,22.292-5.169c5.584-2.589,11.357-5.265,22.725-5.265v1.043c-11.141,0-16.809,2.628-22.291,5.169
				C287.254,577.043,281.48,579.719,270.112,579.719z"/>
		</g>
	</g>
</g>
<g style="opacity:0.8;">
	<rect x="18.838" y="607.319" width="321.047" height="1.126"/>
</g>
<g style="opacity:0.8;">
	<rect x="18.838" y="799.296" width="321.047" height="1.126"/>
</g>
<g style="opacity:0.8;">
	<rect x="18.838" y="871.509" width="321.047" height="1.126"/>
</g>
<g style="opacity:0.8;">
	<rect x="18.838" y="1086.351" width="321.047" height="1.126"/>
</g>
<g>
	<rect x="20.853" y="830.948" style="fill:none;" width="224.195" height="21.531"/>
	<text transform="matrix(1 0 0 1 20.853 840.7772)" style="font-family:'Avenir-Book'; font-size:13;">Was this information helpful?</text>
</g>
<g>
	<g>
		<text transform="matrix(1 0 0 1 40.8151 923.0963)"><tspan x="0" y="0" style="font-family:'Avenir-Book'; font-size:18;">Find more solutions for this topic </tspan><tspan x="-19.512" y="19" style="font-family:'Avenir-Book'; font-size:18;">from HTC customers around the world</tspan></text>
	</g>
	<g>
		<g>
			<g>
				<text transform="matrix(0.9998 0.0175 -0.0175 0.9998 138.1891 1048.8229)"><tspan x="0" y="0" style="font-family:'Avenir-Book'; font-size:14;">C</tspan><tspan x="10.097" y="-0.163" style="font-family:'Avenir-Book'; font-size:14;">o</tspan><tspan x="18.64" y="-0.344" style="font-family:'Avenir-Book'; font-size:14;">m</tspan><tspan x="30.809" y="-0.556" style="font-family:'Avenir-Book'; font-size:14;">m</tspan><tspan x="42.978" y="-0.733" style="font-family:'Avenir-Book'; font-size:14;">u</tspan><tspan x="51.004" y="-0.873" style="font-family:'Avenir-Book'; font-size:14;">n</tspan><tspan x="59.031" y="-0.974" style="font-family:'Avenir-Book'; font-size:14;">i</tspan><tspan x="62.634" y="-1.048" style="font-family:'Avenir-Book'; font-size:14;">t</tspan><tspan x="67.524" y="-1.151" style="font-family:'Avenir-Book'; font-size:14;">y</tspan></text>
			</g>
		</g>
	</g>
	
		<use xlink:href="#Community"  width="52.036" height="35.744" x="-26.018" y="-17.872" transform="matrix(1.2609 0 0 -1.2688 175.2105 1004.197)" style="overflow:visible;"/>
</g>
<g>
	<g>
		<text transform="matrix(1 0 0 1 112.7334 1137.359)"><tspan x="0" y="0" style="font-family:'Avenir-Book'; font-size:18;">Can’t find what </tspan><tspan x="-11.844" y="19" style="font-family:'Avenir-Book'; font-size:18;">you’re looking for?</tspan></text>
	</g>
	<g>
		<g>
			<g>
				<text transform="matrix(0.9998 0.0175 -0.0175 0.9998 146.59 1272.1086)"><tspan x="0" y="0" style="font-family:'Avenir-Book'; font-size:14;">G</tspan><tspan x="11.133" y="-0.168" style="font-family:'Avenir-Book'; font-size:14;">e</tspan><tspan x="19.16" y="-0.281" style="font-family:'Avenir-Book'; font-size:14;">t</tspan><tspan x="24.051" y="-0.359" style="font-family:'Avenir-Book'; font-size:14;"> </tspan><tspan x="28.185" y="-0.485" style="font-family:'Avenir-Book'; font-size:14;">H</tspan><tspan x="38.534" y="-0.646" style="font-family:'Avenir-Book'; font-size:14;">e</tspan><tspan x="46.561" y="-0.747" style="font-family:'Avenir-Book'; font-size:14;">l</tspan><tspan x="50.163" y="-0.855" style="font-family:'Avenir-Book'; font-size:14;">p</tspan></text>
			</g>
		</g>
	</g>
	<g>
		<g>
			<path d="M162.208,1244.473l-2.254-1.162l1.116-6.346c-10.599-3.487-17.381-10.819-17.381-18.914
				c0-11.585,13.819-21.01,30.805-21.01s30.805,9.425,30.805,21.01s-13.819,21.01-30.805,21.01c-2.142,0-4.348-0.168-6.57-0.499
				L162.208,1244.473z M174.495,1199.708c-15.525,0-28.155,8.229-28.155,18.344c0,7.167,6.521,13.726,16.612,16.709l0.931,1.512
				l-0.569,3.234l3.189-3.297l1.163-0.386c2.312,0.379,4.61,0.572,6.829,0.572c15.525,0,28.155-8.229,28.155-18.344
				C202.65,1207.937,190.02,1199.708,174.495,1199.708z"/>
		</g>
		<text transform="matrix(1 0 0 1 167.393 1228.0415)" style="font-family:'Avenir-Medium'; font-size:29.0612;">?</text>
	</g>
</g>
<g>
	<text transform="matrix(1 0 0 1 247.0653 841.0016)" style="font-family:'Avenir-Book'; font-size:10.6667;">Yes</text>
</g>
<g>
	<path d="M277.755,849.798l-48.271-0.599l0.289-23.568l48.271,0.599L277.755,849.798z M231.066,847.645l45.145,0.56l0.25-20.423
		l-45.145-0.56L231.066,847.645z"/>
</g>
<g>
	<text transform="matrix(1 0 0 1 304.5534 841.0016)" style="font-family:'Avenir-Book'; font-size:10.6667;">No</text>
</g>
<g>
	<path d="M337.502,849.499h-48.274v-23.57h48.274V849.499z M290.791,847.926h45.149v-20.425h-45.149V847.926z"/>
</g>
<g>
	<text transform="matrix(1 0 0 1 20.8528 680.0226)" style="font-family:'Avenir-Book'; font-size:10;">Receiving files using Bluetooth</text>
</g>
<g>
	<text transform="matrix(1 0 0 1 20.8528 705.1359)" style="font-family:'Avenir-Book'; font-size:10;">Using HTC Connect to share your media</text>
</g>
<g>
	<text transform="matrix(1 0 0 1 20.8528 730.2468)" style="font-family:'Avenir-Book'; font-size:10;">Using NFC</text>
</g>
<g>
	<text transform="matrix(1 0 0 1 20.8528 755.3601)" style="font-family:'Avenir-Book'; font-size:10;">Backup my phone content to computer</text>
</g>
<g>
	<text transform="matrix(1 0 0 1 20.8528 780.4727)" style="font-family:'Avenir-Book'; font-size:10;">Restore phone content from Apple iCloud</text>
</g>
</svg>
