<!-- Generator: Adobe Illustrator 18.0.0, SVG Export Plug-In  -->
<svg version="1.1"
	 xmlns="http://www.w3.org/2000/svg" xmlns:xlink="http://www.w3.org/1999/xlink" xmlns:a="http://ns.adobe.com/AdobeSVGViewerExtensions/3.0/"
	 x="0px" y="0px" width="360px" height="983.102px" viewBox="0 0 360 983.102" style="enable-background:new 0 0 360 983.102;"
	 xml:space="preserve">
<defs>
	<symbol  id="Repair_Service" viewBox="-18.771 -18.751 37.542 37.502">
		<path style="fill:none;stroke:#000000;stroke-width:2;stroke-miterlimit:10;" d="M7.561-3.216L-3.253,7.598
			c1.236,3.007,0.358,5.79-1.763,7.911c-1.895,1.895-4.556,2.567-6.954,2.098c-0.965-0.189-1.352-1.355-0.657-2.05l3.905-3.905
			l-2.828-2.828l-3.931,3.931c-0.653,0.653-1.796,0.37-2.02-0.526c-0.633-2.535-0.192-5.504,1.755-7.451
			c2.093-2.093,5.198-2.613,7.51-2.097L2.727-8.281c-0.501-2.327,0.056-5.349,2.116-7.408c1.943-1.943,4.866-2.424,7.382-1.812
			c0.899,0.219,1.185,1.366,0.531,2.021l-3.799,3.799l2.828,2.828l3.784-3.784c0.66-0.66,1.826-0.363,2.024,0.549
			c0.528,2.442-0.104,5.19-2.031,7.117C13.407-2.817,10.551-1.964,7.561-3.216z"/>
	</symbol>
</defs>
<g id="New_Symbol_copy">
	<g>
		<text transform="matrix(1 0 0 1 127.3508 664.0637)" style="font-family:'Avenir-Book'; font-size:18;">Repair Status</text>
	</g>
	<g>
		
			<rect x="24.146" y="692.631" style="fill:none;stroke:#000000;stroke-width:1.3333;stroke-miterlimit:10;" width="311.708" height="70.83"/>
	</g>
	<polyline style="fill:none;stroke:#000000;stroke-width:0.9923;stroke-miterlimit:10;" points="105.803,728.156 111.668,735.141 
		120.924,720.953 	"/>
	<g>
		<g>
			<text transform="matrix(1 0 0 1 129.5915 469.551)" style="font-family:'Avenir-Book'; font-size:18;">Get a Repair</text>
		</g>
	</g>
	
		<rect x="24.146" y="496.993" style="fill:none;stroke:#000000;stroke-width:1.3333;stroke-miterlimit:10;" width="311.708" height="70.83"/>
	
		<use xlink:href="#Repair_Service"  width="37.542" height="37.502" x="-18.771" y="-18.751" transform="matrix(0.6166 0 0 -0.6166 105.8052 532.408)" style="overflow:visible;"/>
	<g>
		
			<rect x="16.589" y="258.292" style="fill:none;stroke:#000000;stroke-width:1.3333;stroke-miterlimit:10;" width="154.891" height="52.014"/>
		
			<rect x="179.824" y="258.292" style="fill:none;stroke:#000000;stroke-width:1.3333;stroke-miterlimit:10;" width="163.588" height="52.014"/>
		
			<rect x="16.589" y="320.704" style="fill:none;stroke:#000000;stroke-width:1.3333;stroke-miterlimit:10;" width="154.891" height="54.127"/>
		
			<rect x="179.824" y="320.705" style="fill:none;stroke:#000000;stroke-width:1.3333;stroke-miterlimit:10;" width="163.588" height="53.382"/>
	</g>
	<g>
		<g>
			<g>
				<text transform="matrix(1 0 0 1 116.6672 852.7629)"><tspan x="0" y="0" style="font-family:'Avenir-Book'; font-size:18;">Can’t find what </tspan><tspan x="-11.844" y="18" style="font-family:'Avenir-Book'; font-size:18;">you’re looking for?</tspan></text>
			</g>
			<g>
				<g>
					<g>
						<text transform="matrix(0.9998 0.0175 -0.0175 0.9998 150.5232 978.9104)"><tspan x="0" y="0" style="font-family:'Avenir-Book'; font-size:14;">G</tspan><tspan x="11.134" y="-0.168" style="font-family:'Avenir-Book'; font-size:14;">e</tspan><tspan x="19.16" y="-0.281" style="font-family:'Avenir-Book'; font-size:14;">t</tspan><tspan x="24.051" y="-0.359" style="font-family:'Avenir-Book'; font-size:14;"> </tspan><tspan x="28.185" y="-0.485" style="font-family:'Avenir-Book'; font-size:14;">H</tspan><tspan x="38.534" y="-0.646" style="font-family:'Avenir-Book'; font-size:14;">e</tspan><tspan x="46.561" y="-0.747" style="font-family:'Avenir-Book'; font-size:14;">l</tspan><tspan x="50.163" y="-0.855" style="font-family:'Avenir-Book'; font-size:14;">p</tspan></text>
					</g>
				</g>
			</g>
			<g>
				<path style="fill:none;stroke:#000000;stroke-width:2.2591;stroke-linejoin:bevel;stroke-miterlimit:10;" d="M178.661,908.554
					c-13.88,0-25.132,7.463-25.132,16.669c0,6.806,6.158,12.65,14.973,15.239l-1.125,6.357l5.28-5.425
					c1.927,0.314,3.93,0.499,6.004,0.499c13.88,0,25.132-7.463,25.132-16.669S192.541,908.554,178.661,908.554z"/>
				<text transform="matrix(1 0 0 1 172.6077 936.2317)" style="font-family:'Avenir-Medium'; font-size:24.6193;">?</text>
			</g>
		</g>
	</g>
	<g style="opacity:0.8;">
		<path d="M31.109,6.014c-1.083-1.103-2.731-1.562-3.814-1.62c-0.94-0.05-4.641-0.037-5.511,0c-1.227,0.051-2.116,0.417-2.562,0.755
			c-0.004,0.002-0.012,0-0.012-0.009V0h-2.831v18.132l2.826,0.002c0,0-0.053-7.421,0.011-8.231c0.11-1.436,1.198-2.564,2.581-2.685
			c1.114-0.095,4.448-0.072,5.493,0c1.435,0.1,2.497,1.227,2.58,2.743c0.03,0.558-0.001,8.172-0.001,8.172h2.833
			c0,0,0.009-7.583,0-8.234C32.681,8.377,32.146,7.068,31.109,6.014 M35.643,7.379h6.704v10.704h2.835V7.379h6.702V4.553H35.643
			V7.379z M59.952,15.309c-1.542-0.135-2.572-1.145-2.693-2.632c-0.076-0.975-0.078-1.785-0.004-2.553
			c0.14-1.447,1.349-2.828,2.695-2.894c0.481-0.024,1.768-0.02,4.103-0.011l6.801,0.011l-0.001-2.824c0,0-5.416-0.011-7.041-0.015
			c-2.187-0.009-3.285-0.014-3.982,0.015c-1.532,0.055-2.814,0.602-3.814,1.619c-0.942,0.96-1.507,2.489-1.592,4.031
			c-0.047,0.838-0.061,1.928,0,2.576c0.157,1.66,0.694,2.965,1.592,3.878c0.963,0.982,2.426,1.602,3.817,1.622
			c1.138,0.015,11.021,0.002,11.021,0.002v-2.826c0,0-3.005,0.011-4.53,0.022C63.438,15.355,60.709,15.374,59.952,15.309"/>
	</g>
	<g style="opacity:0.8;">
		<rect x="323.011" y="5.469" width="16.943" height="2.259"/>
		<rect x="323.011" y="9.976" width="16.943" height="2.259"/>
		<rect x="323.011" y="14.483" width="16.943" height="2.259"/>
	</g>
	<g>
		<g>
			<text transform="matrix(1 0 0 1 101.2063 234.4485)" style="font-family:'Avenir-Book'; font-size:18;">Warranty statement</text>
		</g>
	</g>
	
		<line style="opacity:0.8;fill:none;stroke:#000000;stroke-width:0.8272;stroke-miterlimit:10;" x1="0" y1="45.765" x2="360" y2="45.765"/>
	
		<line style="opacity:0.8;fill:none;stroke:#000000;stroke-width:1.3333;stroke-miterlimit:10;" x1="13.333" y1="416.994" x2="346.667" y2="416.994"/>
	
		<line style="opacity:0.8;fill:none;stroke:#000000;stroke-width:1.3333;stroke-miterlimit:10;" x1="14.612" y1="609.562" x2="345.388" y2="609.562"/>
	
		<line style="opacity:0.8;fill:none;stroke:#000000;stroke-width:1.3333;stroke-miterlimit:10;" x1="14.612" y1="806.162" x2="345.388" y2="806.162"/>
	<g>
		<text transform="matrix(1 0 0 1 87.6697 156.0793)"><tspan x="0" y="0" style="font-family:'Avenir-Book'; font-size:18;">What would you like to</tspan><tspan x="38.312" y="18" style="font-family:'Avenir-Book'; font-size:18;"> know about?</tspan></text>
	</g>
	<g>
		<g>
			<path d="M57.642,276.229l4.745,4.745v12.625H49.522v-17.37H57.642 M58.194,274.895H48.189v20.037H63.72v-14.511L58.194,274.895
				L58.194,274.895z"/>
		</g>
		<polyline style="fill:none;stroke:#000000;stroke-width:1.3333;stroke-miterlimit:10;" points="57.647,275.145 57.647,280.798 
			63.299,280.798 		"/>
	</g>
	<g>
		<g>
			<path d="M57.642,339.083l4.745,4.745v12.625H49.522v-17.37H57.642 M58.194,337.75H48.189v20.037H63.72v-14.511L58.194,337.75
				L58.194,337.75z"/>
		</g>
		<polyline style="fill:none;stroke:#000000;stroke-width:1.3333;stroke-miterlimit:10;" points="57.647,338 57.647,343.652 
			63.299,343.652 		"/>
	</g>
	<text transform="matrix(1 0 0 1 73.7034 289.9826)" style="font-family:'Avenir-Book'; font-size:14;">Android</text>
	<text transform="matrix(1 0 0 1 73.7034 353.3927)" style="font-family:'Avenir-Book'; font-size:14;">Re Camera</text>
	<g>
		<g>
			<path d="M216.618,276.229l4.745,4.745v12.625h-12.865v-17.37H216.618 M217.171,274.895h-10.005v20.037h15.531v-14.511
				L217.171,274.895L217.171,274.895z"/>
		</g>
		<polyline style="fill:none;stroke:#000000;stroke-width:1.3333;stroke-miterlimit:10;" points="216.623,275.145 216.623,280.798 
			222.276,280.798 		"/>
	</g>
	<g>
		<g>
			<path d="M216.618,339.083l4.745,4.745v12.625h-12.865v-17.37H216.618 M217.171,337.75h-10.005v20.037h15.531v-14.511
				L217.171,337.75L217.171,337.75z"/>
		</g>
		<polyline style="fill:none;stroke:#000000;stroke-width:1.3333;stroke-miterlimit:10;" points="216.623,338 216.623,343.652 
			222.276,343.652 		"/>
	</g>
	<text transform="matrix(1 0 0 1 232.6799 289.9826)" style="font-family:'Avenir-Book'; font-size:14;">Windows</text>
	<text transform="matrix(1 0 0 1 232.6799 353.3927)" style="font-family:'Avenir-Book'; font-size:14;">UA Healthbox </text>
	<text transform="matrix(1 0 0 1 128.9026 536.5041)" style="font-family:'Avenir-Book'; font-size:14;">Start a repair request</text>
	<text transform="matrix(1 0 0 1 132.6819 734.0158)" style="font-family:'Avenir-Book'; font-size:14;">Check repair status</text>
</g>
</svg>
