<?xml version="1.0" encoding="UTF-8" standalone="no"?>
<svg width="899px" height="287px" viewBox="0 0 899 287" version="1.1" xmlns="http://www.w3.org/2000/svg" xmlns:xlink="http://www.w3.org/1999/xlink">
    <!-- Generator: Sketch 39.1 (31720) - http://www.bohemiancoding.com/sketch -->
    <title>Group 5</title>
    <desc>Created with Sketch.</desc>
    <defs>
        <polygon id="path-1" points="0 96.9728 75.096 96.9728 75.096 -0.0002 0 -0.0002"></polygon>
        <polygon id="path-3" points="0 96.9728 75.096 96.9728 75.096 -0.0002 0 -0.0002"></polygon>
    </defs>
    <g id="Support" stroke="none" stroke-width="1" fill="none" fill-rule="evenodd">
        <g id="1.1-Support-Landing-Page" transform="translate(-352.000000, -506.000000)">
            <g id="Select-Product" transform="translate(210.000000, 450.000000)">
                <g id="icons" transform="translate(110.000000, 50.000000)">
                    <g id="Group-5">
                        <text id="One" font-family="Avenir-Book, Avenir" font-size="16" font-weight="normal" fill="#000000">
                            <tspan x="54.432" y="270">One</tspan>
                        </text>
                        <text id="Desire" font-family="Avenir-Book, Avenir" font-size="16" font-weight="normal" fill="#000000">
                            <tspan x="211.336" y="270">Desire</tspan>
                        </text>
                        <text id="Butterfly" font-family="Avenir-Book, Avenir" font-size="16" font-weight="normal" fill="#000000">
                            <tspan x="367.952" y="270">Butterfly</tspan>
                        </text>
                        <text id="Accessories" font-family="Avenir-Book, Avenir" font-size="16" font-weight="normal" fill="#000000">
                            <tspan x="848.36" y="270">Accessories</tspan>
                        </text>
                        <text id="RE" font-family="Avenir-Book, Avenir" font-size="16" font-weight="normal" fill="#000000">
                            <tspan x="552.512" y="270">RE</tspan>
                            <tspan x="534.144" y="292">Camera</tspan>
                        </text>
                        <text id="UA-Healthbox" font-family="Avenir-Book, Avenir" font-size="16" font-weight="normal" fill="#000000">
                            <tspan x="715.024" y="270">UA</tspan>
                            <tspan x="689.112" y="292">Healthbox</tspan>
                        </text>
                        <g id="accessories_icon" transform="translate(840.000000, 134.000000)">
                            <g id="Page-1" transform="translate(13.000000, 6.000000)">
                                <path d="M36.4394,77.0027 L5.0004,77.0027 C2.2384,77.0027 0.0004,74.7637 0.0004,72.0027 L0.0004,4.9997 C0.0004,2.2387 2.2384,-0.0003 5.0004,-0.0003 L36.4394,-0.0003 C39.2004,-0.0003 41.4394,2.2387 41.4394,4.9997 L41.4394,72.0027 C41.4394,74.7637 39.2004,77.0027 36.4394,77.0027" id="Fill-1" fill="#C8C8C8"></path>
                                <path d="M36.4394,77.0027 L5.0004,77.0027 C2.2384,77.0027 0.0004,74.7637 0.0004,72.0027 L0.0004,4.9997 C0.0004,2.2387 2.2384,-0.0003 5.0004,-0.0003 L36.4394,-0.0003 C39.2004,-0.0003 41.4394,2.2387 41.4394,4.9997 L41.4394,72.0027 C41.4394,74.7637 39.2004,77.0027 36.4394,77.0027 L36.4394,77.0027 Z" id="Stroke-3" stroke="#000000" stroke-width="2" stroke-linecap="round" stroke-linejoin="round"></path>
                                <path d="M68.6913,86.5444 L37.2523,86.5444 C34.4903,86.5444 32.2523,84.3054 32.2523,81.5444 L32.2523,14.5414 C32.2523,11.7804 34.4903,9.5414 37.2523,9.5414 L68.6913,9.5414 C71.4523,9.5414 73.6913,11.7804 73.6913,14.5414 L73.6913,81.5444 C73.6913,84.3054 71.4523,86.5444 68.6913,86.5444" id="Fill-5" fill="#87B8D6"></path>
                                <path d="M68.6913,86.5444 L37.2523,86.5444 C34.4903,86.5444 32.2523,84.3054 32.2523,81.5444 L32.2523,14.5414 C32.2523,11.7804 34.4903,9.5414 37.2523,9.5414 L68.6913,9.5414 C71.4523,9.5414 73.6913,11.7804 73.6913,14.5414 L73.6913,81.5444 C73.6913,84.3054 71.4523,86.5444 68.6913,86.5444 L68.6913,86.5444 Z" id="Stroke-7" stroke="#000000" stroke-width="2" stroke-linecap="round" stroke-linejoin="round"></path>
                                <path d="M40.8683,16.5643 C40.8683,15.6173 40.1003,14.8493 39.1533,14.8493 C38.2063,14.8493 37.4383,15.6173 37.4383,16.5643 C37.4383,17.5113 38.2063,18.2793 39.1533,18.2793 C40.1003,18.2793 40.8683,17.5113 40.8683,16.5643" id="Fill-9" fill="#000000"></path>
                                <path d="M47.1629,16.5643 C47.1629,15.6173 46.3949,14.8493 45.4479,14.8493 C44.5009,14.8493 43.7329,15.6173 43.7329,16.5643 C43.7329,17.5113 44.5009,18.2793 45.4479,18.2793 C46.3949,18.2793 47.1629,17.5113 47.1629,16.5643" id="Fill-11" fill="#000000"></path>
                                <path d="M54.3568,16.5643 C54.3568,15.6173 53.5888,14.8493 52.6418,14.8493 C51.6948,14.8493 50.9268,15.6173 50.9268,16.5643 C50.9268,17.5113 51.6948,18.2793 52.6418,18.2793 C53.5888,18.2793 54.3568,17.5113 54.3568,16.5643" id="Fill-13" fill="#000000"></path>
                                <path d="M61.101,16.5643 C61.101,15.6173 60.333,14.8493 59.386,14.8493 C58.439,14.8493 57.671,15.6173 57.671,16.5643 C57.671,17.5113 58.439,18.2793 59.386,18.2793 C60.333,18.2793 61.101,17.5113 61.101,16.5643" id="Fill-15" fill="#000000"></path>
                                <path d="M67.8453,16.5643 C67.8453,15.6173 67.0773,14.8493 66.1303,14.8493 C65.1833,14.8493 64.4153,15.6173 64.4153,16.5643 C64.4153,17.5113 65.1833,18.2793 66.1303,18.2793 C67.0773,18.2793 67.8453,17.5113 67.8453,16.5643" id="Fill-17" fill="#000000"></path>
                                <path d="M40.8683,22.859 C40.8683,21.912 40.1003,21.144 39.1533,21.144 C38.2063,21.144 37.4383,21.912 37.4383,22.859 C37.4383,23.806 38.2063,24.574 39.1533,24.574 C40.1003,24.574 40.8683,23.806 40.8683,22.859" id="Fill-19" fill="#000000"></path>
                                <path d="M47.1629,22.859 C47.1629,21.912 46.3949,21.144 45.4479,21.144 C44.5009,21.144 43.7329,21.912 43.7329,22.859 C43.7329,23.806 44.5009,24.574 45.4479,24.574 C46.3949,24.574 47.1629,23.806 47.1629,22.859" id="Fill-21" fill="#000000"></path>
                                <path d="M54.3568,22.859 C54.3568,21.912 53.5888,21.144 52.6418,21.144 C51.6948,21.144 50.9268,21.912 50.9268,22.859 C50.9268,23.806 51.6948,24.574 52.6418,24.574 C53.5888,24.574 54.3568,23.806 54.3568,22.859" id="Fill-23" fill="#000000"></path>
                                <path d="M61.101,22.859 C61.101,21.912 60.333,21.144 59.386,21.144 C58.439,21.144 57.671,21.912 57.671,22.859 C57.671,23.806 58.439,24.574 59.386,24.574 C60.333,24.574 61.101,23.806 61.101,22.859" id="Fill-25" fill="#000000"></path>
                                <path d="M67.8453,22.859 C67.8453,21.912 67.0773,21.144 66.1303,21.144 C65.1833,21.144 64.4153,21.912 64.4153,22.859 C64.4153,23.806 65.1833,24.574 66.1303,24.574 C67.0773,24.574 67.8453,23.806 67.8453,22.859" id="Fill-27" fill="#000000"></path>
                                <path d="M40.8683,29.1536 C40.8683,28.2066 40.1003,27.4386 39.1533,27.4386 C38.2063,27.4386 37.4383,28.2066 37.4383,29.1536 C37.4383,30.1006 38.2063,30.8686 39.1533,30.8686 C40.1003,30.8686 40.8683,30.1006 40.8683,29.1536" id="Fill-29" fill="#000000"></path>
                                <path d="M47.1629,29.1536 C47.1629,28.2066 46.3949,27.4386 45.4479,27.4386 C44.5009,27.4386 43.7329,28.2066 43.7329,29.1536 C43.7329,30.1006 44.5009,30.8686 45.4479,30.8686 C46.3949,30.8686 47.1629,30.1006 47.1629,29.1536" id="Fill-31" fill="#000000"></path>
                                <path d="M54.3568,29.1536 C54.3568,28.2066 53.5888,27.4386 52.6418,27.4386 C51.6948,27.4386 50.9268,28.2066 50.9268,29.1536 C50.9268,30.1006 51.6948,30.8686 52.6418,30.8686 C53.5888,30.8686 54.3568,30.1006 54.3568,29.1536" id="Fill-33" fill="#000000"></path>
                                <path d="M61.101,29.1536 C61.101,28.2066 60.333,27.4386 59.386,27.4386 C58.439,27.4386 57.671,28.2066 57.671,29.1536 C57.671,30.1006 58.439,30.8686 59.386,30.8686 C60.333,30.8686 61.101,30.1006 61.101,29.1536" id="Fill-35" fill="#000000"></path>
                                <path d="M67.8453,29.1536 C67.8453,28.2066 67.0773,27.4386 66.1303,27.4386 C65.1833,27.4386 64.4153,28.2066 64.4153,29.1536 C64.4153,30.1006 65.1833,30.8686 66.1303,30.8686 C67.0773,30.8686 67.8453,30.1006 67.8453,29.1536" id="Fill-37" fill="#000000"></path>
                                <path d="M40.8683,35.4483 C40.8683,34.5013 40.1003,33.7333 39.1533,33.7333 C38.2063,33.7333 37.4383,34.5013 37.4383,35.4483 C37.4383,36.3953 38.2063,37.1633 39.1533,37.1633 C40.1003,37.1633 40.8683,36.3953 40.8683,35.4483" id="Fill-39" fill="#000000"></path>
                                <path d="M47.1629,35.4483 C47.1629,34.5013 46.3949,33.7333 45.4479,33.7333 C44.5009,33.7333 43.7329,34.5013 43.7329,35.4483 C43.7329,36.3953 44.5009,37.1633 45.4479,37.1633 C46.3949,37.1633 47.1629,36.3953 47.1629,35.4483" id="Fill-41" fill="#000000"></path>
                                <path d="M54.3568,35.4483 C54.3568,34.5013 53.5888,33.7333 52.6418,33.7333 C51.6948,33.7333 50.9268,34.5013 50.9268,35.4483 C50.9268,36.3953 51.6948,37.1633 52.6418,37.1633 C53.5888,37.1633 54.3568,36.3953 54.3568,35.4483" id="Fill-43" fill="#000000"></path>
                                <path d="M61.101,35.4483 C61.101,34.5013 60.333,33.7333 59.386,33.7333 C58.439,33.7333 57.671,34.5013 57.671,35.4483 C57.671,36.3953 58.439,37.1633 59.386,37.1633 C60.333,37.1633 61.101,36.3953 61.101,35.4483" id="Fill-45" fill="#000000"></path>
                                <path d="M67.8453,35.4483 C67.8453,34.5013 67.0773,33.7333 66.1303,33.7333 C65.1833,33.7333 64.4153,34.5013 64.4153,35.4483 C64.4153,36.3953 65.1833,37.1633 66.1303,37.1633 C67.0773,37.1633 67.8453,36.3953 67.8453,35.4483" id="Fill-47" fill="#000000"></path>
                                <path d="M40.8683,41.7429 C40.8683,40.7959 40.1003,40.0279 39.1533,40.0279 C38.2063,40.0279 37.4383,40.7959 37.4383,41.7429 C37.4383,42.6899 38.2063,43.4579 39.1533,43.4579 C40.1003,43.4579 40.8683,42.6899 40.8683,41.7429" id="Fill-49" fill="#000000"></path>
                                <path d="M47.1629,41.7429 C47.1629,40.7959 46.3949,40.0279 45.4479,40.0279 C44.5009,40.0279 43.7329,40.7959 43.7329,41.7429 C43.7329,42.6899 44.5009,43.4579 45.4479,43.4579 C46.3949,43.4579 47.1629,42.6899 47.1629,41.7429" id="Fill-51" fill="#000000"></path>
                                <path d="M54.3568,41.7429 C54.3568,40.7959 53.5888,40.0279 52.6418,40.0279 C51.6948,40.0279 50.9268,40.7959 50.9268,41.7429 C50.9268,42.6899 51.6948,43.4579 52.6418,43.4579 C53.5888,43.4579 54.3568,42.6899 54.3568,41.7429" id="Fill-53" fill="#000000"></path>
                                <path d="M61.101,41.7429 C61.101,40.7959 60.333,40.0279 59.386,40.0279 C58.439,40.0279 57.671,40.7959 57.671,41.7429 C57.671,42.6899 58.439,43.4579 59.386,43.4579 C60.333,43.4579 61.101,42.6899 61.101,41.7429" id="Fill-55" fill="#000000"></path>
                                <path d="M67.8453,41.7429 C67.8453,40.7959 67.0773,40.0279 66.1303,40.0279 C65.1833,40.0279 64.4153,40.7959 64.4153,41.7429 C64.4153,42.6899 65.1833,43.4579 66.1303,43.4579 C67.0773,43.4579 67.8453,42.6899 67.8453,41.7429" id="Fill-57" fill="#000000"></path>
                                <path d="M40.8683,48.0375 C40.8683,47.0905 40.1003,46.3225 39.1533,46.3225 C38.2063,46.3225 37.4383,47.0905 37.4383,48.0375 C37.4383,48.9845 38.2063,49.7525 39.1533,49.7525 C40.1003,49.7525 40.8683,48.9845 40.8683,48.0375" id="Fill-59" fill="#000000"></path>
                                <path d="M47.1629,48.0375 C47.1629,47.0905 46.3949,46.3225 45.4479,46.3225 C44.5009,46.3225 43.7329,47.0905 43.7329,48.0375 C43.7329,48.9845 44.5009,49.7525 45.4479,49.7525 C46.3949,49.7525 47.1629,48.9845 47.1629,48.0375" id="Fill-61" fill="#000000"></path>
                                <path d="M54.3568,48.0375 C54.3568,47.0905 53.5888,46.3225 52.6418,46.3225 C51.6948,46.3225 50.9268,47.0905 50.9268,48.0375 C50.9268,48.9845 51.6948,49.7525 52.6418,49.7525 C53.5888,49.7525 54.3568,48.9845 54.3568,48.0375" id="Fill-63" fill="#000000"></path>
                                <path d="M61.101,48.0375 C61.101,47.0905 60.333,46.3225 59.386,46.3225 C58.439,46.3225 57.671,47.0905 57.671,48.0375 C57.671,48.9845 58.439,49.7525 59.386,49.7525 C60.333,49.7525 61.101,48.9845 61.101,48.0375" id="Fill-65" fill="#000000"></path>
                                <path d="M67.8453,48.0375 C67.8453,47.0905 67.0773,46.3225 66.1303,46.3225 C65.1833,46.3225 64.4153,47.0905 64.4153,48.0375 C64.4153,48.9845 65.1833,49.7525 66.1303,49.7525 C67.0773,49.7525 67.8453,48.9845 67.8453,48.0375" id="Fill-67" fill="#000000"></path>
                                <path d="M40.8683,54.3322 C40.8683,53.3852 40.1003,52.6172 39.1533,52.6172 C38.2063,52.6172 37.4383,53.3852 37.4383,54.3322 C37.4383,55.2792 38.2063,56.0472 39.1533,56.0472 C40.1003,56.0472 40.8683,55.2792 40.8683,54.3322" id="Fill-69" fill="#000000"></path>
                                <path d="M47.1629,54.3322 C47.1629,53.3852 46.3949,52.6172 45.4479,52.6172 C44.5009,52.6172 43.7329,53.3852 43.7329,54.3322 C43.7329,55.2792 44.5009,56.0472 45.4479,56.0472 C46.3949,56.0472 47.1629,55.2792 47.1629,54.3322" id="Fill-71" fill="#000000"></path>
                                <path d="M54.3568,54.3322 C54.3568,53.3852 53.5888,52.6172 52.6418,52.6172 C51.6948,52.6172 50.9268,53.3852 50.9268,54.3322 C50.9268,55.2792 51.6948,56.0472 52.6418,56.0472 C53.5888,56.0472 54.3568,55.2792 54.3568,54.3322" id="Fill-73" fill="#000000"></path>
                                <path d="M61.101,54.3322 C61.101,53.3852 60.333,52.6172 59.386,52.6172 C58.439,52.6172 57.671,53.3852 57.671,54.3322 C57.671,55.2792 58.439,56.0472 59.386,56.0472 C60.333,56.0472 61.101,55.2792 61.101,54.3322" id="Fill-75" fill="#000000"></path>
                                <path d="M67.8453,54.3322 C67.8453,53.3852 67.0773,52.6172 66.1303,52.6172 C65.1833,52.6172 64.4153,53.3852 64.4153,54.3322 C64.4153,55.2792 65.1833,56.0472 66.1303,56.0472 C67.0773,56.0472 67.8453,55.2792 67.8453,54.3322" id="Fill-77" fill="#000000"></path>
                                <path d="M40.8683,60.6268 C40.8683,59.6798 40.1003,58.9118 39.1533,58.9118 C38.2063,58.9118 37.4383,59.6798 37.4383,60.6268 C37.4383,61.5738 38.2063,62.3418 39.1533,62.3418 C40.1003,62.3418 40.8683,61.5738 40.8683,60.6268" id="Fill-79" fill="#000000"></path>
                                <path d="M47.1629,60.6268 C47.1629,59.6798 46.3949,58.9118 45.4479,58.9118 C44.5009,58.9118 43.7329,59.6798 43.7329,60.6268 C43.7329,61.5738 44.5009,62.3418 45.4479,62.3418 C46.3949,62.3418 47.1629,61.5738 47.1629,60.6268" id="Fill-81" fill="#000000"></path>
                                <path d="M54.3568,60.6268 C54.3568,59.6798 53.5888,58.9118 52.6418,58.9118 C51.6948,58.9118 50.9268,59.6798 50.9268,60.6268 C50.9268,61.5738 51.6948,62.3418 52.6418,62.3418 C53.5888,62.3418 54.3568,61.5738 54.3568,60.6268" id="Fill-83" fill="#000000"></path>
                                <path d="M61.101,60.6268 C61.101,59.6798 60.333,58.9118 59.386,58.9118 C58.439,58.9118 57.671,59.6798 57.671,60.6268 C57.671,61.5738 58.439,62.3418 59.386,62.3418 C60.333,62.3418 61.101,61.5738 61.101,60.6268" id="Fill-85" fill="#000000"></path>
                                <path d="M67.8453,60.6268 C67.8453,59.6798 67.0773,58.9118 66.1303,58.9118 C65.1833,58.9118 64.4153,59.6798 64.4153,60.6268 C64.4153,61.5738 65.1833,62.3418 66.1303,62.3418 C67.0773,62.3418 67.8453,61.5738 67.8453,60.6268" id="Fill-87" fill="#000000"></path>
                                <path d="M40.8683,66.9215 C40.8683,65.9745 40.1003,65.2065 39.1533,65.2065 C38.2063,65.2065 37.4383,65.9745 37.4383,66.9215 C37.4383,67.8685 38.2063,68.6365 39.1533,68.6365 C40.1003,68.6365 40.8683,67.8685 40.8683,66.9215" id="Fill-89" fill="#000000"></path>
                                <path d="M47.1629,66.9215 C47.1629,65.9745 46.3949,65.2065 45.4479,65.2065 C44.5009,65.2065 43.7329,65.9745 43.7329,66.9215 C43.7329,67.8685 44.5009,68.6365 45.4479,68.6365 C46.3949,68.6365 47.1629,67.8685 47.1629,66.9215" id="Fill-91" fill="#000000"></path>
                                <path d="M54.3568,66.9215 C54.3568,65.9745 53.5888,65.2065 52.6418,65.2065 C51.6948,65.2065 50.9268,65.9745 50.9268,66.9215 C50.9268,67.8685 51.6948,68.6365 52.6418,68.6365 C53.5888,68.6365 54.3568,67.8685 54.3568,66.9215" id="Fill-93" fill="#000000"></path>
                                <path d="M61.101,66.9215 C61.101,65.9745 60.333,65.2065 59.386,65.2065 C58.439,65.2065 57.671,65.9745 57.671,66.9215 C57.671,67.8685 58.439,68.6365 59.386,68.6365 C60.333,68.6365 61.101,67.8685 61.101,66.9215" id="Fill-95" fill="#000000"></path>
                                <path d="M67.8453,66.9215 C67.8453,65.9745 67.0773,65.2065 66.1303,65.2065 C65.1833,65.2065 64.4153,65.9745 64.4153,66.9215 C64.4153,67.8685 65.1833,68.6365 66.1303,68.6365 C67.0773,68.6365 67.8453,67.8685 67.8453,66.9215" id="Fill-97" fill="#000000"></path>
                                <path d="M40.8683,73.2161 C40.8683,72.2691 40.1003,71.5011 39.1533,71.5011 C38.2063,71.5011 37.4383,72.2691 37.4383,73.2161 C37.4383,74.1631 38.2063,74.9311 39.1533,74.9311 C40.1003,74.9311 40.8683,74.1631 40.8683,73.2161" id="Fill-99" fill="#000000"></path>
                                <path d="M47.1629,73.2161 C47.1629,72.2691 46.3949,71.5011 45.4479,71.5011 C44.5009,71.5011 43.7329,72.2691 43.7329,73.2161 C43.7329,74.1631 44.5009,74.9311 45.4479,74.9311 C46.3949,74.9311 47.1629,74.1631 47.1629,73.2161" id="Fill-101" fill="#000000"></path>
                                <path d="M54.3568,73.2161 C54.3568,72.2691 53.5888,71.5011 52.6418,71.5011 C51.6948,71.5011 50.9268,72.2691 50.9268,73.2161 C50.9268,74.1631 51.6948,74.9311 52.6418,74.9311 C53.5888,74.9311 54.3568,74.1631 54.3568,73.2161" id="Fill-103" fill="#000000"></path>
                                <path d="M61.101,73.2161 C61.101,72.2691 60.333,71.5011 59.386,71.5011 C58.439,71.5011 57.671,72.2691 57.671,73.2161 C57.671,74.1631 58.439,74.9311 59.386,74.9311 C60.333,74.9311 61.101,74.1631 61.101,73.2161" id="Fill-105" fill="#000000"></path>
                                <path d="M67.8453,73.2161 C67.8453,72.2691 67.0773,71.5011 66.1303,71.5011 C65.1833,71.5011 64.4153,72.2691 64.4153,73.2161 C64.4153,74.1631 65.1833,74.9311 66.1303,74.9311 C67.0773,74.9311 67.8453,74.1631 67.8453,73.2161" id="Fill-107" fill="#000000"></path>
                                <path d="M40.8683,79.5107 C40.8683,78.5637 40.1003,77.7957 39.1533,77.7957 C38.2063,77.7957 37.4383,78.5637 37.4383,79.5107 C37.4383,80.4577 38.2063,81.2257 39.1533,81.2257 C40.1003,81.2257 40.8683,80.4577 40.8683,79.5107" id="Fill-109" fill="#000000"></path>
                                <path d="M47.1629,79.5107 C47.1629,78.5637 46.3949,77.7957 45.4479,77.7957 C44.5009,77.7957 43.7329,78.5637 43.7329,79.5107 C43.7329,80.4577 44.5009,81.2257 45.4479,81.2257 C46.3949,81.2257 47.1629,80.4577 47.1629,79.5107" id="Fill-111" fill="#000000"></path>
                                <path d="M54.3568,79.5107 C54.3568,78.5637 53.5888,77.7957 52.6418,77.7957 C51.6948,77.7957 50.9268,78.5637 50.9268,79.5107 C50.9268,80.4577 51.6948,81.2257 52.6418,81.2257 C53.5888,81.2257 54.3568,80.4577 54.3568,79.5107" id="Fill-113" fill="#000000"></path>
                                <path d="M61.101,79.5107 C61.101,78.5637 60.333,77.7957 59.386,77.7957 C58.439,77.7957 57.671,78.5637 57.671,79.5107 C57.671,80.4577 58.439,81.2257 59.386,81.2257 C60.333,81.2257 61.101,80.4577 61.101,79.5107" id="Fill-115" fill="#000000"></path>
                                <path d="M67.8453,79.5107 C67.8453,78.5637 67.0773,77.7957 66.1303,77.7957 C65.1833,77.7957 64.4153,78.5637 64.4153,79.5107 C64.4153,80.4577 65.1833,81.2257 66.1303,81.2257 C67.0773,81.2257 67.8453,80.4577 67.8453,79.5107" id="Fill-117" fill="#000000"></path>
                                <path d="M8.1259,16.5643 L8.1259,16.5643 C6.5609,16.5643 5.2929,15.2953 5.2929,13.7313 L5.2929,8.9393 C5.2929,7.3743 6.5609,6.1063 8.1259,6.1063 L8.1259,6.1063 C9.6909,6.1063 10.9589,7.3743 10.9589,8.9393 L10.9589,13.7313 C10.9589,15.2953 9.6909,16.5643 8.1259,16.5643" id="Fill-119" fill="#FFFFFF"></path>
                                <path d="M8.1259,16.5643 L8.1259,16.5643 C6.5609,16.5643 5.2929,15.2953 5.2929,13.7313 L5.2929,8.9393 C5.2929,7.3743 6.5609,6.1063 8.1259,6.1063 L8.1259,6.1063 C9.6909,6.1063 10.9589,7.3743 10.9589,8.9393 L10.9589,13.7313 C10.9589,15.2953 9.6909,16.5643 8.1259,16.5643 L8.1259,16.5643 Z" id="Stroke-121" stroke="#000000" stroke-width="2" stroke-linecap="round" stroke-linejoin="round"></path>
                            </g>
                        </g>
                        <g id="butterfly_icon" transform="translate(348.000000, 134.000000)">
                            <g id="Page-1" transform="translate(12.000000, 1.000000)">
                                <path d="M36.6671,84.0626 L6.0001,84.0626 C3.2391,84.0626 1.0001,81.8236 1.0001,79.0626 L1.0001,5.9996 C1.0001,3.2386 3.2391,0.9996 6.0001,0.9996 L36.6671,0.9996 C39.4281,0.9996 41.6671,3.2386 41.6671,5.9996 L41.6671,79.0626 C41.6671,81.8236 39.4281,84.0626 36.6671,84.0626 L36.6671,84.0626 Z" id="Fill-1" fill="#E57070"></path>
                                <path d="M36.6671,84.0626 L6.0001,84.0626 C3.2391,84.0626 1.0001,81.8236 1.0001,79.0626 L1.0001,5.9996 C1.0001,3.2386 3.2391,0.9996 6.0001,0.9996 L36.6671,0.9996 C39.4281,0.9996 41.6671,3.2386 41.6671,5.9996 L41.6671,79.0626 C41.6671,81.8236 39.4281,84.0626 36.6671,84.0626 L36.6671,84.0626 Z" id="Stroke-3" stroke="#000000" stroke-width="2" stroke-linecap="round" stroke-linejoin="round"></path>
                                <path d="M69.096,95.9728 L38.429,95.9728 C35.668,95.9728 33.429,93.7338 33.429,90.9728 L33.429,17.9098 C33.429,15.1488 35.668,12.9098 38.429,12.9098 L69.096,12.9098 C71.857,12.9098 74.096,15.1488 74.096,17.9098 L74.096,90.9728 C74.096,93.7338 71.857,95.9728 69.096,95.9728" id="Fill-5" fill="#4D4D4D"></path>
                                <path d="M69.096,95.9728 L38.429,95.9728 C35.668,95.9728 33.429,93.7338 33.429,90.9728 L33.429,17.9098 C33.429,15.1488 35.668,12.9098 38.429,12.9098 L69.096,12.9098 C71.857,12.9098 74.096,15.1488 74.096,17.9098 L74.096,90.9728 C74.096,93.7338 71.857,95.9728 69.096,95.9728 L69.096,95.9728 Z" id="Stroke-7" stroke="#000000" stroke-width="2" stroke-linecap="round" stroke-linejoin="round"></path>
                                <mask id="mask-2" fill="white">
                                    <use xlink:href="#path-1"></use>
                                </mask>
                                <g id="Clip-10"></g>
                                <polygon id="Fill-9" fill="#C8C8C8" mask="url(#mask-2)" points="33.429 86.6828 74.096 86.6828 74.096 22.2008 33.429 22.2008"></polygon>
                                <polygon id="Stroke-11" stroke="#000000" stroke-width="2" stroke-linecap="round" stroke-linejoin="round" mask="url(#mask-2)" points="33.429 86.6828 74.096 86.6828 74.096 22.2008 33.429 22.2008"></polygon>
                                <path d="M24.4987,16.8621 C24.9517,19.2541 22.8937,21.3121 20.5027,20.8581 C19.1737,20.6071 18.0867,19.5201 17.8347,18.1911 C17.3817,15.7991 19.4397,13.7411 21.8317,14.1951 C23.1597,14.4461 24.2467,15.5331 24.4987,16.8621" id="Fill-12" fill="#808080" mask="url(#mask-2)"></path>
                                <path d="M24.4987,16.8621 C24.9517,19.2541 22.8937,21.3121 20.5027,20.8581 C19.1737,20.6071 18.0867,19.5201 17.8347,18.1911 C17.3817,15.7991 19.4397,13.7411 21.8317,14.1951 C23.1597,14.4461 24.2467,15.5331 24.4987,16.8621 L24.4987,16.8621 Z" id="Stroke-13" stroke="#000000" stroke-width="2" stroke-linecap="round" stroke-linejoin="round" mask="url(#mask-2)"></path>
                                <path d="M22.5455,8.6442 C22.9195,9.8132 21.8575,10.8752 20.6885,10.5012 C20.2685,10.3672 19.9225,10.0202 19.7885,9.6012 C19.4145,8.4322 20.4765,7.3702 21.6455,7.7442 C22.0645,7.8782 22.4115,8.2242 22.5455,8.6442" id="Fill-14" fill="#000000" mask="url(#mask-2)"></path>
                                <path d="M14.5138,16.366 L14.5138,19.344" id="Stroke-15" stroke="#000000" stroke-width="2" stroke-linecap="round" stroke-linejoin="round" mask="url(#mask-2)"></path>
                                <path d="M45.9576,95.0668 L45.9576,95.0668 C46.5366,93.3288 48.1636,92.1568 49.9946,92.1568 L59.3806,92.1568 C61.2116,92.1568 62.8386,93.3288 63.4176,95.0668 L63.4176,95.0668" id="Stroke-16" stroke="#000000" stroke-width="2" stroke-linecap="round" stroke-linejoin="round" mask="url(#mask-2)"></path>
                                <path d="M63.4176,13.8162 L63.4176,13.8162 C62.8386,15.5542 61.2116,16.7262 59.3806,16.7262 L49.9946,16.7262 C48.1636,16.7262 46.5366,15.5542 45.9576,13.8162 L45.9576,13.8162" id="Stroke-17" stroke="#000000" stroke-width="2" stroke-linecap="round" stroke-linejoin="round" mask="url(#mask-2)"></path>
                            </g>
                        </g>
                        <g id="desire_icon" transform="translate(184.000000, 134.000000)">
                            <g id="Page-1" transform="translate(12.000000, 1.000000)">
                                <path d="M36.6671,84.0626 L6.0001,84.0626 C3.2391,84.0626 1.0001,81.8236 1.0001,79.0626 L1.0001,5.9996 C1.0001,3.2386 3.2391,0.9996 6.0001,0.9996 L36.6671,0.9996 C39.4281,0.9996 41.6671,3.2386 41.6671,5.9996 L41.6671,79.0626 C41.6671,81.8236 39.4281,84.0626 36.6671,84.0626 L36.6671,84.0626 Z" id="Stroke-1" stroke="#000000" stroke-width="2" stroke-linecap="round" stroke-linejoin="round"></path>
                                <path d="M13.1347,8.9657 C13.5707,11.2677 11.5907,13.2477 9.2887,12.8117 C8.0107,12.5687 6.9647,11.5237 6.7217,10.2447 C6.2857,7.9427 8.2667,5.9627 10.5677,6.3987 C11.8467,6.6417 12.8927,7.6867 13.1347,8.9657" id="Fill-3" fill="#808080"></path>
                                <path d="M13.1347,8.9657 C13.5707,11.2677 11.5907,13.2477 9.2887,12.8117 C8.0107,12.5687 6.9647,11.5237 6.7217,10.2447 C6.2857,7.9427 8.2667,5.9627 10.5677,6.3987 C11.8467,6.6417 12.8927,7.6867 13.1347,8.9657 L13.1347,8.9657 Z" id="Stroke-5" stroke="#000000" stroke-width="2" stroke-linecap="round" stroke-linejoin="round"></path>
                                <path d="M11.8102,17.5765 C12.1582,19.0205 10.8902,20.2895 9.4462,19.9405 C8.7672,19.7775 8.2102,19.2205 8.0462,18.5415 C7.6982,17.0975 8.9662,15.8295 10.4112,16.1775 C11.0902,16.3405 11.6462,16.8975 11.8102,17.5765" id="Fill-7" fill="#000000"></path>
                                <path d="M69.096,95.9728 L38.429,95.9728 C35.668,95.9728 33.429,93.7338 33.429,90.9728 L33.429,17.9098 C33.429,15.1488 35.668,12.9098 38.429,12.9098 L69.096,12.9098 C71.857,12.9098 74.096,15.1488 74.096,17.9098 L74.096,90.9728 C74.096,93.7338 71.857,95.9728 69.096,95.9728" id="Fill-9" fill="#EEEEEE"></path>
                                <path d="M69.096,95.9728 L38.429,95.9728 C35.668,95.9728 33.429,93.7338 33.429,90.9728 L33.429,17.9098 C33.429,15.1488 35.668,12.9098 38.429,12.9098 L69.096,12.9098 C71.857,12.9098 74.096,15.1488 74.096,17.9098 L74.096,90.9728 C74.096,93.7338 71.857,95.9728 69.096,95.9728 L69.096,95.9728 Z" id="Stroke-11" stroke="#000000" stroke-width="2" stroke-linecap="round" stroke-linejoin="round"></path>
                                <mask id="mask-4" fill="white">
                                    <use xlink:href="#path-3"></use>
                                </mask>
                                <g id="Clip-14"></g>
                                <polygon id="Fill-13" fill="#959595" mask="url(#mask-4)" points="33.429 86.6828 74.096 86.6828 74.096 22.2008 33.429 22.2008"></polygon>
                                <polygon id="Stroke-15" stroke="#000000" stroke-width="2" stroke-linecap="round" stroke-linejoin="round" mask="url(#mask-4)" points="33.429 86.6828 74.096 86.6828 74.096 22.2008 33.429 22.2008"></polygon>
                                <path d="M49.8869,17.4648 L57.6379,17.4648" id="Stroke-16" stroke="#000000" stroke-width="2" stroke-linecap="round" stroke-linejoin="round" mask="url(#mask-4)"></path>
                                <path d="M42.4431,16.9862 C42.8171,18.1552 41.7551,19.2182 40.5861,18.8442 C40.1661,18.7092 39.8201,18.3632 39.6861,17.9432 C39.3121,16.7742 40.3741,15.7122 41.5431,16.0862 C41.9621,16.2202 42.3091,16.5662 42.4431,16.9862" id="Fill-17" fill="#000000" mask="url(#mask-4)"></path>
                                <path d="M55.1412,90.7587 C55.5152,91.9277 54.4532,92.9897 53.2842,92.6157 C52.8642,92.4817 52.5182,92.1347 52.3842,91.7157 C52.0102,90.5467 53.0722,89.4847 54.2412,89.8587 C54.6602,89.9927 55.0072,90.3387 55.1412,90.7587" id="Fill-18" fill="#000000" mask="url(#mask-4)"></path>
                                <path d="M23.2735,33.4718 C23.2735,32.4218 22.4225,31.5708 21.3725,31.5708 C20.3235,31.5708 19.4725,32.4218 19.4725,33.4718 C19.4725,34.5218 20.3235,35.3728 21.3725,35.3728 C22.4225,35.3728 23.2735,34.5218 23.2735,33.4718" id="Fill-19" fill="#F38F1E" mask="url(#mask-4)"></path>
                                <path d="M28.1235,76.1518 C28.1235,75.1018 27.2725,74.2508 26.2225,74.2508 C25.1735,74.2508 24.3225,75.1018 24.3225,76.1518 C24.3225,77.2018 25.1735,78.0528 26.2225,78.0528 C27.2725,78.0528 28.1235,77.2018 28.1235,76.1518" id="Fill-20" fill="#F38F1E" mask="url(#mask-4)"></path>
                                <path d="M13.5735,60.6318 C13.5735,59.5818 12.7225,58.7308 11.6725,58.7308 C10.6235,58.7308 9.7725,59.5818 9.7725,60.6318 C9.7725,61.6818 10.6235,62.5328 11.6725,62.5328 C12.7225,62.5328 13.5735,61.6818 13.5735,60.6318" id="Fill-21" fill="#29A7DE" mask="url(#mask-4)"></path>
                                <path d="M28.1235,11.1618 C28.1235,10.1118 27.2725,9.2608 26.2225,9.2608 C25.1735,9.2608 24.3225,10.1118 24.3225,11.1618 C24.3225,12.2118 25.1735,13.0628 26.2225,13.0628 C27.2725,13.0628 28.1235,12.2118 28.1235,11.1618" id="Fill-22" fill="#AFAFAF" mask="url(#mask-4)"></path>
                                <path d="M15.671,37.9155 C15.671,37.0905 15.002,36.4215 14.177,36.4215 C13.351,36.4215 12.682,37.0905 12.682,37.9155 C12.682,38.7405 13.351,39.4095 14.177,39.4095 C15.002,39.4095 15.671,38.7405 15.671,37.9155" id="Fill-23" fill="#ED5A24" mask="url(#mask-4)"></path>
                                <path d="M29.251,52.4655 C29.251,51.6405 28.582,50.9715 27.757,50.9715 C26.931,50.9715 26.262,51.6405 26.262,52.4655 C26.262,53.2905 26.931,53.9595 27.757,53.9595 C28.582,53.9595 29.251,53.2905 29.251,52.4655" id="Fill-24" fill="#ED5A24" mask="url(#mask-4)"></path>
                                <path d="M9.851,30.1555 C9.851,29.3305 9.182,28.6615 8.357,28.6615 C7.531,28.6615 6.862,29.3305 6.862,30.1555 C6.862,30.9805 7.531,31.6495 8.357,31.6495 C9.182,31.6495 9.851,30.9805 9.851,30.1555" id="Fill-25" fill="#C8C8C8" mask="url(#mask-4)"></path>
                                <path d="M20.521,62.1655 C20.521,61.3405 19.852,60.6715 19.027,60.6715 C18.201,60.6715 17.532,61.3405 17.532,62.1655 C17.532,62.9905 18.201,63.6595 19.027,63.6595 C19.852,63.6595 20.521,62.9905 20.521,62.1655" id="Fill-26" fill="#C8C8C8" mask="url(#mask-4)"></path>
                                <path d="M9.851,70.8955 C9.851,70.0705 9.182,69.4015 8.357,69.4015 C7.531,69.4015 6.862,70.0705 6.862,70.8955 C6.862,71.7205 7.531,72.3895 8.357,72.3895 C9.182,72.3895 9.851,71.7205 9.851,70.8955" id="Fill-27" fill="#C8C8C8" mask="url(#mask-4)"></path>
                                <path d="M22.461,18.5155 C22.461,17.6905 21.792,17.0215 20.967,17.0215 C20.141,17.0215 19.472,17.6905 19.472,18.5155 C19.472,19.3405 20.141,20.0095 20.967,20.0095 C21.792,20.0095 22.461,19.3405 22.461,18.5155" id="Fill-28" fill="#29A7DE" mask="url(#mask-4)"></path>
                            </g>
                        </g>
                        <g id="one_icon" transform="translate(20.000000, 134.000000)">
                            <rect id="Rectangle-3" stroke="#000000" stroke-width="2" fill="#E5CFB7" x="13" y="1" width="42" height="83" rx="5"></rect>
                            <rect id="Rectangle-3-Copy-2" stroke="#000000" stroke-width="2" fill="#FFFFFF" x="46" y="16" width="42" height="83" rx="5"></rect>
                            <rect id="Rectangle-2" fill="#000000" x="60" y="20" width="12" height="2" rx="1"></rect>
                            <rect id="Rectangle-2-Copy-2" fill="#000000" x="75" y="20" width="2" height="2" rx="1"></rect>
                            <rect id="Rectangle-2-Copy" fill="#000000" x="58" y="93" width="18" height="2" rx="1"></rect>
                            <path d="M34.0698,21.3355 L31.2038,21.3355 C29.5468,21.3355 28.2038,19.9925 28.2038,18.3355 L28.2038,15.4695 C28.2038,13.8125 29.5468,12.4695 31.2038,12.4695 L34.0698,12.4695 C35.7268,12.4695 37.0698,13.8125 37.0698,15.4695 L37.0698,18.3355 C37.0698,19.9925 35.7268,21.3355 34.0698,21.3355" id="Fill-5" fill="#808080"></path>
                            <rect id="Rectangle" stroke="#000000" stroke-width="2" fill="#808080" x="29" y="12" width="9" height="9" rx="3"></rect>
                            <rect id="Rectangle-4" fill="#000000" x="23" y="14" width="2" height="5" rx="1"></rect>
                            <rect id="Rectangle-5" stroke="#000000" stroke-width="2" fill="#959595" x="46" y="26" width="42" height="63"></rect>
                        </g>
                        <g id="re_camera_icon" transform="translate(512.000000, 134.000000)">
                            <g id="Page-1" transform="translate(21.000000, 5.000000)">
                                <path d="M5.7825,0 L14.6795,0 C23.5525,0 29.9205,6.651 29.9205,15.498 L29.9205,70.952 C29.9205,72.608 29.4015,74 27.7445,74 L12.0345,74 C10.3775,74 8.9205,72.608 8.9205,70.952 L8.9205,23.436 C8.9205,22.938 8.6305,23 8.1325,23 L5.7825,23 C2.5885,23 0.0005,17.867 0.0005,11.5 C0.0005,5.133 2.5885,0 5.7825,0" id="Fill-1" fill="#86CEC7"></path>
                                <path d="M5.7825,0 L14.6795,0 C23.5525,0 29.9205,6.651 29.9205,15.498 L29.9205,70.952 C29.9205,72.608 29.4015,74 27.7445,74 L12.0345,74 C10.3775,74 8.9205,72.608 8.9205,70.952 L8.9205,23.436 C8.9205,22.938 8.6305,23 8.1325,23 L5.7825,23 C2.5885,23 0.0005,17.867 0.0005,11.5 C0.0005,5.133 2.5885,0 5.7825,0 L5.7825,0 Z" id="Stroke-3" stroke="#000000" stroke-width="2" stroke-linecap="round" stroke-linejoin="round"></path>
                                <g id="Group-8" transform="translate(9.000000, 67.000000)">
                                    <path d="M17.1945,0.471 L0.5915,0.471" id="Fill-5" fill="#FFFFFF"></path>
                                    <path d="M17.1945,0.471 L0.5915,0.471" id="Stroke-7" stroke="#000000" stroke-width="2" stroke-linecap="round" stroke-linejoin="round"></path>
                                </g>
                                <path d="M51.6105,16 L42.7135,16 C33.8405,16 25.9205,22.179 25.9205,31.026 L25.9205,86.479 C25.9205,88.136 27.9915,90 29.6485,90 L45.3585,90 C47.0155,90 47.9205,88.136 47.9205,86.479 L47.9205,40.129 C47.9205,39.129 48.7625,39 49.2605,39 L51.6105,39 C54.8045,39 57.3925,33.867 57.3925,27.5 C57.3925,21.133 54.8045,16 51.6105,16" id="Fill-9" fill="#FFFFFF"></path>
                                <path d="M51.6105,16 L42.7135,16 C33.8405,16 25.9205,22.179 25.9205,31.026 L25.9205,86.479 C25.9205,88.136 27.9915,90 29.6485,90 L45.3585,90 C47.0155,90 47.9205,88.136 47.9205,86.479 L47.9205,40.129 C47.9205,39.129 48.7625,39 49.2605,39 L51.6105,39 C54.8045,39 57.3925,33.867 57.3925,27.5 C57.3925,21.133 54.8045,16 51.6105,16 L51.6105,16 Z" id="Stroke-11" stroke="#000000" stroke-width="2" stroke-linecap="round" stroke-linejoin="round"></path>
                                <path d="M46.7786,27.4924 C46.7786,21.2694 49.3096,16.2244 52.4306,16.2244 C55.5526,16.2244 58.0826,21.2694 58.0826,27.4924 C58.0826,33.7154 55.5526,38.7604 52.4306,38.7604 C49.3096,38.7604 46.7786,33.7154 46.7786,27.4924" id="Fill-13" fill="#808080"></path>
                                <path d="M46.7786,27.4924 C46.7786,21.2694 49.3096,16.2244 52.4306,16.2244 C55.5526,16.2244 58.0826,21.2694 58.0826,27.4924 C58.0826,33.7154 55.5526,38.7604 52.4306,38.7604 C49.3096,38.7604 46.7786,33.7154 46.7786,27.4924 L46.7786,27.4924 Z" id="Stroke-15" stroke="#000000" stroke-width="2" stroke-linecap="round" stroke-linejoin="round"></path>
                                <path d="M50.1558,27.4924 C50.1558,23.7234 51.1738,20.6674 52.4308,20.6674 C53.6868,20.6674 54.7058,23.7234 54.7058,27.4924 C54.7058,31.2614 53.6868,34.3174 52.4308,34.3174 C51.1738,34.3174 50.1558,31.2614 50.1558,27.4924" id="Fill-17" fill="#000000"></path>
                                <g id="Group-22" transform="translate(27.000000, 83.000000)">
                                    <path d="M20.5816,0.1496 L0.1946,0.1496" id="Fill-19" fill="#FFFFFF"></path>
                                    <path d="M20.5816,0.1496 L0.1946,0.1496" id="Stroke-21" stroke="#000000" stroke-width="2" stroke-linecap="round" stroke-linejoin="round"></path>
                                </g>
                            </g>
                        </g>
                        <g id="ua_fitness_icon" transform="translate(676.000000, 134.000000)">
                            <g id="Page-1" transform="translate(5.000000, 4.000000)">
                                <path d="M90,45.0636 C90,69.9166 69.853,90.0636 45,90.0636 C20.147,90.0636 0,69.9166 0,45.0636 C0,20.2106 20.147,0.0636 45,0.0636 C69.853,0.0636 90,20.2106 90,45.0636" id="Fill-1" fill="#666666"></path>
                                <path d="M90,45.0636 C90,69.9166 69.853,90.0636 45,90.0636 C20.147,90.0636 0,69.9166 0,45.0636 C0,20.2106 20.147,0.0636 45,0.0636 C69.853,0.0636 90,20.2106 90,45.0636 L90,45.0636 Z" id="Stroke-3" stroke="#000000" stroke-width="2" stroke-linecap="round" stroke-linejoin="round"></path>
                                <g id="Group-8" transform="translate(50.000000, 44.063600)">
                                    <path d="M0.0641,0.9367 L40.0001,0.9367" id="Fill-5" fill="#FFFFFF"></path>
                                    <path d="M0.0641,0.9367 L40.0001,0.9367" id="Stroke-7" stroke="#000000" stroke-width="2" stroke-linecap="round" stroke-linejoin="round"></path>
                                </g>
                                <g id="Group-12" transform="translate(0.000000, 44.063600)">
                                    <path d="M0,0.9367 L39.936,0.9367" id="Fill-9" fill="#FFFFFF"></path>
                                    <path d="M0,0.9367 L39.936,0.9367" id="Stroke-11" stroke="#000000" stroke-width="2" stroke-linecap="round" stroke-linejoin="round"></path>
                                </g>
                                <g id="Group-16" transform="translate(45.000000, 16.063600)">
                                    <path d="M0,23.8861 L0,0.5031" id="Fill-13" fill="#FFFFFF"></path>
                                    <path d="M0,23.8861 L0,0.5031" id="Stroke-15" stroke="#000000" stroke-width="2" stroke-linecap="round" stroke-linejoin="round"></path>
                                </g>
                                <g id="Group-20" transform="translate(45.000000, 49.063600)">
                                    <path d="M0,40.9367 L0,0.9867" id="Fill-17" fill="#FFFFFF"></path>
                                    <path d="M0,40.9367 L0,0.9867" id="Stroke-19" stroke="#000000" stroke-width="2" stroke-linecap="round" stroke-linejoin="round"></path>
                                </g>
                                <path d="M50.0644,45.0003 C50.0644,42.2113 47.7974,39.9503 45.0004,39.9503 C42.2034,39.9503 39.9354,42.2113 39.9354,45.0003 C39.9354,47.7893 42.2034,50.0503 45.0004,50.0503 C47.7974,50.0503 50.0644,47.7893 50.0644,45.0003" id="Fill-21" fill="#333333"></path>
                                <path d="M50.0644,45.0003 C50.0644,42.2113 47.7974,39.9503 45.0004,39.9503 C42.2034,39.9503 39.9354,42.2113 39.9354,45.0003 C39.9354,47.7893 42.2034,50.0503 45.0004,50.0503 C47.7974,50.0503 50.0644,47.7893 50.0644,45.0003 L50.0644,45.0003 Z" id="Stroke-23" stroke="#000000" stroke-width="2" stroke-linecap="round" stroke-linejoin="round"></path>
                                <path d="M11.2938,15.6483 L78.7058,15.6483" id="Stroke-25" stroke="#000000" stroke-width="2" stroke-linecap="round" stroke-linejoin="round"></path>
                                <path d="M79.0388,15.5846 C70.7878,6.5846 58.6038,-0.0004 44.9998,-0.0004 C31.3968,-0.0004 19.2128,6.5846 10.9608,15.5846 L79.0388,15.5846 Z" id="Fill-27" fill="#333333"></path>
                                <path d="M79.0388,15.5846 C70.7878,6.5846 58.6038,-0.0004 44.9998,-0.0004 C31.3968,-0.0004 19.2128,6.5846 10.9608,15.5846 L79.0388,15.5846 L79.0388,15.5846 Z" id="Stroke-29" stroke="#000000" stroke-width="2" stroke-linecap="round" stroke-linejoin="round"></path>
                                <path d="M69.9551,62.3993 C62.5301,62.3993 56.2681,64.5163 54.2571,67.4183 C56.2681,70.3193 62.5301,72.4363 69.9551,72.4363 C77.3801,72.4363 83.6421,70.3193 85.6531,67.4183 C83.6421,64.5163 77.3801,62.3993 69.9551,62.3993" id="Fill-31" fill="#333333"></path>
                                <path d="M69.9551,62.3993 C62.5301,62.3993 56.2681,64.5163 54.2571,67.4183 C56.2681,70.3193 62.5301,72.4363 69.9551,72.4363 C77.3801,72.4363 83.6421,70.3193 85.6531,67.4183 C83.6421,64.5163 77.3801,62.3993 69.9551,62.3993 L69.9551,62.3993 Z" id="Stroke-33" stroke="#000000" stroke-width="3" stroke-linecap="round" stroke-linejoin="round"></path>
                                <path d="M69.4551,58.5543 C58.6851,58.5543 49.9551,62.2943 49.9551,66.9083 L49.9551,74.0843 C49.9551,78.6983 58.6851,82.4393 69.4551,82.4393 C80.2251,82.4393 88.9551,78.6983 88.9551,74.0843 L88.9551,66.9083 C88.9551,62.2943 80.2251,58.5543 69.4551,58.5543" id="Fill-35" fill="#4D4D4D"></path>
                                <path d="M69.4551,58.5543 C58.6851,58.5543 49.9551,62.2943 49.9551,66.9083 L49.9551,74.0843 C49.9551,78.6983 58.6851,82.4393 69.4551,82.4393 C80.2251,82.4393 88.9551,78.6983 88.9551,74.0843 L88.9551,66.9083 C88.9551,62.2943 80.2251,58.5543 69.4551,58.5543 L69.4551,58.5543 Z" id="Stroke-37" stroke="#000000" stroke-width="2" stroke-linecap="round" stroke-linejoin="round"></path>
                                <path d="M69.9551,72.4365 C66.8481,72.4365 63.9511,72.0615 61.4771,71.4175 C63.9511,70.7735 66.8481,70.3995 69.9551,70.3995 C73.0621,70.3995 75.9591,70.7735 78.4331,71.4175 C75.9591,72.0615 73.0621,72.4365 69.9551,72.4365" id="Fill-39" fill="#333333"></path>
                                <path d="M69.9551,72.4365 C66.8481,72.4365 63.9511,72.0615 61.4771,71.4175 C63.9511,70.7735 66.8481,70.3995 69.9551,70.3995 C73.0621,70.3995 75.9591,70.7735 78.4331,71.4175 C75.9591,72.0615 73.0621,72.4365 69.9551,72.4365 L69.9551,72.4365 Z" id="Stroke-41" stroke="#000000" stroke-width="2" stroke-linecap="round" stroke-linejoin="round"></path>
                                <path d="M61.4771,71.4179 C63.9511,70.7739 66.8481,70.3989 69.9551,70.3989 C73.0621,70.3989 75.9591,70.7739 78.4331,71.4179 C81.8711,70.5229 84.4841,69.1049 85.6531,67.4179 C83.6421,64.5169 77.3801,62.3989 69.9551,62.3989 C62.5301,62.3989 56.2681,64.5169 54.2571,67.4179 C55.4261,69.1049 58.0391,70.5229 61.4771,71.4179" id="Fill-43" fill="#AF5454"></path>
                                <path d="M61.4771,71.4179 C63.9511,70.7739 66.8481,70.3989 69.9551,70.3989 C73.0621,70.3989 75.9591,70.7739 78.4331,71.4179 C81.8711,70.5229 84.4841,69.1049 85.6531,67.4179 C83.6421,64.5169 77.3801,62.3989 69.9551,62.3989 C62.5301,62.3989 56.2681,64.5169 54.2571,67.4179 C55.4261,69.1049 58.0391,70.5229 61.4771,71.4179 L61.4771,71.4179 Z" id="Stroke-45" stroke="#000000" stroke-width="2" stroke-linecap="round" stroke-linejoin="round"></path>
                                <path d="M56.1665,74.3253 C59.4065,75.7133 63.7815,76.6153 68.6445,76.7533" id="Stroke-47" stroke="#000000" stroke-width="2" stroke-linecap="round" stroke-linejoin="round"></path>
                            </g>
                        </g>
                        <text id="What-product-do-you" font-family="Avenir-Black, Avenir" font-size="28" font-weight="700" fill="#000000">
                            <tspan x="228.276" y="28">What product do you need help with?</tspan>
                        </text>
                        <rect id="Rectangle-5" fill="#000000" x="420" y="64" width="120" height="4"></rect>
                    </g>
                </g>
            </g>
        </g>
    </g>
</svg>