<?xml version="1.0" encoding="UTF-8" standalone="no"?>
<svg width="743px" height="261px" viewBox="0 0 743 261" version="1.1" xmlns="http://www.w3.org/2000/svg" xmlns:xlink="http://www.w3.org/1999/xlink">
    <!-- Generator: Sketch 39.1 (31720) - http://www.bohemiancoding.com/sketch -->
    <title>Group 4</title>
    <desc>Created with Sketch.</desc>
    <defs>
        <rect id="path-1" x="10" y="10" width="22" height="22" rx="3"></rect>
        <mask id="mask-2" maskContentUnits="userSpaceOnUse" maskUnits="objectBoundingBox" x="0" y="0" width="22" height="22" fill="white">
            <use xlink:href="#path-1"></use>
        </mask>
        <rect id="path-3" x="10" y="38" width="22" height="22" rx="3"></rect>
        <mask id="mask-4" maskContentUnits="userSpaceOnUse" maskUnits="objectBoundingBox" x="0" y="0" width="22" height="22" fill="white">
            <use xlink:href="#path-3"></use>
        </mask>
        <rect id="path-5" x="38" y="10" width="22" height="22" rx="3"></rect>
        <mask id="mask-6" maskContentUnits="userSpaceOnUse" maskUnits="objectBoundingBox" x="0" y="0" width="22" height="22" fill="white">
            <use xlink:href="#path-5"></use>
        </mask>
        <rect id="path-7" x="38" y="38" width="22" height="22" rx="3"></rect>
        <mask id="mask-8" maskContentUnits="userSpaceOnUse" maskUnits="objectBoundingBox" x="0" y="0" width="22" height="22" fill="white">
            <use xlink:href="#path-7"></use>
        </mask>
    </defs>
    <g id="Support" stroke="none" stroke-width="1" fill="none" fill-rule="evenodd">
        <g id="1.1-Support-Landing-Page" transform="translate(-411.000000, -870.000000)">
            <g id="Select-Topic" transform="translate(210.000000, 814.000000)">
                <g id="Group-4" transform="translate(192.000000, 50.000000)">
                    <g id="Topics" transform="translate(0.000000, 134.000000)">
                        <g id="Update_icon" transform="translate(691.000000, 0.000000)" stroke="#000000" stroke-linecap="round" stroke-linejoin="round">
                            <g id="Page-1" transform="translate(13.000000, 10.000000)">
                                <path d="M14,6 L4.99502911,6 C2.23635074,6 4.61985097e-08,8.24245787 4.31427102e-08,11.0045213 L5.53692914e-09,44.9954787 C2.47907471e-09,47.7593995 2.24245787,50 5.00452127,50 L38.9954787,50 C41.7593995,50 44,47.7575421 44,44.9954787 L44,11.0045213 C44,8.24060053 41.7661779,6.00000003 39.0049709,6.00000003 L30,6" id="Stroke-1" stroke-width="2"></path>
                                <path d="M22,0 L22,32" id="Stroke-3" stroke-width="2"></path>
                                <polyline id="Stroke-5" stroke-width="2" points="29.0000003 25 21.9999998 31.9999999 15 25"></polyline>
                                <path d="M10,41 L34,41" id="Stroke-7" stroke-width="2"></path>
                            </g>
                        </g>
                        <g id="HTC-Sync-Manager" transform="translate(527.000000, 0.000000)" stroke="#000000" stroke-width="2">
                            <path d="M42,17 L33.3017326,25.4631791 C30.9259513,27.7747501 31.0085302,31.4400404 33.476888,33.6415487 L36.523112,36.3584513 C38.995629,38.5636691 39.0818052,42.217703 36.6982674,44.5368209 L28,53" id="Path-6" stroke-linecap="round"></path>
                            <polyline id="Rectangle" stroke-linecap="round" stroke-linejoin="round" points="35 17 42 17 42 24"></polyline>
                            <polyline id="Rectangle" stroke-linecap="round" stroke-linejoin="round" transform="translate(31.500000, 49.500000) rotate(-180.000000) translate(-31.500000, -49.500000) " points="28 46 35 46 35 53"></polyline>
                            <circle id="Oval" cx="35" cy="35" r="26"></circle>
                        </g>
                        <g id="applications_icon" transform="translate(363.000000, 0.000000)" stroke="#000000" stroke-width="4">
                            <use id="Rectangle" mask="url(#mask-2)" xlink:href="#path-1"></use>
                            <use id="Rectangle-Copy-2" mask="url(#mask-4)" xlink:href="#path-3"></use>
                            <use id="Rectangle-Copy" mask="url(#mask-6)" xlink:href="#path-5"></use>
                            <use id="Rectangle-Copy-3" mask="url(#mask-8)" xlink:href="#path-7"></use>
                        </g>
                        <g id="back_up_n_transfer_icon" transform="translate(199.000000, 0.000000)" stroke="#000000" stroke-linecap="round" stroke-linejoin="round">
                            <g id="Page-1" transform="translate(1.000000, 12.000000)">
                                <path d="M45,45 L45,26" id="Stroke-1" stroke-width="2"></path>
                                <path d="M36,42 L14,42 C6.1473,42.209 0.0003,35.634 0.0003,28 C0.0003,20.468 6.1473,14.012 14,14 C14.1943,14.012 14.6513,13.999 15,14 C18.1773,5.833 26.0913,0 35,0 C44.3683,0 52.1083,5.534 55,13 C62.9999986,14 67.9999975,21 68,28 C68.0000025,35 61.9999986,42 53.9999986,42" id="Stroke-3" stroke-width="2"></path>
                                <polyline id="Stroke-5" stroke-width="2" points="38 32 44.9999997 25 52 32"></polyline>
                            </g>
                        </g>
                        <g id="Online-Shopping-Online_shopping_help" transform="translate(31.000000, 0.000000)" stroke="#000000" stroke-width="2">
                            <path d="M15.9284838,22.0036812 C15.9679811,20.3447939 17.3524401,19 18.9976599,19 L51.0023401,19 C52.657902,19 54.0321392,20.3498463 54.0715162,22.0036812 L54.9284838,57.9963188 C54.9679811,59.6552061 53.6576906,61 51.9934988,61 L18.0065012,61 C16.3460564,61 15.0321392,59.6501537 15.0715162,57.9963188 L15.9284838,22.0036812 Z" id="Rectangle"></path>
                            <path d="M45,19 L45,16 C45,10.4759382 40.5228475,6 35,6 C29.4759382,6 25,10.4771525 25,16 L25,19 L45,19 L45,19 Z" id="Combined-Shape"></path>
                            <path d="M25,22.5 L25,19.5" id="Line" stroke-linecap="round"></path>
                            <path d="M45,22.5 L45,19.5" id="Line-Copy" stroke-linecap="round"></path>
                        </g>
                        <text id="Online-Shopping-Help" font-family="Avenir-Book, Avenir" font-size="16" font-weight="normal" fill="#000000">
                            <tspan x="9.248" y="106">Online Shopping</tspan>
                            <tspan x="52.968" y="128">Help</tspan>
                        </text>
                        <text id="Back-up-&amp;-Transfer" font-family="Avenir-Book, Avenir" font-size="16" font-weight="normal" fill="#000000">
                            <tspan x="197.68" y="106">Back up &amp;</tspan>
                            <tspan x="206.008" y="128">Transfer</tspan>
                        </text>
                        <text id="Applications" font-family="Avenir-Book, Avenir" font-size="16" font-weight="normal" fill="#000000">
                            <tspan x="353.712" y="106">Applications</tspan>
                        </text>
                        <text id="HTC-Sync-Manager" font-family="Avenir-Book, Avenir" font-size="16" font-weight="normal" fill="#000000">
                            <tspan x="527.168" y="106">HTC Sync</tspan>
                            <tspan x="530.136" y="128">Manager</tspan>
                        </text>
                        <text id="Update" font-family="Avenir-Book, Avenir" font-size="16" font-weight="normal" fill="#000000">
                            <tspan x="699.48" y="106">Update</tspan>
                        </text>
                    </g>
                    <text id="What-topic-do-you-ne" font-family="Avenir-Black, Avenir" font-size="28" font-weight="700" fill="#000000">
                        <tspan x="164.438" y="28">What topic do you need help with?</tspan>
                    </text>
                    <rect id="Rectangle-5" fill="#000000" x="338" y="64" width="120" height="4"></rect>
                </g>
            </g>
        </g>
    </g>
</svg>