<?xml version="1.0" encoding="UTF-8" standalone="no"?>
<svg width="969px" height="246px" viewBox="0 0 969 246" version="1.1" xmlns="http://www.w3.org/2000/svg" xmlns:xlink="http://www.w3.org/1999/xlink">
    <!-- Generator: Sketch 39 (31667) - http://www.bohemiancoding.com/sketch -->
    <title>Group 2</title>
    <desc>Created with Sketch.</desc>
    <defs>
        <filter x="-50%" y="-50%" width="200%" height="200%" filterUnits="objectBoundingBox" id="filter-1">
            <feOffset dx="0" dy="0" in="SourceAlpha" result="shadowOffsetOuter1"></feOffset>
            <feGaussianBlur stdDeviation="2" in="shadowOffsetOuter1" result="shadowBlurOuter1"></feGaussianBlur>
            <feColorMatrix values="0 0 0 0 0   0 0 0 0 0   0 0 0 0 0  0 0 0 0.196359828 0" type="matrix" in="shadowBlurOuter1" result="shadowMatrixOuter1"></feColorMatrix>
            <feMerge>
                <feMergeNode in="shadowMatrixOuter1"></feMergeNode>
                <feMergeNode in="SourceGraphic"></feMergeNode>
            </feMerge>
        </filter>
        <polygon id="path-2" points="54.4238 0.936 0 0.936 0 59.1455 54.4238 59.1455 54.4238 0.936"></polygon>
        <filter x="-50%" y="-50%" width="200%" height="200%" filterUnits="objectBoundingBox" id="filter-4">
            <feOffset dx="0" dy="0" in="SourceAlpha" result="shadowOffsetOuter1"></feOffset>
            <feGaussianBlur stdDeviation="2" in="shadowOffsetOuter1" result="shadowBlurOuter1"></feGaussianBlur>
            <feColorMatrix values="0 0 0 0 0   0 0 0 0 0   0 0 0 0 0  0 0 0 0.196359828 0" type="matrix" in="shadowBlurOuter1" result="shadowMatrixOuter1"></feColorMatrix>
            <feMerge>
                <feMergeNode in="shadowMatrixOuter1"></feMergeNode>
                <feMergeNode in="SourceGraphic"></feMergeNode>
            </feMerge>
        </filter>
        <polygon id="path-5" points="0.558707379 27 47.171 27 47.171 0.1592 0.558707379 0.1592"></polygon>
        <polygon id="path-7" points="1.35525272e-20 0.3014 1.35525272e-20 19.4424 30.3214486 19.4424 30.3214486 0.3014 0 0.3014"></polygon>
    </defs>
    <g id="Page-1" stroke="none" stroke-width="1" fill="none" fill-rule="evenodd">
        <g id="1.1-Support-Landing-Page" transform="translate(-257.000000, -1538.000000)">
            <g id="Group-2" transform="translate(250.000000, 1532.000000)">
                <text id="Can’t-find-what-you’" font-family="Avenir-Medium, Avenir" font-size="28" font-weight="400" fill="#FFFFFF">
                    <tspan x="760.274" y="28">Can’t find what </tspan>
                    <tspan x="737.398" y="66">you’re looking for?</tspan>
                </text>
                <text id="Get-Help" font-family="Avenir-Medium, Avenir" font-size="20" font-weight="400" fill="#FFFFFF">
                    <tspan x="815.7" y="246">Get Help</tspan>
                </text>
                <g id="get_help_icon" transform="translate(807.000000, 106.000000)">
                    <g id="Page-1" filter="url(#filter-1)" transform="translate(23.000000, 8.000000)">
                        <g id="Group-3" transform="translate(0.000000, 0.064500)">
                            <mask id="mask-3" fill="white">
                                <use xlink:href="#path-2"></use>
                            </mask>
                            <g id="Clip-2"></g>
                            <path d="M18.0898,57.1455 L36.3348,57.1455 C37.7128,55.3875 43.4878,48.0355 46.6668,44.1835 C50.3798,39.6865 52.4238,33.9915 52.4238,28.1475 C52.4238,14.2455 41.1138,2.9355 27.2118,2.9355 C13.3098,2.9355 1.9998,14.2455 1.9998,28.1475 C1.9998,33.9915 4.0438,39.6865 7.7568,44.1835 C11.8988,49.2035 16.8348,55.5315 18.0898,57.1455 M36.8208,59.1455 L17.6008,59.1455 C17.2908,59.1455 16.9988,59.0015 16.8098,58.7575 C16.7518,58.6825 10.9558,51.2045 6.2138,45.4575 C2.2068,40.6015 -0.0002,34.4555 -0.0002,28.1475 C-0.0002,13.1425 12.2068,0.9355 27.2118,0.9355 C42.2168,0.9355 54.4238,13.1425 54.4238,28.1475 C54.4238,34.4555 52.2168,40.6015 48.2098,45.4575 C44.6178,49.8095 37.6788,58.6725 37.6088,58.7615 C37.4188,59.0035 37.1288,59.1455 36.8208,59.1455" id="Fill-1" fill="#FFFFFF" mask="url(#mask-3)"></path>
                        </g>
                        <path d="M18.2461,59.127 L17.3321,61.132 C16.9321,62.009 16.9331,63.016 17.3341,63.894 L17.6631,64.61 C18.3271,66.06 18.3091,67.714 17.6141,69.149 L17.4171,69.555 C16.9701,70.475 16.9701,71.532 17.4171,72.453 C17.9111,73.47 18.9601,74.127 20.0901,74.127 L34.3371,74.127 C35.4661,74.127 36.5141,73.471 37.0081,72.456 C37.4591,71.527 37.4661,70.482 37.0351,69.569 L36.7821,69.03 C36.1041,67.589 36.1041,65.938 36.7811,64.498 L37.0641,63.898 C37.4801,63.015 37.4861,61.996 37.0801,61.107 L36.1781,59.127 L18.2461,59.127 Z M34.3371,76.127 L20.0901,76.127 C18.1991,76.127 16.4431,75.027 15.6181,73.326 C14.9011,71.85 14.9011,70.157 15.6181,68.681 L15.8141,68.276 C16.2481,67.382 16.2601,66.349 15.8451,65.444 L15.5161,64.727 C14.8721,63.319 14.8711,61.707 15.5121,60.302 L16.6921,57.712 C16.8551,57.356 17.2111,57.127 17.6021,57.127 L36.8201,57.127 C37.2121,57.127 37.5671,57.356 37.7301,57.712 L38.9001,60.277 C39.5501,61.702 39.5411,63.332 38.8741,64.751 L38.5911,65.351 C38.1691,66.248 38.1691,67.279 38.5921,68.18 L38.8451,68.718 C39.5341,70.181 39.5231,71.855 38.8161,73.311 C37.9791,75.029 36.2251,76.127 34.3371,76.127 L34.3371,76.127 Z" id="Fill-4" fill="#FFFFFF"></path>
                        <path d="M27.2119,82.0645 C22.9269,82.0645 19.4409,79.1615 19.4409,75.5915 C19.4409,75.0395 19.8889,74.5915 20.4409,74.5915 C20.9939,74.5915 21.4409,75.0395 21.4409,75.5915 C21.4409,78.0575 24.0299,80.0645 27.2119,80.0645 C30.3939,80.0645 32.9829,78.0575 32.9829,75.5915 C32.9829,75.0395 33.4299,74.5915 33.9829,74.5915 C34.5349,74.5915 34.9829,75.0395 34.9829,75.5915 C34.9829,79.1615 31.4969,82.0645 27.2119,82.0645" id="Fill-6" fill="#FFFFFF"></path>
                        <path d="M33.4199,65.127 L21.4199,65.127 C20.8669,65.127 20.4199,64.68 20.4199,64.127 C20.4199,63.574 20.8669,63.127 21.4199,63.127 L33.4199,63.127 C33.9729,63.127 34.4199,63.574 34.4199,64.127 C34.4199,64.68 33.9729,65.127 33.4199,65.127" id="Fill-8" fill="#FFFFFF"></path>
                        <path d="M33.4199,70.127 L21.4199,70.127 C20.8669,70.127 20.4199,69.68 20.4199,69.127 C20.4199,68.574 20.8669,68.127 21.4199,68.127 L33.4199,68.127 C33.9729,68.127 34.4199,68.574 34.4199,69.127 C34.4199,69.68 33.9729,70.127 33.4199,70.127" id="Fill-10" fill="#FFFFFF"></path>
                        <path d="M36.4199,49.127 C35.8669,49.127 35.4199,48.68 35.4199,48.127 L35.4199,31.98 L32.3329,33.713 C32.0289,33.883 31.6549,33.884 31.3519,33.711 L27.3079,31.424 L23.3619,33.706 C23.0519,33.886 22.6709,33.886 22.3599,33.706 L19.4199,32.005 L19.4199,48.127 C19.4199,48.68 18.9729,49.127 18.4199,49.127 C17.8669,49.127 17.4199,48.68 17.4199,48.127 L17.4199,30.272 C17.4199,29.914 17.6099,29.584 17.9199,29.405 C18.2309,29.228 18.6099,29.227 18.9209,29.406 L22.8609,31.686 L26.8009,29.406 C27.1069,29.228 27.4849,29.226 27.7939,29.401 L31.8459,31.693 L35.9309,29.399 C36.2369,29.227 36.6179,29.23 36.9249,29.408 C37.2319,29.588 37.4199,29.916 37.4199,30.272 L37.4199,48.127 C37.4199,48.68 36.9729,49.127 36.4199,49.127" id="Fill-12" fill="#FFFFFF"></path>
                    </g>
                </g>
                <text id="Find-answers-and-sha" font-family="Avenir-Medium, Avenir" font-size="28" font-weight="400" fill="#FFFFFF">
                    <tspan x="4.67" y="28">Find answers and share solutions with </tspan>
                    <tspan x="29.506" y="66">HTC customers around the world.</tspan>
                </text>
                <text id="Community" font-family="Avenir-Medium, Avenir" font-size="20" font-weight="400" fill="#FFFFFF">
                    <tspan x="191.76" y="246">Community</tspan>
                </text>
                <g id="community_icon" transform="translate(194.000000, 106.000000)">
                    <g id="Page-1" filter="url(#filter-4)" transform="translate(17.000000, 16.000000)">
                        <path d="M44.8656,2 C36.8446,2 30.3196,8.525 30.3196,16.546 C30.3196,24.566 36.8446,31.091 44.8656,31.091 C52.8866,31.091 59.4116,24.566 59.4116,16.546 C59.4116,8.525 52.8866,2 44.8656,2 M44.8656,33.091 C35.7426,33.091 28.3196,25.669 28.3196,16.546 C28.3196,7.423 35.7426,0 44.8656,0 C53.9886,0 61.4116,7.423 61.4116,16.546 C61.4116,25.669 53.9886,33.091 44.8656,33.091" id="Fill-1" fill="#FFFFFF"></path>
                        <g id="Group-5" transform="translate(21.000000, 40.000000)">
                            <mask id="mask-6" fill="white">
                                <use xlink:href="#path-5"></use>
                            </mask>
                            <g id="Clip-4"></g>
                            <path d="M23.8656,2.1592 C12.1466,2.1592 3.3866,11.1132 2.5606,23.9342 C2.5436,24.2102 2.6386,24.4752 2.8316,24.6802 C3.0246,24.8872 3.2866,25.0002 3.5666,25.0002 L44.1646,25.0002 C44.4446,25.0002 44.7066,24.8872 44.8996,24.6802 C45.0916,24.4752 45.1866,24.2112 45.1696,23.9342 C44.3446,11.1132 35.5836,2.1592 23.8656,2.1592 M44.1646,27.0002 L3.5666,27.0002 C2.7396,27.0002 1.9406,26.6532 1.3736,26.0492 C0.8066,25.4452 0.5126,24.6292 0.5646,23.8062 C1.4616,9.8832 11.0426,0.1592 23.8656,0.1592 C36.6876,0.1592 46.2686,9.8832 47.1656,23.8052 C47.2186,24.6282 46.9246,25.4442 46.3586,26.0482 C45.7916,26.6532 44.9916,27.0002 44.1646,27.0002" id="Fill-3" fill="#FFFFFF" mask="url(#mask-6)"></path>
                        </g>
                        <path d="M16.3431,13.5908 C10.9801,13.5908 6.6161,17.9538 6.6161,23.3178 C6.6161,28.6818 10.9801,33.0448 16.3431,33.0448 C21.7061,33.0448 26.0701,28.6818 26.0701,23.3178 C26.0701,17.9538 21.7061,13.5908 16.3431,13.5908 M16.3431,35.0448 C9.8771,35.0448 4.6161,29.7838 4.6161,23.3178 C4.6161,16.8518 9.8771,11.5908 16.3431,11.5908 C22.8091,11.5908 28.0701,16.8518 28.0701,23.3178 C28.0701,29.7838 22.8091,35.0448 16.3431,35.0448" id="Fill-6" fill="#FFFFFF"></path>
                        <g id="Group-10" transform="translate(0.000000, 39.000000)">
                            <mask id="mask-8" fill="white">
                                <use xlink:href="#path-7"></use>
                            </mask>
                            <g id="Clip-9"></g>
                            <path d="M23.6937,19.4424 L3.0037,19.4424 C2.1537,19.4424 1.3397,19.0824 0.7677,18.4534 C0.2107,17.8394 -0.0653,17.0194 0.0127,16.2034 C0.9077,6.8404 7.6227,0.3014 16.3427,0.3014 C22.2997,0.3014 27.3457,3.1484 30.1887,8.1114 C30.4637,8.5904 30.2977,9.2024 29.8177,9.4764 C29.3367,9.7524 28.7277,9.5844 28.4527,9.1054 C25.9767,4.7814 21.5627,2.3014 16.3427,2.3014 C8.5717,2.3014 2.8087,7.9644 2.0037,16.3924 C1.9787,16.6534 2.0657,16.9074 2.2477,17.1074 C2.4407,17.3204 2.7157,17.4424 3.0037,17.4424 L23.6937,17.4424 C24.2467,17.4424 24.6937,17.8894 24.6937,18.4424 C24.6937,18.9954 24.2467,19.4424 23.6937,19.4424" id="Fill-8" fill="#FFFFFF" mask="url(#mask-8)"></path>
                        </g>
                    </g>
                </g>
            </g>
        </g>
    </g>
</svg>