<?xml version="1.0" encoding="UTF-8" standalone="no"?>
<svg width="899px" height="160px" viewBox="0 0 899 160" version="1.1" xmlns="http://www.w3.org/2000/svg" xmlns:xlink="http://www.w3.org/1999/xlink">
    <!-- Generator: Sketch 39.1 (31720) - http://www.bohemiancoding.com/sketch -->
    <title>Series</title>
    <desc>Created with Sketch.</desc>
    <defs>
        <polygon id="path-1" points="0 97.9728 76.096 97.9728 76.096 -0.0002 0 -0.0002"></polygon>
        <polygon id="path-3" points="0 97.9728 76.096 97.9728 76.096 -0.0002 0 -0.0002"></polygon>
    </defs>
    <g id="Support" stroke="none" stroke-width="1" fill="none" fill-rule="evenodd">
        <g id="4.2-Select-Product--4.4" transform="translate(-352.000000, -607.000000)">
            <g id="Select-Product" transform="translate(210.000000, 288.000000)">
                <g id="Group-6" transform="translate(0.000000, 50.000000)">
                    <g id="Series" transform="translate(130.000000, 269.000000)">
                        <text id="One" font-family="Avenir-Medium, Avenir" font-size="16" font-weight="400" fill="#000000">
                            <tspan x="34.448" y="137">One</tspan>
                        </text>
                        <text id="Desire" font-family="Avenir-Book, Avenir" font-size="16" font-weight="normal" fill="#000000">
                            <tspan x="192.336" y="137">Desire</tspan>
                        </text>
                        <text id="Butterfly" font-family="Avenir-Book, Avenir" font-size="16" font-weight="normal" fill="#000000">
                            <tspan x="348.452" y="137">Butterfly</tspan>
                        </text>
                        <text id="Accessories" font-family="Avenir-Book, Avenir" font-size="16" font-weight="normal" fill="#000000">
                            <tspan x="828.36" y="137">Accessories</tspan>
                        </text>
                        <text id="RE" font-family="Avenir-Book, Avenir" font-size="16" font-weight="normal" fill="#000000">
                            <tspan x="533.512" y="137">RE</tspan>
                            <tspan x="515.144" y="159">Camera</tspan>
                        </text>
                        <text id="UA-Healthbox" font-family="Avenir-Book, Avenir" font-size="16" font-weight="normal" fill="#000000">
                            <tspan x="696.024" y="137">UA</tspan>
                            <tspan x="670.112" y="159">Healthbox</tspan>
                        </text>
                        <g id="icons">
                            <g id="ua_fitness_icon-copy" transform="translate(656.000000, 0.000000)">
                                <g id="Page-1" transform="translate(5.000000, 4.000000)">
                                    <path d="M90.1245,39.602 C93.8695,69.075 69.0745,93.869 39.6025,90.124 C19.4945,87.57 3.4305,71.506 0.8755,51.398 C-2.8695,21.925 21.9255,-2.869 51.3985,0.876 C71.5055,3.43 87.5695,19.494 90.1245,39.602" id="Fill-1" fill="#FFFFFF"></path>
                                    <path d="M90.1245,39.602 C93.8695,69.075 69.0745,93.869 39.6025,90.124 C19.4945,87.57 3.4305,71.506 0.8755,51.398 C-2.8695,21.925 21.9255,-2.869 51.3985,0.876 C71.5055,3.43 87.5695,19.494 90.1245,39.602 L90.1245,39.602 Z" id="Stroke-3" stroke="#000000" stroke-width="2" stroke-linecap="round" stroke-linejoin="round"></path>
                                    <g id="Group-8" transform="translate(50.000000, 45.000000)">
                                        <path d="M0.5641,0.4367 L40.5001,0.4367" id="Fill-5" fill="#FFFFFF"></path>
                                        <path d="M0.5641,0.4367 L40.5001,0.4367" id="Stroke-7" stroke="#000000" stroke-width="2" stroke-linecap="round" stroke-linejoin="round"></path>
                                    </g>
                                    <g id="Group-12" transform="translate(0.000000, 45.000000)">
                                        <path d="M0.5,0.4367 L40.436,0.4367" id="Fill-9" fill="#FFFFFF"></path>
                                        <path d="M0.5,0.4367 L40.436,0.4367" id="Stroke-11" stroke="#000000" stroke-width="2" stroke-linecap="round" stroke-linejoin="round"></path>
                                    </g>
                                    <g id="Group-16" transform="translate(45.000000, 17.000000)">
                                        <path d="M0.5,23.3861 L0.5,0.0031" id="Fill-13" fill="#FFFFFF"></path>
                                        <path d="M0.5,23.3861 L0.5,0.0031" id="Stroke-15" stroke="#000000" stroke-width="2" stroke-linecap="round" stroke-linejoin="round"></path>
                                    </g>
                                    <g id="Group-20" transform="translate(45.000000, 50.000000)">
                                        <path d="M0.5,40.4367 L0.5,0.4867" id="Fill-17" fill="#FFFFFF"></path>
                                        <path d="M0.5,40.4367 L0.5,0.4867" id="Stroke-19" stroke="#000000" stroke-width="2" stroke-linecap="round" stroke-linejoin="round"></path>
                                    </g>
                                    <path d="M50.5644,45.4367 C50.5644,42.6477 48.2974,40.3867 45.5004,40.3867 C42.7034,40.3867 40.4354,42.6477 40.4354,45.4367 C40.4354,48.2257 42.7034,50.4867 45.5004,50.4867 C48.2974,50.4867 50.5644,48.2257 50.5644,45.4367" id="Fill-21" fill="#FFFFFF"></path>
                                    <path d="M50.5644,45.4367 C50.5644,42.6477 48.2974,40.3867 45.5004,40.3867 C42.7034,40.3867 40.4354,42.6477 40.4354,45.4367 C40.4354,48.2257 42.7034,50.4867 45.5004,50.4867 C48.2974,50.4867 50.5644,48.2257 50.5644,45.4367 L50.5644,45.4367 Z" id="Stroke-23" stroke="#000000" stroke-width="2" stroke-linecap="round" stroke-linejoin="round"></path>
                                    <path d="M11.7938,16.0847 L79.2058,16.0847" id="Stroke-25" stroke="#000000" stroke-width="2" stroke-linecap="round" stroke-linejoin="round"></path>
                                    <path d="M79.5388,16.021 C71.2878,7.021 59.1038,0.436 45.4998,0.436 C31.8968,0.436 19.7128,7.021 11.4608,16.021 L79.5388,16.021 Z" id="Fill-27" fill="#FFFFFF"></path>
                                    <path d="M79.5388,16.021 C71.2878,7.021 59.1038,0.436 45.4998,0.436 C31.8968,0.436 19.7128,7.021 11.4608,16.021 L79.5388,16.021 L79.5388,16.021 Z" id="Stroke-29" stroke="#000000" stroke-width="2" stroke-linecap="round" stroke-linejoin="round"></path>
                                    <path d="M70.4551,62.8357 C63.0301,62.8357 56.7681,64.9527 54.7571,67.8547 C56.7681,70.7557 63.0301,72.8727 70.4551,72.8727 C77.8801,72.8727 84.1421,70.7557 86.1531,67.8547 C84.1421,64.9527 77.8801,62.8357 70.4551,62.8357" id="Fill-31" fill="#333333"></path>
                                    <path d="M70.4551,62.8357 C63.0301,62.8357 56.7681,64.9527 54.7571,67.8547 C56.7681,70.7557 63.0301,72.8727 70.4551,72.8727 C77.8801,72.8727 84.1421,70.7557 86.1531,67.8547 C84.1421,64.9527 77.8801,62.8357 70.4551,62.8357 L70.4551,62.8357 Z" id="Stroke-33" stroke="#000000" stroke-width="3" stroke-linecap="round" stroke-linejoin="round"></path>
                                    <path d="M70.4551,58.9907 C59.6851,58.9907 50.9551,62.7307 50.9551,67.3447 L50.9551,74.5207 C50.9551,79.1347 59.6851,82.8757 70.4551,82.8757 C81.2251,82.8757 89.9551,79.1347 89.9551,74.5207 L89.9551,67.3447 C89.9551,62.7307 81.2251,58.9907 70.4551,58.9907" id="Fill-35" fill="#FFFFFF"></path>
                                    <path d="M70.4551,58.9907 C59.6851,58.9907 50.9551,62.7307 50.9551,67.3447 L50.9551,74.5207 C50.9551,79.1347 59.6851,82.8757 70.4551,82.8757 C81.2251,82.8757 89.9551,79.1347 89.9551,74.5207 L89.9551,67.3447 C89.9551,62.7307 81.2251,58.9907 70.4551,58.9907 L70.4551,58.9907 Z" id="Stroke-37" stroke="#000000" stroke-width="2" stroke-linecap="round" stroke-linejoin="round"></path>
                                    <path d="M70.4551,72.8729 C67.3481,72.8729 64.4511,72.4979 61.9771,71.8539 C64.4511,71.2099 67.3481,70.8359 70.4551,70.8359 C73.5621,70.8359 76.4591,71.2099 78.9331,71.8539 C76.4591,72.4979 73.5621,72.8729 70.4551,72.8729" id="Fill-39" fill="#333333"></path>
                                    <path d="M70.4551,72.8729 C67.3481,72.8729 64.4511,72.4979 61.9771,71.8539 C64.4511,71.2099 67.3481,70.8359 70.4551,70.8359 C73.5621,70.8359 76.4591,71.2099 78.9331,71.8539 C76.4591,72.4979 73.5621,72.8729 70.4551,72.8729 L70.4551,72.8729 Z" id="Stroke-41" stroke="#000000" stroke-width="2" stroke-linecap="round" stroke-linejoin="round"></path>
                                    <path d="M61.9771,71.8543 C64.4511,71.2103 67.3481,70.8353 70.4551,70.8353 C73.5621,70.8353 76.4591,71.2103 78.9331,71.8543 C82.3711,70.9593 84.9841,69.5413 86.1531,67.8543 C84.1421,64.9533 77.8801,62.8353 70.4551,62.8353 C63.0301,62.8353 56.7681,64.9533 54.7571,67.8543 C55.9261,69.5413 58.5391,70.9593 61.9771,71.8543" id="Fill-43" fill="#FFFFFF"></path>
                                    <path d="M61.9771,71.8543 C64.4511,71.2103 67.3481,70.8353 70.4551,70.8353 C73.5621,70.8353 76.4591,71.2103 78.9331,71.8543 C82.3711,70.9593 84.9841,69.5413 86.1531,67.8543 C84.1421,64.9533 77.8801,62.8353 70.4551,62.8353 C63.0301,62.8353 56.7681,64.9533 54.7571,67.8543 C55.9261,69.5413 58.5391,70.9593 61.9771,71.8543 L61.9771,71.8543 Z" id="Stroke-45" stroke="#000000" stroke-width="2" stroke-linecap="round" stroke-linejoin="round"></path>
                                    <path d="M56.6665,74.7617 C59.9065,76.1497 64.2815,77.0517 69.1445,77.1897" id="Stroke-47" stroke="#000000" stroke-width="2" stroke-linecap="round" stroke-linejoin="round"></path>
                                </g>
                            </g>
                            <g id="accessories_icon-copy" transform="translate(820.000000, 0.000000)">
                                <g id="Page-1" transform="translate(13.000000, 6.000000)">
                                    <path d="M32.5836541,77.5027 C23.5559027,77.5027 5.5004,77.5027 5.5004,77.5027 C2.7384,77.5027 0.5004,75.2637 0.5004,72.5027 L0.5004,5.4997 C0.5004,2.7387 2.7384,0.4997 5.5004,0.4997 L36.9394,0.4997 C39.7004,0.4997 41.9394,2.7387 41.9394,5.4997 L41.9394,9.96781322" id="Stroke-3" stroke="#000000" stroke-width="2" stroke-linecap="round" stroke-linejoin="round"></path>
                                    <path d="M69.1913,87.0444 L37.7523,87.0444 C34.9903,87.0444 32.7523,84.8054 32.7523,82.0444 L32.7523,15.0414 C32.7523,12.2804 34.9903,10.0414 37.7523,10.0414 L69.1913,10.0414 C71.9523,10.0414 74.1913,12.2804 74.1913,15.0414 L74.1913,82.0444 C74.1913,84.8054 71.9523,87.0444 69.1913,87.0444 L69.1913,87.0444 Z" id="Stroke-7" stroke="#000000" stroke-width="2" stroke-linecap="round" stroke-linejoin="round"></path>
                                    <path d="M41.3683,17.0643 C41.3683,16.1173 40.6003,15.3493 39.6533,15.3493 C38.7063,15.3493 37.9383,16.1173 37.9383,17.0643 C37.9383,18.0113 38.7063,18.7793 39.6533,18.7793 C40.6003,18.7793 41.3683,18.0113 41.3683,17.0643" id="Fill-9" fill="#000000"></path>
                                    <path d="M47.6629,17.0643 C47.6629,16.1173 46.8949,15.3493 45.9479,15.3493 C45.0009,15.3493 44.2329,16.1173 44.2329,17.0643 C44.2329,18.0113 45.0009,18.7793 45.9479,18.7793 C46.8949,18.7793 47.6629,18.0113 47.6629,17.0643" id="Fill-11" fill="#000000"></path>
                                    <path d="M54.8568,17.0643 C54.8568,16.1173 54.0888,15.3493 53.1418,15.3493 C52.1948,15.3493 51.4268,16.1173 51.4268,17.0643 C51.4268,18.0113 52.1948,18.7793 53.1418,18.7793 C54.0888,18.7793 54.8568,18.0113 54.8568,17.0643" id="Fill-13" fill="#000000"></path>
                                    <path d="M61.601,17.0643 C61.601,16.1173 60.833,15.3493 59.886,15.3493 C58.939,15.3493 58.171,16.1173 58.171,17.0643 C58.171,18.0113 58.939,18.7793 59.886,18.7793 C60.833,18.7793 61.601,18.0113 61.601,17.0643" id="Fill-15" fill="#000000"></path>
                                    <path d="M68.3453,17.0643 C68.3453,16.1173 67.5773,15.3493 66.6303,15.3493 C65.6833,15.3493 64.9153,16.1173 64.9153,17.0643 C64.9153,18.0113 65.6833,18.7793 66.6303,18.7793 C67.5773,18.7793 68.3453,18.0113 68.3453,17.0643" id="Fill-17" fill="#000000"></path>
                                    <path d="M41.3683,23.359 C41.3683,22.412 40.6003,21.644 39.6533,21.644 C38.7063,21.644 37.9383,22.412 37.9383,23.359 C37.9383,24.306 38.7063,25.074 39.6533,25.074 C40.6003,25.074 41.3683,24.306 41.3683,23.359" id="Fill-19" fill="#000000"></path>
                                    <path d="M47.6629,23.359 C47.6629,22.412 46.8949,21.644 45.9479,21.644 C45.0009,21.644 44.2329,22.412 44.2329,23.359 C44.2329,24.306 45.0009,25.074 45.9479,25.074 C46.8949,25.074 47.6629,24.306 47.6629,23.359" id="Fill-21" fill="#000000"></path>
                                    <path d="M54.8568,23.359 C54.8568,22.412 54.0888,21.644 53.1418,21.644 C52.1948,21.644 51.4268,22.412 51.4268,23.359 C51.4268,24.306 52.1948,25.074 53.1418,25.074 C54.0888,25.074 54.8568,24.306 54.8568,23.359" id="Fill-23" fill="#000000"></path>
                                    <path d="M61.601,23.359 C61.601,22.412 60.833,21.644 59.886,21.644 C58.939,21.644 58.171,22.412 58.171,23.359 C58.171,24.306 58.939,25.074 59.886,25.074 C60.833,25.074 61.601,24.306 61.601,23.359" id="Fill-25" fill="#000000"></path>
                                    <path d="M68.3453,23.359 C68.3453,22.412 67.5773,21.644 66.6303,21.644 C65.6833,21.644 64.9153,22.412 64.9153,23.359 C64.9153,24.306 65.6833,25.074 66.6303,25.074 C67.5773,25.074 68.3453,24.306 68.3453,23.359" id="Fill-27" fill="#000000"></path>
                                    <path d="M41.3683,29.6536 C41.3683,28.7066 40.6003,27.9386 39.6533,27.9386 C38.7063,27.9386 37.9383,28.7066 37.9383,29.6536 C37.9383,30.6006 38.7063,31.3686 39.6533,31.3686 C40.6003,31.3686 41.3683,30.6006 41.3683,29.6536" id="Fill-29" fill="#000000"></path>
                                    <path d="M47.6629,29.6536 C47.6629,28.7066 46.8949,27.9386 45.9479,27.9386 C45.0009,27.9386 44.2329,28.7066 44.2329,29.6536 C44.2329,30.6006 45.0009,31.3686 45.9479,31.3686 C46.8949,31.3686 47.6629,30.6006 47.6629,29.6536" id="Fill-31" fill="#000000"></path>
                                    <path d="M54.8568,29.6536 C54.8568,28.7066 54.0888,27.9386 53.1418,27.9386 C52.1948,27.9386 51.4268,28.7066 51.4268,29.6536 C51.4268,30.6006 52.1948,31.3686 53.1418,31.3686 C54.0888,31.3686 54.8568,30.6006 54.8568,29.6536" id="Fill-33" fill="#000000"></path>
                                    <path d="M61.601,29.6536 C61.601,28.7066 60.833,27.9386 59.886,27.9386 C58.939,27.9386 58.171,28.7066 58.171,29.6536 C58.171,30.6006 58.939,31.3686 59.886,31.3686 C60.833,31.3686 61.601,30.6006 61.601,29.6536" id="Fill-35" fill="#000000"></path>
                                    <path d="M68.3453,29.6536 C68.3453,28.7066 67.5773,27.9386 66.6303,27.9386 C65.6833,27.9386 64.9153,28.7066 64.9153,29.6536 C64.9153,30.6006 65.6833,31.3686 66.6303,31.3686 C67.5773,31.3686 68.3453,30.6006 68.3453,29.6536" id="Fill-37" fill="#000000"></path>
                                    <path d="M41.3683,35.9483 C41.3683,35.0013 40.6003,34.2333 39.6533,34.2333 C38.7063,34.2333 37.9383,35.0013 37.9383,35.9483 C37.9383,36.8953 38.7063,37.6633 39.6533,37.6633 C40.6003,37.6633 41.3683,36.8953 41.3683,35.9483" id="Fill-39" fill="#000000"></path>
                                    <path d="M47.6629,35.9483 C47.6629,35.0013 46.8949,34.2333 45.9479,34.2333 C45.0009,34.2333 44.2329,35.0013 44.2329,35.9483 C44.2329,36.8953 45.0009,37.6633 45.9479,37.6633 C46.8949,37.6633 47.6629,36.8953 47.6629,35.9483" id="Fill-41" fill="#000000"></path>
                                    <path d="M54.8568,35.9483 C54.8568,35.0013 54.0888,34.2333 53.1418,34.2333 C52.1948,34.2333 51.4268,35.0013 51.4268,35.9483 C51.4268,36.8953 52.1948,37.6633 53.1418,37.6633 C54.0888,37.6633 54.8568,36.8953 54.8568,35.9483" id="Fill-43" fill="#000000"></path>
                                    <path d="M61.601,35.9483 C61.601,35.0013 60.833,34.2333 59.886,34.2333 C58.939,34.2333 58.171,35.0013 58.171,35.9483 C58.171,36.8953 58.939,37.6633 59.886,37.6633 C60.833,37.6633 61.601,36.8953 61.601,35.9483" id="Fill-45" fill="#000000"></path>
                                    <path d="M68.3453,35.9483 C68.3453,35.0013 67.5773,34.2333 66.6303,34.2333 C65.6833,34.2333 64.9153,35.0013 64.9153,35.9483 C64.9153,36.8953 65.6833,37.6633 66.6303,37.6633 C67.5773,37.6633 68.3453,36.8953 68.3453,35.9483" id="Fill-47" fill="#000000"></path>
                                    <path d="M41.3683,42.2429 C41.3683,41.2959 40.6003,40.5279 39.6533,40.5279 C38.7063,40.5279 37.9383,41.2959 37.9383,42.2429 C37.9383,43.1899 38.7063,43.9579 39.6533,43.9579 C40.6003,43.9579 41.3683,43.1899 41.3683,42.2429" id="Fill-49" fill="#000000"></path>
                                    <path d="M47.6629,42.2429 C47.6629,41.2959 46.8949,40.5279 45.9479,40.5279 C45.0009,40.5279 44.2329,41.2959 44.2329,42.2429 C44.2329,43.1899 45.0009,43.9579 45.9479,43.9579 C46.8949,43.9579 47.6629,43.1899 47.6629,42.2429" id="Fill-51" fill="#000000"></path>
                                    <path d="M54.8568,42.2429 C54.8568,41.2959 54.0888,40.5279 53.1418,40.5279 C52.1948,40.5279 51.4268,41.2959 51.4268,42.2429 C51.4268,43.1899 52.1948,43.9579 53.1418,43.9579 C54.0888,43.9579 54.8568,43.1899 54.8568,42.2429" id="Fill-53" fill="#000000"></path>
                                    <path d="M61.601,42.2429 C61.601,41.2959 60.833,40.5279 59.886,40.5279 C58.939,40.5279 58.171,41.2959 58.171,42.2429 C58.171,43.1899 58.939,43.9579 59.886,43.9579 C60.833,43.9579 61.601,43.1899 61.601,42.2429" id="Fill-55" fill="#000000"></path>
                                    <path d="M68.3453,42.2429 C68.3453,41.2959 67.5773,40.5279 66.6303,40.5279 C65.6833,40.5279 64.9153,41.2959 64.9153,42.2429 C64.9153,43.1899 65.6833,43.9579 66.6303,43.9579 C67.5773,43.9579 68.3453,43.1899 68.3453,42.2429" id="Fill-57" fill="#000000"></path>
                                    <path d="M41.3683,48.5375 C41.3683,47.5905 40.6003,46.8225 39.6533,46.8225 C38.7063,46.8225 37.9383,47.5905 37.9383,48.5375 C37.9383,49.4845 38.7063,50.2525 39.6533,50.2525 C40.6003,50.2525 41.3683,49.4845 41.3683,48.5375" id="Fill-59" fill="#000000"></path>
                                    <path d="M47.6629,48.5375 C47.6629,47.5905 46.8949,46.8225 45.9479,46.8225 C45.0009,46.8225 44.2329,47.5905 44.2329,48.5375 C44.2329,49.4845 45.0009,50.2525 45.9479,50.2525 C46.8949,50.2525 47.6629,49.4845 47.6629,48.5375" id="Fill-61" fill="#000000"></path>
                                    <path d="M54.8568,48.5375 C54.8568,47.5905 54.0888,46.8225 53.1418,46.8225 C52.1948,46.8225 51.4268,47.5905 51.4268,48.5375 C51.4268,49.4845 52.1948,50.2525 53.1418,50.2525 C54.0888,50.2525 54.8568,49.4845 54.8568,48.5375" id="Fill-63" fill="#000000"></path>
                                    <path d="M61.601,48.5375 C61.601,47.5905 60.833,46.8225 59.886,46.8225 C58.939,46.8225 58.171,47.5905 58.171,48.5375 C58.171,49.4845 58.939,50.2525 59.886,50.2525 C60.833,50.2525 61.601,49.4845 61.601,48.5375" id="Fill-65" fill="#000000"></path>
                                    <path d="M68.3453,48.5375 C68.3453,47.5905 67.5773,46.8225 66.6303,46.8225 C65.6833,46.8225 64.9153,47.5905 64.9153,48.5375 C64.9153,49.4845 65.6833,50.2525 66.6303,50.2525 C67.5773,50.2525 68.3453,49.4845 68.3453,48.5375" id="Fill-67" fill="#000000"></path>
                                    <path d="M41.3683,54.8322 C41.3683,53.8852 40.6003,53.1172 39.6533,53.1172 C38.7063,53.1172 37.9383,53.8852 37.9383,54.8322 C37.9383,55.7792 38.7063,56.5472 39.6533,56.5472 C40.6003,56.5472 41.3683,55.7792 41.3683,54.8322" id="Fill-69" fill="#000000"></path>
                                    <path d="M47.6629,54.8322 C47.6629,53.8852 46.8949,53.1172 45.9479,53.1172 C45.0009,53.1172 44.2329,53.8852 44.2329,54.8322 C44.2329,55.7792 45.0009,56.5472 45.9479,56.5472 C46.8949,56.5472 47.6629,55.7792 47.6629,54.8322" id="Fill-71" fill="#000000"></path>
                                    <path d="M54.8568,54.8322 C54.8568,53.8852 54.0888,53.1172 53.1418,53.1172 C52.1948,53.1172 51.4268,53.8852 51.4268,54.8322 C51.4268,55.7792 52.1948,56.5472 53.1418,56.5472 C54.0888,56.5472 54.8568,55.7792 54.8568,54.8322" id="Fill-73" fill="#000000"></path>
                                    <path d="M61.601,54.8322 C61.601,53.8852 60.833,53.1172 59.886,53.1172 C58.939,53.1172 58.171,53.8852 58.171,54.8322 C58.171,55.7792 58.939,56.5472 59.886,56.5472 C60.833,56.5472 61.601,55.7792 61.601,54.8322" id="Fill-75" fill="#000000"></path>
                                    <path d="M68.3453,54.8322 C68.3453,53.8852 67.5773,53.1172 66.6303,53.1172 C65.6833,53.1172 64.9153,53.8852 64.9153,54.8322 C64.9153,55.7792 65.6833,56.5472 66.6303,56.5472 C67.5773,56.5472 68.3453,55.7792 68.3453,54.8322" id="Fill-77" fill="#000000"></path>
                                    <path d="M41.3683,61.1268 C41.3683,60.1798 40.6003,59.4118 39.6533,59.4118 C38.7063,59.4118 37.9383,60.1798 37.9383,61.1268 C37.9383,62.0738 38.7063,62.8418 39.6533,62.8418 C40.6003,62.8418 41.3683,62.0738 41.3683,61.1268" id="Fill-79" fill="#000000"></path>
                                    <path d="M47.6629,61.1268 C47.6629,60.1798 46.8949,59.4118 45.9479,59.4118 C45.0009,59.4118 44.2329,60.1798 44.2329,61.1268 C44.2329,62.0738 45.0009,62.8418 45.9479,62.8418 C46.8949,62.8418 47.6629,62.0738 47.6629,61.1268" id="Fill-81" fill="#000000"></path>
                                    <path d="M54.8568,61.1268 C54.8568,60.1798 54.0888,59.4118 53.1418,59.4118 C52.1948,59.4118 51.4268,60.1798 51.4268,61.1268 C51.4268,62.0738 52.1948,62.8418 53.1418,62.8418 C54.0888,62.8418 54.8568,62.0738 54.8568,61.1268" id="Fill-83" fill="#000000"></path>
                                    <path d="M61.601,61.1268 C61.601,60.1798 60.833,59.4118 59.886,59.4118 C58.939,59.4118 58.171,60.1798 58.171,61.1268 C58.171,62.0738 58.939,62.8418 59.886,62.8418 C60.833,62.8418 61.601,62.0738 61.601,61.1268" id="Fill-85" fill="#000000"></path>
                                    <path d="M68.3453,61.1268 C68.3453,60.1798 67.5773,59.4118 66.6303,59.4118 C65.6833,59.4118 64.9153,60.1798 64.9153,61.1268 C64.9153,62.0738 65.6833,62.8418 66.6303,62.8418 C67.5773,62.8418 68.3453,62.0738 68.3453,61.1268" id="Fill-87" fill="#000000"></path>
                                    <path d="M41.3683,67.4215 C41.3683,66.4745 40.6003,65.7065 39.6533,65.7065 C38.7063,65.7065 37.9383,66.4745 37.9383,67.4215 C37.9383,68.3685 38.7063,69.1365 39.6533,69.1365 C40.6003,69.1365 41.3683,68.3685 41.3683,67.4215" id="Fill-89" fill="#000000"></path>
                                    <path d="M47.6629,67.4215 C47.6629,66.4745 46.8949,65.7065 45.9479,65.7065 C45.0009,65.7065 44.2329,66.4745 44.2329,67.4215 C44.2329,68.3685 45.0009,69.1365 45.9479,69.1365 C46.8949,69.1365 47.6629,68.3685 47.6629,67.4215" id="Fill-91" fill="#000000"></path>
                                    <path d="M54.8568,67.4215 C54.8568,66.4745 54.0888,65.7065 53.1418,65.7065 C52.1948,65.7065 51.4268,66.4745 51.4268,67.4215 C51.4268,68.3685 52.1948,69.1365 53.1418,69.1365 C54.0888,69.1365 54.8568,68.3685 54.8568,67.4215" id="Fill-93" fill="#000000"></path>
                                    <path d="M61.601,67.4215 C61.601,66.4745 60.833,65.7065 59.886,65.7065 C58.939,65.7065 58.171,66.4745 58.171,67.4215 C58.171,68.3685 58.939,69.1365 59.886,69.1365 C60.833,69.1365 61.601,68.3685 61.601,67.4215" id="Fill-95" fill="#000000"></path>
                                    <path d="M68.3453,67.4215 C68.3453,66.4745 67.5773,65.7065 66.6303,65.7065 C65.6833,65.7065 64.9153,66.4745 64.9153,67.4215 C64.9153,68.3685 65.6833,69.1365 66.6303,69.1365 C67.5773,69.1365 68.3453,68.3685 68.3453,67.4215" id="Fill-97" fill="#000000"></path>
                                    <path d="M41.3683,73.7161 C41.3683,72.7691 40.6003,72.0011 39.6533,72.0011 C38.7063,72.0011 37.9383,72.7691 37.9383,73.7161 C37.9383,74.6631 38.7063,75.4311 39.6533,75.4311 C40.6003,75.4311 41.3683,74.6631 41.3683,73.7161" id="Fill-99" fill="#000000"></path>
                                    <path d="M47.6629,73.7161 C47.6629,72.7691 46.8949,72.0011 45.9479,72.0011 C45.0009,72.0011 44.2329,72.7691 44.2329,73.7161 C44.2329,74.6631 45.0009,75.4311 45.9479,75.4311 C46.8949,75.4311 47.6629,74.6631 47.6629,73.7161" id="Fill-101" fill="#000000"></path>
                                    <path d="M54.8568,73.7161 C54.8568,72.7691 54.0888,72.0011 53.1418,72.0011 C52.1948,72.0011 51.4268,72.7691 51.4268,73.7161 C51.4268,74.6631 52.1948,75.4311 53.1418,75.4311 C54.0888,75.4311 54.8568,74.6631 54.8568,73.7161" id="Fill-103" fill="#000000"></path>
                                    <path d="M61.601,73.7161 C61.601,72.7691 60.833,72.0011 59.886,72.0011 C58.939,72.0011 58.171,72.7691 58.171,73.7161 C58.171,74.6631 58.939,75.4311 59.886,75.4311 C60.833,75.4311 61.601,74.6631 61.601,73.7161" id="Fill-105" fill="#000000"></path>
                                    <path d="M68.3453,73.7161 C68.3453,72.7691 67.5773,72.0011 66.6303,72.0011 C65.6833,72.0011 64.9153,72.7691 64.9153,73.7161 C64.9153,74.6631 65.6833,75.4311 66.6303,75.4311 C67.5773,75.4311 68.3453,74.6631 68.3453,73.7161" id="Fill-107" fill="#000000"></path>
                                    <path d="M41.3683,80.0107 C41.3683,79.0637 40.6003,78.2957 39.6533,78.2957 C38.7063,78.2957 37.9383,79.0637 37.9383,80.0107 C37.9383,80.9577 38.7063,81.7257 39.6533,81.7257 C40.6003,81.7257 41.3683,80.9577 41.3683,80.0107" id="Fill-109" fill="#000000"></path>
                                    <path d="M47.6629,80.0107 C47.6629,79.0637 46.8949,78.2957 45.9479,78.2957 C45.0009,78.2957 44.2329,79.0637 44.2329,80.0107 C44.2329,80.9577 45.0009,81.7257 45.9479,81.7257 C46.8949,81.7257 47.6629,80.9577 47.6629,80.0107" id="Fill-111" fill="#000000"></path>
                                    <path d="M54.8568,80.0107 C54.8568,79.0637 54.0888,78.2957 53.1418,78.2957 C52.1948,78.2957 51.4268,79.0637 51.4268,80.0107 C51.4268,80.9577 52.1948,81.7257 53.1418,81.7257 C54.0888,81.7257 54.8568,80.9577 54.8568,80.0107" id="Fill-113" fill="#000000"></path>
                                    <path d="M61.601,80.0107 C61.601,79.0637 60.833,78.2957 59.886,78.2957 C58.939,78.2957 58.171,79.0637 58.171,80.0107 C58.171,80.9577 58.939,81.7257 59.886,81.7257 C60.833,81.7257 61.601,80.9577 61.601,80.0107" id="Fill-115" fill="#000000"></path>
                                    <path d="M68.3453,80.0107 C68.3453,79.0637 67.5773,78.2957 66.6303,78.2957 C65.6833,78.2957 64.9153,79.0637 64.9153,80.0107 C64.9153,80.9577 65.6833,81.7257 66.6303,81.7257 C67.5773,81.7257 68.3453,80.9577 68.3453,80.0107" id="Fill-117" fill="#000000"></path>
                                    <path d="M8.6259,17.0643 L8.6259,17.0643 C7.0609,17.0643 5.7929,15.7953 5.7929,14.2313 L5.7929,9.4393 C5.7929,7.8743 7.0609,6.6063 8.6259,6.6063 L8.6259,6.6063 C10.1909,6.6063 11.4589,7.8743 11.4589,9.4393 L11.4589,14.2313 C11.4589,15.7953 10.1909,17.0643 8.6259,17.0643" id="Fill-119" fill="#FFFFFF"></path>
                                    <path d="M8.6259,17.0643 L8.6259,17.0643 C7.0609,17.0643 5.7929,15.7953 5.7929,14.2313 L5.7929,9.4393 C5.7929,7.8743 7.0609,6.6063 8.6259,6.6063 L8.6259,6.6063 C10.1909,6.6063 11.4589,7.8743 11.4589,9.4393 L11.4589,14.2313 C11.4589,15.7953 10.1909,17.0643 8.6259,17.0643 L8.6259,17.0643 Z" id="Stroke-121" stroke="#000000" stroke-width="2" stroke-linecap="round" stroke-linejoin="round"></path>
                                </g>
                            </g>
                            <g id="butterfly_icon-copy" transform="translate(328.000000, 0.000000)">
                                <g id="Page-1" transform="translate(12.000000, 1.000000)">
                                    <path d="M37.1671,84.5626 L6.5001,84.5626 C3.7391,84.5626 1.5001,82.3236 1.5001,79.5626 L1.5001,6.4996 C1.5001,3.7386 3.7391,1.4996 6.5001,1.4996 L37.1671,1.4996 C39.9281,1.4996 42.1671,3.7386 42.1671,6.4996 L42.1671,79.5626 C42.1671,82.3236 39.9281,84.5626 37.1671,84.5626 L37.1671,84.5626 Z" id="Fill-1" fill="#FFFFFF"></path>
                                    <path d="M37.1671,84.5626 L6.5001,84.5626 C3.7391,84.5626 1.5001,82.3236 1.5001,79.5626 L1.5001,6.4996 C1.5001,3.7386 3.7391,1.4996 6.5001,1.4996 L37.1671,1.4996 C39.9281,1.4996 42.1671,3.7386 42.1671,6.4996 L42.1671,79.5626 C42.1671,82.3236 39.9281,84.5626 37.1671,84.5626 L37.1671,84.5626 Z" id="Stroke-3" stroke="#000000" stroke-width="2" stroke-linecap="round" stroke-linejoin="round"></path>
                                    <path d="M69.596,96.4728 L38.929,96.4728 C36.168,96.4728 33.929,94.2338 33.929,91.4728 L33.929,18.4098 C33.929,15.6488 36.168,13.4098 38.929,13.4098 L69.596,13.4098 C72.357,13.4098 74.596,15.6488 74.596,18.4098 L74.596,91.4728 C74.596,94.2338 72.357,96.4728 69.596,96.4728" id="Fill-5" fill="#FFFFFF"></path>
                                    <path d="M69.596,96.4728 L38.929,96.4728 C36.168,96.4728 33.929,94.2338 33.929,91.4728 L33.929,18.4098 C33.929,15.6488 36.168,13.4098 38.929,13.4098 L69.596,13.4098 C72.357,13.4098 74.596,15.6488 74.596,18.4098 L74.596,91.4728 C74.596,94.2338 72.357,96.4728 69.596,96.4728 L69.596,96.4728 Z" id="Stroke-7" stroke="#000000" stroke-width="2" stroke-linecap="round" stroke-linejoin="round"></path>
                                    <mask id="mask-2" fill="white">
                                        <use xlink:href="#path-1"></use>
                                    </mask>
                                    <g id="Clip-10"></g>
                                    <polygon id="Fill-9" fill="#FFFFFF" mask="url(#mask-2)" points="33.929 87.1828 74.596 87.1828 74.596 22.7008 33.929 22.7008"></polygon>
                                    <polygon id="Stroke-11" stroke="#000000" stroke-width="2" stroke-linecap="round" stroke-linejoin="round" mask="url(#mask-2)" points="33.929 87.1828 74.596 87.1828 74.596 22.7008 33.929 22.7008"></polygon>
                                    <path d="M24.9987,17.3621 C25.4517,19.7541 23.3937,21.8121 21.0027,21.3581 C19.6737,21.1071 18.5867,20.0201 18.3347,18.6911 C17.8817,16.2991 19.9397,14.2411 22.3317,14.6951 C23.6597,14.9461 24.7467,16.0331 24.9987,17.3621" id="Fill-12" fill="#FFFFFF" mask="url(#mask-2)"></path>
                                    <path d="M24.9987,17.3621 C25.4517,19.7541 23.3937,21.8121 21.0027,21.3581 C19.6737,21.1071 18.5867,20.0201 18.3347,18.6911 C17.8817,16.2991 19.9397,14.2411 22.3317,14.6951 C23.6597,14.9461 24.7467,16.0331 24.9987,17.3621 L24.9987,17.3621 Z" id="Stroke-13" stroke="#000000" stroke-width="2" stroke-linecap="round" stroke-linejoin="round" mask="url(#mask-2)"></path>
                                    <path d="M23.0455,9.1442 C23.4195,10.3132 22.3575,11.3752 21.1885,11.0012 C20.7685,10.8672 20.4225,10.5202 20.2885,10.1012 C19.9145,8.9322 20.9765,7.8702 22.1455,8.2442 C22.5645,8.3782 22.9115,8.7242 23.0455,9.1442" id="Fill-14" fill="#000000" mask="url(#mask-2)"></path>
                                    <path d="M15.0138,16.866 L15.0138,19.844" id="Stroke-15" stroke="#000000" stroke-width="2" stroke-linecap="round" stroke-linejoin="round" mask="url(#mask-2)"></path>
                                    <path d="M46.4576,95.5668 L46.4576,95.5668 C47.0366,93.8288 48.6636,92.6568 50.4946,92.6568 L59.8806,92.6568 C61.7116,92.6568 63.3386,93.8288 63.9176,95.5668 L63.9176,95.5668" id="Stroke-16" stroke="#000000" stroke-width="2" stroke-linecap="round" stroke-linejoin="round" mask="url(#mask-2)"></path>
                                    <path d="M63.9176,14.3162 L63.9176,14.3162 C63.3386,16.0542 61.7116,17.2262 59.8806,17.2262 L50.4946,17.2262 C48.6636,17.2262 47.0366,16.0542 46.4576,14.3162 L46.4576,14.3162" id="Stroke-17" stroke="#000000" stroke-width="2" stroke-linecap="round" stroke-linejoin="round" mask="url(#mask-2)"></path>
                                </g>
                            </g>
                            <g id="desire_icon-copy" transform="translate(164.000000, 0.000000)">
                                <g id="Page-1" transform="translate(12.000000, 1.000000)">
                                    <path d="M37.1671,84.5626 L6.5001,84.5626 C3.7391,84.5626 1.5001,82.3236 1.5001,79.5626 L1.5001,6.4996 C1.5001,3.7386 3.7391,1.4996 6.5001,1.4996 L37.1671,1.4996 C39.9281,1.4996 42.1671,3.7386 42.1671,6.4996 L42.1671,79.5626 C42.1671,82.3236 39.9281,84.5626 37.1671,84.5626 L37.1671,84.5626 Z" id="Stroke-1" stroke="#000000" stroke-width="2" stroke-linecap="round" stroke-linejoin="round"></path>
                                    <path d="M13.6347,9.4657 C14.0707,11.7677 12.0907,13.7477 9.7887,13.3117 C8.5107,13.0687 7.4647,12.0237 7.2217,10.7447 C6.7857,8.4427 8.7667,6.4627 11.0677,6.8987 C12.3467,7.1417 13.3927,8.1867 13.6347,9.4657" id="Fill-3" fill="#FFFFFF"></path>
                                    <path d="M13.6347,9.4657 C14.0707,11.7677 12.0907,13.7477 9.7887,13.3117 C8.5107,13.0687 7.4647,12.0237 7.2217,10.7447 C6.7857,8.4427 8.7667,6.4627 11.0677,6.8987 C12.3467,7.1417 13.3927,8.1867 13.6347,9.4657 L13.6347,9.4657 Z" id="Stroke-5" stroke="#000000" stroke-width="2" stroke-linecap="round" stroke-linejoin="round"></path>
                                    <path d="M69.596,96.4728 L38.929,96.4728 C36.168,96.4728 33.929,94.2338 33.929,91.4728 L33.929,18.4098 C33.929,15.6488 36.168,13.4098 38.929,13.4098 L69.596,13.4098 C72.357,13.4098 74.596,15.6488 74.596,18.4098 L74.596,91.4728 C74.596,94.2338 72.357,96.4728 69.596,96.4728" id="Fill-9" fill="#FFFFFF"></path>
                                    <path d="M69.596,96.4728 L38.929,96.4728 C36.168,96.4728 33.929,94.2338 33.929,91.4728 L33.929,18.4098 C33.929,15.6488 36.168,13.4098 38.929,13.4098 L69.596,13.4098 C72.357,13.4098 74.596,15.6488 74.596,18.4098 L74.596,91.4728 C74.596,94.2338 72.357,96.4728 69.596,96.4728 L69.596,96.4728 Z" id="Stroke-11" stroke="#000000" stroke-width="2" stroke-linecap="round" stroke-linejoin="round"></path>
                                    <mask id="mask-4" fill="white">
                                        <use xlink:href="#path-3"></use>
                                    </mask>
                                    <g id="Clip-14"></g>
                                    <polygon id="Fill-13" fill="#FFFFFF" mask="url(#mask-4)" points="33.929 87.1828 74.596 87.1828 74.596 22.7008 33.929 22.7008"></polygon>
                                    <polygon id="Stroke-15" stroke="#000000" stroke-width="2" stroke-linecap="round" stroke-linejoin="round" mask="url(#mask-4)" points="33.929 87.1828 74.596 87.1828 74.596 22.7008 33.929 22.7008"></polygon>
                                    <path d="M50.3869,17.9648 L58.1379,17.9648" id="Stroke-16" stroke="#000000" stroke-width="2" stroke-linecap="round" stroke-linejoin="round" mask="url(#mask-4)"></path>
                                    <path d="M42.9431,17.4862 C43.3171,18.6552 42.2551,19.7182 41.0861,19.3442 C40.6661,19.2092 40.3201,18.8632 40.1861,18.4432 C39.8121,17.2742 40.8741,16.2122 42.0431,16.5862 C42.4621,16.7202 42.8091,17.0662 42.9431,17.4862" id="Fill-17" fill="#000000" mask="url(#mask-4)"></path>
                                    <path d="M55.6412,91.2587 C56.0152,92.4277 54.9532,93.4897 53.7842,93.1157 C53.3642,92.9817 53.0182,92.6347 52.8842,92.2157 C52.5102,91.0467 53.5722,89.9847 54.7412,90.3587 C55.1602,90.4927 55.5072,90.8387 55.6412,91.2587" id="Fill-18" fill="#000000" mask="url(#mask-4)"></path>
                                </g>
                            </g>
                            <g id="one_icon-copy">
                                <path d="M49.1671,84.5626 L18.5001,84.5626 C15.7391,84.5626 13.5001,82.3236 13.5001,79.5626 L13.5001,6.4996 C13.5001,3.7386 15.7391,1.4996 18.5001,1.4996 L49.1671,1.4996 C51.9281,1.4996 54.1671,3.7386 54.1671,6.4996 L54.1671,79.5626 C54.1671,82.3236 51.9281,84.5626 49.1671,84.5626 L49.1671,84.5626 Z" id="Fill-1" fill="#FFFFFF" fill-rule="evenodd"></path>
                                <path d="M49.1671,84.5626 L18.5001,84.5626 C15.7391,84.5626 13.5001,82.3236 13.5001,79.5626 L13.5001,6.4996 C13.5001,3.7386 15.7391,1.4996 18.5001,1.4996 L49.1671,1.4996 C51.9281,1.4996 54.1671,3.7386 54.1671,6.4996 L54.1671,79.5626 C54.1671,82.3236 51.9281,84.5626 49.1671,84.5626 L49.1671,84.5626 Z" id="Stroke-3" stroke="#000000" stroke-width="2" stroke-linecap="round" stroke-linejoin="round"></path>
                                <path d="M34.5698,21.8355 L31.7038,21.8355 C30.0468,21.8355 28.7038,20.4925 28.7038,18.8355 L28.7038,15.9695 C28.7038,14.3125 30.0468,12.9695 31.7038,12.9695 L34.5698,12.9695 C36.2268,12.9695 37.5698,14.3125 37.5698,15.9695 L37.5698,18.8355 C37.5698,20.4925 36.2268,21.8355 34.5698,21.8355" id="Fill-5" fill="#FFFFFF" fill-rule="evenodd"></path>
                                <path d="M34.5698,21.8355 L31.7038,21.8355 C30.0468,21.8355 28.7038,20.4925 28.7038,18.8355 L28.7038,15.9695 C28.7038,14.3125 30.0468,12.9695 31.7038,12.9695 L34.5698,12.9695 C36.2268,12.9695 37.5698,14.3125 37.5698,15.9695 L37.5698,18.8355 C37.5698,20.4925 36.2268,21.8355 34.5698,21.8355 L34.5698,21.8355 Z" id="Stroke-7" stroke="#000000" stroke-width="2" stroke-linecap="round" stroke-linejoin="round"></path>
                                <path d="M24.219,19.7181 C23.736,19.7181 23.344,19.3261 23.344,18.8431 L23.344,15.7411 C23.344,15.2571 23.736,14.8661 24.219,14.8661 L24.785,14.8661 C25.268,14.8661 25.66,15.2571 25.66,15.7411 L25.66,18.8431 C25.66,19.3261 25.268,19.7181 24.785,19.7181 L24.219,19.7181 Z" id="Fill-9" fill="#000000" fill-rule="evenodd"></path>
                                <path d="M82.7264,97.9977 L50.8014,97.9977 C48.0404,97.9977 45.9294,94.3017 45.9294,91.6227 L45.9294,18.2607 C45.9294,15.5817 48.1004,13.4107 50.7794,13.4107 L81.7464,13.4107 C84.4244,13.4107 86.5964,15.5817 86.5964,18.2607 L86.5964,91.6227 C86.5964,94.3017 85.4874,97.9977 82.7264,97.9977" id="Fill-11" fill="#FFFFFF" fill-rule="evenodd"></path>
                                <path d="M82.7264,97.9977 L50.8014,97.9977 C48.0404,97.9977 45.9294,94.3017 45.9294,91.6227 L45.9294,18.2607 C45.9294,15.5817 48.1004,13.4107 50.7794,13.4107 L81.7464,13.4107 C84.4244,13.4107 86.5964,15.5817 86.5964,18.2607 L86.5964,91.6227 C86.5964,94.3017 85.4874,97.9977 82.7264,97.9977 L82.7264,97.9977 Z" id="Stroke-13" stroke="#000000" stroke-width="2" stroke-linecap="round" stroke-linejoin="round"></path>
                                <polygon id="Fill-15" fill="#FFFFFF" fill-rule="evenodd" points="45.929 87.3637 86.596 87.3637 86.596 22.5187 45.929 22.5187"></polygon>
                                <polygon id="Stroke-17" stroke="#000000" stroke-width="2" stroke-linecap="round" stroke-linejoin="round" points="45.929 87.3637 86.596 87.3637 86.596 22.5187 45.929 22.5187"></polygon>
                                <path d="M61.5067,17 L71.0187,17" id="Stroke-18" stroke="#000000" stroke-width="2" stroke-linecap="round" stroke-linejoin="round"></path>
                                <path d="M60.0266,92 L72.4986,92" id="Stroke-19" stroke="#000000" stroke-width="2" stroke-linecap="round" stroke-linejoin="round"></path>
                                <path d="M76.7691,17.5092 C77.1251,18.6222 76.1141,19.6332 75.0011,19.2772 C74.6011,19.1492 74.2711,18.8202 74.1441,18.4202 C73.7871,17.3072 74.7991,16.2962 75.9121,16.6522 C76.3111,16.7802 76.6411,17.1092 76.7691,17.5092" id="Fill-20" fill="#000000" fill-rule="evenodd"></path>
                            </g>
                            <g id="re_camera_icon-copy" transform="translate(492.000000, 0.000000)">
                                <g id="Page-1" transform="translate(21.000000, 4.000000)">
                                    <path d="M6.2825,0.5 L15.1795,0.5 C24.0525,0.5 30.9205,7.651 30.9205,16.498 L30.9205,71.952 C30.9205,73.608 29.9015,74.5 28.2445,74.5 L12.5345,74.5 C10.8775,74.5 9.9205,73.608 9.9205,71.952 L9.9205,24.436 C9.9205,23.938 9.1305,23.5 8.6325,23.5 L6.2825,23.5 C3.0885,23.5 0.5005,18.367 0.5005,12 C0.5005,5.633 3.0885,0.5 6.2825,0.5" id="Fill-1" fill="#FFFFFF"></path>
                                    <path d="M6.2825,0.5 L15.1795,0.5 C24.0525,0.5 30.9205,7.651 30.9205,16.498 L30.9205,71.952 C30.9205,73.608 29.9015,74.5 28.2445,74.5 L12.5345,74.5 C10.8775,74.5 9.9205,73.608 9.9205,71.952 L9.9205,24.436 C9.9205,23.938 9.1305,23.5 8.6325,23.5 L6.2825,23.5 C3.0885,23.5 0.5005,18.367 0.5005,12 C0.5005,5.633 3.0885,0.5 6.2825,0.5 L6.2825,0.5 Z" id="Stroke-3" stroke="#000000" stroke-width="2" stroke-linecap="round" stroke-linejoin="round"></path>
                                    <g id="Group-8" transform="translate(10.000000, 68.000000)">
                                        <path d="M16.6945,0.471 L0.0915,0.471" id="Fill-5" fill="#FFFFFF"></path>
                                        <path d="M16.6945,0.471 L0.0915,0.471" id="Stroke-7" stroke="#000000" stroke-width="2" stroke-linecap="round" stroke-linejoin="round"></path>
                                    </g>
                                    <path d="M52.1105,16.5 L43.2135,16.5 C34.3405,16.5 26.9205,23.179 26.9205,32.026 L26.9205,87.479 C26.9205,89.136 28.4915,90.5 30.1485,90.5 L45.8585,90.5 C47.5155,90.5 48.9205,89.136 48.9205,87.479 L48.9205,39.964 C48.9205,39.466 49.2625,39.5 49.7605,39.5 L52.1105,39.5 C55.3045,39.5 57.8925,34.367 57.8925,28 C57.8925,21.633 55.3045,16.5 52.1105,16.5" id="Fill-9" fill="#FFFFFF"></path>
                                    <path d="M52.1105,16.5 L43.2135,16.5 C34.3405,16.5 26.9205,23.179 26.9205,32.026 L26.9205,87.479 C26.9205,89.136 28.4915,90.5 30.1485,90.5 L45.8585,90.5 C47.5155,90.5 48.9205,89.136 48.9205,87.479 L48.9205,39.964 C48.9205,39.466 49.2625,39.5 49.7605,39.5 L52.1105,39.5 C55.3045,39.5 57.8925,34.367 57.8925,28 C57.8925,21.633 55.3045,16.5 52.1105,16.5 L52.1105,16.5 Z" id="Stroke-11" stroke="#000000" stroke-width="2" stroke-linecap="round" stroke-linejoin="round"></path>
                                    <path d="M47.2786,27.8049 C47.2786,21.9619 49.6546,17.2249 52.5856,17.2249 C55.5166,17.2249 57.8926,21.9619 57.8926,27.8049 C57.8926,33.6479 55.5166,38.3849 52.5856,38.3849 C49.6546,38.3849 47.2786,33.6479 47.2786,27.8049" id="Fill-13" fill="#FFFFFF"></path>
                                    <path d="M47.2786,27.8049 C47.2786,21.9619 49.6546,17.2249 52.5856,17.2249 C55.5166,17.2249 57.8926,21.9619 57.8926,27.8049 C57.8926,33.6479 55.5166,38.3849 52.5856,38.3849 C49.6546,38.3849 47.2786,33.6479 47.2786,27.8049 L47.2786,27.8049 Z" id="Stroke-15" stroke="#000000" stroke-width="2" stroke-linecap="round" stroke-linejoin="round"></path>
                                    <path d="M50.8671,27.8049 C50.8671,24.9569 51.6371,22.6489 52.5861,22.6489 C53.5351,22.6489 54.3051,24.9569 54.3051,27.8049 C54.3051,30.6529 53.5351,32.9609 52.5861,32.9609 C51.6371,32.9609 50.8671,30.6529 50.8671,27.8049 L50.8671,27.8049 Z" id="Stroke-17" stroke="#000000" stroke-width="2"></path>
                                    <g id="Group-22" transform="translate(27.000000, 84.000000)">
                                        <path d="M21.0816,0.1496 L0.6946,0.1496" id="Fill-19" fill="#FFFFFF"></path>
                                        <path d="M21.0816,0.1496 L0.6946,0.1496" id="Stroke-21" stroke="#000000" stroke-width="2" stroke-linecap="round" stroke-linejoin="round"></path>
                                    </g>
                                </g>
                            </g>
                        </g>
                    </g>
                </g>
            </g>
        </g>
    </g>
</svg>