<?xml version="1.0" encoding="UTF-8" standalone="no"?>
<svg width="322px" height="523px" viewBox="0 0 322 523" version="1.1" xmlns="http://www.w3.org/2000/svg" xmlns:xlink="http://www.w3.org/1999/xlink">
    <!-- Generator: Sketch 39 (31667) - http://www.bohemiancoding.com/sketch -->
    <title>Group 35</title>
    <desc>Created with Sketch.</desc>
    <defs></defs>
    <g id="Page-1" stroke="none" stroke-width="1" fill="none" fill-rule="evenodd">
        <g id="Group-35" transform="translate(0.000000, 2.000000)">
            <g id="Group-12">
                <text id="Email" font-family="Avenir-Book, Avenir" font-size="21" font-weight="normal" fill="#000000">
                    <tspan x="134" y="61">Email</tspan>
                </text>
                <polygon id="Stroke-9" stroke="#000000" stroke-width="2.258" points="143 26.235 176.327 26.235 176.327 0 143 0"></polygon>
                <polyline id="Stroke-10" stroke="#000000" stroke-width="2.258" points="176.327 3 159.664 14.334 143 3"></polyline>
                <text id="Monday-to-Friday,-3a" font-family="Avenir-Book, Avenir" font-size="14" font-weight="normal" fill="#000000">
                    <tspan x="104.594" y="294">Monday to Friday,</tspan>
                    <tspan x="80.29" y="313">3am to 8pm Eastern Time</tspan>
                </text>
                <polygon id="Stroke-12" stroke="#000000" stroke-width="1.844" points="149 227.381 171.506 227.381 171.506 200 149 200"></polygon>
                <path d="M149,206 L171.506,206" id="Stroke-13" stroke="#000000" stroke-width="1.844"></path>
                <path d="M160,206 L160,227.299" id="Stroke-14" stroke="#000000" stroke-width="1.844"></path>
                <path d="M160,206 L160,227.299" id="Stroke-15" stroke="#000000" stroke-width="1.844"></path>
                <path d="M160,206 L160,227.299" id="Stroke-16" stroke="#000000" stroke-width="1.844"></path>
                <path d="M171.506,217 L149,217" id="Stroke-17" stroke="#000000" stroke-width="1.844"></path>
                <path d="M171.506,211 L149,211" id="Stroke-18" stroke="#000000" stroke-width="1.844"></path>
                <path d="M168.395,210 L167.171,215.467 L170.12,216.482 C169.304,219.958 167.51,224.258 164.561,226.288 L162.627,223.831 L157,227.931 L159.044,232.262 C159.815,233.896 161.89,234.382 163.333,233.295 C169.886,228.363 174.408,221.203 175.443,213.193 C175.661,211.501 174.339,210 172.633,210 L168.395,210 Z" id="Fill-19" fill="#FFFFFF"></path>
                <path d="M168.395,210 L167.171,215.467 L170.12,216.482 C169.304,219.958 167.51,224.258 164.561,226.288 L162.627,223.831 L157,227.931 L159.044,232.262 C159.815,233.896 161.89,234.382 163.333,233.295 C169.886,228.363 174.408,221.203 175.443,213.193 C175.661,211.501 174.339,210 172.633,210 L168.395,210 L168.395,210 Z" id="Stroke-21" stroke="#000000" stroke-width="1.844"></path>
                <path d="M168.506,222 L148.764,222" id="Stroke-23" stroke="#000000" stroke-width="1.844"></path>
                <text id="Schedule-a-call" font-family="Avenir-Book, Avenir" font-size="21" font-weight="normal" fill="#000000">
                    <tspan x="88" y="260">Schedule a call</tspan>
                </text>
                <text id="Bring-in-for-repair" font-family="Avenir-Book, Avenir" font-size="21" font-weight="normal" fill="#000000">
                    <tspan x="84" y="472">Bring in for repair</tspan>
                </text>
                <path d="M0.5,156.5 L321.5,156.5" id="Line" stroke="#979797" stroke-linecap="square"></path>
                <path d="M0.5,368.5 L321.5,368.5" id="Line-Copy-4" stroke="#979797" stroke-linecap="square"></path>
                <path d="M164.939608,423.331686 L156.000559,414.392638 C157.022259,411.906997 156.296488,409.606518 154.543231,407.853261 C152.97679,406.285993 150.777159,405.731332 148.794928,406.119016 C147.997242,406.27442 147.677341,407.238257 148.25184,407.813584 L151.479784,411.041527 L149.142108,413.379204 L145.892672,410.129768 C145.35289,409.589986 144.407239,409.823919 144.222903,410.564569 C143.699654,412.660046 144.064193,415.114275 145.672792,416.722874 C147.40373,418.453813 149.969553,418.882827 151.881521,418.456292 L160.943736,427.518507 C160.528773,429.442048 160.990026,431.940088 162.692033,433.642922 C164.298152,435.248214 166.714357,435.645817 168.794129,435.140754 C169.537258,434.959724 169.773671,434.010767 169.233063,433.470158 L166.09274,430.329836 L168.430417,427.99216 L171.55834,431.119256 C172.103908,431.664824 173.067744,431.420145 173.231415,430.665443 C173.667869,428.647668 173.145447,426.375295 171.552553,424.782401 C169.772018,423.001866 167.411196,422.296761 164.939608,423.331686 L164.939608,423.331686 Z" id="Page-1" stroke="#000000" stroke-width="2"></path>
            </g>
            <text id="HTC-Support-will-rep" font-family="Avenir-Book, Avenir" font-size="14" font-weight="normal" fill="#000000">
                <tspan x="90.51" y="93">HTC Support will reply</tspan>
                <tspan x="85.169" y="112">by email within 48 hours </tspan>
            </text>
            <text id="Make-an-appointment" font-family="Avenir-Book, Avenir" font-size="14" font-weight="normal" fill="#000000">
                <tspan x="18.123" y="497.5">Make an appointment at an HTC Store or one </tspan>
                <tspan x="17.493" y="516.5">of our many HTC authorized service locations. </tspan>
            </text>
        </g>
    </g>
</svg>