<?xml version="1.0" encoding="UTF-8" standalone="no"?>
<svg width="324px" height="81px" viewBox="0 0 324 81" version="1.1" xmlns="http://www.w3.org/2000/svg" xmlns:xlink="http://www.w3.org/1999/xlink">
    <!-- Generator: Sketch 39 (31667) - http://www.bohemiancoding.com/sketch -->
    <title>Page 1</title>
    <desc>Created with Sketch.</desc>
    <defs>
        <polygon id="path-1" points="0 88.851 323.622 88.851 323.622 0 0 0"></polygon>
    </defs>
    <g id="Page-1" stroke="none" stroke-width="1" fill="none" fill-rule="evenodd">
        <g>
            <path d="M43.3583,15.2331 C41.8233,15.0991 40.7983,14.0941 40.6793,12.6141 C40.6033,11.6441 40.6013,10.8381 40.6743,10.0741 C40.8143,8.6341 42.0173,7.2601 43.3563,7.1941 C43.8343,7.1701 45.1153,7.1741 47.4393,7.1821 L54.2073,7.1941 L54.2063,4.3841 C54.2063,4.3841 48.8163,4.3731 47.2003,4.3691 C45.0233,4.3601 43.9313,4.3551 43.2373,4.3841 C41.7133,4.4391 40.4373,4.9831 39.4423,5.9951 C38.5043,6.9501 37.9423,8.4721 37.8583,10.0061 C37.8113,10.8401 37.7973,11.9251 37.8583,12.5701 C38.0143,14.2211 38.5483,15.5201 39.4423,16.4291 C40.4003,17.4061 41.8553,18.0231 43.2393,18.0431 C44.3723,18.0581 54.2063,18.0451 54.2063,18.0451 L54.2063,15.2331 C54.2063,15.2331 51.2163,15.2441 49.6983,15.2551 C46.8263,15.2791 44.1113,15.2991 43.3583,15.2331 L43.3583,15.2331 Z M19.1693,7.3431 L25.8403,7.3431 L25.8403,17.9941 L28.6613,17.9941 L28.6613,7.3431 L35.3303,7.3431 L35.3303,4.5311 L19.1693,4.5311 L19.1693,7.3431 L19.1693,7.3431 Z M14.6573,5.9841 C13.5793,4.8871 11.9403,4.4301 10.8623,4.3731 C9.9273,4.3221 6.2443,4.3361 5.3783,4.3731 C4.1573,4.4231 3.2733,4.7881 2.8283,5.1241 C2.8243,5.1261 2.8163,5.1241 2.8163,5.1151 L2.8163,0.0001 L0.0003,0.0001 L0.0003,18.0431 L2.8123,18.0451 C2.8123,18.0451 2.7593,10.6611 2.8233,9.8541 C2.9333,8.4251 4.0153,7.3031 5.3913,7.1821 C6.5003,7.0881 9.8173,7.1111 10.8573,7.1821 C12.2853,7.2811 13.3423,8.4031 13.4253,9.9121 C13.4543,10.4671 13.4243,18.0431 13.4243,18.0431 L16.2423,18.0431 C16.2423,18.0431 16.2513,10.4971 16.2423,9.8501 C16.2213,8.3351 15.6893,7.0331 14.6573,5.9841 L14.6573,5.9841 Z" id="Fill-1" fill="#000000"></path>
            <g id="Group-7" transform="translate(306.000000, 2.851000)" fill="#000000">
                <polygon id="Fill-3" points="0.763 2.813 17.622 2.813 17.622 0.565 0.763 0.565"></polygon>
                <polygon id="Fill-5" points="0.763 7.298 17.622 7.298 17.622 5.05 0.763 5.05"></polygon>
                <polygon id="Fill-6" points="0.763 11.783 17.622 11.783 17.622 9.535 0.763 9.535"></polygon>
            </g>
            <mask id="mask-2" fill="white">
                <use xlink:href="#path-1"></use>
            </mask>
            <g id="Clip-8"></g>
            <text id="Contact-HTC-Support" mask="url(#mask-2)" font-family="Avenir-Book, Avenir" font-size="23.6033" font-weight="normal" fill="#000000">
                <tspan x="47.9827" y="73.8110556">Contact HTC Support</tspan>
            </text>
        </g>
    </g>
</svg>