<?xml version="1.0" encoding="UTF-8" standalone="no"?>
<svg width="76px" height="151px" viewBox="0 0 76 151" version="1.1" xmlns="http://www.w3.org/2000/svg" xmlns:xlink="http://www.w3.org/1999/xlink">
    <!-- Generator: Sketch 39.1 (31720) - http://www.bohemiancoding.com/sketch -->
    <title>Group 10</title>
    <desc>Created with Sketch.</desc>
    <defs></defs>
    <g id="Support" stroke="none" stroke-width="1" fill="none" fill-rule="evenodd">
        <g id="4.2-Select-Product-Copy" transform="translate(-352.000000, -475.000000)">
            <g id="Group-6" transform="translate(210.000000, 405.000000)">
                <g id="Series" transform="translate(130.000000, 70.000000)">
                    <g id="Group-10">
                        <text id="One" font-family="Avenir-Book, Avenir" font-size="16" font-weight="normal" fill="#0DA8AB">
                            <tspan x="34.432" y="150">One</tspan>
                        </text>
                        <g id="one_icon-copy">
                            <path d="M49.1671,84.5626 L18.5001,84.5626 C15.7391,84.5626 13.5001,82.3236 13.5001,79.5626 L13.5001,6.4996 C13.5001,3.7386 15.7391,1.4996 18.5001,1.4996 L49.1671,1.4996 C51.9281,1.4996 54.1671,3.7386 54.1671,6.4996 L54.1671,79.5626 C54.1671,82.3236 51.9281,84.5626 49.1671,84.5626 L49.1671,84.5626 Z" id="Fill-1" fill="#FFFFFF" fill-rule="evenodd"></path>
                            <path d="M49.1671,84.5626 L18.5001,84.5626 C15.7391,84.5626 13.5001,82.3236 13.5001,79.5626 L13.5001,6.4996 C13.5001,3.7386 15.7391,1.4996 18.5001,1.4996 L49.1671,1.4996 C51.9281,1.4996 54.1671,3.7386 54.1671,6.4996 L54.1671,79.5626 C54.1671,82.3236 51.9281,84.5626 49.1671,84.5626 L49.1671,84.5626 Z" id="Stroke-3" stroke="#0DA8AB" stroke-width="2" stroke-linecap="round" stroke-linejoin="round"></path>
                            <path d="M34.5698,21.8355 L31.7038,21.8355 C30.0468,21.8355 28.7038,20.4925 28.7038,18.8355 L28.7038,15.9695 C28.7038,14.3125 30.0468,12.9695 31.7038,12.9695 L34.5698,12.9695 C36.2268,12.9695 37.5698,14.3125 37.5698,15.9695 L37.5698,18.8355 C37.5698,20.4925 36.2268,21.8355 34.5698,21.8355" id="Fill-5" fill="#FFFFFF" fill-rule="evenodd"></path>
                            <path d="M34.5698,21.8355 L31.7038,21.8355 C30.0468,21.8355 28.7038,20.4925 28.7038,18.8355 L28.7038,15.9695 C28.7038,14.3125 30.0468,12.9695 31.7038,12.9695 L34.5698,12.9695 C36.2268,12.9695 37.5698,14.3125 37.5698,15.9695 L37.5698,18.8355 C37.5698,20.4925 36.2268,21.8355 34.5698,21.8355 L34.5698,21.8355 Z" id="Stroke-7" stroke="#0DA8AB" stroke-width="2" stroke-linecap="round" stroke-linejoin="round"></path>
                            <path d="M24.785,19.7181 L24.219,19.7181 C23.736,19.7181 23.344,19.3261 23.344,18.8431 L23.344,15.7411 C23.344,15.2571 23.736,14.8661 24.219,14.8661 L24.785,14.8661 C25.268,14.8661 25.66,15.2571 25.66,15.7411 L25.66,18.8431 C25.66,19.3261 25.268,19.7181 24.785,19.7181" id="Fill-9" fill="#0DA8AB" fill-rule="evenodd"></path>
                            <path d="M82.7264,97.9977 L50.8014,97.9977 C48.0404,97.9977 45.9294,94.3017 45.9294,91.6227 L45.9294,18.2607 C45.9294,15.5817 48.1004,13.4107 50.7794,13.4107 L81.7464,13.4107 C84.4244,13.4107 86.5964,15.5817 86.5964,18.2607 L86.5964,91.6227 C86.5964,94.3017 85.4874,97.9977 82.7264,97.9977" id="Fill-11" fill="#FFFFFF" fill-rule="evenodd"></path>
                            <path d="M82.7264,97.9977 L50.8014,97.9977 C48.0404,97.9977 45.9294,94.3017 45.9294,91.6227 L45.9294,18.2607 C45.9294,15.5817 48.1004,13.4107 50.7794,13.4107 L81.7464,13.4107 C84.4244,13.4107 86.5964,15.5817 86.5964,18.2607 L86.5964,91.6227 C86.5964,94.3017 85.4874,97.9977 82.7264,97.9977 L82.7264,97.9977 Z" id="Stroke-13" stroke="#0DA8AB" stroke-width="2" stroke-linecap="round" stroke-linejoin="round"></path>
                            <polygon id="Fill-15" fill="#FFFFFF" fill-rule="evenodd" points="45.929 87.3637 86.596 87.3637 86.596 22.5187 45.929 22.5187"></polygon>
                            <polygon id="Stroke-17" stroke="#0DA8AB" stroke-width="2" stroke-linecap="round" stroke-linejoin="round" points="45.929 87.3637 86.596 87.3637 86.596 22.5187 45.929 22.5187"></polygon>
                            <path d="M61.5067,17 L71.0187,17" id="Stroke-18" stroke="#0DA8AB" stroke-width="2" stroke-linecap="round" stroke-linejoin="round"></path>
                            <path d="M60.0266,92 L72.4986,92" id="Stroke-19" stroke="#0DA8AB" stroke-width="2" stroke-linecap="round" stroke-linejoin="round"></path>
                            <path d="M76.7691,17.5092 C77.1251,18.6222 76.1141,19.6332 75.0011,19.2772 C74.6011,19.1492 74.2711,18.8202 74.1441,18.4202 C73.7871,17.3072 74.7991,16.2962 75.9121,16.6522 C76.3111,16.7802 76.6411,17.1092 76.7691,17.5092" id="Fill-20" fill="#0DA8AB" fill-rule="evenodd"></path>
                        </g>
                    </g>
                </g>
            </g>
        </g>
    </g>
</svg>