<?xml version="1.0" encoding="UTF-8" standalone="no"?>
<svg width="789px" height="366px" viewBox="0 0 789 366" version="1.1" xmlns="http://www.w3.org/2000/svg" xmlns:xlink="http://www.w3.org/1999/xlink">
    <!-- Generator: Sketch 39.1 (31720) - http://www.bohemiancoding.com/sketch -->
    <title>Group</title>
    <desc>Created with Sketch.</desc>
    <defs></defs>
    <g id="Page-1" stroke="none" stroke-width="1" fill="none" fill-rule="evenodd">
        <g id="Group" transform="translate(-42.000000, -6.000000)">
            <text id="One" font-family="Avenir-Book, Avenir" font-size="16" font-weight="normal" fill="#000000">
                <tspan x="54.432" y="349">One</tspan>
            </text>
            <text id="Desire" font-family="Avenir-Book, Avenir" font-size="16" font-weight="normal" fill="#000000">
                <tspan x="191.336" y="349">Desire</tspan>
            </text>
            <text id="Butterfly" font-family="Avenir-Book, Avenir" font-size="16" font-weight="normal" fill="#000000">
                <tspan x="327.952" y="349">Butterfly</tspan>
            </text>
            <text id="Accessories" font-family="Avenir-Book, Avenir" font-size="16" font-weight="normal" fill="#000000">
                <tspan x="748.36" y="349">Accessories</tspan>
            </text>
            <text id="RE" font-family="Avenir-Book, Avenir" font-size="16" font-weight="normal" fill="#000000">
                <tspan x="492.512" y="349">RE</tspan>
                <tspan x="474.144" y="371">Camera</tspan>
            </text>
            <text id="UA-Healthbox" font-family="Avenir-Book, Avenir" font-size="16" font-weight="normal" fill="#000000">
                <tspan x="635.024" y="349">UA</tspan>
                <tspan x="609.112" y="371">Healthbox</tspan>
            </text>
            <g id="ua_fitness_icon-copy" transform="translate(611.000000, 243.000000)" stroke="#000000" stroke-width="2">
                <path d="M66.3624202,47.2464439 C67.2653846,45.2963278 68.2092412,42.7025427 68.5929541,40.2453281 C69.931645,31.6726415 68.0094825,22.5893999 62.5065778,15.0153014 C51.4693336,-0.176162021 30.2067649,-3.54382206 15.0153014,7.49342219 C-0.176162021,18.5306664 -3.54382206,39.7932351 7.49342219,54.9846986 C18.3216703,69.8885034 38.991665,73.4120457 54.115303,63.1180891" id="Oval" stroke-linecap="round"></path>
                <path d="M10,12 L60,12" id="Line" stroke-linecap="round"></path>
                <path d="M1,34 L31,34" id="Line-Copy" stroke-linecap="round"></path>
                <path d="M35,39 L35,69" id="Line-Copy-3" stroke-linecap="round"></path>
                <path d="M35,12 L35,30" id="Line-Copy-4" stroke-linecap="round"></path>
                <path d="M39,34 L69,34" id="Line-Copy-2" stroke-linecap="round"></path>
                <circle id="Oval-2" cx="35" cy="34" r="4"></circle>
                <path d="M69,51 C69,47.6862915 62.2842712,45 54,45 C45.7157288,45 39,47.6862915 39,51 L39,57 C39,60.3137085 45.7157288,63 54,63 C62.2842712,63 69,60.3137085 69,57 L69,51 Z" id="Combined-Shape"></path>
                <ellipse id="Oval-5-Copy-2" cx="54" cy="52" rx="12" ry="4"></ellipse>
                <path d="M61.9374732,55 C59.8220736,55.6223634 57.0433394,56 54,56 C50.9566606,56 48.1779264,55.6223634 46.0625268,55 C48.1779264,54.3776366 50.9566606,54 54,54 C57.0433394,54 59.8220736,54.3776366 61.9374732,55 L61.9374732,55 Z" id="Combined-Shape" stroke-linejoin="round"></path>
                <path d="M43,57 C45,58 48,59 53,59" id="Path-7" stroke-linecap="round"></path>
            </g>
            <g id="accessories_icon-copy" transform="translate(755.000000, 243.000000)">
                <path d="M14,1 C14,1 15.7842933,1 17.990053,1 L34.009947,1 C36.2135924,1 38,2.79568082 38,5.0065556 L38,56.9934444 C38,59.206204 36.214822,61 34.0017777,61 L31.7703141,61 L12.0054304,61 C9.79329228,61 8,59.2046438 8,57 L8,53" id="Rectangle-11" stroke="#000000" stroke-width="2" transform="translate(23.000000, 31.000000) rotate(-180.000000) translate(-23.000000, -31.000000) "></path>
                <rect id="Rectangle-11-Copy" stroke="#000000" stroke-width="2" x="32" y="9" width="30" height="60" rx="4"></rect>
                <circle id="Oval-5" fill="#000000" fill-rule="evenodd" cx="37" cy="13" r="1"></circle>
                <circle id="Oval-5-Copy-6" fill="#000000" fill-rule="evenodd" cx="37" cy="17" r="1"></circle>
                <circle id="Oval-5-Copy" fill="#000000" fill-rule="evenodd" cx="41" cy="13" r="1"></circle>
                <circle id="Oval-5-Copy-7" fill="#000000" fill-rule="evenodd" cx="41" cy="17" r="1"></circle>
                <circle id="Oval-5-Copy-2" fill="#000000" fill-rule="evenodd" cx="45" cy="13" r="1"></circle>
                <circle id="Oval-5-Copy-8" fill="#000000" fill-rule="evenodd" cx="45" cy="17" r="1"></circle>
                <circle id="Oval-5-Copy-3" fill="#000000" fill-rule="evenodd" cx="49" cy="13" r="1"></circle>
                <circle id="Oval-5-Copy-9" fill="#000000" fill-rule="evenodd" cx="49" cy="17" r="1"></circle>
                <circle id="Oval-5-Copy-4" fill="#000000" fill-rule="evenodd" cx="53" cy="13" r="1"></circle>
                <circle id="Oval-5-Copy-10" fill="#000000" fill-rule="evenodd" cx="53" cy="17" r="1"></circle>
                <circle id="Oval-5-Copy-5" fill="#000000" fill-rule="evenodd" cx="57" cy="13" r="1"></circle>
                <circle id="Oval-5-Copy-11" fill="#000000" fill-rule="evenodd" cx="57" cy="17" r="1"></circle>
                <circle id="Oval-5-Copy-17" fill="#000000" fill-rule="evenodd" cx="37" cy="21" r="1"></circle>
                <circle id="Oval-5-Copy-16" fill="#000000" fill-rule="evenodd" cx="41" cy="21" r="1"></circle>
                <circle id="Oval-5-Copy-15" fill="#000000" fill-rule="evenodd" cx="45" cy="21" r="1"></circle>
                <circle id="Oval-5-Copy-14" fill="#000000" fill-rule="evenodd" cx="49" cy="21" r="1"></circle>
                <circle id="Oval-5-Copy-13" fill="#000000" fill-rule="evenodd" cx="53" cy="21" r="1"></circle>
                <circle id="Oval-5-Copy-12" fill="#000000" fill-rule="evenodd" cx="57" cy="21" r="1"></circle>
                <circle id="Oval-5-Copy-23" fill="#000000" fill-rule="evenodd" cx="37" cy="25" r="1"></circle>
                <circle id="Oval-5-Copy-22" fill="#000000" fill-rule="evenodd" cx="41" cy="25" r="1"></circle>
                <circle id="Oval-5-Copy-21" fill="#000000" fill-rule="evenodd" cx="45" cy="25" r="1"></circle>
                <circle id="Oval-5-Copy-20" fill="#000000" fill-rule="evenodd" cx="49" cy="25" r="1"></circle>
                <circle id="Oval-5-Copy-19" fill="#000000" fill-rule="evenodd" cx="53" cy="25" r="1"></circle>
                <circle id="Oval-5-Copy-18" fill="#000000" fill-rule="evenodd" cx="57" cy="25" r="1"></circle>
                <circle id="Oval-5-Copy-29" fill="#000000" fill-rule="evenodd" cx="37" cy="29" r="1"></circle>
                <circle id="Oval-5-Copy-28" fill="#000000" fill-rule="evenodd" cx="41" cy="29" r="1"></circle>
                <circle id="Oval-5-Copy-27" fill="#000000" fill-rule="evenodd" cx="45" cy="29" r="1"></circle>
                <circle id="Oval-5-Copy-26" fill="#000000" fill-rule="evenodd" cx="49" cy="29" r="1"></circle>
                <circle id="Oval-5-Copy-25" fill="#000000" fill-rule="evenodd" cx="53" cy="29" r="1"></circle>
                <circle id="Oval-5-Copy-24" fill="#000000" fill-rule="evenodd" cx="57" cy="29" r="1"></circle>
                <circle id="Oval-5-Copy-35" fill="#000000" fill-rule="evenodd" cx="37" cy="33" r="1"></circle>
                <circle id="Oval-5-Copy-34" fill="#000000" fill-rule="evenodd" cx="41" cy="33" r="1"></circle>
                <circle id="Oval-5-Copy-33" fill="#000000" fill-rule="evenodd" cx="45" cy="33" r="1"></circle>
                <circle id="Oval-5-Copy-32" fill="#000000" fill-rule="evenodd" cx="49" cy="33" r="1"></circle>
                <circle id="Oval-5-Copy-31" fill="#000000" fill-rule="evenodd" cx="53" cy="33" r="1"></circle>
                <circle id="Oval-5-Copy-30" fill="#000000" fill-rule="evenodd" cx="57" cy="33" r="1"></circle>
                <circle id="Oval-5-Copy-41" fill="#000000" fill-rule="evenodd" cx="37" cy="37" r="1"></circle>
                <circle id="Oval-5-Copy-40" fill="#000000" fill-rule="evenodd" cx="41" cy="37" r="1"></circle>
                <circle id="Oval-5-Copy-39" fill="#000000" fill-rule="evenodd" cx="45" cy="37" r="1"></circle>
                <circle id="Oval-5-Copy-38" fill="#000000" fill-rule="evenodd" cx="49" cy="37" r="1"></circle>
                <circle id="Oval-5-Copy-37" fill="#000000" fill-rule="evenodd" cx="53" cy="37" r="1"></circle>
                <circle id="Oval-5-Copy-36" fill="#000000" fill-rule="evenodd" cx="57" cy="37" r="1"></circle>
                <circle id="Oval-5-Copy-47" fill="#000000" fill-rule="evenodd" cx="37" cy="41" r="1"></circle>
                <circle id="Oval-5-Copy-46" fill="#000000" fill-rule="evenodd" cx="41" cy="41" r="1"></circle>
                <circle id="Oval-5-Copy-45" fill="#000000" fill-rule="evenodd" cx="45" cy="41" r="1"></circle>
                <circle id="Oval-5-Copy-44" fill="#000000" fill-rule="evenodd" cx="49" cy="41" r="1"></circle>
                <circle id="Oval-5-Copy-43" fill="#000000" fill-rule="evenodd" cx="53" cy="41" r="1"></circle>
                <circle id="Oval-5-Copy-42" fill="#000000" fill-rule="evenodd" cx="57" cy="41" r="1"></circle>
                <circle id="Oval-5-Copy-53" fill="#000000" fill-rule="evenodd" cx="37" cy="45" r="1"></circle>
                <circle id="Oval-5-Copy-52" fill="#000000" fill-rule="evenodd" cx="41" cy="45" r="1"></circle>
                <circle id="Oval-5-Copy-51" fill="#000000" fill-rule="evenodd" cx="45" cy="45" r="1"></circle>
                <circle id="Oval-5-Copy-50" fill="#000000" fill-rule="evenodd" cx="49" cy="45" r="1"></circle>
                <circle id="Oval-5-Copy-49" fill="#000000" fill-rule="evenodd" cx="53" cy="45" r="1"></circle>
                <circle id="Oval-5-Copy-48" fill="#000000" fill-rule="evenodd" cx="57" cy="45" r="1"></circle>
                <circle id="Oval-5-Copy-59" fill="#000000" fill-rule="evenodd" cx="37" cy="49" r="1"></circle>
                <circle id="Oval-5-Copy-58" fill="#000000" fill-rule="evenodd" cx="41" cy="49" r="1"></circle>
                <circle id="Oval-5-Copy-57" fill="#000000" fill-rule="evenodd" cx="45" cy="49" r="1"></circle>
                <circle id="Oval-5-Copy-56" fill="#000000" fill-rule="evenodd" cx="49" cy="49" r="1"></circle>
                <circle id="Oval-5-Copy-55" fill="#000000" fill-rule="evenodd" cx="53" cy="49" r="1"></circle>
                <circle id="Oval-5-Copy-54" fill="#000000" fill-rule="evenodd" cx="57" cy="49" r="1"></circle>
                <circle id="Oval-5-Copy-65" fill="#000000" fill-rule="evenodd" cx="37" cy="53" r="1"></circle>
                <circle id="Oval-5-Copy-64" fill="#000000" fill-rule="evenodd" cx="41" cy="53" r="1"></circle>
                <circle id="Oval-5-Copy-63" fill="#000000" fill-rule="evenodd" cx="45" cy="53" r="1"></circle>
                <circle id="Oval-5-Copy-62" fill="#000000" fill-rule="evenodd" cx="49" cy="53" r="1"></circle>
                <circle id="Oval-5-Copy-61" fill="#000000" fill-rule="evenodd" cx="53" cy="53" r="1"></circle>
                <circle id="Oval-5-Copy-60" fill="#000000" fill-rule="evenodd" cx="57" cy="53" r="1"></circle>
                <circle id="Oval-5-Copy-71" fill="#000000" fill-rule="evenodd" cx="37" cy="57" r="1"></circle>
                <circle id="Oval-5-Copy-70" fill="#000000" fill-rule="evenodd" cx="41" cy="57" r="1"></circle>
                <circle id="Oval-5-Copy-69" fill="#000000" fill-rule="evenodd" cx="45" cy="57" r="1"></circle>
                <circle id="Oval-5-Copy-68" fill="#000000" fill-rule="evenodd" cx="49" cy="57" r="1"></circle>
                <circle id="Oval-5-Copy-67" fill="#000000" fill-rule="evenodd" cx="53" cy="57" r="1"></circle>
                <circle id="Oval-5-Copy-66" fill="#000000" fill-rule="evenodd" cx="57" cy="57" r="1"></circle>
                <circle id="Oval-5-Copy-77" fill="#000000" fill-rule="evenodd" cx="37" cy="61" r="1"></circle>
                <circle id="Oval-5-Copy-76" fill="#000000" fill-rule="evenodd" cx="41" cy="61" r="1"></circle>
                <circle id="Oval-5-Copy-75" fill="#000000" fill-rule="evenodd" cx="45" cy="61" r="1"></circle>
                <circle id="Oval-5-Copy-74" fill="#000000" fill-rule="evenodd" cx="49" cy="61" r="1"></circle>
                <circle id="Oval-5-Copy-73" fill="#000000" fill-rule="evenodd" cx="53" cy="61" r="1"></circle>
                <circle id="Oval-5-Copy-72" fill="#000000" fill-rule="evenodd" cx="57" cy="61" r="1"></circle>
                <circle id="Oval-5-Copy-83" fill="#000000" fill-rule="evenodd" cx="37" cy="65" r="1"></circle>
                <circle id="Oval-5-Copy-82" fill="#000000" fill-rule="evenodd" cx="41" cy="65" r="1"></circle>
                <circle id="Oval-5-Copy-81" fill="#000000" fill-rule="evenodd" cx="45" cy="65" r="1"></circle>
                <circle id="Oval-5-Copy-80" fill="#000000" fill-rule="evenodd" cx="49" cy="65" r="1"></circle>
                <circle id="Oval-5-Copy-79" fill="#000000" fill-rule="evenodd" cx="53" cy="65" r="1"></circle>
                <circle id="Oval-5-Copy-78" fill="#000000" fill-rule="evenodd" cx="57" cy="65" r="1"></circle>
                <rect id="Rectangle-13" stroke="#000000" stroke-width="2" x="12" y="5" width="4" height="7" rx="2"></rect>
            </g>
            <g id="butterfly_icon-copy" transform="translate(323.000000, 243.000000)">
                <path d="M14,1 C14,1 15.7842933,1 17.990053,1 L34.009947,1 C36.2135924,1 38,2.79568082 38,5.0065556 L38,56.9934444 C38,59.206204 36.214822,61 34.0017777,61 L31.7703141,61 L12.0054304,61 C9.79329228,61 8,59.2046438 8,57 L8,53" id="Rectangle-11" stroke="#000000" stroke-width="2" transform="translate(23.000000, 31.000000) rotate(-180.000000) translate(-23.000000, -31.000000) "></path>
                <rect id="Rectangle-11-Copy" stroke="#000000" stroke-width="2" x="32" y="9" width="30" height="60" rx="4"></rect>
                <path d="M32,17 L62,17" id="Line" stroke="#000000" stroke-width="2" stroke-linecap="square"></path>
                <path d="M32,61 L62,61" id="Line-Copy" stroke="#000000" stroke-width="2" stroke-linecap="square"></path>
                <path d="M16,11 L16,13" id="Line" stroke="#000000" stroke-width="2" stroke-linecap="round"></path>
                <circle id="Oval-3-Copy" fill="#000000" fill-rule="evenodd" cx="23" cy="5" r="1"></circle>
                <circle id="Oval-4" stroke="#000000" stroke-width="2" cx="23" cy="12" r="3"></circle>
                <rect id="Rectangle-12" stroke="#000000" stroke-width="2" x="41" y="9" width="13" height="3"></rect>
                <rect id="Rectangle-12-Copy" stroke="#000000" stroke-width="2" transform="translate(47.500000, 67.500000) rotate(-180.000000) translate(-47.500000, -67.500000) " x="41" y="66" width="13" height="3"></rect>
            </g>
            <g id="desire_icon-copy" transform="translate(179.000000, 243.000000)">
                <path d="M32,17 L62,17" id="Line" stroke="#000000" stroke-width="2" stroke-linecap="square"></path>
                <path d="M32,61 L62,61" id="Line-Copy" stroke="#000000" stroke-width="2" stroke-linecap="square"></path>
                <path d="M51,13 L44,13" id="Line-Copy-2" stroke="#000000" stroke-width="2" stroke-linecap="round"></path>
                <circle id="Oval-3" fill="#000000" fill-rule="evenodd" cx="37" cy="13" r="1"></circle>
                <circle id="Oval-3-Copy-2" fill="#000000" fill-rule="evenodd" cx="47" cy="65" r="1"></circle>
                <circle id="Oval-3-Copy" stroke="#000000" stroke-width="2" cx="13" cy="6" r="2"></circle>
                <path d="M14,1 C14,1 15.7842933,1 17.990053,1 L34.009947,1 C36.2135924,1 38,2.79568082 38,5.0065556 L38,56.9934444 C38,59.206204 36.214822,61 34.0017777,61 L31.7703141,61 L12.0054304,61 C9.79329228,61 8,59.2046438 8,57 L8,53" id="Rectangle-11" stroke="#000000" stroke-width="2" transform="translate(23.000000, 31.000000) rotate(-180.000000) translate(-23.000000, -31.000000) "></path>
                <rect id="Rectangle-11-Copy" stroke="#000000" stroke-width="2" x="32" y="9" width="30" height="60" rx="4"></rect>
            </g>
            <path d="M49,244 C49,244 50.7842933,244 52.990053,244 L69.009947,244 C71.2135924,244 73,245.795681 73,248.006556 L73,299.993444 C73,302.206204 71.214822,304 69.0017777,304 L66.7703141,304 L47.0054304,304 C44.7932923,304 43,302.204644 43,300 L43,296" id="Rectangle-11" stroke="#000000" stroke-width="2" transform="translate(58.000000, 274.000000) rotate(-180.000000) translate(-58.000000, -274.000000) "></path>
            <rect id="Rectangle-11-Copy" stroke="#000000" stroke-width="2" x="67" y="252" width="30" height="60" rx="4"></rect>
            <path d="M67,260 L97,260" id="Line" stroke="#000000" stroke-width="2" stroke-linecap="square"></path>
            <path d="M67,304 L97,304" id="Line-Copy" stroke="#000000" stroke-width="2" stroke-linecap="square"></path>
            <rect id="Rectangle" stroke="#000000" stroke-width="2" x="55" y="252" width="6" height="6" rx="1"></rect>
            <path d="M51,254 L51,256" id="Line" stroke="#000000" stroke-width="2" stroke-linecap="round"></path>
            <path d="M84,256 L77,256" id="Line-Copy-2" stroke="#000000" stroke-width="2" stroke-linecap="round"></path>
            <path d="M87,308 L77,308" id="Line-Copy-3" stroke="#000000" stroke-width="2" stroke-linecap="round"></path>
            <circle id="Oval-3" fill="#0DA8AB" cx="88" cy="256" r="1"></circle>
            <g id="re_camera_icon-copy" transform="translate(467.000000, 243.000000)" stroke="#000000" stroke-width="2">
                <path d="M35.9956186,16.0598798 L36,16 L36,13.0005775 C36,6.37284157 30.6272169,1 23.9907535,1 L16.9728449,1.06109908 C14.7359597,1.5831102 13,5.38609999 13,10 C13,14.6139 14.7359597,18.4168898 16.9728449,18.9389009 L18.9906311,19 C19.5480902,19 20,19.4532303 20,19.9968754 L20,54.9971408 C20,56.1032894 20.8935426,57 22.0027601,57 L32,57 L32,24.996221 C32,21.4461802 33.5425916,18.2563041 35.9956186,16.0598798 Z" id="Combined-Shape" stroke-linejoin="round"></path>
                <path d="M44.0092465,13 C37.3727831,13 32,18.3708911 32,24.996221 L32,67.0069304 C32,68.0976918 32.8927712,69 33.9940603,69 L46.0059397,69 C47.1054862,69 48,68.1032894 48,66.9971408 L48,32.00034 C48,31.4478675 48.4383446,31 48.9911322,31 L51.5,31 C53.9852814,31 56,26.9705627 56,22 C56,17.0294373 53.9852814,13 51.5,13 L44.0092465,13 Z" id="Combined-Shape" stroke-linejoin="round"></path>
                <ellipse id="Oval" cx="51.5" cy="22" rx="4.5" ry="9"></ellipse>
                <ellipse id="Oval" cx="51.5" cy="22" rx="1.5" ry="5"></ellipse>
                <path d="M32,64 L48,64" id="Line" stroke-linecap="square"></path>
                <path d="M20,52 L32,52" id="Line-Copy" stroke-linecap="square"></path>
            </g>
            <text id="1.-Select-your-produ" font-family="Avenir-Medium, Avenir" font-size="20" font-weight="400" fill="#000000">
                <tspan x="323.48" y="186">1. Select your product.</tspan>
            </text>
            <text id="Tell-us-more-details" font-family="Avenir-Black, Avenir" font-size="28" font-weight="700" fill="#000000">
                <tspan x="93.146" y="28">Tell us more details about your HTC product issue,</tspan>
                <tspan x="220.448" y="66">we‘ll connect you to an expert.</tspan>
            </text>
            <rect id="Rectangle-5" fill="#000000" x="366" y="102" width="120" height="4"></rect>
        </g>
    </g>
</svg>