<?xml version="1.0" encoding="UTF-8" standalone="no"?>
<svg width="956px" height="327px" viewBox="0 0 956 327" version="1.1" xmlns="http://www.w3.org/2000/svg" xmlns:xlink="http://www.w3.org/1999/xlink">
    <!-- Generator: Sketch 39.1 (31720) - http://www.bohemiancoding.com/sketch -->
    <title>Group 2</title>
    <desc>Created with Sketch.</desc>
    <defs></defs>
    <g id="Support" stroke="none" stroke-width="1" fill="none" fill-rule="evenodd">
        <g id="4.2-Select-Issue-(from-A9-page)" transform="translate(-335.000000, -274.000000)">
            <g id="Select-question" transform="translate(210.000000, 218.000000)">
                <g id="Group-2" transform="translate(88.000000, 50.000000)">
                    <text id="Tell-us-more-details" font-family="Avenir-Black, Avenir" font-size="28" font-weight="700" fill="#000000">
                        <tspan x="207.048" y="28">Tell us more details about your HTC One A9.</tspan>
                        <tspan x="194.056" y="66">What type of problem do you need help with?</tspan>
                    </text>
                    <g id="Categories" transform="translate(0.000000, 178.000000)">
                        <text id="Power-&amp;-Charging" font-family="Avenir-Book, Avenir" font-size="16" font-weight="normal" fill="#000000">
                            <tspan x="39.928" y="106">Power &amp;</tspan>
                            <tspan x="37.112" y="128">Charging</tspan>
                        </text>
                        <text id="Display" font-family="Avenir-Book, Avenir" font-size="16" font-weight="normal" fill="#000000">
                            <tspan x="187.928" y="106">Display</tspan>
                        </text>
                        <text id="Storage-&amp;-System-per" font-family="Avenir-Book, Avenir" font-size="16" font-weight="normal" fill="#000000">
                            <tspan x="322.152" y="106">Storage &amp; </tspan>
                            <tspan x="332.368" y="128">System</tspan>
                            <tspan x="312.376" y="150">performance</tspan>
                        </text>
                        <text id="Application" font-family="Avenir-Book, Avenir" font-size="16" font-weight="normal" fill="#000000">
                            <tspan x="461.12" y="106">Application</tspan>
                        </text>
                        <text id="Camera" font-family="Avenir-Book, Avenir" font-size="16" font-weight="normal" fill="#000000">
                            <tspan x="618.144" y="106">Camera</tspan>
                        </text>
                        <text id="Software-update" font-family="Avenir-Book, Avenir" font-size="16" font-weight="normal" fill="#000000">
                            <tspan x="758.896" y="106">Software</tspan>
                            <tspan x="764.52" y="128">update</tspan>
                        </text>
                        <text id="Backup,-Transfer-&amp;-R" font-family="Avenir-Book, Avenir" font-size="16" font-weight="normal" fill="#000000">
                            <tspan x="875.32" y="106">Backup, Transfer</tspan>
                            <tspan x="906.44" y="128">&amp; Reset</tspan>
                        </text>
                        <g id="Power-&amp;-Power-&amp;-Charging" transform="translate(35.000000, 0.000000)" stroke="#000000" stroke-width="2" stroke-linecap="round" stroke-linejoin="round">
                            <path d="M39.8654317,9 C40.4167963,9 40.7278293,9.42361628 40.5602711,9.94577579 L35.3645575,26.1371088 L50.8533219,26.1371088 C51.4095034,26.1371088 51.5934341,26.5017847 51.2723865,26.9403731 L27.1548982,59.8876676 C26.8301596,60.3312982 26.6420023,60.2587893 26.7388485,59.7014789 L30.6906366,36.9605459 L18.7617203,36.9605459 C18.2135977,36.9605459 17.8901764,36.5213525 18.034245,35.9980806 L25.2024378,9.96246528 C25.3487869,9.43091038 25.9116045,9 26.46576,9 L39.8654317,9 Z" id="Page-1"></path>
                        </g>
                        <g id="Display" transform="translate(179.000000, 0.000000)" stroke="#000000" stroke-linecap="round" stroke-linejoin="round">
                            <g id="Page-1" transform="translate(18.000000, 7.000000)">
                                <path d="M29.39,56.8763 L4.5,56.8763 C2.3,56.8763 0.5,55.0763 0.5,52.8763 L0.5,4.5003 C0.5,2.3003 2.3,0.5003 4.5,0.5003 L29.39,0.5003 C31.59,0.5003 33.39,2.3003 33.39,4.5003 L33.39,52.8763 C33.39,55.0763 31.59,56.8763 29.39,56.8763 L29.39,56.8763 Z" id="Stroke-1" stroke-width="2"></path>
                                <path d="M0.8554,8 L32.8554,8" id="Stroke-3" stroke-width="2"></path>
                                <path d="M0.8554,48 L32.8554,48" id="Stroke-5" stroke-width="2"></path>
                                <path d="M9.6029,31.0302 L24.2869,16.3462" id="Stroke-7" stroke-width="2"></path>
                                <path d="M9.6029,41.0302 L24.2869,26.3462" id="Stroke-9" stroke-width="2"></path>
                            </g>
                        </g>
                        <g id="System-performance" transform="translate(323.000000, 0.000000)" stroke="#000000" stroke-linecap="round" stroke-linejoin="round">
                            <g id="Page-1" transform="translate(10.000000, 10.000000)">
                                <path d="M47.75,50.75 L3,50.75 C1.343,50.75 0,49.407 0,47.75 L0,3 C0,1.343 1.343,0 3,0 L47.75,0 C49.407,0 50.75,1.343 50.75,3 L50.75,47.75 C50.75,49.407 49.407,50.75 47.75,50.75 L47.75,50.75 Z" id="Stroke-1" stroke-width="2"></path>
                                <path d="M2.3792,22.1376 L12.2102,22.1376 C12.6012,22.1376 12.9452,22.3976 13.0522,22.7736 L14.5372,28.0116 C14.7892,28.8986 16.0632,28.8446 16.2382,27.9396 L18.6832,15.3026 C18.8692,14.3436 20.2492,14.3636 20.4062,15.3276 L23.2742,32.9206 C23.4212,33.8256 24.6862,33.9226 24.9692,33.0496 L27.1962,26.1876 C27.4542,25.3926 28.5732,25.3766 28.8522,26.1646 L31.6442,34.0226 C31.9202,34.8006 33.0212,34.7986 33.2942,34.0196 L36.4862,24.9126 C36.6092,24.5616 36.9402,24.3276 37.3122,24.3276 L48.3712,24.3276" id="Stroke-3" stroke-width="2"></path>
                            </g>
                        </g>
                        <g id="Application" transform="translate(467.000000, 0.000000)" stroke="#000000" stroke-linecap="round" stroke-linejoin="round">
                            <g id="Page-1" transform="translate(10.000000, 10.000000)">
                                <path d="M19.7039,22.7039 L2.9999,22.7039 C1.3429,22.7039 -0.0001,21.3609 -0.0001,19.7039 L-0.0001,2.9999 C-0.0001,1.3429 1.3429,-0.0001 2.9999,-0.0001 L19.7039,-0.0001 C21.3609,-0.0001 22.7039,1.3429 22.7039,2.9999 L22.7039,19.7039 C22.7039,21.3609 21.3609,22.7039 19.7039,22.7039 L19.7039,22.7039 Z" id="Stroke-1" stroke-width="2"></path>
                                <path d="M19.7039,50.75 L2.9999,50.75 C1.3429,50.75 -0.0001,49.407 -0.0001,47.75 L-0.0001,31.046 C-0.0001,29.389 1.3429,28.046 2.9999,28.046 L19.7039,28.046 C21.3609,28.046 22.7039,29.389 22.7039,31.046 L22.7039,47.75 C22.7039,49.407 21.3609,50.75 19.7039,50.75 L19.7039,50.75 Z" id="Stroke-3" stroke-width="2"></path>
                                <path d="M47.75,22.7039 L31.046,22.7039 C29.389,22.7039 28.046,21.3609 28.046,19.7039 L28.046,2.9999 C28.046,1.3429 29.389,-0.0001 31.046,-0.0001 L47.75,-0.0001 C49.407,-0.0001 50.75,1.3429 50.75,2.9999 L50.75,19.7039 C50.75,21.3609 49.407,22.7039 47.75,22.7039 L47.75,22.7039 Z" id="Stroke-5" stroke-width="2"></path>
                                <path d="M47.75,50.75 L31.046,50.75 C29.389,50.75 28.046,49.407 28.046,47.75 L28.046,31.046 C28.046,29.389 29.389,28.046 31.046,28.046 L47.75,28.046 C49.407,28.046 50.75,29.389 50.75,31.046 L50.75,47.75 C50.75,49.407 49.407,50.75 47.75,50.75 L47.75,50.75 Z" id="Stroke-7" stroke-width="2"></path>
                            </g>
                        </g>
                        <g id="Camera" transform="translate(611.000000, 0.000000)">
                            <g id="Page-1" transform="translate(8.000000, 13.000000)">
                                <path d="M40.9237,4.5423 L40.9237,4.5423 C40.9237,2.3093 39.1137,0.5003 36.8817,0.5003 L17.1187,0.5003 C14.8857,0.5003 13.0767,2.3093 13.0767,4.5423 L13.0767,4.5423 C13.0767,6.7753 11.2667,8.5843 9.0337,8.5843 L5.9757,8.5843 C2.9517,8.5843 0.4997,11.0363 0.4997,14.0603 L0.4997,39.0413 C0.4997,42.0653 2.9517,44.5173 5.9757,44.5173 L48.0237,44.5173 C51.0487,44.5173 53.4997,42.0653 53.4997,39.0413 L53.4997,14.0603 C53.4997,11.0363 51.0487,8.5843 48.0237,8.5843 L44.9657,8.5843 C42.7337,8.5843 40.9237,6.7753 40.9237,4.5423 L40.9237,4.5423 Z" id="Stroke-1" stroke="#000000" stroke-width="2" stroke-linecap="round" stroke-linejoin="round"></path>
                                <path d="M38.678,24.7476 C38.678,18.2976 33.45,13.0696 27,13.0696 C20.55,13.0696 15.322,18.2976 15.322,24.7476 C15.322,31.1976 20.55,36.4256 27,36.4256 C33.45,36.4256 38.678,31.1976 38.678,24.7476 L38.678,24.7476 Z" id="Stroke-3" stroke="#000000" stroke-width="2" stroke-linecap="round" stroke-linejoin="round"></path>
                                <path d="M10.1568,16.4449 C10.1568,15.4529 9.3528,14.6479 8.3598,14.6479 C7.3678,14.6479 6.5638,15.4529 6.5638,16.4449 C6.5638,17.4369 7.3678,18.2419 8.3598,18.2419 C9.3528,18.2419 10.1568,17.4369 10.1568,16.4449" id="Fill-5" fill="#000000"></path>
                            </g>
                        </g>
                        <g id="Software-update" transform="translate(755.000000, 0.000000)" stroke="#000000" stroke-linecap="round" stroke-linejoin="round">
                            <g id="Page-1" transform="translate(12.000000, 10.000000)">
                                <path d="M15.2702,5.9728 L7.9682,5.9728 C3.8442,5.9728 0.5002,9.3168 0.5002,13.4408 L0.5002,43.5318 C0.5002,47.6558 3.8442,50.9998 7.9682,50.9998 L38.0592,50.9998 C42.1832,50.9998 45.5272,47.6558 45.5272,43.5318 L45.5272,13.4408 C45.5272,9.3168 42.1832,5.9728 38.0592,5.9728 L31.1462,5.9728" id="Stroke-1" stroke-width="2"></path>
                                <path d="M23,0.5 L23,31.5" id="Stroke-3" stroke-width="2"></path>
                                <polyline id="Stroke-5" stroke-width="2" points="30.2121 25.5331 23.2931 32.4521 16.3741 25.5331"></polyline>
                                <path d="M10.793,41 L34.793,41" id="Stroke-7" stroke-width="2"></path>
                            </g>
                        </g>
                        <g id="Backup_transfer_n_reset_selection" transform="translate(899.000000, 0.000000)" stroke="#000000" stroke-linecap="round" stroke-linejoin="round">
                            <g id="Page-1" transform="translate(15.000000, 12.000000)">
                                <path d="M23.130293,6.75850408 C22.2740605,6.64627959 21.4016186,6.58872857 20.5158279,6.58872857 C9.44868837,6.58872857 0.476362791,15.6136878 0.476362791,26.7469327 C0.476362791,37.8801776 9.44868837,46.9051367 20.5158279,46.9051367 C31.5829674,46.9051367 40.5543395,37.8801776 40.5543395,26.7469327" id="Stroke-1" stroke-width="2"></path>
                                <polyline id="Stroke-3" stroke-width="2" points="18.3341512 0.479591837 25.5072442 6.48120408 19.5412674 13.6971429"></polyline>
                            </g>
                        </g>
                    </g>
                    <text id="Find-Support-of-othe" font-family="Avenir-Medium, Avenir" font-size="16" font-weight="400" text-decoration="underline" fill="#000000">
                        <tspan x="399" y="112">Find Support of other topics</tspan>
                    </text>
                </g>
            </g>
        </g>
    </g>
</svg>