<?xml version="1.0" encoding="UTF-8" standalone="no"?>
<svg width="326px" height="465px" viewBox="0 0 326 465" version="1.1" xmlns="http://www.w3.org/2000/svg" xmlns:xlink="http://www.w3.org/1999/xlink">
    <!-- Generator: Sketch 39 (31667) - http://www.bohemiancoding.com/sketch -->
    <title>Group 10</title>
    <desc>Created with Sketch.</desc>
    <defs>
        <rect id="path-1" x="97" y="442" width="128" height="27"></rect>
        <mask id="mask-2" maskContentUnits="userSpaceOnUse" maskUnits="objectBoundingBox" x="0" y="0" width="128" height="27" fill="white">
            <use xlink:href="#path-1"></use>
        </mask>
    </defs>
    <g id="Page-1" stroke="none" stroke-width="1" fill="none" fill-rule="evenodd">
        <g id="Artboard" transform="translate(-122.000000, -166.000000)">
            <g id="Group-10" transform="translate(122.000000, 162.000000)">
                <g id="Group">
                    <polygon id="Fill-3" fill="#F3F3F3" points="0 129.631 154.111 129.631 154.111 69 0 69"></polygon>
                    <polygon id="Fill-4" fill="#F3F3F3" points="163 129.631 325.765 129.631 325.765 69 163 69"></polygon>
                    <polygon id="Fill-5" fill="#F3F3F3" points="0 199.798 154.111 199.798 154.111 139.167 0 139.167"></polygon>
                    <polygon id="Fill-6" fill="#F3F3F3" points="162.413 199.631 325.178 199.631 325.178 139 162.413 139"></polygon>
                    <polygon id="Fill-7" fill="#F3F3F3" points="0 269.838 154.111 269.838 154.111 209.207 0 209.207"></polygon>
                    <polygon id="Fill-8" fill="#F3F3F3" points="162.413 269.631 325.178 269.631 325.178 209 162.413 209"></polygon>
                    <polygon id="Fill-9" fill="#F3F3F3" points="0 339.631 154.111 339.631 154.111 279 0 279"></polygon>
                    <polygon id="Fill-10" fill="#F3F3F3" points="162 339.631 324.765 339.631 324.765 279 162 279"></polygon>
                    <polygon id="Stroke-11" stroke="#CBCBCB" stroke-width="1.056" points="0 370.2249 325.178 370.2249"></polygon>
                    <text id="My-problem-isn’t-lis" font-family="Avenir-Book, Avenir" font-size="18" font-weight="normal" fill="#000000">
                        <tspan x="46.1807" y="416.999448">My problem isn’t listed here</tspan>
                    </text>
                    <use id="Rectangle" stroke="#000000" mask="url(#mask-2)" stroke-width="2" xlink:href="#path-1"></use>
                    <text id="What-type-of-problem" font-family="Avenir-Book, Avenir" font-size="18" font-weight="normal" fill="#000000">
                        <tspan x="41.993" y="18">What type of problem do you </tspan>
                        <tspan x="96.83" y="43">need help with?</tspan>
                    </text>
                    <text id="Power-&amp;-Charging" font-family="Avenir-Book, Avenir" font-size="14" font-weight="normal" fill="#000000">
                        <tspan x="48" y="96">Power &amp;</tspan>
                        <tspan x="48" y="115">Charging</tspan>
                    </text>
                    <text id="Display" font-family="Avenir-Book, Avenir" font-size="14" font-weight="normal" fill="#000000">
                        <tspan x="216" y="106">Display</tspan>
                    </text>
                    <text id="System-performance" font-family="Avenir-Book, Avenir" font-size="14" font-weight="normal" fill="#000000">
                        <tspan x="48" y="166.666667">System</tspan>
                        <tspan x="48" y="185.666667">performance</tspan>
                    </text>
                    <text id="Applications" font-family="Avenir-Book, Avenir" font-size="14" font-weight="normal" fill="#000000">
                        <tspan x="216" y="171.666667">Applications</tspan>
                    </text>
                    <text id="Camera" font-family="Avenir-Book, Avenir" font-size="14" font-weight="normal" fill="#000000">
                        <tspan x="48" y="247">Camera</tspan>
                    </text>
                    <text id="Settings" font-family="Avenir-Book, Avenir" font-size="14" font-weight="normal" fill="#000000">
                        <tspan x="216" y="246">Settings</tspan>
                    </text>
                    <text id="Software-update" font-family="Avenir-Book, Avenir" font-size="14" font-weight="normal" fill="#000000">
                        <tspan x="48" y="307">Software</tspan>
                        <tspan x="48" y="326">update</tspan>
                    </text>
                    <text id="Backup,-Transfer-&amp;-R" font-family="Avenir-Book, Avenir" font-size="14" font-weight="normal" fill="#000000">
                        <tspan x="216" y="307">Backup,</tspan>
                        <tspan x="216" y="326">Transfer &amp; Reset</tspan>
                    </text>
                </g>
                <g id="Group-3" transform="translate(179.000000, 161.000000)" stroke="#000000" stroke-width="1.41">
                    <path d="M5.21,0.6284 L3.615,0.6284 C1.698,0.6284 0.144,2.1824 0.144,4.1004 L0.144,5.6944 C0.144,7.6124 1.698,9.1664 3.615,9.1664 L5.21,9.1664 C7.127,9.1664 8.682,7.6124 8.682,5.6944 L8.682,4.1004 C8.682,2.1824 7.127,0.6284 5.21,0.6284 L5.21,0.6284 Z" id="Stroke-1"></path>
                    <path d="M17.4369,0.6284 L15.8419,0.6284 C13.9249,0.6284 12.3709,2.1824 12.3709,4.1004 L12.3709,5.6944 C12.3709,7.6124 13.9249,9.1664 15.8419,9.1664 L17.4369,9.1664 C19.3539,9.1664 20.9089,7.6124 20.9089,5.6944 L20.9089,4.1004 C20.9089,2.1824 19.3539,0.6284 17.4369,0.6284 L17.4369,0.6284 Z" id="Stroke-3"></path>
                    <path d="M5.21,12.743 L3.615,12.743 C1.698,12.743 0.144,14.297 0.144,16.215 L0.144,17.809 C0.144,19.727 1.698,21.281 3.615,21.281 L5.21,21.281 C7.127,21.281 8.682,19.727 8.682,17.809 L8.682,16.215 C8.682,14.297 7.127,12.743 5.21,12.743 L5.21,12.743 Z" id="Stroke-5"></path>
                    <path d="M17.4369,12.743 L15.8419,12.743 C13.9249,12.743 12.3709,14.297 12.3709,16.215 L12.3709,17.809 C12.3709,19.727 13.9249,21.281 15.8419,21.281 L17.4369,21.281 C19.3539,21.281 20.9089,19.727 20.9089,17.809 L20.9089,16.215 C20.9089,14.297 19.3539,12.743 17.4369,12.743 L17.4369,12.743 Z" id="Stroke-7"></path>
                </g>
                <g id="Group-2" transform="translate(174.000000, 91.000000)" stroke="#000000" stroke-width="1.325">
                    <path d="M15.6783,7.7806 C15.6783,3.7256 12.3913,0.4386 8.3363,0.4386 C4.2813,0.4386 0.9943,3.7256 0.9943,7.7806 C0.9943,11.8356 4.2813,15.1226 8.3363,15.1226 C12.3913,15.1226 15.6783,11.8356 15.6783,7.7806 L15.6783,7.7806 Z" id="Stroke-9"></path>
                    <polygon id="Stroke-11" points="24.2176 0.5779 17.5646 12.5169 30.8706 12.5169"></polygon>
                    <polygon id="Stroke-13" points="8.98 21.539 22.149 21.539 22.149 8.37 8.98 8.37"></polygon>
                </g>
                <g id="Group-7" transform="translate(13.000000, 159.000000)" stroke="#000000" stroke-width="1.41">
                    <path d="M15.6022,20.4102 C15.6022,18.1282 13.7522,16.2792 11.4712,16.2792 C9.1892,16.2792 7.3402,18.1282 7.3402,20.4102 C7.3402,22.6922 9.1892,24.5412 11.4712,24.5412 C13.7522,24.5412 15.6022,22.6922 15.6022,20.4102 L15.6022,20.4102 Z" id="Stroke-15"></path>
                    <path d="M22.8421,6.3441 C20.1391,3.0701 16.0491,0.9831 11.4711,0.9831 C6.8931,0.9831 2.8031,3.0701 0.1001,6.3441" id="Stroke-16"></path>
                    <path d="M19.4955,9.6905 C17.6615,7.2545 14.7545,5.6725 11.4705,5.6725 C8.1875,5.6725 5.2805,7.2545 3.4465,9.6905" id="Stroke-17"></path>
                    <path d="M16.0564,13.1296 C15.1514,11.5316 13.4384,10.4516 11.4714,10.4516 C9.5034,10.4516 7.7904,11.5316 6.8864,13.1296" id="Stroke-18"></path>
                </g>
                <g id="Group-4" transform="translate(176.000000, 229.000000)" stroke="#000000" stroke-width="1.41">
                    <path d="M12.9975,18.6644 C9.8155,18.6644 7.2365,16.0854 7.2365,12.9034 C7.2365,9.7214 9.8155,7.1424 12.9975,7.1424 C16.1795,7.1424 18.7585,9.7214 18.7585,12.9034 C18.7585,16.0854 16.1795,18.6644 12.9975,18.6644 L12.9975,18.6644 Z M22.5105,12.9034 C22.5105,12.5474 22.4895,12.1954 22.4515,11.8494 L25.8515,9.3664 C25.5555,8.2884 25.1275,7.2664 24.5865,6.3164 L20.4265,6.9634 C19.9865,6.4144 19.4865,5.9144 18.9375,5.4744 L19.5845,1.3144 C18.6345,0.7734 17.6125,0.3454 16.5345,0.0494 L14.0515,3.4494 C13.7055,3.4114 13.3535,3.3904 12.9975,3.3904 C12.6415,3.3904 12.2895,3.4114 11.9435,3.4494 L9.4605,0.0494 C8.3825,0.3454 7.3605,0.7734 6.4105,1.3144 L7.0575,5.4744 C6.5085,5.9144 6.0085,6.4144 5.5685,6.9634 L1.4085,6.3164 C0.8675,7.2664 0.4395,8.2884 0.1435,9.3664 L3.5435,11.8494 C3.5055,12.1954 3.4845,12.5474 3.4845,12.9034 C3.4845,13.2594 3.5055,13.6114 3.5435,13.9574 L0.1435,16.4404 C0.4395,17.5184 0.8675,18.5404 1.4085,19.4904 L5.5685,18.8424 C6.0085,19.3924 6.5085,19.8924 7.0575,20.3324 L6.4105,24.4924 C7.3605,25.0334 8.3825,25.4614 9.4605,25.7574 L11.9435,22.3574 C12.2895,22.3954 12.6415,22.4164 12.9975,22.4164 C13.3535,22.4164 13.7055,22.3954 14.0515,22.3574 L16.5345,25.7574 C17.6125,25.4614 18.6345,25.0334 19.5845,24.4924 L18.9375,20.3324 C19.4865,19.8924 19.9865,19.3924 20.4265,18.8424 L24.5865,19.4904 C25.1275,18.5404 25.5555,17.5184 25.8515,16.4404 L22.4515,13.9574 C22.4895,13.6114 22.5105,13.2594 22.5105,12.9034 L22.5105,12.9034 Z" id="Stroke-19"></path>
                </g>
                <g id="Group-6" transform="translate(12.000000, 87.000000)">
                    <path d="M25.0189,5.3407 L22.3049,5.7637 C21.9609,5.3337 21.5709,4.9437 21.1409,4.5997 L21.5639,1.8857 C20.7569,1.4047 19.8779,1.0377 18.9439,0.8007 L17.3239,3.0177 C17.0539,2.9877 16.7789,2.9717 16.5009,2.9717 C16.2219,2.9717 15.9479,2.9877 15.6769,3.0177 L14.0579,0.8007 C13.1239,1.0377 12.2439,1.4047 11.4369,1.8857 L11.8599,4.5997 C11.4309,4.9437 11.0399,5.3337 10.6959,5.7637 L7.9819,5.3407 C7.5009,6.1477 7.1339,7.0267 6.8969,7.9607 L9.1139,9.5807 C9.0839,9.8507 9.0679,10.1257 9.0679,10.4037 C9.0679,10.6827 9.0839,10.9567 9.1139,11.2277 L6.8969,12.8467 C7.1339,13.7807 7.5009,14.6607 7.9819,15.4677 L10.6959,15.0447 C11.0399,15.4737 11.4309,15.8647 11.8599,16.2087 L11.4369,18.9227 C12.2439,19.4037 13.1239,19.7707 14.0579,20.0077 L15.6769,17.7907 C15.9479,17.8207 16.2219,17.8367 16.5009,17.8367 C16.7789,17.8367 17.0539,17.8207 17.3239,17.7907 L18.9439,20.0077 C19.8779,19.7707 20.7569,19.4037 21.5639,18.9227 L21.1409,16.2087 C21.5709,15.8647 21.9609,15.4737 22.3049,15.0447 L25.0189,15.4677 C25.4999,14.6607 25.8669,13.7807 26.1039,12.8467 L23.8869,11.2277 C23.9169,10.9567 23.9329,10.6827 23.9329,10.4037 C23.9329,10.1257 23.9169,9.8507 23.8869,9.5807 L26.1039,7.9607 C25.8669,7.0267 25.4999,6.1477 25.0189,5.3407 L25.0189,5.3407 Z" id="Stroke-20" stroke="#000000" stroke-width="1.41"></path>
                    <path d="M18.409,11.9506 L15.695,12.3736 C15.351,11.9436 14.961,11.5536 14.531,11.2096 L14.954,8.4956 C14.147,8.0146 13.268,7.6476 12.334,7.4106 L10.714,9.6276 C10.444,9.5976 10.169,9.5816 9.891,9.5816 C9.612,9.5816 9.338,9.5976 9.067,9.6276 L7.448,7.4106 C6.514,7.6476 5.634,8.0146 4.827,8.4956 L5.25,11.2096 C4.821,11.5536 4.43,11.9436 4.086,12.3736 L1.372,11.9506 C0.891,12.7576 0.524,13.6366 0.287,14.5706 L2.504,16.1906 C2.474,16.4606 2.458,16.7356 2.458,17.0136 C2.458,17.2926 2.474,17.5666 2.504,17.8376 L0.287,19.4566 C0.524,20.3906 0.891,21.2706 1.372,22.0776 L4.086,21.6546 C4.43,22.0836 4.821,22.4746 5.25,22.8186 L4.827,25.5326 C5.634,26.0136 6.514,26.3806 7.448,26.6176 L9.067,24.4006 C9.338,24.4306 9.612,24.4466 9.891,24.4466 C10.169,24.4466 10.444,24.4306 10.714,24.4006 L12.334,26.6176 C13.268,26.3806 14.147,26.0136 14.954,25.5326 L14.531,22.8186 C14.961,22.4746 15.351,22.0836 15.695,21.6546 L18.409,22.0776 C18.89,21.2706 19.257,20.3906 19.494,19.4566 L17.277,17.8376 C17.307,17.5666 17.324,17.2926 17.324,17.0136 C17.324,16.7356 17.307,16.4606 17.277,16.1906 L19.494,14.5706 C19.257,13.6366 18.89,12.7576 18.409,11.9506" id="Fill-21" fill="#FFFFFF"></path>
                    <path d="M18.409,11.9506 L15.695,12.3736 C15.351,11.9436 14.961,11.5536 14.531,11.2096 L14.954,8.4956 C14.147,8.0146 13.268,7.6476 12.334,7.4106 L10.714,9.6276 C10.444,9.5976 10.169,9.5816 9.891,9.5816 C9.612,9.5816 9.338,9.5976 9.067,9.6276 L7.448,7.4106 C6.514,7.6476 5.634,8.0146 4.827,8.4956 L5.25,11.2096 C4.821,11.5536 4.43,11.9436 4.086,12.3736 L1.372,11.9506 C0.891,12.7576 0.524,13.6366 0.287,14.5706 L2.504,16.1906 C2.474,16.4606 2.458,16.7356 2.458,17.0136 C2.458,17.2926 2.474,17.5666 2.504,17.8376 L0.287,19.4566 C0.524,20.3906 0.891,21.2706 1.372,22.0776 L4.086,21.6546 C4.43,22.0836 4.821,22.4746 5.25,22.8186 L4.827,25.5326 C5.634,26.0136 6.514,26.3806 7.448,26.6176 L9.067,24.4006 C9.338,24.4306 9.612,24.4466 9.891,24.4466 C10.169,24.4466 10.444,24.4306 10.714,24.4006 L12.334,26.6176 C13.268,26.3806 14.147,26.0136 14.954,25.5326 L14.531,22.8186 C14.961,22.4746 15.351,22.0836 15.695,21.6546 L18.409,22.0776 C18.89,21.2706 19.257,20.3906 19.494,19.4566 L17.277,17.8376 C17.307,17.5666 17.324,17.2926 17.324,17.0136 C17.324,16.7356 17.307,16.4606 17.277,16.1906 L19.494,14.5706 C19.257,13.6366 18.89,12.7576 18.409,11.9506 L18.409,11.9506 Z" id="Stroke-22" stroke="#000000" stroke-width="1.41"></path>
                    <path d="M9.8907,21.1496 C7.6067,21.1496 5.7547,19.2976 5.7547,17.0136 C5.7547,14.7296 7.6067,12.8786 9.8907,12.8786 C12.1747,12.8786 14.0267,14.7296 14.0267,17.0136 C14.0267,19.2976 12.1747,21.1496 9.8907,21.1496 L9.8907,21.1496 Z" id="Stroke-23" stroke="#000000" stroke-width="1.41"></path>
                </g>
                <g id="Group-5" transform="translate(174.000000, 298.000000)" stroke="#000000" stroke-width="1.41">
                    <path d="M6.0198,6.9598 L6.0198,2.2838 C6.0198,1.5518 6.6128,0.9578 7.3448,0.9578 L16.7388,0.9578 C17.4708,0.9578 18.0638,1.5518 18.0638,2.2838 L18.0638,6.9598" id="Stroke-24"></path>
                    <path d="M12.042,13.2735 L12.042,8.3055 C12.042,7.5735 12.635,6.9805 13.367,6.9805 L25.823,6.9805 C26.555,6.9805 27.148,7.5735 27.148,8.3055 L27.148,23.3725 C27.148,24.1045 26.555,24.6975 25.823,24.6975 L13.367,24.6975 C12.635,24.6975 12.042,24.1045 12.042,23.3725 L12.042,18.6375" id="Stroke-25"></path>
                    <path d="M8.8507,9.1437 L4.2027,9.1437 C2.3607,9.1437 0.8547,10.6497 0.8547,12.4917 L0.8547,12.4917 C0.8547,14.3327 2.3607,15.8387 4.2027,15.8387 L21.9417,15.8387" id="Stroke-26"></path>
                    <polyline id="Stroke-27" points="18.3862 12.2058 22.9052 15.8388 18.3862 19.9038"></polyline>
                </g>
                <g id="Group-9" transform="translate(13.000000, 298.000000)" stroke="#000000" stroke-width="1.4">
                    <path d="M18.3186,15.0789 L10.7496,7.5099 C11.6146,5.4059 11.0006,3.4579 9.5156,1.9729 C8.1896,0.6469 6.3276,0.1769 4.6486,0.5049 C3.9736,0.6369 3.7026,1.4529 4.1896,1.9389 L6.9226,4.6719 L4.9426,6.6519 L2.1906,3.9009 C1.7336,3.4439 0.9336,3.6419 0.7776,4.2689 C0.3346,6.0429 0.6426,8.1209 2.0056,9.4839 C3.4706,10.9489 5.6436,11.3119 7.2616,10.9509 L14.9346,18.6239 C14.5836,20.2529 14.9746,22.3679 16.4156,23.8089 C17.7756,25.1689 19.8216,25.5059 21.5826,25.0779 C22.2116,24.9249 22.4116,24.1209 21.9536,23.6629 L19.2946,21.0039 L21.2746,19.0249 L23.9226,21.6729 C24.3846,22.1349 25.2006,21.9269 25.3396,21.2889 C25.7086,19.5799 25.2666,17.6559 23.9176,16.3069 C22.4096,14.7999 20.4116,14.2029 18.3186,15.0789 L18.3186,15.0789 Z" id="Stroke-28"></path>
                </g>
                <g id="Group-8" transform="translate(11.000000, 229.000000)" stroke="#000000">
                    <path d="M23.1606,4.6248 L20.4996,4.6248 L20.4996,3.0878 C20.4996,1.6158 19.0116,0.6248 17.5396,0.6248 L9.7036,0.6248 C8.2326,0.6248 6.4996,1.6158 6.4996,3.0878 L6.4996,4.6248 L4.0836,4.6248 C2.0806,4.6248 0.4996,5.7468 0.4996,7.7488 L0.4996,19.5408 C0.4996,21.5428 2.0806,23.6248 4.0836,23.6248 L23.1606,23.6248 C25.1626,23.6248 26.4996,21.5428 26.4996,19.5408 L26.4996,7.7488 C26.4996,5.7468 25.1626,4.6248 23.1606,4.6248 L23.1606,4.6248 Z" id="Stroke-29"></path>
                    <path d="M19.7164,13.2218 C19.7164,16.5208 17.0424,19.1948 13.7434,19.1948 C10.4454,19.1948 7.7714,16.5208 7.7714,13.2218 C7.7714,9.9228 10.4454,7.2488 13.7434,7.2488 C17.0424,7.2488 19.7164,9.9228 19.7164,13.2218 L19.7164,13.2218 Z" id="Stroke-30"></path>
                    <path d="M17.8141,13.2218 C17.8141,15.4698 15.9921,17.2918 13.7441,17.2918 C11.4961,17.2918 9.6731,15.4698 9.6731,13.2218 C9.6731,10.9738 11.4961,9.1518 13.7441,9.1518 C15.9921,9.1518 17.8141,10.9738 17.8141,13.2218 L17.8141,13.2218 Z" id="Stroke-31"></path>
                </g>
                <text id="Tell-us-more" font-family="Avenir-Book, Avenir" font-size="16" font-weight="normal" fill="#000000">
                    <tspan x="120.184" y="461">Tell us more</tspan>
                </text>
            </g>
        </g>
    </g>
</svg>