<?xml version="1.0" encoding="UTF-8" standalone="no"?>
<svg width="436px" height="171px" viewBox="0 0 436 171" version="1.1" xmlns="http://www.w3.org/2000/svg" xmlns:xlink="http://www.w3.org/1999/xlink">
    <!-- Generator: Sketch 39 (31667) - http://www.bohemiancoding.com/sketch -->
    <title>Group</title>
    <desc>Created with Sketch.</desc>
    <defs></defs>
    <g id="Page-1" stroke="none" stroke-width="1" fill="none" fill-rule="evenodd">
        <g id="4.1-Select-Issue-Topic" transform="translate(-579.000000, -601.000000)">
            <g id="Select-Product" transform="translate(210.000000, 291.000000)">
                <g id="Group" transform="translate(365.000000, 287.000000)">
                    <g id="Category-3" transform="translate(351.000000, 17.000000)">
                        <text id="Warranty" font-family="Avenir-Book, Avenir" font-size="16" font-weight="normal" fill="#000000">
                            <tspan x="18.668" y="150">Warranty</tspan>
                            <tspan x="14.212" y="172">and repair </tspan>
                        </text>
                        <g id="warranty_n_repair" stroke="#000000" stroke-linecap="round" stroke-linejoin="round">
                            <g id="Page-1" transform="translate(13.000000, 9.000000)">
                                <path d="M47.4982,20.6124 L47.4982,3.0004 C47.4982,1.3434 46.1552,0.0004 44.4982,0.0004 L14.6042,0.0004 L0.0002,14.4934 L0.0002,57.1614 C0.0002,58.8184 1.3432,60.1614 3.0002,60.1614 L23.5782,60.1614" id="Stroke-1" stroke-width="2"></path>
                                <path d="M0.2134,14.4933 L11.6044,14.4933 C13.2604,14.4933 14.6044,13.1503 14.6044,11.4933 L14.6044,0.1023" id="Stroke-3" stroke-width="2"></path>
                                <path d="M20.0908,79.2084 C21.2618,80.3794 23.1618,80.3804 24.3328,79.2084 L48.2388,55.3124 L52.5028,51.0484 C55.1178,51.9214 58.0148,52.1824 61.0298,51.6264 C67.8438,50.3694 73.2718,44.9074 74.4948,38.0884 C74.9268,35.6794 74.8368,33.3494 74.3308,31.1784 C74.1548,30.4224 73.2008,30.1704 72.6518,30.7184 L67.8028,35.5684 C64.8168,38.5544 59.9758,38.5544 56.9898,35.5684 L56.9898,35.5684 C54.0038,32.5824 54.0038,27.7404 56.9898,24.7544 L61.6388,20.1054 C62.1998,19.5444 61.9208,18.5684 61.1428,18.4154 C59.7178,18.1344 58.2288,18.0334 56.6988,18.1344 C48.4748,18.6774 41.7108,25.3144 41.0128,33.5264 C40.7708,36.3684 41.2328,39.0764 42.2438,41.5014 L14.4308,69.3054 C13.2588,70.4774 13.2588,72.3764 14.4308,73.5484 L20.0908,79.2084 L20.0908,79.2084 Z" id="Stroke-5" stroke-width="2"></path>
                            </g>
                        </g>
                    </g>
                    <g id="Category-2" transform="translate(165.000000, 17.000000)">
                        <text id="Online-Shopping-Issu" font-family="Avenir-Book, Avenir" font-size="16" font-weight="normal" fill="#000000">
                            <tspan x="0.248" y="150">Online Shopping</tspan>
                            <tspan x="43.176" y="172">Issue</tspan>
                        </text>
                        <g id="Online_shopping_issue" transform="translate(10.000000, 0.000000)" stroke="#000000" stroke-linecap="round" stroke-linejoin="round">
                            <g id="Page-1" transform="translate(3.000000, 10.000000)">
                                <path d="M25.2208,54.8945 L79.1988,54.8945 C80.4728,54.8945 81.6078,54.0905 82.0298,52.8885 L93.1768,21.1385 C93.8618,19.1875 92.4148,17.1445 90.3468,17.1445 L16.7108,17.1445" id="Stroke-1" stroke-width="2"></path>
                                <path d="M0,-0.0001 L9.504,-0.0001 C10.895,-0.0001 12.104,0.9569 12.424,2.3109 L27.091,64.0609 C27.41,65.4159 28.619,66.3719 30.011,66.3719 L80.622,66.3719" id="Stroke-3" stroke-width="2"></path>
                                <path d="M39.2585,73.4842 C39.2585,76.7982 36.5725,79.4842 33.2585,79.4842 C29.9445,79.4842 27.2585,76.7982 27.2585,73.4842 C27.2585,70.1702 29.9445,67.4842 33.2585,67.4842 C36.5725,67.4842 39.2585,70.1702 39.2585,73.4842 L39.2585,73.4842 Z" id="Stroke-5" stroke-width="2"></path>
                                <path d="M86.3371,72.3723 C86.3371,75.6863 83.6511,78.3723 80.3371,78.3723 C77.0231,78.3723 74.3371,75.6863 74.3371,72.3723 C74.3371,69.0583 77.0231,66.3723 80.3371,66.3723 C83.6511,66.3723 86.3371,69.0583 86.3371,72.3723 L86.3371,72.3723 Z" id="Stroke-7" stroke-width="2"></path>
                            </g>
                        </g>
                    </g>
                    <g id="Category-1">
                        <g id="Product_issue" transform="translate(0.000000, 17.000000)" stroke="#000000" stroke-linecap="round" stroke-linejoin="round">
                            <g id="Page-1" transform="translate(29.000000, 7.000000)">
                                <path d="M36.6156,85 L4.9996,85 C2.2386,85 -0.0004,82.761 -0.0004,80 L-0.0004,5 C-0.0004,2.239 2.2386,0 4.9996,0 L36.6156,0 C39.3766,0 41.6156,2.239 41.6156,5 L41.6156,80 C41.6156,82.761 39.3766,85 36.6156,85 L36.6156,85 Z" id="Stroke-1" stroke-width="2"></path>
                                <polyline id="Stroke-3" stroke-width="2" points="41.6156 75.4932 -0.0004 75.4932 -0.0004 9.5072 41.6156 9.5072"></polyline>
                            </g>
                        </g>
                        <text id="Product-Issue" font-family="Avenir-Book, Avenir" font-size="16" font-weight="normal" fill="#000000">
                            <tspan x="3.256" y="167">Product Issue</tspan>
                        </text>
                    </g>
                </g>
            </g>
        </g>
    </g>
</svg>