<!-- Generator: Adobe Illustrator 18.0.0, SVG Export Plug-In  -->
<svg version="1.1"
	 xmlns="http://www.w3.org/2000/svg" xmlns:xlink="http://www.w3.org/1999/xlink" xmlns:a="http://ns.adobe.com/AdobeSVGViewerExtensions/3.0/"
	 x="0px" y="0px" width="358.194px" height="1156.533px" viewBox="0 0 358.194 1156.533"
	 style="enable-background:new 0 0 358.194 1156.533;" xml:space="preserve">
<defs>
	<symbol  id="product_landing" viewBox="-159.664 -592.174 320 1033.211">
		
			<line style="opacity:0.8;fill:none;stroke:#000000;stroke-width:0.9996;stroke-miterlimit:10;" x1="-159.664" y1="398.144" x2="160.336" y2="398.144"/>
		<g style="opacity:0.8;">
			<text transform="matrix(1 0 0 -1 -52.6626 -157.4045)" style="font-family:'Avenir-Medium'; font-size:14;">HTC A9 Camera</text>
		</g>
		<g style="opacity:0.8;">
			<text transform="matrix(1 0 0 -1 -57.0791 -172.4634)"><tspan x="0" y="0" style="font-family:'Avenir-Book'; font-size:12;">W</tspan><tspan x="11.112" y="0" style="font-family:'Avenir-Book'; font-size:12;">orld</tspan><tspan x="32.423" y="0" style="font-family:'Avenir-Book'; font-size:12; letter-spacing:-1;">’</tspan><tspan x="34.211" y="0" style="font-family:'Avenir-Book'; font-size:12;">s first dual OIS</tspan></text>
		</g>
		<g style="opacity:0.8;">
			<text transform="matrix(1 0 0 -1 -37.582 -257.1783)" style="font-family:'Avenir-Medium'; font-size:14;">HTC One A9</text>
		</g>
		<g style="opacity:0.8;">
			<text transform="matrix(1 0 0 -1 -37.582 -278.4254)"><tspan x="0" y="0" style="font-family:'Avenir-Book'; font-size:12;">Battery Saving </tspan><tspan x="80.435" y="0" style="font-family:'Avenir-Book'; font-size:12;">T</tspan><tspan x="87.239" y="0" style="font-family:'Avenir-Book'; font-size:12;">ips</tspan></text>
		</g>
		<g style="opacity:0.8;">
			<text transform="matrix(1 0 0 -1 -44.8516 301.9268)" style="font-family:'Avenir-Book'; font-size:16;">Hot topics</text>
		</g>
		<g style="opacity:0.8;">
			<text transform="matrix(1 0 0 -1 -59.3057 -8.1519)"><tspan x="0" y="0" style="font-family:'Avenir-Book'; font-size:16;">How-to </tspan><tspan x="57.167" y="0" style="font-family:'Avenir-Book'; font-size:16;">V</tspan><tspan x="67.039" y="0" style="font-family:'Avenir-Book'; font-size:16;">ideos</tspan></text>
		</g>
		<polygon style="opacity:0.8;fill:none;stroke:#000000;stroke-miterlimit:10;" points="143.836,-214.626 -143.164,-215.523 
			-143.164,-35.662 143.836,-34.765 		"/>
		<polygon style="opacity:0.8;fill:none;stroke:#000000;stroke-width:0.9075;stroke-miterlimit:10;" points="-58.08,-295.411 
			-143.08,-295.411 -143.08,-225.411 -58.08,-225.411 		"/>
		<polygon style="opacity:0.8;fill:none;stroke:#000000;stroke-width:0.9075;stroke-miterlimit:10;" points="143.832,-295.411 
			-58.088,-295.411 -58.088,-225.411 144.407,-225.776 		"/>
		<g style="opacity:0.8;">
			<text transform="matrix(1 0 0 -1 -37.582 -335.9606)" style="font-family:'Avenir-Medium'; font-size:14;">HTC One A9</text>
		</g>
		<g style="opacity:0.8;">
			<text transform="matrix(1 0 0 -1 -37.582 -357.2086)"><tspan x="0" y="0" style="font-family:'Avenir-Book'; font-size:12;">Battery Saving </tspan><tspan x="80.435" y="0" style="font-family:'Avenir-Book'; font-size:12;">T</tspan><tspan x="87.239" y="0" style="font-family:'Avenir-Book'; font-size:12;">ips</tspan></text>
		</g>
		<polygon style="opacity:0.8;fill:none;stroke:#000000;stroke-width:0.9075;stroke-miterlimit:10;" points="-58.08,-374.193 
			-143.08,-374.193 -143.08,-304.193 -58.08,-304.193 		"/>
		<polygon style="opacity:0.8;fill:none;stroke:#000000;stroke-width:0.9075;stroke-miterlimit:10;" points="143.832,-374.193 
			-58.088,-374.193 -58.088,-304.193 144.407,-304.558 		"/>
		
			<use xlink:href="#video"  width="38" height="38" x="-19" y="-19" transform="matrix(0.9853 0 0 0.9853 -1.1774 -106.0635)" style="overflow:visible;opacity:0.8;"/>
		<polygon style="fill:none;" points="135.698,243.807 -138.052,243.807 -138.052,273.773 135.698,273.773 		"/>
		<text transform="matrix(1 0 0 -1 -138.0525 263.1895)" style="opacity:0.8;"><tspan x="0" y="0" style="font-family:'Avenir-Book'; font-size:14;">Am I </tspan><tspan x="33.012" y="0" style="font-family:'Avenir-Book'; font-size:14;">r</tspan><tspan x="37.407" y="0" style="font-family:'Avenir-Book'; font-size:14;">equi</tspan><tspan x="64.889" y="0" style="font-family:'Avenir-Book'; font-size:14;">r</tspan><tspan x="69.285" y="0" style="font-family:'Avenir-Book'; font-size:14;">ed to use the p</tspan><tspan x="164.442" y="0" style="font-family:'Avenir-Book'; font-size:14;">r</tspan><tspan x="168.838" y="0" style="font-family:'Avenir-Book'; font-size:14;">ovided USB </tspan><tspan x="0" y="16.8" style="font-family:'Avenir-Book'; font-size:14; letter-spacing:-1;">T</tspan><tspan x="6.482" y="16.8" style="font-family:'Avenir-Book'; font-size:14;">ype-C cable?</tspan></text>
		<polygon style="fill:none;" points="135.698,205.824 -138.052,205.824 -138.052,235.79 135.698,235.79 		"/>
		<text transform="matrix(1 0 0 -1 -138.0525 226.718)" style="opacity:0.8;"><tspan x="0" y="0" style="fill:#666666; font-family:'Avenir-Book'; font-size:12;">O</tspan><tspan x="10.008" y="0" style="fill:#666666; font-family:'Avenir-Book'; font-size:12;">r</tspan><tspan x="13.776" y="0" style="fill:#666666; font-family:'Avenir-Book'; font-size:12;">em ipsum dolor sit amet, consectetur adipisicing </tspan><tspan x="0" y="12" style="fill:#666666; font-family:'Avenir-Book'; font-size:12;">elit, sed do eiusmod tempor incididunt ut...</tspan></text>
		
			<line style="opacity:0.8;fill:none;stroke:#CCCCCC;stroke-miterlimit:10;" x1="-143.164" y1="189.166" x2="143.836" y2="189.166"/>
		<polygon style="fill:none;" points="136.875,144.92 -136.874,144.92 -136.874,159.903 136.875,159.903 		"/>
		<text transform="matrix(1 0 0 -1 -136.8748 149.3184)" style="opacity:0.8; font-family:'Avenir-Book'; font-size:14;">What&apos;s new and special with Camera?</text>
		<polygon style="fill:none;" points="135.698,104.703 -138.052,104.703 -138.052,134.669 135.698,134.669 		"/>
		<text transform="matrix(1 0 0 -1 -138.0525 125.5969)" style="opacity:0.8;"><tspan x="0" y="0" style="fill:#666666; font-family:'Avenir-Book'; font-size:12;">Ipsum dolor sit amet, consectetur adipisicing elit, </tspan><tspan x="0" y="12" style="fill:#666666; font-family:'Avenir-Book'; font-size:12;">sed do eiusmod tempor ut labo</tspan><tspan x="169.773" y="12" style="fill:#666666; font-family:'Avenir-Book'; font-size:12;">r</tspan><tspan x="173.541" y="12" style="fill:#666666; font-family:'Avenir-Book'; font-size:12;">e...</tspan></text>
		<line style="opacity:0.8;fill:none;stroke:#CCCCCC;stroke-miterlimit:10;" x1="-143.164" y1="88.045" x2="143.836" y2="88.045"/>
		<line style="opacity:0.8;fill:none;stroke:#000000;stroke-miterlimit:10;" x1="-143.164" y1="33.273" x2="143.836" y2="33.273"/>
		<g style="opacity:0.8;">
			<g>
				<text transform="matrix(1 0 0 -1 -57.8948 52.5962)"><tspan x="0" y="0" style="fill:#3FA9F5; font-family:'Avenir-Book'; font-size:12.0199;">Show Mo</tspan><tspan x="50.339" y="0" style="fill:#3FA9F5; font-family:'Avenir-Book'; font-size:12.0199;">r</tspan><tspan x="54.113" y="0" style="fill:#3FA9F5; font-family:'Avenir-Book'; font-size:12.0199;">e </tspan><tspan x="64.138" y="0" style="fill:#3FA9F5; font-family:'Avenir-Book'; font-size:12.0199; letter-spacing:-1;">T</tspan><tspan x="69.703" y="0" style="fill:#3FA9F5; font-family:'Avenir-Book'; font-size:12.0199;">opics</tspan></text>
			</g>
		</g>
		
			<line style="opacity:0.8;fill:none;stroke:#000000;stroke-miterlimit:10;" x1="-143.608" y1="-423.336" x2="143.392" y2="-423.336"/>
		<g style="opacity:0.8;">
			<path d="M-129.266,435.714c-0.959,0.977-2.418,1.383-3.377,1.434c-0.832,0.045-4.108,0.033-4.879,0
				c-1.086-0.045-1.873-0.369-2.269-0.668c-0.004-0.002-0.011,0-0.011,0.008v4.551h-2.506v-16.053l2.502-0.002
				c0,0-0.047,6.57,0.01,7.287c0.098,1.271,1.061,2.27,2.285,2.377c0.986,0.084,3.938,0.064,4.863,0
				c1.271-0.088,2.211-1.086,2.284-2.428c0.026-0.494-0.001-7.234-0.001-7.234h2.508c0,0,0.008,6.713,0,7.289
				C-127.875,433.622-128.348,434.78-129.266,435.714 M-125.252,434.505h5.936v-9.477h2.51v9.477h5.934v2.502h-14.379V434.505z
				 M-103.731,427.485c-1.365,0.119-2.277,1.014-2.384,2.33c-0.067,0.863-0.069,1.58-0.004,2.26
				c0.124,1.281,1.194,2.504,2.386,2.562c0.426,0.022,1.565,0.018,3.633,0.01l6.021-0.01l-0.001,2.5c0,0-4.795,0.01-6.233,0.013
				c-1.937,0.008-2.908,0.012-3.525-0.013c-1.356-0.049-2.491-0.533-3.377-1.434c-0.834-0.85-1.334-2.204-1.409-3.569
				c-0.042-0.742-0.054-1.707,0-2.281c0.139-1.469,0.614-2.625,1.409-3.434c0.852-0.869,2.147-1.418,3.379-1.436
				c1.008-0.013,9.757-0.002,9.757-0.002v2.502c0,0-2.66-0.009-4.011-0.02C-100.645,427.444-103.061,427.426-103.731,427.485"/>
		</g>
		<g style="opacity:0.8;">
			<polygon points="145.621,434.874 130.621,434.874 130.621,436.874 145.621,436.874 			"/>
			<polygon points="145.621,430.884 130.621,430.884 130.621,432.884 145.621,432.884 			"/>
			<polygon points="145.621,426.894 130.621,426.894 130.621,428.894 145.621,428.894 			"/>
		</g>
		<g style="opacity:0.8;">
			<g>
				<text transform="matrix(1 0 0 -1 -56.2178 -401.5699)"><tspan x="0" y="0" style="fill:#3FA9F5; font-family:'Avenir-Book'; font-size:12.0199;">Show Mo</tspan><tspan x="50.339" y="0" style="fill:#3FA9F5; font-family:'Avenir-Book'; font-size:12.0199;">r</tspan><tspan x="54.113" y="0" style="fill:#3FA9F5; font-family:'Avenir-Book'; font-size:12.0199;">e </tspan><tspan x="64.138" y="0" style="fill:#3FA9F5; font-family:'Avenir-Book'; font-size:12.0199;">V</tspan><tspan x="71.554" y="0" style="fill:#3FA9F5; font-family:'Avenir-Book'; font-size:12.0199;">ideos</tspan></text>
			</g>
		</g>
		<g>
			<g>
				<text transform="matrix(1 0 0 -1 -56.0691 -476.9075)"><tspan x="0" y="0" style="font-family:'Avenir-Book'; font-size:15.9663;">Can</tspan><tspan x="28.404" y="0" style="font-family:'Avenir-Book'; font-size:15.9663;">’</tspan><tspan x="32.268" y="0" style="font-family:'Avenir-Book'; font-size:15.9663;">t find what </tspan><tspan x="-10.506" y="19.16" style="font-family:'Avenir-Book'; font-size:15.9663;">you’</tspan><tspan x="19.686" y="19.16" style="font-family:'Avenir-Book'; font-size:15.9663;">r</tspan><tspan x="24.699" y="19.16" style="font-family:'Avenir-Book'; font-size:15.9663;">e looking for?</tspan></text>
			</g>
			<g>
				<g>
					<g>
						<text transform="matrix(0.9998 -0.0175 -0.0175 -0.9998 -25.2478 -588.5891)"><tspan x="0" y="0" style="font-family:'Avenir-Book'; font-size:11.9747;">G</tspan><tspan x="9.523" y="-0.143" style="font-family:'Avenir-Book'; font-size:11.9747;">e</tspan><tspan x="16.388" y="-0.24" style="font-family:'Avenir-Book'; font-size:11.9747;">t</tspan><tspan x="20.572" y="-0.307" style="font-family:'Avenir-Book'; font-size:11.9747;"> </tspan><tspan x="24.108" y="-0.415" style="font-family:'Avenir-Book'; font-size:11.9747;">H</tspan><tspan x="32.96" y="-0.552" style="font-family:'Avenir-Book'; font-size:11.9747;">e</tspan><tspan x="39.825" y="-0.639" style="font-family:'Avenir-Book'; font-size:11.9747;">l</tspan><tspan x="42.906" y="-0.732" style="font-family:'Avenir-Book'; font-size:11.9747;">p</tspan></text>
					</g>
				</g>
			</g>
			<g>
				<path style="fill:none;stroke:#000000;stroke-width:2;stroke-linejoin:bevel;stroke-miterlimit:10;" d="M-1.221-533.299
					c-12.289,0-22.25-6.607-22.25-14.758c0-6.026,5.452-11.199,13.256-13.491l-0.996-5.628l4.675,4.803
					c1.706-0.278,3.48-0.442,5.315-0.442c12.289,0,22.25,6.607,22.25,14.758C21.029-539.906,11.067-533.299-1.221-533.299z"/>
				<text transform="matrix(1 0 0 -1 -6.5811 -555.5483)" style="font-family:'Avenir-Medium'; font-size:21.7959;">?</text>
			</g>
		</g>
	</symbol>
	<symbol  id="video" viewBox="-19 -19 38 38">
		<path style="fill:none;stroke:#000000;stroke-width:2;stroke-miterlimit:10;" d="M18,0c0,9.941-8.059,18-18,18S-18,9.941-18,0
			s8.059-18,18-18S18-9.941,18,0z"/>
		<polygon style="fill:none;stroke:#000000;stroke-width:2;stroke-miterlimit:10;" points="-4.538,6.283 7.615,-0.734 
			-4.538,-7.751 		"/>
	</symbol>
</defs>
<g>
	
		<use xlink:href="#product_landing"  width="320" height="1033.211" id="XMLID_1_" x="-159.664" y="-592.174" transform="matrix(1.1194 0 0 -1.1194 178.7208 493.6788)" style="overflow:visible;"/>
</g>
</svg>
