<?xml version="1.0" encoding="UTF-8" standalone="no"?>
<svg width="956px" height="156px" viewBox="0 0 956 156" version="1.1" xmlns="http://www.w3.org/2000/svg" xmlns:xlink="http://www.w3.org/1999/xlink">
    <!-- Generator: Sketch 39 (31667) - http://www.bohemiancoding.com/sketch -->
    <title>Categories</title>
    <desc>Created with Sketch.</desc>
    <defs>
        <polygon id="path-1" points="0 70 35.292 70 35.292 0 0 0"></polygon>
        <polygon id="path-3" points="36.0957 0.395 0.8027 0.395 0.8027 70.3945 36.0957 70.3945"></polygon>
        <polygon id="path-5" points="0 78.6055 42.096 78.6055 42.096 1.0005 0 1.0005"></polygon>
        <polygon id="path-7" points="66 25.3286 66 50 0 50 0 25.3286 0 0.6572 66 0.6572"></polygon>
        <polygon id="path-9" points="25.4 59.7705 25.4 0.669055361 0.0850140007 0.669055361 0.0850140007 59.7705"></polygon>
        <polygon id="path-11" points="28.2001 57 56.4 57 56.4 0.601 0.0002 0.601 0.0002 57 28.2001 57"></polygon>
        <polygon id="path-13" points="6.01679035 0.958 0.158927246 0.958 0.158927246 10.5547 6.01679035 10.5547 6.01679035 0.958"></polygon>
    </defs>
    <g id="Page-1" stroke="none" stroke-width="1" fill="none" fill-rule="evenodd">
        <g id="4.3-Select-issue" transform="translate(-335.000000, -529.000000)">
            <g id="Select-Issue" transform="translate(210.000000, 291.000000)">
                <g id="Categories" transform="translate(88.000000, 237.000000)">
                    <text id="Power-&amp;-Charging" font-family="Avenir-Book, Avenir" font-size="16" font-weight="normal" fill="#000000">
                        <tspan x="39.928" y="130">Power &amp;</tspan>
                        <tspan x="37.112" y="152">Charging</tspan>
                    </text>
                    <text id="Display" font-family="Avenir-Book, Avenir" font-size="16" font-weight="normal" fill="#000000">
                        <tspan x="187.928" y="130">Display</tspan>
                    </text>
                    <text id="System-performance" font-family="Avenir-Book, Avenir" font-size="16" font-weight="normal" fill="#000000">
                        <tspan x="332.368" y="130">System</tspan>
                        <tspan x="312.376" y="152">performance</tspan>
                    </text>
                    <text id="Application" font-family="Avenir-Book, Avenir" font-size="16" font-weight="normal" fill="#000000">
                        <tspan x="461.12" y="130">Application</tspan>
                    </text>
                    <text id="Camera" font-family="Avenir-Book, Avenir" font-size="16" font-weight="normal" fill="#000000">
                        <tspan x="618.144" y="130">Camera</tspan>
                    </text>
                    <text id="Software-update" font-family="Avenir-Book, Avenir" font-size="16" font-weight="normal" fill="#000000">
                        <tspan x="758.896" y="130">Software</tspan>
                        <tspan x="764.52" y="152">update</tspan>
                    </text>
                    <text id="Backup,-Transfer-&amp;-R" font-family="Avenir-Book, Avenir" font-size="16" font-weight="normal" fill="#000000">
                        <tspan x="875.32" y="130">Backup, Transfer</tspan>
                        <tspan x="906.44" y="152">&amp; Reset</tspan>
                    </text>
                    <g id="Power-&amp;-Power-&amp;-Charging" transform="translate(30.000000, 0.000000)" fill="#000000">
                        <path d="M41.3409,7.0069 L15.0019,40.8509 L42.8879,40.8509 C43.5569,40.8509 44.1779,41.1829 44.5499,41.7389 C44.9219,42.2949 44.9909,42.9969 44.7359,43.6149 L33.1709,71.5279 L65.9799,33.8609 L33.5459,33.8619 C32.8819,33.8619 32.2629,33.5339 31.8899,32.9839 C31.5179,32.4339 31.4429,31.7359 31.6889,31.1189 L41.3409,7.0069 Z M33.1859,73.5389 L33.1859,73.5389 C32.5159,73.5389 31.8669,73.1909 31.4919,72.6299 C31.1229,72.0759 31.0609,71.3979 31.3219,70.7659 L42.8879,42.8509 L15.0019,42.8509 C14.2319,42.8509 13.5429,42.4199 13.2049,41.7279 C12.8669,41.0359 12.9509,40.2289 13.4239,39.6209 L39.7639,5.7789 C40.1489,5.2839 40.7179,4.9999 41.3239,4.9999 C41.9909,4.9999 42.6389,5.3449 43.0139,5.8999 C43.3839,6.4449 43.4499,7.1199 43.1979,7.7509 L33.5459,31.8619 L65.9799,31.8619 C66.7739,31.8619 67.4709,32.3119 67.7999,33.0339 C68.1289,33.7569 68.0089,34.5769 67.4869,35.1759 L34.6789,72.8459 C34.2889,73.2929 33.7589,73.5389 33.1859,73.5389 L33.1859,73.5389 Z" id="Fill-1"></path>
                    </g>
                    <g id="Display" transform="translate(174.000000, 0.000000)">
                        <g id="Page-1" transform="translate(22.000000, 5.000000)">
                            <path d="M6.9002,38.5227 L28.3922,17.0307" id="Fill-1" fill="#FFFFFF"></path>
                            <g id="Group-12">
                                <path d="M6.9004,39.5225 C6.6444,39.5225 6.3884,39.4245 6.1934,39.2295 C5.8024,38.8385 5.8024,38.2065 6.1934,37.8155 L27.6844,16.3245 C28.0754,15.9335 28.7084,15.9335 29.0984,16.3245 C29.4894,16.7145 29.4894,17.3475 29.0984,17.7385 L7.6074,39.2295 C7.4124,39.4245 7.1564,39.5225 6.9004,39.5225 L6.9004,39.5225 Z" id="Fill-2" fill="#000000"></path>
                                <path d="M28.392,31.4776 L6.9,52.9696" id="Fill-4" fill="#FFFFFF"></path>
                                <path d="M6.9004,53.9697 C6.6444,53.9697 6.3884,53.8717 6.1934,53.6767 C5.8024,53.2857 5.8024,52.6537 6.1934,52.2627 L27.6844,30.7707 C28.0754,30.3797 28.7084,30.3797 29.0984,30.7707 C29.4894,31.1607 29.4894,31.7937 29.0984,32.1847 L7.6074,53.6767 C7.4124,53.8717 7.1564,53.9697 6.9004,53.9697" id="Fill-6" fill="#000000"></path>
                                <path d="M6,2 C3.794,2 2,3.794 2,6 L2,64 C2,66.206 3.794,68 6,68 L29.292,68 C31.498,68 33.292,66.206 33.292,64 L33.292,6 C33.292,3.794 31.498,2 29.292,2 L6,2 Z M29.292,70 L6,70 C2.691,70 0,67.309 0,64 L0,6 C0,2.691 2.691,0 6,0 L29.292,0 C32.601,0 35.292,2.691 35.292,6 L35.292,64 C35.292,67.309 32.601,70 29.292,70 L29.292,70 Z" id="Fill-8" fill="#000000"></path>
                                <mask id="mask-2" fill="white">
                                    <use xlink:href="#path-1"></use>
                                </mask>
                                <g id="Clip-11"></g>
                                <path d="M2,60.395 L33.292,60.395 L33.292,9.606 L2,9.606 L2,60.395 Z M34.292,62.395 L1,62.395 C0.447,62.395 0,61.947 0,61.395 L0,8.605 C0,8.053 0.447,7.605 1,7.605 L34.292,7.605 C34.845,7.605 35.292,8.053 35.292,8.605 L35.292,61.395 C35.292,61.947 34.845,62.395 34.292,62.395 L34.292,62.395 Z" id="Fill-10" fill="#000000" mask="url(#mask-2)"></path>
                            </g>
                        </g>
                    </g>
                    <g id="System-performance" transform="translate(318.000000, 0.000000)">
                        <g id="Page-1" transform="translate(19.000000, 0.000000)">
                            <g id="Group-3" transform="translate(6.000000, 0.605500)">
                                <mask id="mask-4" fill="white">
                                    <use xlink:href="#path-3"></use>
                                </mask>
                                <g id="Clip-2"></g>
                                <path d="M31.0957,70.3945 L28.2917,70.3945 C27.7397,70.3945 27.2917,69.9475 27.2917,69.3945 C27.2917,68.8415 27.7397,68.3945 28.2917,68.3945 L31.0957,68.3945 C32.7497,68.3945 34.0957,67.0485 34.0957,65.3945 L34.0957,5.3945 C34.0957,3.7405 32.7497,2.3945 31.0957,2.3945 L5.8027,2.3945 C4.1487,2.3945 2.8027,3.7405 2.8027,5.3945 L2.8027,8.9995 C2.8027,9.5525 2.3557,9.9995 1.8027,9.9995 C1.2497,9.9995 0.8027,9.5525 0.8027,8.9995 L0.8027,5.3945 C0.8027,2.6375 3.0457,0.3945 5.8027,0.3945 L31.0957,0.3945 C33.8527,0.3945 36.0957,2.6375 36.0957,5.3945 L36.0957,65.3945 C36.0957,68.1515 33.8527,70.3945 31.0957,70.3945" id="Fill-1" fill="#000000" mask="url(#mask-4)"></path>
                            </g>
                            <path d="M6,10.6055 C3.794,10.6055 2,12.3995 2,14.6055 L2,72.6055 C2,74.8115 3.794,76.6055 6,76.6055 L29.293,76.6055 C31.499,76.6055 33.293,74.8115 33.293,72.6055 L33.293,14.6055 C33.293,12.3995 31.499,10.6055 29.293,10.6055 L6,10.6055 Z M29.293,78.6055 L6,78.6055 C2.691,78.6055 0,75.9145 0,72.6055 L0,14.6055 C0,11.2965 2.691,8.6055 6,8.6055 L29.293,8.6055 C32.602,8.6055 35.293,11.2965 35.293,14.6055 L35.293,72.6055 C35.293,75.9145 32.602,78.6055 29.293,78.6055 L29.293,78.6055 Z" id="Fill-4" fill="#000000"></path>
                            <mask id="mask-6" fill="white">
                                <use xlink:href="#path-5"></use>
                            </mask>
                            <g id="Clip-7"></g>
                            <path d="M2,69.0005 L33.293,69.0005 L33.293,18.2115 L2,18.2115 L2,69.0005 Z M34.293,71.0005 L1,71.0005 C0.447,71.0005 0,70.5525 0,70.0005 L0,17.2105 C0,16.6585 0.447,16.2105 1,16.2105 L34.293,16.2105 C34.846,16.2105 35.293,16.6585 35.293,17.2105 L35.293,70.0005 C35.293,70.5525 34.846,71.0005 34.293,71.0005 L34.293,71.0005 Z" id="Fill-6" fill="#000000" mask="url(#mask-6)"></path>
                        </g>
                    </g>
                    <g id="Application" transform="translate(462.000000, 0.000000)" fill="#000000">
                        <g id="Page-1" transform="translate(12.000000, 12.000000)">
                            <path d="M4,2 C2.897,2 2,2.897 2,4 L2,22.337 C2,23.439 2.897,24.337 4,24.337 L22.337,24.337 C23.439,24.337 24.337,23.439 24.337,22.337 L24.337,4 C24.337,2.897 23.439,2 22.337,2 L4,2 Z M22.337,26.337 L4,26.337 C1.794,26.337 0,24.543 0,22.337 L0,4 C0,1.794 1.794,-7.10542736e-15 4,-7.10542736e-15 L22.337,-7.10542736e-15 C24.543,-7.10542736e-15 26.337,1.794 26.337,4 L26.337,22.337 C26.337,24.543 24.543,26.337 22.337,26.337 L22.337,26.337 Z" id="Fill-1"></path>
                            <path d="M4,32.0635 C2.897,32.0635 2,32.9605 2,34.0635 L2,52.4005 C2,53.5025 2.897,54.4005 4,54.4005 L22.337,54.4005 C23.439,54.4005 24.337,53.5025 24.337,52.4005 L24.337,34.0635 C24.337,32.9605 23.439,32.0635 22.337,32.0635 L4,32.0635 Z M22.337,56.4005 L4,56.4005 C1.794,56.4005 0,54.6065 0,52.4005 L0,34.0635 C0,31.8575 1.794,30.0635 4,30.0635 L22.337,30.0635 C24.543,30.0635 26.337,31.8575 26.337,34.0635 L26.337,52.4005 C26.337,54.6065 24.543,56.4005 22.337,56.4005 L22.337,56.4005 Z" id="Fill-4"></path>
                            <path d="M34.0635,32.0635 C32.9605,32.0635 32.0635,32.9605 32.0635,34.0635 L32.0635,52.4005 C32.0635,53.5025 32.9605,54.4005 34.0635,54.4005 L52.4005,54.4005 C53.5025,54.4005 54.4005,53.5025 54.4005,52.4005 L54.4005,34.0635 C54.4005,32.9605 53.5025,32.0635 52.4005,32.0635 L34.0635,32.0635 Z M52.4005,56.4005 L34.0635,56.4005 C31.8575,56.4005 30.0635,54.6065 30.0635,52.4005 L30.0635,34.0635 C30.0635,31.8575 31.8575,30.0635 34.0635,30.0635 L52.4005,30.0635 C54.6065,30.0635 56.4005,31.8575 56.4005,34.0635 L56.4005,52.4005 C56.4005,54.6065 54.6065,56.4005 52.4005,56.4005 L52.4005,56.4005 Z" id="Fill-10"></path>
                            <path d="M34.0635,2 C32.9605,2 32.0635,2.897 32.0635,4 L32.0635,22.337 C32.0635,23.439 32.9605,24.337 34.0635,24.337 L52.4005,24.337 C53.5025,24.337 54.4005,23.439 54.4005,22.337 L54.4005,4 C54.4005,2.897 53.5025,2 52.4005,2 L34.0635,2 Z M52.4005,26.337 L34.0635,26.337 C31.8575,26.337 30.0635,24.543 30.0635,22.337 L30.0635,4 C30.0635,1.794 31.8575,-7.10542736e-15 34.0635,-7.10542736e-15 L52.4005,-7.10542736e-15 C54.6065,-7.10542736e-15 56.4005,1.794 56.4005,4 L56.4005,22.337 C56.4005,24.543 54.6065,26.337 52.4005,26.337 L52.4005,26.337 Z" id="Fill-7"></path>
                        </g>
                    </g>
                    <g id="Camera" transform="translate(606.000000, 0.000000)">
                        <g id="Page-1" transform="translate(7.000000, 14.000000)">
                            <g id="Group-3" transform="translate(0.000000, 0.342800)">
                                <mask id="mask-8" fill="white">
                                    <use xlink:href="#path-7"></use>
                                </mask>
                                <g id="Clip-2"></g>
                                <path d="M4,2.6572 C2.897,2.6572 2,3.5542 2,4.6572 L2,46.0002 C2,47.1022 2.897,48.0002 4,48.0002 L62,48.0002 C63.103,48.0002 64,47.1022 64,46.0002 L64,4.6572 C64,3.5542 63.103,2.6572 62,2.6572 L4,2.6572 Z M62,50.0002 L4,50.0002 C1.794,50.0002 0,48.2062 0,46.0002 L0,4.6572 C0,2.4512 1.794,0.6572 4,0.6572 L62,0.6572 C64.206,0.6572 66,2.4512 66,4.6572 L66,46.0002 C66,48.2062 64.206,50.0002 62,50.0002 L62,50.0002 Z" id="Fill-1" fill="#000000" mask="url(#mask-8)"></path>
                            </g>
                            <path d="M12.0273,11.3867 C10.2263,11.3867 8.7603,12.8527 8.7603,14.6537 C8.7603,16.4537 10.2263,17.9197 12.0273,17.9197 C13.8283,17.9197 15.2943,16.4537 15.2943,14.6537 C15.2943,12.8527 13.8283,11.3867 12.0273,11.3867 M12.0273,19.9197 C9.1233,19.9197 6.7603,17.5577 6.7603,14.6537 C6.7603,11.7487 9.1233,9.3867 12.0273,9.3867 C14.9313,9.3867 17.2943,11.7487 17.2943,14.6537 C17.2943,17.5577 14.9313,19.9197 12.0273,19.9197" id="Fill-4" fill="#000000"></path>
                            <path d="M33,14.3975 C29.766,14.3975 26.683,15.7905 24.541,18.2175 C22.37,20.6795 21.403,23.8485 21.818,27.1415 C22.448,32.1385 26.532,36.2225 31.529,36.8525 C35.27,37.3265 38.996,35.9175 41.458,33.1255 C43.629,30.6635 44.596,27.4945 44.181,24.2015 C43.551,19.2045 39.467,15.1205 34.471,14.4905 C33.981,14.4285 33.486,14.3975 33,14.3975 M33,38.9455 C32.43,38.9455 31.852,38.9095 31.279,38.8365 C25.39,38.0945 20.576,33.2815 19.834,27.3915 C19.354,23.5775 20.522,19.7515 23.041,16.8955 C25.939,13.6095 30.33,11.9505 34.721,12.5055 C40.609,13.2485 45.423,18.0615 46.165,23.9515 C46.646,27.7655 45.477,31.5915 42.958,34.4475 C40.437,37.3055 36.808,38.9455 33,38.9455" id="Fill-6" fill="#000000"></path>
                        </g>
                    </g>
                    <g id="Software-update" transform="translate(750.000000, 0.000000)">
                        <g id="Page-1" transform="translate(10.000000, 6.000000)">
                            <g id="Group-3" transform="translate(35.000000, 3.615200)">
                                <mask id="mask-10" fill="white">
                                    <use xlink:href="#path-9"></use>
                                </mask>
                                <g id="Clip-2"></g>
                                <path d="M1.6006,59.7705 C1.1426,59.7705 0.7296,59.4545 0.6256,58.9885 C0.5046,58.4505 0.8446,57.9155 1.3836,57.7945 C14.1406,54.9415 23.4006,43.3675 23.4006,30.2745 C23.4006,16.9365 13.9306,5.3175 0.8846,2.6475 C0.3436,2.5375 -0.0054,2.0085 0.1056,1.4675 C0.2156,0.9265 0.7466,0.5815 1.2856,0.6885 C15.2586,3.5475 25.4006,15.9905 25.4006,30.2745 C25.4006,44.2955 15.4836,56.6905 1.8196,59.7465 C1.7466,59.7625 1.6726,59.7705 1.6006,59.7705" id="Fill-1" fill="#000000" mask="url(#mask-10)"></path>
                            </g>
                            <path d="M24.3164,63.4961 C24.2504,63.4961 24.1824,63.4891 24.1154,63.4751 C10.1414,60.6161 0.0004,48.1741 0.0004,33.8901 C0.0004,19.8681 9.9174,7.4741 23.5814,4.4181 C24.1194,4.2971 24.6554,4.6361 24.7744,5.1761 C24.8954,5.7141 24.5554,6.2491 24.0164,6.3691 C11.2594,9.2231 2.0004,20.7971 2.0004,33.8901 C2.0004,47.2271 11.4694,58.8471 24.5154,61.5171 C25.0564,61.6271 25.4064,62.1551 25.2954,62.6961 C25.1984,63.1701 24.7814,63.4961 24.3164,63.4961" id="Fill-4" fill="#000000"></path>
                            <g id="Group-8" transform="translate(20.000000, 0.615200)" fill="#000000">
                                <path d="M2.8535,9.7725 C2.6745,9.7725 2.4955,9.7245 2.3315,9.6255 C1.8605,9.3355 1.7125,8.7205 2.0015,8.2495 L4.2895,4.5225 L0.5625,2.2375 C0.0915,1.9485 -0.0565,1.3335 0.2325,0.8625 C0.5205,0.3905 1.1365,0.2445 1.6075,0.5325 L6.1865,3.3405 C6.4135,3.4795 6.5755,3.7025 6.6365,3.9605 C6.6985,4.2185 6.6555,4.4905 6.5165,4.7165 L3.7075,9.2955 C3.5185,9.6035 3.1895,9.7725 2.8535,9.7725" id="Fill-6"></path>
                            </g>
                            <path d="M39.0518,66.6152 C38.8538,66.6152 38.6528,66.5562 38.4778,66.4332 L34.0818,63.3452 C33.8648,63.1932 33.7178,62.9612 33.6718,62.6992 C33.6268,62.4382 33.6868,62.1692 33.8388,61.9522 L36.9278,57.5562 C37.2458,57.1052 37.8688,56.9952 38.3218,57.3132 C38.7728,57.6312 38.8818,58.2552 38.5648,58.7072 L36.0508,62.2842 L39.6278,64.7972 C40.0788,65.1142 40.1888,65.7382 39.8708,66.1902 C39.6768,66.4672 39.3658,66.6152 39.0518,66.6152" id="Fill-9" fill="#000000"></path>
                            <path d="M20.3545,32.7588 L30.2005,46.1028 L40.0455,32.7588 L35.5835,32.7588 C34.5905,32.7588 33.7835,31.9508 33.7835,30.9588 L33.7835,22.3868 L26.7355,22.3868 L26.7355,30.9588 C26.7355,31.9508 25.9275,32.7588 24.9355,32.7588 L20.3545,32.7588 Z M30.2005,48.2388 C29.6305,48.2388 29.0895,47.9668 28.7515,47.5088 L18.4985,33.6118 C18.0965,33.0388 18.0505,32.3248 18.3615,31.7278 C18.6725,31.1298 19.2845,30.7588 19.9585,30.7588 L24.7355,30.7588 L24.7355,22.1878 C24.7355,21.1948 25.5425,20.3868 26.5355,20.3868 L33.9835,20.3868 C34.9755,20.3868 35.7835,21.1948 35.7835,22.1878 L35.7835,30.7588 L40.4425,30.7588 C41.1165,30.7588 41.7275,31.1298 42.0395,31.7278 C42.3495,32.3248 42.3035,33.0388 41.9165,33.5908 L31.6485,47.5088 C31.3105,47.9668 30.7695,48.2388 30.2005,48.2388 L30.2005,48.2388 Z" id="Fill-11" fill="#000000"></path>
                        </g>
                    </g>
                    <g id="Backup_transfer_n_reset" transform="translate(894.000000, 0.000000)">
                        <g id="Page-1" transform="translate(12.000000, 9.000000)">
                            <g id="Group-3" transform="translate(0.000000, 4.042500)">
                                <mask id="mask-12" fill="white">
                                    <use xlink:href="#path-11"></use>
                                </mask>
                                <g id="Clip-2"></g>
                                <path d="M28.2002,57 C12.6502,57 0.0002,44.35 0.0002,28.8 C0.0002,13.251 12.6502,0.601 28.2002,0.601 C28.7532,0.601 29.2002,1.048 29.2002,1.601 C29.2002,2.153 28.7532,2.601 28.2002,2.601 C13.7532,2.601 2.0002,14.354 2.0002,28.8 C2.0002,43.247 13.7532,55 28.2002,55 C42.6472,55 54.4002,43.247 54.4002,28.8 C54.4002,23.068 52.5832,17.624 49.1452,13.058 C48.8132,12.616 48.9012,11.989 49.3432,11.657 C49.7872,11.324 50.4122,11.415 50.7432,11.854 C54.4442,16.771 56.4002,22.631 56.4002,28.8 C56.4002,44.35 43.7502,57 28.2002,57" id="Fill-1" fill="#000000" mask="url(#mask-12)"></path>
                            </g>
                            <g id="Group-6" transform="translate(25.000000, 0.042500)">
                                <mask id="mask-14" fill="white">
                                    <use xlink:href="#path-13"></use>
                                </mask>
                                <g id="Clip-5"></g>
                                <path d="M1.2783,10.5547 C1.0273,10.5547 0.7763,10.4607 0.5823,10.2727 C0.1853,9.8887 0.1753,9.2557 0.5603,8.8587 L3.6023,5.7187 L0.4633,2.6757 C0.0663,2.2917 0.0563,1.6587 0.4413,1.2617 C0.8243,0.8647 1.4593,0.8557 1.8553,1.2407 L5.7133,4.9787 C6.1093,5.3627 6.1193,5.9947 5.7343,6.3927 L1.9963,10.2507 C1.8003,10.4527 1.5393,10.5547 1.2783,10.5547" id="Fill-4" fill="#000000" mask="url(#mask-14)"></path>
                            </g>
                        </g>
                    </g>
                </g>
            </g>
        </g>
    </g>
</svg>