<?xml version="1.0" encoding="UTF-8" standalone="no"?>
<svg width="900px" height="350px" viewBox="0 0 900 350" version="1.1" xmlns="http://www.w3.org/2000/svg" xmlns:xlink="http://www.w3.org/1999/xlink">
    <!-- Generator: Sketch 39 (31667) - http://www.bohemiancoding.com/sketch -->
    <title>Group</title>
    <desc>Created with Sketch.</desc>
    <defs>
        <polygon id="path-1" points="0 0.0902 0 87.7212 43.9246 87.7212 43.9246 0.0902 0 0.0902"></polygon>
        <polygon id="path-3" points="44.357 87.9997 44.357 0.3687 0.4326 0.3687 0.4326 87.9997 44.357 87.9997"></polygon>
        <polygon id="path-5" points="0 100.9102 77.357 100.9102 77.357 1.0002 0 1.0002"></polygon>
        <polygon id="path-7" points="2.71050543e-20 0.0902 2.71050543e-20 87.7212 43.9246 87.7212 43.9246 0.0902 0 0.0902"></polygon>
        <polygon id="path-9" points="44.356 87.9997 44.356 0.3687 0.4316 0.3687 0.4316 87.9997 44.356 87.9997"></polygon>
        <polygon id="path-11" points="0 100.9102 77.356 100.9102 77.356 1.0002 0 1.0002"></polygon>
        <polygon id="path-13" points="2.71050543e-20 0.0902 2.71050543e-20 87.7212 43.9246 87.7212 43.9246 0.0902 0 0.0902"></polygon>
        <polygon id="path-15" points="44.356 87.9997 44.356 0.3687 0.4316 0.3687 0.4316 87.9997 44.356 87.9997"></polygon>
        <polygon id="path-17" points="0 100.9102 77.356 100.9102 77.356 1.0002 0 1.0002"></polygon>
        <polygon id="path-19" points="33.5383461 0 0.0003 0 0.0003 76.7695 33.5383461 76.7695 33.5383461 0"></polygon>
        <polygon id="path-21" points="1.35525272e-19 0.9365 1.35525272e-19 2.9365 41.9355 2.9365 41.9355 0.9365 0 0.9365"></polygon>
    </defs>
    <g id="Page-1" stroke="none" stroke-width="1" fill="none" fill-rule="evenodd">
        <g id="1.1-Support-Landing-Page" transform="translate(-351.000000, -507.000000)">
            <g id="Select-Product" transform="translate(210.000000, 450.000000)">
                <g id="Group" transform="translate(130.000000, 50.000000)">
                    <text id="What-product-do-you-" font-family="Avenir-Black, Avenir" font-size="32" font-weight="700" fill="#000000">
                        <tspan x="355.424" y="32">What product</tspan>
                        <tspan x="281.056" y="76">do you need help with?</tspan>
                    </text>
                    <rect id="Rectangle-5" fill="#000000" x="400" y="114" width="120" height="4"></rect>
                    <text id="One" font-family="Avenir-Book, Avenir" font-size="16" font-weight="normal" fill="#000000">
                        <tspan x="34.432" y="334">One</tspan>
                    </text>
                    <text id="Desire" font-family="Avenir-Book, Avenir" font-size="16" font-weight="normal" fill="#000000">
                        <tspan x="192.336" y="334">Desire</tspan>
                    </text>
                    <text id="Butterfly" font-family="Avenir-Book, Avenir" font-size="16" font-weight="normal" fill="#000000">
                        <tspan x="348.452" y="334">Butterfly</tspan>
                    </text>
                    <text id="Accessories" font-family="Avenir-Book, Avenir" font-size="16" font-weight="normal" fill="#000000">
                        <tspan x="828.36" y="334">Accessories</tspan>
                    </text>
                    <text id="RE" font-family="Avenir-Book, Avenir" font-size="16" font-weight="normal" fill="#000000">
                        <tspan x="532.512" y="334">RE</tspan>
                        <tspan x="514.144" y="356">Camera</tspan>
                    </text>
                    <text id="UA-Healthbox" font-family="Avenir-Book, Avenir" font-size="16" font-weight="normal" fill="#000000">
                        <tspan x="696.024" y="334">UA</tspan>
                        <tspan x="670.112" y="356">Healthbox</tspan>
                    </text>
                    <g id="icons" transform="translate(0.000000, 184.000000)">
                        <g id="accessories_icon" transform="translate(820.000000, 0.000000)" fill="#000000">
                            <g id="Page-1" transform="translate(12.000000, 8.000000)">
                                <path d="M9.4521,19.0117 L7.7741,19.0117 C7.3351,19.0117 6.9101,18.9227 6.5131,18.7467 C5.9921,18.5157 5.1821,18.1427 4.2681,17.6747 C1.6361,16.3267 0.0001,13.6507 0.0001,10.6907 C0.0001,7.7287 1.6321,5.0397 4.2601,3.6737 C5.1751,3.1977 5.9851,2.8207 6.5031,2.5877 C6.9051,2.4077 7.3341,2.3157 7.7781,2.3157 L9.4521,2.3157 C10.0051,2.3157 10.4521,2.7637 10.4521,3.3157 C10.4521,3.8677 10.0051,4.3157 9.4521,4.3157 L7.7781,4.3157 C7.6151,4.3157 7.4671,4.3467 7.3221,4.4117 C6.8291,4.6337 6.0561,4.9937 5.1811,5.4487 C3.2201,6.4697 2.0001,8.4777 2.0001,10.6907 C2.0001,12.8967 3.2191,14.8897 5.1811,15.8947 C6.0541,16.3417 6.8271,16.6977 7.3231,16.9177 C7.4651,16.9807 7.6131,17.0117 7.7741,17.0117 L9.4521,17.0117 C10.0051,17.0117 10.4521,17.4597 10.4521,18.0117 C10.4521,18.5637 10.0051,19.0117 9.4521,19.0117" id="Fill-1"></path>
                                <path d="M69.4336,82.9849 C68.9756,82.9849 68.5636,82.6689 68.4586,82.2039 L67.9516,79.9379 C65.3016,68.1119 55.0796,58.5549 41.9106,55.5889 C33.1326,53.6139 26.3916,45.8559 25.1336,36.2839 L24.9416,34.8179 C24.8696,34.2699 25.2546,33.7679 25.8026,33.6959 C26.3556,33.6259 26.8526,34.0089 26.9236,34.5579 L27.1166,36.0239 C28.2656,44.7669 34.3866,51.8459 42.3496,53.6379 C56.2696,56.7729 67.0846,66.9239 69.9026,79.5009 L70.4106,81.7659 C70.5316,82.3049 70.1926,82.8399 69.6536,82.9609 C69.5796,82.9769 69.5056,82.9849 69.4336,82.9849" id="Fill-3"></path>
                                <path d="M64.9014,84 C64.4434,84 64.0304,83.684 63.9264,83.218 L63.4204,80.952 C61.1614,70.87 52.3174,62.692 40.8904,60.12 C30.2224,57.718 22.0394,48.382 20.5294,36.888 L20.2884,35.057 C20.2154,34.509 20.6014,34.007 21.1484,33.935 C21.7024,33.861 22.1974,34.249 22.2704,34.796 L22.5114,36.627 C23.9144,47.294 31.4754,55.951 41.3304,58.168 C53.5074,60.91 62.9444,69.682 65.3714,80.515 L65.8784,82.782 C65.9994,83.321 65.6594,83.855 65.1204,83.976 C65.0474,83.992 64.9734,84 64.9014,84" id="Fill-5"></path>
                                <path d="M19.2109,18.6753 C19.6039,18.6753 19.9709,18.9073 20.1309,19.2833 C20.2229,19.4993 20.3289,19.7353 20.4389,19.9773 C20.8389,20.8633 21.2519,21.7793 21.3309,22.4673 C21.6069,24.8583 21.7769,26.4253 21.7769,28.4333 L21.7769,33.4413 C21.7769,33.8833 22.1379,34.2423 22.5799,34.2423 L24.3819,34.2423 C24.8239,34.2423 25.1839,33.8833 25.1839,33.4413 L25.1839,25.0823 C25.1839,20.0903 25.5819,16.1943 25.9519,14.6863 C25.9819,14.5633 26.0349,14.4463 26.1089,14.3433 C26.7649,13.4253 27.0319,12.3593 27.0319,10.6643 C27.0319,5.8863 21.2019,2.0003 14.0349,2.0003 C13.5239,2.0003 12.7009,2.0623 11.6579,2.1803 C11.2679,2.2243 10.9289,2.4563 10.7739,2.7853 C9.8429,4.7733 9.3299,7.4043 9.3299,10.1953 C9.3299,13.5323 10.1089,16.7233 11.4149,18.7323 C11.5959,19.0103 11.9179,19.1953 12.2779,19.2253 C13.0289,19.2893 13.7129,19.3273 14.1099,19.3273 C15.7579,19.3273 17.4329,19.1133 18.9539,18.7093 C19.0389,18.6863 19.1259,18.6753 19.2109,18.6753 M24.3819,36.2423 L22.5799,36.2423 C21.0339,36.2423 19.7769,34.9863 19.7769,33.4413 L19.7769,28.4333 C19.7769,26.5353 19.6129,25.0173 19.3449,22.6973 C19.3019,22.3263 18.9219,21.4793 18.6359,20.8433 C17.1819,21.1613 15.6339,21.3273 14.1099,21.3273 C13.4609,21.3273 12.4939,21.2513 12.1089,21.2183 C11.1389,21.1353 10.2509,20.6133 9.7369,19.8213 C8.2079,17.4673 7.3299,13.9583 7.3299,10.1953 C7.3299,7.1173 7.9099,4.1843 8.9639,1.9373 C9.4099,0.9843 10.3569,0.3153 11.4329,0.1933 C12.5659,0.0653 13.4409,0.0003 14.0349,0.0003 C22.3049,0.0003 29.0319,4.7833 29.0319,10.6643 C29.0319,12.1083 28.8889,13.7833 27.8549,15.3353 C27.5709,16.6543 27.1839,20.1613 27.1839,25.0823 L27.1839,33.4413 C27.1839,34.9863 25.9269,36.2423 24.3819,36.2423" id="Fill-7"></path>
                                <path d="M68.0928,19.0117 L66.4148,19.0117 C65.8628,19.0117 65.4148,18.5637 65.4148,18.0117 C65.4148,17.4597 65.8628,17.0117 66.4148,17.0117 L68.0928,17.0117 C68.2538,17.0117 68.4028,16.9807 68.5458,16.9177 C69.0398,16.6977 69.8138,16.3417 70.6868,15.8947 C72.6488,14.8897 73.8668,12.8967 73.8668,10.6907 C73.8658,8.4777 72.6478,6.4687 70.6858,5.4487 C69.8118,4.9937 69.0378,4.6337 68.5438,4.4117 C68.4008,4.3467 68.2518,4.3157 68.0888,4.3157 L66.4148,4.3157 C65.8628,4.3157 65.4148,3.8677 65.4148,3.3157 C65.4148,2.7637 65.8628,2.3157 66.4148,2.3157 L68.0888,2.3157 C68.5328,2.3157 68.9618,2.4077 69.3638,2.5867 C69.8818,2.8207 70.6928,3.1977 71.6078,3.6737 C74.2348,5.0397 75.8658,7.7287 75.8668,10.6907 C75.8668,13.6507 74.2318,16.3267 71.5988,17.6747 C70.6848,18.1427 69.8748,18.5157 69.3568,18.7457 C68.9568,18.9227 68.5318,19.0117 68.0928,19.0117" id="Fill-9"></path>
                                <path d="M6.4336,82.9849 C6.3616,82.9849 6.2876,82.9769 6.2136,82.9609 C5.6746,82.8399 5.3356,82.3049 5.4566,81.7659 L5.9646,79.5009 C8.6786,67.3819 18.5996,57.6299 31.8546,54.0499 C32.3836,53.9079 32.9356,54.2209 33.0806,54.7549 C33.2246,55.2879 32.9096,55.8369 32.3756,55.9809 C19.8406,59.3669 10.4676,68.5469 7.9156,79.9379 L7.4086,82.2039 C7.3036,82.6689 6.8916,82.9849 6.4336,82.9849" id="Fill-11"></path>
                                <path d="M37.9365,54.1367 C37.5665,54.1367 37.2095,53.9307 37.0375,53.5747 C36.7945,53.0787 37.0005,52.4807 37.4975,52.2387 C43.5095,49.3037 47.8215,43.0897 48.7505,36.0237 L48.9435,34.5577 C49.0145,34.0107 49.5045,33.6257 50.0645,33.6957 C50.6125,33.7677 50.9985,34.2697 50.9255,34.8177 L50.7335,36.2837 C49.7185,44.0077 44.9825,50.8097 38.3735,54.0347 C38.2335,54.1047 38.0825,54.1367 37.9365,54.1367" id="Fill-13"></path>
                                <path d="M43.75,56.0181 C43.442,56.0181 43.14,55.8771 42.943,55.6111 C42.616,55.1661 42.712,54.5401 43.156,54.2121 C48.705,50.1291 52.423,43.7201 53.355,36.6271 L53.596,34.7961 C53.666,34.2491 54.165,33.8641 54.717,33.9351 C55.265,34.0061 55.65,34.5091 55.578,35.0561 L55.338,36.8881 C54.335,44.5181 50.327,51.4191 44.342,55.8241 C44.163,55.9551 43.956,56.0181 43.75,56.0181" id="Fill-15"></path>
                                <path d="M10.9658,84 C10.8938,84 10.8198,83.992 10.7468,83.976 C10.2078,83.855 9.8678,83.321 9.9888,82.782 L10.4958,80.515 C12.9228,69.682 22.3598,60.91 34.5368,58.168 C35.5698,57.936 36.5938,57.628 37.5808,57.254 C38.0998,57.058 38.6748,57.318 38.8708,57.834 C39.0668,58.351 38.8068,58.928 38.2898,59.124 C37.2148,59.531 36.1008,59.866 34.9768,60.12 C23.5498,62.692 14.7058,70.87 12.4468,80.952 L11.9408,83.218 C11.8368,83.684 11.4238,84 10.9658,84" id="Fill-17"></path>
                                <path d="M61.832,2 C54.665,2 48.835,5.887 48.835,10.664 C48.835,12.359 49.103,13.426 49.758,14.344 C49.831,14.447 49.884,14.563 49.914,14.686 C50.284,16.189 50.683,20.083 50.683,25.083 L50.683,33.441 C50.683,33.883 51.043,34.243 51.485,34.243 L53.287,34.243 C53.729,34.243 54.089,33.883 54.089,33.441 L54.089,28.433 C54.089,26.434 54.259,24.864 54.536,22.468 C54.614,21.78 55.027,20.864 55.428,19.979 C55.537,19.736 55.644,19.5 55.736,19.283 C55.932,18.826 56.427,18.581 56.913,18.709 C58.435,19.114 60.109,19.328 61.757,19.328 C62.154,19.328 62.838,19.29 63.588,19.225 C63.949,19.195 64.271,19.011 64.452,18.732 C65.757,16.724 66.536,13.533 66.536,10.195 C66.536,7.403 66.023,4.772 65.093,2.786 C64.937,2.457 64.599,2.225 64.208,2.18 C63.166,2.062 62.345,2 61.832,2 M53.287,36.243 L51.485,36.243 C49.939,36.243 48.683,34.986 48.683,33.441 L48.683,25.083 C48.683,20.154 48.295,16.65 48.012,15.335 C46.978,13.784 46.835,12.108 46.835,10.664 C46.835,4.784 53.562,0 61.832,0 C62.427,0 63.302,0.065 64.433,0.193 C65.509,0.315 66.455,0.983 66.903,1.937 C67.956,4.183 68.536,7.116 68.536,10.195 C68.536,13.959 67.659,17.468 66.13,19.822 C65.616,20.614 64.728,21.136 63.757,21.218 C63.373,21.251 62.406,21.328 61.757,21.328 C60.233,21.328 58.686,21.161 57.231,20.843 C56.945,21.479 56.565,22.326 56.522,22.696 C56.246,25.092 56.089,26.54 56.089,28.433 L56.089,33.441 C56.089,34.986 54.832,36.243 53.287,36.243" id="Fill-19"></path>
                            </g>
                        </g>
                        <g id="butterfly_icon" transform="translate(328.000000, 0.000000)">
                            <g id="Page-1" transform="translate(11.000000, -1.000000)">
                                <g id="Group-3" transform="translate(0.000000, 0.910200)">
                                    <mask id="mask-2" fill="white">
                                        <use xlink:href="#path-1"></use>
                                    </mask>
                                    <g id="Clip-2"></g>
                                    <path d="M34.4326,87.7212 L5.9996,87.7212 C2.6916,87.7212 -0.0004,85.0302 -0.0004,81.7212 L-0.0004,6.0902 C-0.0004,2.7812 2.6916,0.0902 5.9996,0.0902 L37.9246,0.0902 C41.2336,0.0902 43.9246,2.7812 43.9246,6.0902 L43.9246,13.3682 C43.9246,13.9212 43.4776,14.3682 42.9246,14.3682 C42.3716,14.3682 41.9246,13.9212 41.9246,13.3682 L41.9246,6.0902 C41.9246,3.8842 40.1306,2.0902 37.9246,2.0902 L5.9996,2.0902 C3.7936,2.0902 1.9996,3.8842 1.9996,6.0902 L1.9996,81.7212 C1.9996,83.9272 3.7936,85.7212 5.9996,85.7212 L34.4326,85.7212 C34.9856,85.7212 35.4326,86.1692 35.4326,86.7212 C35.4326,87.2732 34.9856,87.7212 34.4326,87.7212" id="Fill-1" fill="#000000" mask="url(#mask-2)"></path>
                                </g>
                                <g id="Group-6" transform="translate(33.000000, 12.910200)">
                                    <mask id="mask-4" fill="white">
                                        <use xlink:href="#path-3"></use>
                                    </mask>
                                    <g id="Clip-5"></g>
                                    <path d="M6.4326,2.3687 C4.2266,2.3687 2.4326,4.1627 2.4326,6.3687 L2.4326,81.9997 C2.4326,84.2057 4.2266,85.9997 6.4326,85.9997 L38.3576,85.9997 C40.5636,85.9997 42.3576,84.2057 42.3576,81.9997 L42.3576,6.3687 C42.3576,4.1627 40.5636,2.3687 38.3576,2.3687 L6.4326,2.3687 Z M38.3576,87.9997 L6.4326,87.9997 C3.1236,87.9997 0.4326,85.3087 0.4326,81.9997 L0.4326,6.3687 C0.4326,3.0597 3.1236,0.3687 6.4326,0.3687 L38.3576,0.3687 C41.6656,0.3687 44.3576,3.0597 44.3576,6.3687 L44.3576,81.9997 C44.3576,85.3087 41.6656,87.9997 38.3576,87.9997 L38.3576,87.9997 Z" id="Fill-4" fill="#000000" mask="url(#mask-4)"></path>
                                </g>
                                <mask id="mask-6" fill="white">
                                    <use xlink:href="#path-5"></use>
                                </mask>
                                <g id="Clip-8"></g>
                                <path d="M35.433,89.3322 L75.358,89.3322 L75.358,24.8552 L35.433,24.8552 L35.433,89.3322 Z M76.357,91.3322 L34.433,91.3322 C33.88,91.3322 33.433,90.8852 33.433,90.3322 L33.433,23.8562 C33.433,23.3042 33.88,22.8562 34.433,22.8562 L76.357,22.8562 C76.91,22.8562 77.357,23.3042 77.357,23.8562 L77.357,90.3322 C77.357,90.8852 76.91,91.3322 76.357,91.3322 L76.357,91.3322 Z" id="Fill-7" fill="#000000" mask="url(#mask-6)"></path>
                                <path d="M21.791,16.5376 C20.412,16.5376 19.291,17.6596 19.291,19.0376 C19.291,20.4156 20.412,21.5376 21.791,21.5376 C23.17,21.5376 24.291,20.4156 24.291,19.0376 C24.291,17.6596 23.17,16.5376 21.791,16.5376 M21.791,23.5376 C19.31,23.5376 17.291,21.5186 17.291,19.0376 C17.291,16.5566 19.31,14.5376 21.791,14.5376 C24.272,14.5376 26.291,16.5566 26.291,19.0376 C26.291,21.5186 24.272,23.5376 21.791,23.5376" id="Fill-9" fill="#000000" mask="url(#mask-6)"></path>
                                <path d="M23.2908,10.3739 C23.2908,11.2019 22.6188,11.8739 21.7908,11.8739 C20.9628,11.8739 20.2908,11.2019 20.2908,10.3739 C20.2908,9.5459 20.9628,8.8739 21.7908,8.8739 C22.6188,8.8739 23.2908,9.5459 23.2908,10.3739" id="Fill-10" fill="#000000" mask="url(#mask-6)"></path>
                                <path d="M14.9316,21.9112 C14.3786,21.9112 13.9316,21.4632 13.9316,20.9112 L13.9316,17.8412 C13.9316,17.2892 14.3786,16.8412 14.9316,16.8412 C15.4846,16.8412 15.9316,17.2892 15.9316,17.8412 L15.9316,20.9112 C15.9316,21.4632 15.4846,21.9112 14.9316,21.9112" id="Fill-11" fill="#000000" mask="url(#mask-6)"></path>
                                <path d="M65.3486,99.9766 C64.9296,99.9766 64.5396,99.7116 64.4006,99.2926 C63.9376,97.9076 62.6466,96.9766 61.1866,96.9766 L51.5106,96.9766 C50.0496,96.9766 48.7586,97.9066 48.2976,99.2916 C48.1226,99.8166 47.5586,100.1016 47.0326,99.9246 C46.5086,99.7506 46.2256,99.1846 46.3996,98.6606 C47.1336,96.4566 49.1876,94.9766 51.5106,94.9766 L61.1866,94.9766 C63.5086,94.9766 65.5626,96.4566 66.2966,98.6596 C66.4716,99.1836 66.1896,99.7496 65.6646,99.9246 C65.5606,99.9596 65.4526,99.9766 65.3486,99.9766" id="Fill-12" fill="#000000" mask="url(#mask-6)"></path>
                                <path d="M61.1865,19.2124 L51.5105,19.2124 C49.1875,19.2124 47.1335,17.7324 46.3995,15.5284 C46.2255,15.0044 46.5085,14.4384 47.0325,14.2634 C47.5585,14.0884 48.1235,14.3724 48.2975,14.8964 C48.7585,16.2814 50.0495,17.2124 51.5105,17.2124 L61.1865,17.2124 C62.6465,17.2124 63.9375,16.2814 64.4005,14.8964 C64.5745,14.3724 65.1355,14.0884 65.6655,14.2634 C66.1885,14.4384 66.4715,15.0044 66.2965,15.5284 C65.5625,17.7324 63.5085,19.2124 61.1865,19.2124" id="Fill-13" fill="#000000" mask="url(#mask-6)"></path>
                            </g>
                        </g>
                        <g id="desire_icon" transform="translate(164.000000, 0.000000)">
                            <g id="Page-1" transform="translate(11.000000, -1.000000)">
                                <g id="Group-3" transform="translate(0.000000, 0.910200)">
                                    <mask id="mask-8" fill="white">
                                        <use xlink:href="#path-7"></use>
                                    </mask>
                                    <g id="Clip-2"></g>
                                    <path d="M34.4316,87.7212 L5.9996,87.7212 C2.6916,87.7212 -0.0004,85.0302 -0.0004,81.7212 L-0.0004,6.0902 C-0.0004,2.7812 2.6916,0.0902 5.9996,0.0902 L37.9246,0.0902 C41.2336,0.0902 43.9246,2.7812 43.9246,6.0902 L43.9246,13.3682 C43.9246,13.9212 43.4776,14.3682 42.9246,14.3682 C42.3716,14.3682 41.9246,13.9212 41.9246,13.3682 L41.9246,6.0902 C41.9246,3.8842 40.1306,2.0902 37.9246,2.0902 L5.9996,2.0902 C3.7936,2.0902 1.9996,3.8842 1.9996,6.0902 L1.9996,81.7212 C1.9996,83.9272 3.7936,85.7212 5.9996,85.7212 L34.4316,85.7212 C34.9846,85.7212 35.4316,86.1692 35.4316,86.7212 C35.4316,87.2732 34.9846,87.7212 34.4316,87.7212" id="Fill-1" fill="#000000" mask="url(#mask-8)"></path>
                                </g>
                                <path d="M10.2041,8.5035 C8.8981,8.5035 7.8371,9.5655 7.8371,10.8715 C7.8371,12.1765 8.8981,13.2395 10.2041,13.2395 C11.5101,13.2395 12.5721,12.1765 12.5721,10.8715 C12.5721,9.5655 11.5101,8.5035 10.2041,8.5035 M10.2041,15.2395 C7.7961,15.2395 5.8371,13.2795 5.8371,10.8715 C5.8371,8.4625 7.7961,6.5035 10.2041,6.5035 C12.6121,6.5035 14.5721,8.4625 14.5721,10.8715 C14.5721,13.2795 12.6121,15.2395 10.2041,15.2395" id="Fill-4" fill="#000000"></path>
                                <path d="M12.2045,19.5868 C12.2045,20.6918 11.3095,21.5868 10.2045,21.5868 C9.0995,21.5868 8.2045,20.6918 8.2045,19.5868 C8.2045,18.4818 9.0995,17.5868 10.2045,17.5868 C11.3095,17.5868 12.2045,18.4818 12.2045,19.5868" id="Fill-6" fill="#000000"></path>
                                <g id="Group-10" transform="translate(33.000000, 12.910200)">
                                    <mask id="mask-10" fill="white">
                                        <use xlink:href="#path-9"></use>
                                    </mask>
                                    <g id="Clip-9"></g>
                                    <path d="M6.4316,2.3687 C4.2256,2.3687 2.4316,4.1627 2.4316,6.3687 L2.4316,81.9997 C2.4316,84.2057 4.2256,85.9997 6.4316,85.9997 L38.3566,85.9997 C40.5626,85.9997 42.3566,84.2057 42.3566,81.9997 L42.3566,6.3687 C42.3566,4.1627 40.5626,2.3687 38.3566,2.3687 L6.4316,2.3687 Z M38.3566,87.9997 L6.4316,87.9997 C3.1226,87.9997 0.4316,85.3087 0.4316,81.9997 L0.4316,6.3687 C0.4316,3.0597 3.1226,0.3687 6.4316,0.3687 L38.3566,0.3687 C41.6646,0.3687 44.3566,3.0597 44.3566,6.3687 L44.3566,81.9997 C44.3566,85.3087 41.6646,87.9997 38.3566,87.9997 L38.3566,87.9997 Z" id="Fill-8" fill="#000000" mask="url(#mask-10)"></path>
                                </g>
                                <mask id="mask-12" fill="white">
                                    <use xlink:href="#path-11"></use>
                                </mask>
                                <g id="Clip-12"></g>
                                <path d="M35.432,89.3322 L75.357,89.3322 L75.357,24.8552 L35.432,24.8552 L35.432,89.3322 Z M76.356,91.3322 L34.432,91.3322 C33.879,91.3322 33.432,90.8852 33.432,90.3322 L33.432,23.8562 C33.432,23.3042 33.879,22.8562 34.432,22.8562 L76.356,22.8562 C76.909,22.8562 77.356,23.3042 77.356,23.8562 L77.356,90.3322 C77.356,90.8852 76.909,91.3322 76.356,91.3322 L76.356,91.3322 Z" id="Fill-11" fill="#000000" mask="url(#mask-12)"></path>
                                <path d="M59.3896,19.9742 L51.3986,19.9742 C50.8456,19.9742 50.3986,19.5262 50.3986,18.9742 C50.3986,18.4222 50.8456,17.9742 51.3986,17.9742 L59.3896,17.9742 C59.9426,17.9742 60.3896,18.4222 60.3896,18.9742 C60.3896,19.5262 59.9426,19.9742 59.3896,19.9742" id="Fill-13" fill="#000000" mask="url(#mask-12)"></path>
                                <path d="M43.8035,18.974 C43.8035,19.803 43.1315,20.474 42.3035,20.474 C41.4755,20.474 40.8035,19.803 40.8035,18.974 C40.8035,18.145 41.4755,17.474 42.3035,17.474 C43.1315,17.474 43.8035,18.145 43.8035,18.974" id="Fill-14" fill="#000000" mask="url(#mask-12)"></path>
                                <path d="M56.8943,95.0281 C56.8943,95.8561 56.2223,96.5281 55.3943,96.5281 C54.5663,96.5281 53.8943,95.8561 53.8943,95.0281 C53.8943,94.2001 54.5663,93.5281 55.3943,93.5281 C56.2223,93.5281 56.8943,94.2001 56.8943,95.0281" id="Fill-15" fill="#000000" mask="url(#mask-12)"></path>
                            </g>
                        </g>
                        <g id="one_icon">
                            <g id="Page-1" transform="translate(11.000000, -1.000000)">
                                <g id="Group-3" transform="translate(0.000000, 0.910200)">
                                    <mask id="mask-14" fill="white">
                                        <use xlink:href="#path-13"></use>
                                    </mask>
                                    <g id="Clip-2"></g>
                                    <path d="M34.4316,87.7212 L5.9996,87.7212 C2.6916,87.7212 -0.0004,85.0302 -0.0004,81.7212 L-0.0004,6.0902 C-0.0004,2.7812 2.6916,0.0902 5.9996,0.0902 L37.9246,0.0902 C41.2336,0.0902 43.9246,2.7812 43.9246,6.0902 L43.9246,13.3682 C43.9246,13.9212 43.4776,14.3682 42.9246,14.3682 C42.3716,14.3682 41.9246,13.9212 41.9246,13.3682 L41.9246,6.0902 C41.9246,3.8842 40.1306,2.0902 37.9246,2.0902 L5.9996,2.0902 C3.7936,2.0902 1.9996,3.8842 1.9996,6.0902 L1.9996,81.7212 C1.9996,83.9272 3.7936,85.7212 5.9996,85.7212 L34.4316,85.7212 C34.9846,85.7212 35.4316,86.1692 35.4316,86.7212 C35.4316,87.2732 34.9846,87.7212 34.4316,87.7212" id="Fill-1" fill="#000000" mask="url(#mask-14)"></path>
                                </g>
                                <path d="M19.6729,14.8238 C18.5699,14.8238 17.6729,15.7208 17.6729,16.8238 L17.6729,19.9648 C17.6729,21.0678 18.5699,21.9648 19.6729,21.9648 L22.8139,21.9648 C23.9159,21.9648 24.8139,21.0678 24.8139,19.9648 L24.8139,16.8238 C24.8139,15.7208 23.9159,14.8238 22.8139,14.8238 L19.6729,14.8238 Z M22.8139,23.9648 L19.6729,23.9648 C17.4669,23.9648 15.6729,22.1698 15.6729,19.9648 L15.6729,16.8238 C15.6729,14.6178 17.4669,12.8238 19.6729,12.8238 L22.8139,12.8238 C25.0199,12.8238 26.8139,14.6178 26.8139,16.8238 L26.8139,19.9648 C26.8139,22.1698 25.0199,23.9648 22.8139,23.9648 L22.8139,23.9648 Z" id="Fill-4" fill="#000000"></path>
                                <path d="M12.6608,20.7816 L12.0238,20.7816 C11.5398,20.7816 11.1488,20.3896 11.1488,19.9066 L11.1488,16.6546 C11.1488,16.1706 11.5398,15.7796 12.0238,15.7796 L12.6608,15.7796 C13.1438,15.7796 13.5358,16.1706 13.5358,16.6546 L13.5358,19.9066 C13.5358,20.3896 13.1438,20.7816 12.6608,20.7816" id="Fill-6" fill="#333333"></path>
                                <g id="Group-10" transform="translate(33.000000, 12.910200)">
                                    <mask id="mask-16" fill="white">
                                        <use xlink:href="#path-15"></use>
                                    </mask>
                                    <g id="Clip-9"></g>
                                    <path d="M6.4316,2.3687 C4.2256,2.3687 2.4316,4.1627 2.4316,6.3687 L2.4316,81.9997 C2.4316,84.2057 4.2256,85.9997 6.4316,85.9997 L38.3566,85.9997 C40.5626,85.9997 42.3566,84.2057 42.3566,81.9997 L42.3566,6.3687 C42.3566,4.1627 40.5626,2.3687 38.3566,2.3687 L6.4316,2.3687 Z M38.3566,87.9997 L6.4316,87.9997 C3.1226,87.9997 0.4316,85.3087 0.4316,81.9997 L0.4316,6.3687 C0.4316,3.0597 3.1226,0.3687 6.4316,0.3687 L38.3566,0.3687 C41.6646,0.3687 44.3566,3.0597 44.3566,6.3687 L44.3566,81.9997 C44.3566,85.3087 41.6646,87.9997 38.3566,87.9997 L38.3566,87.9997 Z" id="Fill-8" fill="#000000" mask="url(#mask-16)"></path>
                                </g>
                                <mask id="mask-18" fill="white">
                                    <use xlink:href="#path-17"></use>
                                </mask>
                                <g id="Clip-12"></g>
                                <path d="M35.432,89.5192 L75.357,89.5192 L75.357,24.6692 L35.432,24.6692 L35.432,89.5192 Z M76.356,91.5192 L34.432,91.5192 C33.879,91.5192 33.432,91.0722 33.432,90.5192 L33.432,23.6692 C33.432,23.1172 33.879,22.6692 34.432,22.6692 L76.356,22.6692 C76.909,22.6692 77.356,23.1172 77.356,23.6692 L77.356,90.5192 C77.356,91.0722 76.909,91.5192 76.356,91.5192 L76.356,91.5192 Z" id="Fill-11" fill="#000000" mask="url(#mask-18)"></path>
                                <path d="M60.2969,19.9742 L50.4909,19.9742 C49.9389,19.9742 49.4909,19.5262 49.4909,18.9742 C49.4909,18.4222 49.9389,17.9742 50.4909,17.9742 L60.2969,17.9742 C60.8499,17.9742 61.2969,18.4222 61.2969,18.9742 C61.2969,19.5262 60.8499,19.9742 60.2969,19.9742" id="Fill-13" fill="#000000" mask="url(#mask-18)"></path>
                                <path d="M61.8223,96.2149 L48.9653,96.2149 C48.4123,96.2149 47.9653,95.7669 47.9653,95.2149 C47.9653,94.6629 48.4123,94.2149 48.9653,94.2149 L61.8223,94.2149 C62.3753,94.2149 62.8223,94.6629 62.8223,95.2149 C62.8223,95.7669 62.3753,96.2149 61.8223,96.2149" id="Fill-14" fill="#000000" mask="url(#mask-18)"></path>
                                <path d="M66.3004,18.974 C66.3004,19.763 65.6614,20.402 64.8724,20.402 C64.0834,20.402 63.4444,19.763 63.4444,18.974 C63.4444,18.185 64.0834,17.546 64.8724,17.546 C65.6614,17.546 66.3004,18.185 66.3004,18.974" id="Fill-15" fill="#333333" mask="url(#mask-18)"></path>
                            </g>
                        </g>
                        <g id="re_camera_icon" transform="translate(492.000000, 0.000000)">
                            <g id="Page-1" transform="translate(21.000000, 4.000000)">
                                <path d="M45.3584,92 L29.6484,92 C27.4424,92 25.6484,90.206 25.6484,88 L25.6484,32.547 C25.6484,23.162 33.3034,15.527 42.7124,15.527 L51.4384,15.527 C51.9914,15.527 52.4384,15.975 52.4384,16.527 C52.4384,17.08 51.9914,17.527 51.4384,17.527 L42.7124,17.527 C34.4064,17.527 27.6484,24.265 27.6484,32.547 L27.6484,88 C27.6484,89.103 28.5464,90 29.6484,90 L45.3584,90 C46.4614,90 47.3584,89.103 47.3584,88 L47.3584,40.485 C47.3584,39.436 48.2124,38.583 49.2604,38.583 L51.4384,38.583 C51.9914,38.583 52.4384,39.03 52.4384,39.583 C52.4384,40.135 51.9914,40.583 51.4384,40.583 L49.3584,40.583 L49.3584,88 C49.3584,90.206 47.5644,92 45.3584,92" id="Fill-1" fill="#000000"></path>
                                <path d="M47.5817,84.6706 L27.1947,84.6706" id="Fill-3" fill="#FFFFFF"></path>
                                <path d="M47.582,85.6704 L27.194,85.6704 C26.642,85.6704 26.194,85.2224 26.194,84.6704 C26.194,84.1184 26.642,83.6704 27.194,83.6704 L47.582,83.6704 C48.135,83.6704 48.582,84.1184 48.582,84.6704 C48.582,85.2224 48.135,85.6704 47.582,85.6704" id="Fill-5" fill="#000000"></path>
                                <path d="M51.6104,17.5273 C49.3484,17.5273 46.8284,21.8513 46.8284,28.0553 C46.8284,34.2593 49.3484,38.5823 51.6104,38.5823 C53.8724,38.5823 56.3924,34.2593 56.3924,28.0553 C56.3924,21.8513 53.8724,17.5273 51.6104,17.5273 M51.6104,40.5823 C47.8074,40.5823 44.8284,35.0803 44.8284,28.0553 C44.8284,21.0303 47.8074,15.5273 51.6104,15.5273 C55.4134,15.5273 58.3924,21.0303 58.3924,28.0553 C58.3924,35.0803 55.4134,40.5823 51.6104,40.5823" id="Fill-7" fill="#000000"></path>
                                <path d="M51.6074,23.5645 C51.2484,24.0815 50.7384,25.6435 50.7384,28.0555 C50.7384,30.4675 51.2484,32.0285 51.6074,32.5455 C51.9474,32.0405 52.4834,30.4985 52.4834,28.0555 C52.4834,25.6125 51.9474,24.0695 51.6074,23.5645 M51.6104,34.6735 C49.6264,34.6735 48.7384,31.3495 48.7384,28.0555 C48.7384,24.7605 49.6264,21.4375 51.6104,21.4375 C53.5944,21.4375 54.4834,24.7605 54.4834,28.0555 C54.4834,31.3495 53.5944,34.6735 51.6104,34.6735" id="Fill-9" fill="#000000"></path>
                                <g id="Group-13">
                                    <mask id="mask-20" fill="white">
                                        <use xlink:href="#path-19"></use>
                                    </mask>
                                    <g id="Clip-12"></g>
                                    <path d="M26.1943,76.7695 L12.5913,76.7695 C10.3853,76.7695 8.5913,74.9755 8.5913,72.7695 L8.5913,24.3545 C8.5913,24.2705 8.5183,24.1975 8.4343,24.1975 L5.7363,24.1975 C2.5733,24.1975 0.0003,18.7005 0.0003,11.9435 C0.0003,5.1345 2.8873,-0.0005 6.7163,-0.0005 L15.3963,-0.0005 C23.5083,-0.0005 30.6763,5.5635 32.4393,13.2295 C32.4523,13.2765 32.9583,15.2105 33.5313,20.0325 C33.5963,20.5815 33.2043,21.0785 32.6563,21.1445 C32.0953,21.2005 31.6103,20.8165 31.5453,20.2695 C30.9923,15.6205 30.5033,13.7275 30.4983,13.7085 C28.9343,6.9115 22.5873,1.9995 15.3963,1.9995 L6.7163,1.9995 C4.4383,1.9995 2.0003,5.9955 2.0003,11.9435 C2.0003,18.1075 4.2493,22.1975 5.7363,22.1975 L8.4343,22.1975 C9.6243,22.1975 10.5913,23.1655 10.5913,24.3545 L10.5913,72.7695 C10.5913,73.8725 11.4893,74.7695 12.5913,74.7695 L26.1943,74.7695 C26.7473,74.7695 27.1943,75.2175 27.1943,75.7695 C27.1943,76.3215 26.7473,76.7695 26.1943,76.7695" id="Fill-11" fill="#000000" mask="url(#mask-20)"></path>
                                </g>
                                <path d="M26.1946,68.992 L9.5916,68.992" id="Fill-14" fill="#FFFFFF"></path>
                                <path d="M26.1943,69.9922 L9.5913,69.9922 C9.0393,69.9922 8.5913,69.5442 8.5913,68.9922 C8.5913,68.4402 9.0393,67.9922 9.5913,67.9922 L26.1943,67.9922 C26.7473,67.9922 27.1943,68.4402 27.1943,68.9922 C27.1943,69.5442 26.7473,69.9922 26.1943,69.9922" id="Fill-16" fill="#000000"></path>
                            </g>
                        </g>
                        <g id="ua_fitness_icon" transform="translate(656.000000, 0.000000)">
                            <g id="Page-1" transform="translate(2.000000, 4.000000)">
                                <path d="M95.4336,68.563 C94.8806,68.563 94.4336,68.115 94.4336,67.563 C94.4336,63.937 86.7266,60.054 75.2536,60.054 C63.7816,60.054 56.0756,63.937 56.0756,67.563 C56.0756,68.115 55.6276,68.563 55.0756,68.563 C54.5226,68.563 54.0756,68.115 54.0756,67.563 C54.0756,62.231 63.3776,58.054 75.2536,58.054 C87.1296,58.054 96.4336,62.231 96.4336,67.563 C96.4336,68.115 95.9866,68.563 95.4336,68.563" id="Fill-1" fill="#000000"></path>
                                <path d="M75.2549,74.5562 C67.9379,74.5562 61.3539,72.7932 58.0729,69.9552 C57.6549,69.5942 57.6099,68.9622 57.9719,68.5442 C58.3319,68.1262 58.9639,68.0822 59.3819,68.4422 C62.2709,70.9412 68.5009,72.5562 75.2549,72.5562 C82.0079,72.5562 88.2379,70.9412 91.1269,68.4432 C91.5449,68.0822 92.1769,68.1272 92.5369,68.5452 C92.8989,68.9632 92.8539,69.5942 92.4359,69.9552 C89.1539,72.7932 82.5709,74.5562 75.2549,74.5562" id="Fill-3" fill="#000000"></path>
                                <path d="M89.4248,70.834 C89.1928,70.834 88.9598,70.754 88.7708,70.59 C86.3178,68.469 81.0128,67.098 75.2538,67.098 C69.4958,67.098 64.1918,68.468 61.7378,70.589 C61.3208,70.949 60.6898,70.905 60.3268,70.487 C59.9668,70.069 60.0118,69.438 60.4298,69.076 C63.2678,66.622 68.9478,65.098 75.2538,65.098 C81.5608,65.098 87.2408,66.623 90.0788,69.078 C90.4968,69.439 90.5418,70.07 90.1808,70.488 C89.9838,70.717 89.7048,70.834 89.4248,70.834" id="Fill-5" fill="#000000"></path>
                                <path d="M75.2539,84.521 C63.3779,84.521 54.0749,80.344 54.0749,75.012 C54.0749,74.46 54.5229,74.012 55.0749,74.012 C55.6279,74.012 56.0749,74.46 56.0749,75.012 C56.0749,78.639 63.7809,82.521 75.2539,82.521 C86.7269,82.521 94.4339,78.639 94.4339,75.012 C94.4339,74.46 94.8809,74.012 95.4339,74.012 C95.9859,74.012 96.4339,74.46 96.4339,75.012 C96.4339,80.344 87.1299,84.521 75.2539,84.521" id="Fill-7" fill="#000000"></path>
                                <path d="M75.2539,84.521 C63.3779,84.521 54.0749,80.344 54.0749,75.012 L54.0749,67.563 C54.0749,67.011 54.5229,66.563 55.0749,66.563 C55.6279,66.563 56.0749,67.011 56.0749,67.563 L56.0749,75.012 C56.0749,78.639 63.7809,82.521 75.2539,82.521 C86.7269,82.521 94.4339,78.639 94.4339,75.012 L94.4339,67.563 C94.4339,67.011 94.8809,66.563 95.4339,66.563 C95.9859,66.563 96.4339,67.011 96.4339,67.563 L96.4339,75.012 C96.4339,80.344 87.1299,84.521 75.2539,84.521" id="Fill-9" fill="#000000"></path>
                                <path d="M51.0641,45.9367 L91.0001,45.9367" id="Fill-11" fill="#FFFFFF"></path>
                                <path d="M91,46.9365 L51.064,46.9365 C50.512,46.9365 50.064,46.4885 50.064,45.9365 C50.064,45.3845 50.512,44.9365 51.064,44.9365 L91,44.9365 C91.553,44.9365 92,45.3845 92,45.9365 C92,46.4885 91.553,46.9365 91,46.9365" id="Fill-13" fill="#000000"></path>
                                <path d="M1,45.9367 L40.936,45.9367" id="Fill-15" fill="#FFFFFF"></path>
                                <g id="Group-19" transform="translate(0.000000, 44.000000)">
                                    <mask id="mask-22" fill="white">
                                        <use xlink:href="#path-21"></use>
                                    </mask>
                                    <g id="Clip-18"></g>
                                    <path d="M40.9355,2.9365 L0.9995,2.9365 C0.4475,2.9365 -0.0005,2.4885 -0.0005,1.9365 C-0.0005,1.3845 0.4475,0.9365 0.9995,0.9365 L40.9355,0.9365 C41.4885,0.9365 41.9355,1.3845 41.9355,1.9365 C41.9355,2.4885 41.4885,2.9365 40.9355,2.9365" id="Fill-17" fill="#000000" mask="url(#mask-22)"></path>
                                </g>
                                <path d="M46,40.8861 L46,17.5031" id="Fill-20" fill="#FFFFFF"></path>
                                <path d="M46,41.8862 C45.447,41.8862 45,41.4382 45,40.8862 L45,17.5032 C45,16.9502 45.447,16.5032 46,16.5032 C46.553,16.5032 47,16.9502 47,17.5032 L47,40.8862 C47,41.4382 46.553,41.8862 46,41.8862" id="Fill-22" fill="#000000"></path>
                                <path d="M46,90.9367 L46,50.9867" id="Fill-24" fill="#FFFFFF"></path>
                                <path d="M46,91.9365 C45.447,91.9365 45,91.4885 45,90.9365 L45,50.9865 C45,50.4345 45.447,49.9865 46,49.9865 C46.553,49.9865 47,50.4345 47,50.9865 L47,90.9365 C47,91.4885 46.553,91.9365 46,91.9365" id="Fill-26" fill="#000000"></path>
                                <path d="M46,41.8867 C43.759,41.8867 41.936,43.7037 41.936,45.9367 C41.936,48.1697 43.759,49.9867 46,49.9867 C48.241,49.9867 50.064,48.1697 50.064,45.9367 C50.064,43.7037 48.241,41.8867 46,41.8867 M46,51.9867 C42.656,51.9867 39.936,49.2727 39.936,45.9367 C39.936,42.6007 42.656,39.8867 46,39.8867 C49.344,39.8867 52.064,42.6007 52.064,45.9367 C52.064,49.2727 49.344,51.9867 46,51.9867" id="Fill-28" fill="#000000"></path>
                                <path d="M79.7061,17.5845 L12.2941,17.5845 C11.7411,17.5845 11.2941,17.1365 11.2941,16.5845 C11.2941,16.0325 11.7411,15.5845 12.2941,15.5845 L79.7061,15.5845 C80.2591,15.5845 80.7061,16.0325 80.7061,16.5845 C80.7061,17.1365 80.2591,17.5845 79.7061,17.5845" id="Fill-30" fill="#000000"></path>
                                <path d="M46,92 C20.636,92 0,71.364 0,46 C0,20.636 20.636,0 46,0 C71.364,0 92,20.636 92,46 C92,51.04 91.19,55.994 89.593,60.722 C89.416,61.247 88.848,61.528 88.325,61.35 C87.803,61.173 87.521,60.605 87.698,60.083 C89.226,55.56 90,50.822 90,46 C90,21.738 70.262,2 46,2 C21.738,2 2,21.738 2,46 C2,70.262 21.738,90 46,90 C54.646,90 63.015,87.494 70.199,82.754 C70.661,82.449 71.281,82.576 71.585,83.038 C71.889,83.499 71.762,84.119 71.301,84.423 C63.788,89.38 55.039,92 46,92" id="Fill-32" fill="#000000"></path>
                            </g>
                        </g>
                    </g>
                </g>
            </g>
        </g>
    </g>
</svg>