<?xml version="1.0" encoding="UTF-8" standalone="no"?>
<svg width="956px" height="372px" viewBox="0 0 956 372" version="1.1" xmlns="http://www.w3.org/2000/svg" xmlns:xlink="http://www.w3.org/1999/xlink">
    <!-- Generator: Sketch 39 (31667) - http://www.bohemiancoding.com/sketch -->
    <title>Group 7</title>
    <desc>Created with Sketch.</desc>
    <defs>
        <polygon id="path-1" points="39.39975 0.155 0 0.155 0 49 78.7995 49 78.7995 0.155 39.39975 0.155"></polygon>
        <polygon id="path-3" points="0.7158 60 36.0078 60 36.0078 0.3994 0.7158 0.3994"></polygon>
        <polygon id="path-5" points="1.35525272e-20 0.083 1.35525272e-20 16.748 46.5908 16.748 46.5908 0.083 0 0.083"></polygon>
    </defs>
    <g id="Page-1" stroke="none" stroke-width="1" fill="none" fill-rule="evenodd">
        <g id="6.1-Backup-&amp;-Transfer" transform="translate(-321.000000, -348.000000)">
            <g id="Select-Product" transform="translate(210.000000, 291.000000)">
                <g id="Group-7" transform="translate(110.000000, 50.000000)">
                    <text id="What-would-you-like" font-family="Avenir-Book, Avenir" font-size="20" font-weight="normal" fill="#000000">
                        <tspan x="310.89" y="84">What would you like to know about?</tspan>
                    </text>
                    <rect id="devider" fill="#000000" x="420" y="117" width="120" height="4"></rect>
                    <text id="Choose-a-topic." font-family="Avenir-Black, Avenir" font-size="32" font-weight="700" fill="#000000">
                        <tspan x="363.22" y="32">Choose a topic.</tspan>
                    </text>
                    <text id="Backup" font-family="Avenir-Medium, Avenir" font-size="20" font-weight="400" fill="#000000">
                        <tspan x="106.83" y="297">Backup</tspan>
                    </text>
                    <g id="Backup" transform="translate(100.000000, 187.000000)">
                        <g id="Page-1" transform="translate(1.000000, 13.000000)">
                            <path d="M52.2744,53.8448 C51.7214,53.8448 51.2744,53.3978 51.2744,52.8448 L51.2744,35.8448 C51.2744,35.2918 51.7214,34.8448 52.2744,34.8448 C52.8274,34.8448 53.2744,35.2918 53.2744,35.8448 L53.2744,52.8448 C53.2744,53.3978 52.8274,53.8448 52.2744,53.8448" id="Fill-1" fill="#000000"></path>
                            <g id="Group-5" transform="translate(0.000000, 0.844800)">
                                <mask id="mask-2" fill="white">
                                    <use xlink:href="#path-1"></use>
                                </mask>
                                <g id="Clip-4"></g>
                                <path d="M44.0625,49 L16.4505,49 C7.3795,49 -0.0005,41.604 -0.0005,32.416 C-0.0005,23.227 7.3795,15.792 16.4505,15.792 C16.7525,15.792 17.0485,15.827 17.3385,15.849 C21.2025,6.425 30.5355,0.155 40.8055,0.155 C50.8795,0.155 59.9135,6.075 63.9815,15.281 C72.3375,16.413 78.7995,23.617 78.7995,32.029 C78.7995,41.585 71.4965,49 62.1725,49 L60.1825,49 C59.6295,49 59.1825,48.553 59.1825,48 C59.1825,47.447 59.6295,47 60.1825,47 L62.1725,47 C70.3745,47 76.7995,40.466 76.7995,32.031 C76.7995,24.437 70.8225,17.93 63.1915,17.17 C62.8245,17.134 62.5075,16.917 62.3665,16.577 C58.7285,7.811 50.2655,2.156 40.8055,2.156 C31.1075,2.156 22.3175,8.237 18.9315,17.28 C18.7725,17.704 18.3385,17.966 17.8955,17.926 C17.3905,17.876 16.9195,17.83 16.4505,17.83 C8.4825,17.83 1.9995,24.33 1.9995,32.415 C1.9995,40.5 8.4825,47 16.4505,47 L44.0625,47 C44.6155,47 45.0625,47.447 45.0625,48 C45.0625,48.553 44.6155,49 44.0625,49" id="Fill-3" fill="#000000" mask="url(#mask-2)"></path>
                            </g>
                            <path d="M56.8389,41.0792 C56.5829,41.0792 56.3269,40.9812 56.1319,40.7862 L52.0379,36.6932 L47.9449,40.7862 C47.5549,41.1772 46.9219,41.1772 46.5309,40.7862 C46.1409,40.3952 46.1409,39.7632 46.5309,39.3722 L51.3309,34.5722 C51.7219,34.1822 52.3549,34.1822 52.7449,34.5722 L57.5459,39.3722 C57.9369,39.7632 57.9369,40.3952 57.5459,40.7862 C57.3509,40.9812 57.0949,41.0792 56.8389,41.0792" id="Fill-6" fill="#000000"></path>
                        </g>
                    </g>
                    <text id="Set-up-your-phone-to" font-family="Avenir-Book, Avenir" font-size="16" font-weight="normal" fill="#000000">
                        <tspan x="0.576" y="330">Set up your phone to back up regularly </tspan>
                        <tspan x="46.232" y="352">to your cloud or computer</tspan>
                    </text>
                    <text id="Restore" font-family="Avenir-Medium, Avenir" font-size="20" font-weight="400" fill="#000000">
                        <tspan x="445.17" y="297">Restore</tspan>
                    </text>
                    <text id="Restore-your-data-an" font-family="Avenir-Book, Avenir" font-size="16" font-weight="normal" fill="#000000">
                        <tspan x="352.608" y="330">Restore your data and settings from </tspan>
                        <tspan x="360.864" y="352">the same backup service that you </tspan>
                        <tspan x="359.072" y="374">used to back up your HTC phone.</tspan>
                    </text>
                    <g id="Restore" transform="translate(440.000000, 187.000000)" fill="#000000">
                        <g id="Page-1" transform="translate(1.000000, 15.000000)">
                            <path d="M38.2334,49.0869 L16.4324,49.0869 C7.3724,49.0869 0.0004,41.5859 0.0004,32.3649 C0.0004,23.1449 7.3734,15.6429 16.4354,15.6429 C16.7394,15.6429 17.0354,15.6589 17.3254,15.6819 C21.1844,6.2709 30.5094,-0.0001 40.7734,-0.0001 C50.8414,-0.0001 59.8694,5.9129 63.9354,15.1149 C72.2964,16.2469 78.7604,23.5229 78.7604,31.9359 C78.7604,41.5039 71.4844,48.9989 62.1964,48.9989 C61.6434,48.9989 61.1964,48.5519 61.1964,47.9989 C61.1964,47.4459 61.6434,46.9989 62.1964,46.9989 C70.3634,46.9989 76.7604,40.3829 76.7604,31.9359 C76.7604,24.3409 70.7804,17.7959 63.1454,17.0359 C62.7784,16.9999 62.4624,16.7649 62.3204,16.4239 C58.6844,7.6619 50.2264,1.9999 40.7734,1.9999 C31.0824,1.9999 22.2984,8.0669 18.9184,17.0979 C18.7584,17.5239 18.3224,17.7749 17.8834,17.7419 L17.7804,17.7329 C17.3134,17.6869 16.8724,17.6429 16.4354,17.6429 C8.4754,17.6429 2.0004,24.2469 2.0004,32.3649 C2.0004,40.4829 8.4744,47.0869 16.4324,47.0869 L38.2334,47.0869 C38.7864,47.0869 39.2334,47.5339 39.2334,48.0869 C39.2334,48.6399 38.7864,49.0869 38.2334,49.0869" id="Fill-1"></path>
                            <path d="M49.5732,47.9726 C44.2502,47.9726 39.9202,43.6416 39.9202,38.3186 C39.9202,32.9946 44.2502,28.6646 49.5732,28.6646 C50.1262,28.6646 50.5732,29.1126 50.5732,29.6646 C50.5732,30.2176 50.1262,30.6646 49.5732,30.6646 C45.3532,30.6646 41.9202,34.0986 41.9202,38.3186 C41.9202,42.5386 45.3532,45.9726 49.5732,45.9726 C53.1932,45.9726 56.3462,43.4026 57.0712,39.8626 C57.1812,39.3216 57.7102,38.9776 58.2512,39.0826 C58.7922,39.1936 59.1412,39.7216 59.0302,40.2626 C58.1162,44.7306 54.1392,47.9726 49.5732,47.9726" id="Fill-3"></path>
                            <path d="M48.7197,33.1787 C48.5247,33.1787 48.3267,33.1217 48.1537,33.0017 C47.6987,32.6897 47.5837,32.0667 47.8977,31.6117 L49.2547,29.6397 L47.2827,28.2817 C46.8277,27.9687 46.7137,27.3457 47.0277,26.8907 C47.3397,26.4377 47.9617,26.3197 48.4177,26.6347 L51.2127,28.5597 C51.6677,28.8717 51.7827,29.4947 51.4687,29.9497 L49.5437,32.7457 C49.3507,33.0277 49.0377,33.1787 48.7197,33.1787" id="Fill-5"></path>
                        </g>
                    </g>
                    <text id="Transfer" font-family="Avenir-Medium, Avenir" font-size="20" font-weight="400" fill="#000000">
                        <tspan x="783.7" y="297">Transfer</tspan>
                    </text>
                    <text id="Easily-transfer-medi" font-family="Avenir-Book, Avenir" font-size="16" font-weight="normal" fill="#000000">
                        <tspan x="681.944" y="330">Easily transfer media, data, and certain </tspan>
                        <tspan x="688.456" y="352">settings from an HTC phone or other </tspan>
                        <tspan x="683.672" y="374">brand phone to your new HTC phone.</tspan>
                    </text>
                    <g id="Transfer" transform="translate(780.000000, 187.000000)">
                        <g id="Page-1" transform="translate(5.000000, 0.000000)">
                            <path d="M29.7148,52.3994 L19.6118,52.3994 C16.8558,52.3994 14.6118,50.1564 14.6118,47.3994 L14.6118,5.0004 C14.6118,2.2434 16.8558,0.0004 19.6118,0.0004 L41.3788,0.0004 C44.1358,0.0004 46.3788,2.2434 46.3788,5.0004 L46.3788,11.0494 C46.3788,11.6024 45.9318,12.0494 45.3788,12.0494 C44.8258,12.0494 44.3788,11.6024 44.3788,11.0494 L44.3788,5.0004 C44.3788,3.3454 43.0328,2.0004 41.3788,2.0004 L19.6118,2.0004 C17.9578,2.0004 16.6118,3.3454 16.6118,5.0004 L16.6118,47.3994 C16.6118,49.0534 17.9578,50.3994 19.6118,50.3994 L29.7148,50.3994 C30.2678,50.3994 30.7148,50.8464 30.7148,51.3994 C30.7148,51.9524 30.2678,52.3994 29.7148,52.3994" id="Fill-1" fill="#000000"></path>
                            <g id="Group-5" transform="translate(28.000000, 9.917000)">
                                <mask id="mask-4" fill="white">
                                    <use xlink:href="#path-3"></use>
                                </mask>
                                <g id="Clip-4"></g>
                                <path d="M6.7158,2.3994 C4.5098,2.3994 2.7158,4.1934 2.7158,6.3994 L2.7158,54.0004 C2.7158,56.2064 4.5098,58.0004 6.7158,58.0004 L30.0078,58.0004 C32.2138,58.0004 34.0078,56.2064 34.0078,54.0004 L34.0078,6.3994 C34.0078,4.1934 32.2138,2.3994 30.0078,2.3994 L6.7158,2.3994 Z M30.0078,60.0004 L6.7158,60.0004 C3.4068,60.0004 0.7158,57.3084 0.7158,54.0004 L0.7158,6.3994 C0.7158,3.0904 3.4068,0.3994 6.7158,0.3994 L30.0078,0.3994 C33.3168,0.3994 36.0078,3.0904 36.0078,6.3994 L36.0078,54.0004 C36.0078,57.3084 33.3168,60.0004 30.0078,60.0004 L30.0078,60.0004 Z" id="Fill-3" fill="#000000" mask="url(#mask-4)"></path>
                            </g>
                            <path d="M54.7862,65.4921 C54.8852,65.7641 54.6332,66.0151 54.3622,65.9161 C54.2802,65.8871 54.2102,65.8171 54.1802,65.7351 C54.0812,65.4631 54.3332,65.2111 54.6042,65.3101 C54.6862,65.3401 54.7562,65.4101 54.7862,65.4921" id="Fill-6" fill="#FFFFFF"></path>
                            <g id="Group-10" transform="translate(0.000000, 23.917000)">
                                <mask id="mask-6" fill="white">
                                    <use xlink:href="#path-5"></use>
                                </mask>
                                <g id="Clip-9"></g>
                                <path d="M45.5908,16.748 L8.3328,16.748 C3.7378,16.748 -0.0002,13.01 -0.0002,8.415 C-0.0002,3.82 3.7378,0.083 8.3328,0.083 L14.7138,0.083 C15.2668,0.083 15.7138,0.53 15.7138,1.083 C15.7138,1.636 15.2668,2.083 14.7138,2.083 L8.3328,2.083 C4.8408,2.083 1.9998,4.924 1.9998,8.415 C1.9998,11.907 4.8408,14.748 8.3328,14.748 L45.5908,14.748 C46.1438,14.748 46.5908,15.195 46.5908,15.748 C46.5908,16.301 46.1438,16.748 45.5908,16.748" id="Fill-8" fill="#000000" mask="url(#mask-6)"></path>
                            </g>
                            <path d="M42.3906,45.4649 C42.1346,45.4649 41.8786,45.3669 41.6836,45.1719 C41.2926,44.7809 41.2926,44.1489 41.6836,43.7579 L45.7766,39.6649 L41.6836,35.5719 C41.2926,35.1819 41.2926,34.5489 41.6836,34.1579 C42.0746,33.7679 42.7066,33.7679 43.0976,34.1579 L47.8976,38.9579 C48.2876,39.3489 48.2876,39.9819 47.8976,40.3719 L43.0976,45.1719 C42.9026,45.3669 42.6466,45.4649 42.3906,45.4649" id="Fill-11" fill="#000000"></path>
                        </g>
                    </g>
                </g>
            </g>
        </g>
    </g>
</svg>