<?xml version="1.0" encoding="UTF-8" standalone="no"?>
<svg width="1180px" height="320px" viewBox="0 0 1180 320" version="1.1" xmlns="http://www.w3.org/2000/svg" xmlns:xlink="http://www.w3.org/1999/xlink">
    <!-- Generator: Sketch 39.1 (31720) - http://www.bohemiancoding.com/sketch -->
    <title>Group 3</title>
    <desc>Created with Sketch.</desc>
    <defs>
        <path d="M24.4967555,22 C12.6271291,22 3,31.6258779 3,43.5 C3,55.3767329 12.6244252,65 24.4967555,65 L82.5032445,65 C94.3728709,65 104,55.3741221 104,43.5 C104,31.6232671 94.3755748,22 82.5032445,22 L81.9191965,22 C77.5318382,10.8733893 66.6853834,3 54,3 C41.3146166,3 30.4681618,10.8733893 26.0808035,22 L24.4967555,22 Z" id="path-1"></path>
        <mask id="mask-2" maskContentUnits="userSpaceOnUse" maskUnits="objectBoundingBox" x="0" y="0" width="101" height="62" fill="white">
            <use xlink:href="#path-1"></use>
        </mask>
    </defs>
    <g id="Support" stroke="none" stroke-width="1" fill="none" fill-rule="evenodd">
        <g id="6.1.3-Backup-&amp;-Transfer_Transfer" transform="translate(-210.000000, -628.000000)">
            <g id="Select-Product" transform="translate(210.000000, 218.000000)">
                <g id="Page-1">
                    <g id="Group-3" transform="translate(0.000000, 410.000000)">
                        <polygon id="Page-1" fill="#EAEAEA" points="930 0 910 20 0 20 0.00927734375 320 1180 320 1180 20 950 20"></polygon>
                        <g id="Cancel" transform="translate(1132.000000, 45.000000)" stroke="#404040" stroke-width="3" stroke-linecap="square">
                            <path d="M2.5,2.5 L21.5,21.5" id="Line"></path>
                            <path d="M2.5,2.5 L21.5,21.5" id="Line" transform="translate(12.000000, 12.000000) scale(1, -1) translate(-12.000000, -12.000000) "></path>
                        </g>
                        <g id="Group-6" transform="translate(290.000000, 80.000000)">
                            <g id="Group">
                                <g id="android_htc_to_htc" transform="translate(30.000000, 0.000000)">
                                    <g id="Group-2" stroke-width="1" fill-rule="evenodd" transform="translate(148.000000, 10.000000)">
                                        <rect id="Rectangle-10" stroke="#000000" stroke-width="2" fill="#FFFFFF" x="0" y="0" width="45" height="91" rx="6"></rect>
                                        <path d="M11.5,6 L33,6" id="Line" stroke="#000000" stroke-width="2" stroke-linecap="round"></path>
                                        <path d="M11.5,85 L33,85" id="Line-Copy" stroke="#000000" stroke-width="2" stroke-linecap="round"></path>
                                        <rect id="Rectangle-10" stroke="#000000" stroke-width="2" fill="#D1F5F5" x="0" y="12" width="45" height="67"></rect>
                                        <g id="Group" transform="translate(7.000000, 38.000000)" fill="#000000">
                                            <path d="M25.1137443,9.36882978 C24.2587443,9.29382978 23.6777443,8.70482978 23.6097443,7.83782978 C23.5677443,7.26682978 23.5647443,6.79582978 23.6067443,6.34782978 C23.6877443,5.50382978 24.3667443,4.69882978 25.1137443,4.65982978 C25.3867443,4.64482978 26.1097443,4.65182978 27.4157443,4.65182978 L31,4.65982978 L31,3.01382978 C31.2227443,3.01382978 28.1897443,3.00882978 27.2837443,3.00182978 C26.0547443,2.99982978 25.4407443,2.99582978 25.0507443,3.01382978 C24.1927443,3.04782978 23.4747443,3.36582978 22.9147443,3.96082978 C22.3837443,4.51882978 22.0687443,5.40782978 22.0237443,6.30882978 C21.9967443,6.79582978 21.9877443,7.43282978 22.0237443,7.81382978 C22.1107443,8.77982978 22.4077443,9.53682978 22.9147443,10.0748298 C23.4567443,10.6458298 24.2727443,11.0078298 25.0507443,11.0138298 C25.6877443,11.0258298 31.2227443,11.0138298 31,11.0138298 L31,9.36882978 C31.2227443,9.36882978 29.5407443,9.37882978 28.6857443,9.38682978 C27.0697443,9.39882978 25.5407443,9.41082978 25.1137443,9.36882978 Z" id="Fill-25"></path>
                                            <polygon id="Fill-26" points="11 3 11 4.649 14.753 4.649 14.753 11 16.338 11 16.338 4.649 20.09 4.649 20.09 3"></polygon>
                                            <path d="M9.141,6.20200031 C9.129,5.31600031 8.832,4.54900031 8.252,3.93700031 C7.643,3.29500031 6.723,3.02800031 6.117,2.99400031 C5.588,2.96400031 3.517,2.97100031 3.03,2.99400031 C2.343,3.02500031 1.844,3.23800031 1.594,3.43200031 C1.591,3.43500031 1.588,3.43500031 1.588,3.42700031 L1.588,0.430000305 L0,0.430000305 L0,11.0000003 L1.586,11.0000003 C1.586,11.0000003 1.555,6.67600031 1.588,6.20500031 C1.654,5.36900031 2.261,4.70900031 3.036,4.63700031 C3.657,4.58500031 5.528,4.59700031 6.115,4.63700031 C6.916,4.69700031 7.51,5.35500031 7.559,6.23800031 C7.574,6.56200031 7.559,11.0000003 7.559,11.0000003 L9.141,11.0000003 C9.141,11.0000003 9.149,6.58000031 9.141,6.20200031" id="Fill-27"></path>
                                        </g>
                                    </g>
                                    <g id="Group-2-Copy" stroke-width="1" fill-rule="evenodd" transform="translate(56.000000, 10.000000)">
                                        <rect id="Rectangle-10" stroke="#000000" stroke-width="2" fill="#FFFFFF" x="0" y="0" width="45" height="91" rx="6"></rect>
                                        <path d="M11.5,6 L33,6" id="Line" stroke="#000000" stroke-width="2" stroke-linecap="round"></path>
                                        <path d="M11.5,85 L33,85" id="Line-Copy" stroke="#000000" stroke-width="2" stroke-linecap="round"></path>
                                        <rect id="Rectangle-10" stroke="#000000" stroke-width="2" fill="#DADADA" x="0" y="12" width="45" height="67"></rect>
                                        <g id="Group" transform="translate(7.000000, 38.000000)" fill="#525252">
                                            <path d="M25.1137443,9.36882978 C24.2587443,9.29382978 23.6777443,8.70482978 23.6097443,7.83782978 C23.5677443,7.26682978 23.5647443,6.79582978 23.6067443,6.34782978 C23.6877443,5.50382978 24.3667443,4.69882978 25.1137443,4.65982978 C25.3867443,4.64482978 26.1097443,4.65182978 27.4157443,4.65182978 L31,4.65982978 L31,3.01382978 C31.2227443,3.01382978 28.1897443,3.00882978 27.2837443,3.00182978 C26.0547443,2.99982978 25.4407443,2.99582978 25.0507443,3.01382978 C24.1927443,3.04782978 23.4747443,3.36582978 22.9147443,3.96082978 C22.3837443,4.51882978 22.0687443,5.40782978 22.0237443,6.30882978 C21.9967443,6.79582978 21.9877443,7.43282978 22.0237443,7.81382978 C22.1107443,8.77982978 22.4077443,9.53682978 22.9147443,10.0748298 C23.4567443,10.6458298 24.2727443,11.0078298 25.0507443,11.0138298 C25.6877443,11.0258298 31.2227443,11.0138298 31,11.0138298 L31,9.36882978 C31.2227443,9.36882978 29.5407443,9.37882978 28.6857443,9.38682978 C27.0697443,9.39882978 25.5407443,9.41082978 25.1137443,9.36882978 Z" id="Fill-25"></path>
                                            <polygon id="Fill-26" points="11 3 11 4.649 14.753 4.649 14.753 11 16.338 11 16.338 4.649 20.09 4.649 20.09 3"></polygon>
                                            <path d="M9.141,6.20200031 C9.129,5.31600031 8.832,4.54900031 8.252,3.93700031 C7.643,3.29500031 6.723,3.02800031 6.117,2.99400031 C5.588,2.96400031 3.517,2.97100031 3.03,2.99400031 C2.343,3.02500031 1.844,3.23800031 1.594,3.43200031 C1.591,3.43500031 1.588,3.43500031 1.588,3.42700031 L1.588,0.430000305 L0,0.430000305 L0,11.0000003 L1.586,11.0000003 C1.586,11.0000003 1.555,6.67600031 1.588,6.20500031 C1.654,5.36900031 2.261,4.70900031 3.036,4.63700031 C3.657,4.58500031 5.528,4.59700031 6.115,4.63700031 C6.916,4.69700031 7.51,5.35500031 7.559,6.23800031 C7.574,6.56200031 7.559,11.0000003 7.559,11.0000003 L9.141,11.0000003 C9.141,11.0000003 9.149,6.58000031 9.141,6.20200031" id="Fill-27"></path>
                                        </g>
                                    </g>
                                    <g id="Group-2-Copy-2" stroke-width="1" fill-rule="evenodd" transform="translate(4.000000, 10.000000)">
                                        <rect id="Rectangle-10" stroke="#000000" stroke-width="2" fill="#FFFFFF" x="0" y="0" width="45" height="91" rx="6"></rect>
                                        <path d="M11.5,6 L33,6" id="Line" stroke="#000000" stroke-width="2" stroke-linecap="round"></path>
                                        <path d="M11.5,85 L33,85" id="Line-Copy" stroke="#000000" stroke-width="2" stroke-linecap="round"></path>
                                        <rect id="Rectangle-10" stroke="#000000" stroke-width="2" fill="#DADADA" x="0" y="12" width="45" height="67"></rect>
                                        <g id="Group-3" transform="translate(7.000000, 28.000000)" fill="#525252">
                                            <path d="M2.04088889,12 L1.95792593,12 C0.875851852,12 0,12.9233552 0,14.0459869 L0,22.9527754 C0,24.0778825 0.875851852,25 1.95792593,25 L2.04088889,25 C3.12296296,25 4,24.0778825 4,22.9527754 L4,14.0459869 C4,12.9233552 3.11585185,12 2.04088889,12" id="Fill-28"></path>
                                            <path d="M6,26.0983448 C6,27.1398621 6.8462091,27.9790345 7.88722001,27.9790345 L9.90223993,27.9790345 L9.90223993,32.8092414 C9.90223993,33.9426207 10.8191733,34.8612414 11.9544831,34.8612414 L12.0388559,34.8612414 C13.172925,34.8612414 14.0910991,33.9351724 14.0910991,32.8092414 L14.0910991,27.9790345 L16.9101417,27.9790345 L16.9101417,32.8092414 C16.9101417,33.9426207 17.8357605,34.8612414 18.9611441,34.8612414 L19.0467577,34.8612414 C20.179586,34.8612414 21.0977601,33.9351724 21.0977601,32.8092414 L21.0977601,27.9790345 L23.1140208,27.9790345 C24.1463462,27.9790345 25,27.1398621 25,26.0983448 L25,12 L6,12 L6,26.0983448 Z" id="Fill-29"></path>
                                            <path d="M19.8913467,7.62968938 C19.3860275,7.62968938 18.9793072,7.20856007 18.9793072,6.6853388 C18.9793072,6.16084139 19.3860275,5.74864513 19.8913467,5.74864513 C20.3978983,5.74864513 20.8033861,6.16084139 20.8033861,6.6853388 C20.8033861,7.20856007 20.3978983,7.62968938 19.8913467,7.62968938 M11.1074209,7.62968938 C10.6033342,7.62968938 10.1966139,7.20856007 10.1966139,6.6853388 C10.1966139,6.16084139 10.6033342,5.74864513 11.1074209,5.74864513 C11.61274,5.74864513 12.0194603,6.16084139 12.0194603,6.6853388 C12.0194603,7.20856007 11.61274,7.62968938 11.1074209,7.62968938 M20.1982356,3.08404513 L21.7881422,0.540679335 C21.886741,0.386265255 21.8448365,0.164215255 21.6883108,0.0608471518 C21.5305527,-0.0501778479 21.3247276,-0.00551261813 21.2248962,0.164215255 L19.5721328,2.78925462 C18.3396471,2.26603335 16.9567981,1.97251899 15.5036975,1.97251899 C14.0419694,1.97251899 12.6615854,2.26603335 11.4290996,2.78925462 L9.7824987,0.164215255 C9.68389984,-0.00551261813 9.47067981,-0.0501778479 9.31292164,0.0608471518 C9.15639595,0.164215255 9.11325895,0.386265255 9.2130903,0.540679335 L10.8017644,3.08404513 C7.93870005,4.53885547 6,7.28257673 6,10.4244566 C6,10.6171552 6.01355734,10.8073014 6.02834717,11 L24.9728853,11 C24.9852102,10.8073014 25,10.6171552 25,10.4244566 C25,7.28257673 23.0625324,4.53885547 20.1982356,3.08404513" id="Fill-30"></path>
                                            <path d="M29.0408889,12 L28.9579259,12 C27.8758519,12 27,12.9233552 27,14.0459869 L27,22.9527754 C27,24.0778825 27.882963,25 28.9579259,25 L29.0408889,25 C30.122963,25 31,24.0778825 31,22.9527754 L31,14.0459869 C31,12.9233552 30.1182222,12 29.0408889,12" id="Fill-31"></path>
                                        </g>
                                    </g>
                                    <polyline id="Path-3" stroke="#29A7DE" stroke-width="2" stroke-linecap="round" stroke-linejoin="round" transform="translate(135.500000, 56.000000) rotate(-270.000000) translate(-135.500000, -56.000000) " points="130.5 58.5 135.5 53.5 140.5 58.5"></polyline>
                                    <path d="M111,56 L138,56" id="Line" stroke="#29A7DE" stroke-width="2" stroke-linecap="round" stroke-dasharray="3,6"></path>
                                </g>
                                <text id="Transferring-content" font-family="Avenir-Book, Avenir" font-size="16" font-weight="normal" fill="#000000">
                                    <tspan x="39.952" y="152">Transferring content from </tspan>
                                    <tspan x="26.888" y="174">HTC or other Android phone</tspan>
                                </text>
                            </g>
                            <g id="Group-2" transform="translate(340.000000, 0.000000)">
                                <text id="Transferring-iPhone" font-family="Avenir-Book, Avenir" font-size="16" font-weight="normal" fill="#000000">
                                    <tspan x="31.792" y="152">Transferring iPhone content </tspan>
                                    <tspan x="76.08" y="174">through iCloud</tspan>
                                </text>
                                <g id="ios_to_htc" transform="translate(30.000000, 0.000000)">
                                    <use id="Combined-Shape" stroke="#000000" mask="url(#mask-2)" stroke-width="4" fill="#FFFFFF" fill-rule="evenodd" xlink:href="#path-1"></use>
                                    <g id="Group-3" stroke-width="1" fill-rule="evenodd" transform="translate(41.000000, 21.000000)" fill="#A5A5A5">
                                        <path d="M1.33791285,12.14 C-1.34408715,16.795 0.360912852,23.858 3.32691285,28.141 C4.80791285,30.282 6.30691285,32.204 8.35991285,32.204 C8.39891285,32.204 8.43691285,32.204 8.47691285,32.202 C9.44191285,32.164 10.1389129,31.867 10.8129129,31.58 C11.5689129,31.257 12.3519129,30.924 13.5799129,30.924 C14.7469129,30.924 15.4929129,31.247 16.2129129,31.558 C16.9229129,31.866 17.6549129,32.184 18.7359129,32.163 C21.0489129,32.12 22.4689129,30.046 23.7219129,28.216 C25.0289129,26.306 25.6849129,24.451 25.9059129,23.742 L25.9149129,23.714 C25.9569129,23.588 25.8979129,23.451 25.7769129,23.395 C25.7729129,23.393 25.7609129,23.388 25.7579129,23.387 C25.3509129,23.221 21.7779129,21.636 21.7409129,17.316 C21.7059129,13.807 24.4209129,11.949 24.9649129,11.611 L24.9909129,11.596 C25.0489129,11.557 25.0909129,11.498 25.1039129,11.428 C25.1189129,11.36 25.1039129,11.288 25.0639129,11.23 C23.1899129,8.488 20.3179129,8.075 19.1619129,8.025 C18.9939129,8.009 18.8209129,8 18.6469129,8 C17.2889129,8 15.9879129,8.513 14.9429129,8.925 C14.2209129,9.21 13.5969129,9.455 13.1679129,9.455 C12.6849129,9.455 12.0579129,9.207 11.3319129,8.919 C10.3619129,8.533 9.26191285,8.097 8.09691285,8.097 C8.06991285,8.097 8.04191285,8.097 8.01491285,8.098 C5.30691285,8.137 2.74891285,9.687 1.33791285,12.14" id="Fill-21"></path>
                                        <path d="M18.5419247,0.000177829459 C16.9019247,0.0671778295 14.9359247,1.07617783 13.7599247,2.45317783 C12.7609247,3.61117783 11.7839247,5.54017783 12.0419247,7.48617783 C12.0579247,7.60817783 12.1569247,7.70217783 12.2789247,7.71117783 C12.3899247,7.72017783 12.5029247,7.72417783 12.6149247,7.72417783 C14.2189247,7.72417783 15.9489247,6.83717783 17.1289247,5.40917783 C18.3729247,3.90117783 19.0019247,1.96517783 18.8109247,0.232177829 C18.7959247,0.0961778295 18.6769247,-0.00482217054 18.5419247,0.000177829459" id="Fill-22"></path>
                                    </g>
                                    <g id="Group-2" stroke-width="1" fill-rule="evenodd" transform="translate(148.000000, 10.000000)">
                                        <rect id="Rectangle-10" stroke="#000000" stroke-width="2" fill="#FFFFFF" x="0" y="0" width="45" height="91" rx="6"></rect>
                                        <path d="M11.5,6 L33,6" id="Line" stroke="#000000" stroke-width="2" stroke-linecap="round"></path>
                                        <path d="M11.5,85 L33,85" id="Line-Copy" stroke="#000000" stroke-width="2" stroke-linecap="round"></path>
                                        <rect id="Rectangle-10" stroke="#000000" stroke-width="2" fill="#D1F5F5" x="0" y="12" width="45" height="67"></rect>
                                        <g id="Group" transform="translate(7.000000, 38.000000)" fill="#000000">
                                            <path d="M25.1137443,9.36882978 C24.2587443,9.29382978 23.6777443,8.70482978 23.6097443,7.83782978 C23.5677443,7.26682978 23.5647443,6.79582978 23.6067443,6.34782978 C23.6877443,5.50382978 24.3667443,4.69882978 25.1137443,4.65982978 C25.3867443,4.64482978 26.1097443,4.65182978 27.4157443,4.65182978 L31,4.65982978 L31,3.01382978 C31.2227443,3.01382978 28.1897443,3.00882978 27.2837443,3.00182978 C26.0547443,2.99982978 25.4407443,2.99582978 25.0507443,3.01382978 C24.1927443,3.04782978 23.4747443,3.36582978 22.9147443,3.96082978 C22.3837443,4.51882978 22.0687443,5.40782978 22.0237443,6.30882978 C21.9967443,6.79582978 21.9877443,7.43282978 22.0237443,7.81382978 C22.1107443,8.77982978 22.4077443,9.53682978 22.9147443,10.0748298 C23.4567443,10.6458298 24.2727443,11.0078298 25.0507443,11.0138298 C25.6877443,11.0258298 31.2227443,11.0138298 31,11.0138298 L31,9.36882978 C31.2227443,9.36882978 29.5407443,9.37882978 28.6857443,9.38682978 C27.0697443,9.39882978 25.5407443,9.41082978 25.1137443,9.36882978 Z" id="Fill-25"></path>
                                            <polygon id="Fill-26" points="11 3 11 4.649 14.753 4.649 14.753 11 16.338 11 16.338 4.649 20.09 4.649 20.09 3"></polygon>
                                            <path d="M9.141,6.20200031 C9.129,5.31600031 8.832,4.54900031 8.252,3.93700031 C7.643,3.29500031 6.723,3.02800031 6.117,2.99400031 C5.588,2.96400031 3.517,2.97100031 3.03,2.99400031 C2.343,3.02500031 1.844,3.23800031 1.594,3.43200031 C1.591,3.43500031 1.588,3.43500031 1.588,3.42700031 L1.588,0.430000305 L0,0.430000305 L0,11.0000003 L1.586,11.0000003 C1.586,11.0000003 1.555,6.67600031 1.588,6.20500031 C1.654,5.36900031 2.261,4.70900031 3.036,4.63700031 C3.657,4.58500031 5.528,4.59700031 6.115,4.63700031 C6.916,4.69700031 7.51,5.35500031 7.559,6.23800031 C7.574,6.56200031 7.559,11.0000003 7.559,11.0000003 L9.141,11.0000003 C9.141,11.0000003 9.149,6.58000031 9.141,6.20200031" id="Fill-27"></path>
                                        </g>
                                    </g>
                                    <path d="M137,70 L137,79.9995797 C137,83.8658051 133.874336,87 130.006307,87 L56,87" id="Rectangle-8" stroke="#29A7DE" stroke-width="2" stroke-linecap="round" stroke-dasharray="3,6" transform="translate(96.500000, 78.500000) scale(-1, 1) translate(-96.500000, -78.500000) "></path>
                                    <polyline id="Path-3" stroke="#29A7DE" stroke-width="2" stroke-linecap="round" stroke-linejoin="round" transform="translate(134.500000, 87.000000) rotate(-270.000000) translate(-134.500000, -87.000000) " points="129.5 89.5 134.5 84.5 139.5 89.5"></polyline>
                                </g>
                            </g>
                            <rect id="Rectangle-9" fill="#DADADA" x="298" y="0" width="4" height="180"></rect>
                        </g>
                    </g>
                </g>
            </g>
        </g>
    </g>
</svg>