<!-- Generator: Adobe Illustrator 18.0.0, SVG Export Plug-In  -->
<svg version="1.1"
	 xmlns="http://www.w3.org/2000/svg" xmlns:xlink="http://www.w3.org/1999/xlink" xmlns:a="http://ns.adobe.com/AdobeSVGViewerExtensions/3.0/"
	 x="0px" y="0px" width="321.047px" height="186.067px" viewBox="0 0 321.047 186.067"
	 style="enable-background:new 0 0 321.047 186.067;" xml:space="preserve">
<defs>
</defs>
<g style="opacity:0.8;">
	<rect x="0" y="0" width="321.047" height="1.126"/>
</g>
<g>
	<g>
		<text transform="matrix(1 0 0 1 96.3345 47.1258)"><tspan x="0" y="0" style="font-family:'Avenir-Book'; font-size:18;">Can’t find what </tspan><tspan x="-11.844" y="19" style="font-family:'Avenir-Book'; font-size:18;">you’re looking for?</tspan></text>
	</g>
	<g>
		<g>
			<g>
				<text transform="matrix(0.9998 0.0175 -0.0175 0.9998 130.1912 181.8754)"><tspan x="0" y="0" style="font-family:'Avenir-Book'; font-size:14;">G</tspan><tspan x="11.133" y="-0.168" style="font-family:'Avenir-Book'; font-size:14;">e</tspan><tspan x="19.16" y="-0.281" style="font-family:'Avenir-Book'; font-size:14;">t</tspan><tspan x="24.051" y="-0.359" style="font-family:'Avenir-Book'; font-size:14;"> </tspan><tspan x="28.185" y="-0.485" style="font-family:'Avenir-Book'; font-size:14;">H</tspan><tspan x="38.534" y="-0.646" style="font-family:'Avenir-Book'; font-size:14;">e</tspan><tspan x="46.561" y="-0.747" style="font-family:'Avenir-Book'; font-size:14;">l</tspan><tspan x="50.163" y="-0.855" style="font-family:'Avenir-Book'; font-size:14;">p</tspan></text>
			</g>
		</g>
	</g>
	<g>
		<g>
			<path d="M145.81,154.24l-2.254-1.162l1.116-6.346c-10.599-3.487-17.381-10.819-17.381-18.914c0-11.585,13.819-21.01,30.805-21.01
				s30.805,9.425,30.805,21.01c0,11.585-13.819,21.01-30.805,21.01c-2.142,0-4.348-0.168-6.57-0.499L145.81,154.24z
				 M158.096,109.475c-15.525,0-28.155,8.229-28.155,18.344c0,7.167,6.521,13.726,16.612,16.709l0.931,1.512l-0.569,3.234
				l3.189-3.297l1.163-0.386c2.312,0.379,4.61,0.572,6.829,0.572c15.525,0,28.155-8.229,28.155-18.344
				S173.621,109.475,158.096,109.475z"/>
		</g>
		<text transform="matrix(1 0 0 1 150.9942 137.8084)" style="font-family:'Avenir-Medium'; font-size:29.0612;">?</text>
	</g>
</g>
</svg>
