<!-- Generator: Adobe Illustrator 18.0.0, SVG Export Plug-In  -->
<svg version="1.1"
	 xmlns="http://www.w3.org/2000/svg" xmlns:xlink="http://www.w3.org/1999/xlink" xmlns:a="http://ns.adobe.com/AdobeSVGViewerExtensions/3.0/"
	 x="0px" y="0px" width="359.408px" height="814.209px" viewBox="0 0 359.408 814.209"
	 style="enable-background:new 0 0 359.408 814.209;" xml:space="preserve">
<defs>
</defs>
<g>
	<g>
		<g style="opacity:0.8;">
			<rect x="325.152" y="4.676" width="16.847" height="2.246"/>
			<rect x="325.152" y="9.158" width="16.847" height="2.246"/>
			<rect x="325.152" y="13.639" width="16.847" height="2.246"/>
		</g>
		
			<line style="opacity:0.8;fill:none;stroke:#000000;stroke-width:1.3306;stroke-miterlimit:10;" x1="0" y1="48.176" x2="359.408" y2="48.176"/>
		<g style="opacity:0.8;">
			<path d="M33.259,5.98c-1.077-1.097-2.716-1.553-3.793-1.61c-0.935-0.05-4.614-0.037-5.48,0c-1.22,0.051-2.104,0.415-2.548,0.75
				c-0.004,0.002-0.012,0-0.012-0.009V0h-2.815v18.03l2.81,0.002c0,0-0.053-7.379,0.011-8.185c0.11-1.428,1.191-2.549,2.567-2.67
				c1.108-0.094,4.422-0.072,5.462,0c1.427,0.099,2.483,1.22,2.565,2.727c0.03,0.555-0.001,8.125-0.001,8.125h2.817
				c0,0,0.009-7.54,0-8.187C34.822,8.329,34.29,7.028,33.259,5.98 M37.767,7.338h6.666v10.644h2.819V7.338h6.664v-2.81h-16.15V7.338
				z M61.939,15.222c-1.533-0.134-2.558-1.139-2.677-2.617c-0.076-0.97-0.078-1.775-0.004-2.538
				c0.139-1.439,1.341-2.812,2.679-2.878c0.478-0.024,1.758-0.02,4.08-0.011l6.763,0.011l-0.001-2.808c0,0-5.385-0.011-7.001-0.015
				c-2.175-0.009-3.266-0.013-3.959,0.015c-1.524,0.055-2.798,0.599-3.793,1.61c-0.937,0.954-1.498,2.475-1.583,4.008
				c-0.047,0.833-0.06,1.917,0,2.562c0.156,1.65,0.69,2.948,1.583,3.856c0.957,0.976,2.412,1.593,3.795,1.613
				c1.132,0.015,10.958,0.002,10.958,0.002v-2.81c0,0-2.988,0.011-4.505,0.022C65.405,15.268,62.692,15.288,61.939,15.222"/>
		</g>
	</g>
	<g>
		<g>
			<g>
				<path d="M190.152,722.943c8.651,15.219-6.93,30.799-22.149,22.149c-1.798-1.022-3.301-2.525-4.323-4.323
					c-8.651-15.219,6.93-30.799,22.149-22.149C187.628,719.642,189.13,721.144,190.152,722.943z"/>
				<path style="fill:#FFFFFF;stroke:#000000;stroke-width:1.1326;stroke-miterlimit:10;" d="M183.743,717.687
					c0,0,0.954-2.571,3.93-2.442c0,0,3.388,0.008,3.841,2.79c0,0,2.794,0.582,2.405,2.846c0,0,0.142,2.328-2.446,2.328h-11.837
					c0,0-2.005,0.166-1.682-2.292c0,0,0.323-1.405,2.393-1.016c0,0-0.259-1.478,1.1-2.125
					C181.447,717.774,182.223,717.137,183.743,717.687z"/>
				<path style="fill:#FFFFFF;stroke:#000000;stroke-width:1.1326;stroke-miterlimit:10;" d="M164.231,739.411
					c0,0,1.683-4.536,6.932-4.308c0,0,5.976,0.014,6.775,4.921c0,0,4.928,2.213,4.243,6.206c0,0,0.25,5.294-4.315,5.294h-20.882
					c0,0-3.537-0.893-2.967-5.229c0,0,0.571-3.071,4.222-2.386c0,0-0.456-2.905,1.94-4.046
					C160.18,739.862,161.549,738.441,164.231,739.411z"/>
			</g>
		</g>
		<g>
			<g>
				<path style="fill:none;stroke:#000000;stroke-width:0.9749;stroke-miterlimit:10;" d="M297.674,576.043
					c0,1.96-0.556,3.791-1.519,5.342c-1.789,2.882-8.625,5.64-8.625,5.64s-6.589-2.612-8.412-5.31
					c-1.094-1.619-1.732-3.571-1.732-5.672c0-5.602,4.542-10.144,10.144-10.144S297.674,570.441,297.674,576.043z"/>
				<path style="fill:none;stroke:#000000;stroke-width:0.9749;stroke-miterlimit:10;" d="M282.613,572.483
					c1.698,0.98,3.005,2.377,3.867,3.987c1.602,2.991,0.572,10.289,0.572,10.289s-5.556,4.4-8.805,4.629
					c-1.949,0.138-3.959-0.285-5.778-1.335c-4.852-2.801-6.514-9.005-3.713-13.857C271.557,571.344,277.761,569.682,282.613,572.483
					z"/>
				<path style="fill:none;stroke:#000000;stroke-width:0.9749;stroke-miterlimit:10;" d="M272.469,584.043
					c1.698-0.98,3.561-1.414,5.386-1.356c3.391,0.108,9.197,4.65,9.197,4.65s1.032,7.012-0.393,9.94
					c-0.855,1.757-2.226,3.286-4.046,4.336c-4.852,2.801-11.056,1.139-13.857-3.713
					C265.955,593.048,267.617,586.844,272.469,584.043z"/>
				<path style="fill:none;stroke:#000000;stroke-width:0.9749;stroke-miterlimit:10;" d="M277.386,598.184
					c0-1.96,0.556-3.791,1.519-5.342c1.789-2.882,8.625-5.64,8.625-5.64s6.589,2.612,8.412,5.31
					c1.094,1.619,1.732,3.571,1.732,5.672c0,5.602-4.542,10.144-10.144,10.144S277.386,603.787,277.386,598.184z"/>
				<polygon style="fill:none;stroke:#000000;stroke-miterlimit:10;" points="279.372,582.546 287.372,578.066 295.372,582.546 
					295.372,591.505 287.372,595.985 279.372,591.505 				"/>
				<path style="fill:none;stroke:#000000;stroke-width:0.9749;stroke-miterlimit:10;" d="M292.177,572.637
					c-1.698,0.98-3.005,2.377-3.867,3.987c-1.602,2.991-0.572,10.289-0.572,10.289s5.556,4.4,8.805,4.629
					c1.949,0.138,3.959-0.285,5.778-1.335c4.852-2.801,6.514-9.005,3.713-13.857C303.233,571.498,297.029,569.836,292.177,572.637z"
					/>
				<path style="fill:none;stroke:#000000;stroke-width:0.9749;stroke-miterlimit:10;" d="M302.321,584.197
					c-1.698-0.98-3.561-1.414-5.386-1.356c-3.391,0.108-9.197,4.65-9.197,4.65s-1.032,7.012,0.393,9.94
					c0.855,1.757,2.226,3.286,4.046,4.336c4.852,2.801,11.056,1.139,13.857-3.713C308.836,593.202,307.173,586.998,302.321,584.197z
					"/>
			</g>
		</g>
		<g>
			<g>
				<g>
					<path style="fill:none;stroke:#000000;stroke-width:0.8819;stroke-miterlimit:10;" d="M61.956,476.576
						c0,0,9.817-4.05,17.254-13.98c4.204-5.613,2.329-26.227,2.329-26.227s-8.94-2.819-19.58-2.819h-0.007
						c-10.64,0-19.58,2.819-19.58,2.819s-1.875,20.651,2.329,26.264C52.139,472.563,61.956,476.576,61.956,476.576z"/>
					<path d="M61.956,473.525c0,0,8.617-3.555,15.145-12.272c3.69-4.927,2.044-22.519,2.044-22.519s-7.847-1.972-17.187-1.972
						h-0.006c-9.339,0-17.187,1.972-17.187,1.972s-1.646,17.876,2.044,22.802C53.339,470.254,61.956,473.525,61.956,473.525z"/>
					<g id="_x32_W1syu.tif_4_">
						<g>
							<path style="fill:#FFFFFF;" d="M70.391,452.47c0.58,0,1.161,0,1.741,0c0,0,0.008-0.001,0.006,0.003
								c-0.002,0.004-0.004-0.003-0.004-0.003C71.552,452.47,70.971,452.47,70.391,452.47c0,0-0.008,0.001-0.006-0.003
								C70.387,452.463,70.389,452.47,70.391,452.47z"/>
						</g>
					</g>
				</g>
				<g id="IdqVp5.tif_4_">
					<g>
						<path style="fill:#FFFFFF;" d="M49.508,444.145c0,0.866,0,1.732,0,2.61c0.105-0.063,0.202-0.122,0.306-0.166
							c0.351-0.147,0.718-0.204,1.096-0.214c0.549-0.015,1.097-0.013,1.646-0.013c0.362,0.001,0.725-0.011,1.087,0.018
							c0.742,0.059,1.412,0.299,1.947,0.836c0.448,0.449,0.706,0.995,0.778,1.627c0.017,0.146,0.025,0.292,0.025,0.438
							c0,1.331,0,2.663,0,3.994c0,0.032,0.001,0.064,0.002,0.097c-0.487,0-0.974,0-1.461,0c-0.03-0.036-0.024-0.08-0.022-0.121
							c0.024-0.591,0.013-1.181,0.014-1.772c0.002-0.703,0.002-1.405,0-2.108c-0.001-0.366-0.08-0.712-0.312-1.005
							c-0.237-0.301-0.547-0.478-0.931-0.514c-0.23-0.021-0.46-0.031-0.691-0.03c-0.387,0.002-0.774-0.033-1.161-0.013
							c-0.352,0.019-0.705-0.005-1.055,0.042c-0.45,0.06-0.79,0.292-1.028,0.675c-0.151,0.242-0.209,0.51-0.217,0.794
							c-0.023,0.869-0.018,1.738-0.009,2.607c0.004,0.442,0.007,0.884,0.011,1.325c0,0.041,0.008,0.085-0.022,0.122
							c-0.482,0-0.964,0-1.446,0c0-3.053,0-6.106-0.001-9.159c0-0.056,0.013-0.069,0.068-0.069
							C48.589,444.146,49.048,444.145,49.508,444.145z"/>
						<path style="fill:#FFFFFF;" d="M70.017,453.372c-0.095-0.038-0.197-0.036-0.295-0.058c-0.552-0.12-1.038-0.365-1.438-0.765
							c-0.372-0.372-0.585-0.832-0.711-1.337c-0.116-0.467-0.134-0.942-0.124-1.419c0.006-0.283,0.008-0.566,0.049-0.847
							c0.091-0.626,0.296-1.205,0.729-1.681c0.382-0.421,0.858-0.683,1.411-0.809c0.297-0.068,0.6-0.08,0.903-0.08
							c1.746,0.001,3.492,0.004,5.238,0.004c0.06,0,0.074,0.019,0.073,0.075c-0.002,0.432-0.002,0.864,0,1.297
							c0,0.06-0.019,0.074-0.076,0.074c-0.447-0.002-0.894,0.004-1.341-0.002c-0.847-0.012-1.694-0.003-2.541-0.009
							c-0.479-0.003-0.959,0.006-1.438,0.001c-0.603-0.005-1.014,0.303-1.314,0.794c-0.153,0.251-0.222,0.528-0.241,0.82
							c-0.026,0.415-0.02,0.828,0.027,1.241c0.071,0.629,0.514,1.103,1.138,1.225c0.184,0.036,0.369,0.042,0.555,0.047
							c0.698,0.02,1.396,0.012,2.093,0.005c0.795-0.008,1.589-0.005,2.384-0.015c0.228-0.003,0.457-0.002,0.685-0.006
							c0.036-0.001,0.068-0.004,0.068,0.051c-0.002,0.46-0.002,0.919-0.002,1.379c0,0.005-0.003,0.01-0.004,0.014
							c-1.883,0-3.766,0-5.649,0c-0.035-0.012-0.07-0.012-0.104,0C70.067,453.372,70.042,453.372,70.017,453.372z"/>
						<path style="fill:#FFFFFF;" d="M70.092,453.372c0.035-0.024,0.07-0.023,0.104,0C70.161,453.372,70.126,453.372,70.092,453.372
							z"/>
						<path style="fill:#FFFFFF;" d="M62.028,446.458c1.351,0,2.702,0.001,4.054-0.002c0.075,0,0.095,0.017,0.094,0.093
							c-0.004,0.425-0.003,0.849,0,1.274c0,0.064-0.019,0.077-0.08,0.077c-1.083-0.002-2.166,0-3.249-0.003
							c-0.077,0-0.092,0.021-0.092,0.095c0.002,1.754,0.001,3.507,0.004,5.261c0,0.077-0.02,0.094-0.094,0.093
							c-0.42-0.004-0.84-0.002-1.259-0.002c-0.097,0-0.097,0-0.097-0.094c0-1.749,0-3.497,0-5.246c0-0.119,0.012-0.104-0.102-0.104
							c-1.078,0-2.156-0.001-3.234,0.002c-0.074,0-0.089-0.02-0.088-0.091c0.003-0.422,0.004-0.845,0-1.267
							c-0.001-0.075,0.023-0.087,0.092-0.087C59.325,446.458,60.676,446.458,62.028,446.458z"/>
					</g>
				</g>
			</g>
		</g>
		<g>
			<g>
				<path style="fill:none;stroke:#000000;stroke-width:0.9152;stroke-miterlimit:10;" d="M81.96,312.268
					c1.253,12.649-9.29,23.192-21.939,21.939c-9.36-0.927-16.931-8.498-17.858-17.858c-1.253-12.649,9.29-23.192,21.939-21.939
					C73.463,295.337,81.034,302.908,81.96,312.268z"/>
				<g>
					
						<line style="fill:none;stroke:#020202;stroke-width:0.9152;stroke-miterlimit:10;" x1="53.956" y1="309.694" x2="65.016" y2="315.946"/>
					
						<line style="fill:none;stroke:#020202;stroke-width:0.9152;stroke-miterlimit:10;" x1="59.774" y1="316.72" x2="73.567" y2="304.682"/>
				</g>
			</g>
		</g>
		<g>
			<g>
				<path style="fill:none;stroke:#020202;stroke-width:1.8079;stroke-miterlimit:10;" d="M81.96,169.876
					c1.253,12.649-9.29,23.192-21.939,21.939c-9.36-0.927-16.931-8.498-17.858-17.858c-1.253-12.649,9.29-23.192,21.939-21.939
					C73.463,152.945,81.034,160.516,81.96,169.876z"/>
				<polygon style="fill:#020202;" points="59.148,156.68 68.782,156.685 63.239,168.511 69.816,168.631 56.135,187.153 
					60.385,168.488 54.308,171.492 				"/>
			</g>
		</g>
		<g>
			<g>
				<path d="M172.248,173.324c0-1.087,0.017-2.175-0.006-3.262c-0.017-0.798,0.221-1.07,0.997-0.637
					c1.997,1.116,4.005,2.215,6.015,3.309c0.705,0.383,0.618,0.701-0.023,1.05c-2.009,1.096-4.016,2.195-6.015,3.309
					c-0.833,0.465-0.984,0.054-0.972-0.68C172.262,175.384,172.249,174.354,172.248,173.324z"/>
				<path d="M172.41,161.044c0.021-1.943-0.49-3.732-1.607-5.325c-0.407-0.581-0.664-1.119,0.086-1.577
					c0.813-0.497,0.972,0.351,1.246,0.739c2.437,3.444,2.475,8.604,0.089,12.124c-0.302,0.446-0.512,1.334-1.386,0.795
					c-0.814-0.502-0.322-1.047,0.026-1.579C171.891,164.65,172.425,162.928,172.41,161.044z"/>
				<path d="M186.109,173.214c-0.075,2.334-0.74,4.431-2.059,6.309c-0.273,0.389-0.508,1.004-1.175,0.435
					c-0.487-0.416-0.459-0.789-0.113-1.322c2.354-3.635,2.372-7.296,0.008-10.94c-0.319-0.491-0.462-0.906,0.087-1.326
					c0.648-0.497,0.934,0.035,1.218,0.44C185.43,168.74,186.057,170.907,186.109,173.214z"/>
				<path d="M164.081,173.218c-0.041-2.312,0.671-4.396,1.938-6.296c0.253-0.379,0.485-1.032,1.175-0.591
					c0.631,0.403,0.516,0.842,0.146,1.429c-2.261,3.586-2.322,7.211,0.003,10.793c0.38,0.585,0.496,0.99-0.097,1.442
					c-0.694,0.529-0.897-0.127-1.166-0.505C164.746,177.615,164.114,175.51,164.081,173.218z"/>
				<path d="M175.038,184.19c-2.252,0.027-4.303-0.614-6.135-1.912c-0.356-0.252-1.119-0.4-0.668-1.123
					c0.361-0.578,0.824-0.638,1.446-0.23c3.587,2.348,7.202,2.348,10.797,0.002c0.503-0.328,0.933-0.433,1.339,0.096
					c0.508,0.664-0.103,0.929-0.487,1.203C179.452,183.568,177.348,184.22,175.038,184.19z"/>
				<path d="M170.69,161.002c0.022,1.568-0.372,2.926-1.186,4.155c-0.211,0.319-0.42,0.787-0.92,0.395
					c-0.351-0.275-0.78-0.579-0.445-1.134c1.376-2.279,1.357-4.551-0.003-6.831c-0.33-0.552,0.093-0.878,0.459-1.129
					c0.61-0.418,0.793,0.178,1.01,0.538C170.364,158.252,170.754,159.615,170.69,161.002z"/>
				<path d="M175.118,180.964c-1.45-0.05-2.773-0.381-3.965-1.128c-0.344-0.216-0.968-0.389-0.602-1.002
					c0.273-0.457,0.679-0.791,1.286-0.432c2.173,1.284,4.347,1.242,6.515-0.016c0.612-0.355,1.018,0.011,1.275,0.467
					c0.357,0.633-0.311,0.752-0.646,0.97C177.799,180.594,176.459,180.869,175.118,180.964z"/>
				<path d="M182.753,173.076c0.07,1.473-0.312,2.832-1.072,4.084c-0.222,0.365-0.42,0.935-1.018,0.527
					c-0.368-0.251-0.78-0.587-0.449-1.129c1.389-2.273,1.337-4.533,0.007-6.81c-0.307-0.526,0.072-0.882,0.457-1.134
					c0.624-0.408,0.784,0.213,1.003,0.555C182.442,170.355,182.791,171.666,182.753,173.076z"/>
				<path d="M167.363,173.143c0.057-1.481,0.359-2.813,1.126-4.005c0.201-0.313,0.346-0.856,0.861-0.592
					c0.463,0.237,0.877,0.662,0.535,1.26c-1.281,2.244-1.263,4.467,0.009,6.705c0.286,0.503,0.013,0.908-0.39,1.175
					c-0.596,0.394-0.81-0.169-1.039-0.525C167.662,175.916,167.414,174.511,167.363,173.143z"/>
				<path d="M182.041,164.851c-0.241,0.474-0.502,1.173-1.191,0.738c-1.525-0.964-3.096-1.715-4.914-1.894
					c-0.529-0.052-0.58-0.464-0.51-0.903c0.059-0.372,0.219-0.6,0.639-0.672c1.059-0.181,5.287,1.519,5.794,2.367
					C181.917,164.583,181.96,164.686,182.041,164.851z"/>
				<path d="M175.685,165.438c1.265,0.076,2.35,0.418,3.322,1.056c0.327,0.215,0.997,0.347,0.602,0.98
					c-0.327,0.524-0.753,0.8-1.423,0.369c-0.824-0.531-1.777-0.738-2.746-0.903c-0.43-0.073-1.344,0.485-1.216-0.568
					C174.322,165.565,174.992,165.301,175.685,165.438z"/>
				<path style="fill:none;stroke:#020202;stroke-miterlimit:10;" d="M194.372,170.944c0,11.046-8.954,20-20,20l0,0
					c-11.046,0-20-8.954-20-20l0,0c0-11.046,8.954-20,20-20l0,0C185.418,150.944,194.372,159.899,194.372,170.944L194.372,170.944z"
					/>
			</g>
		</g>
		<g>
			<g>
				<path d="M281.872,167.712c0,0.957-0.776,1.732-1.732,1.732h-0.535c-0.957,0-1.732-0.776-1.732-1.732v-0.535
					c0-0.957,0.776-1.732,1.732-1.732h0.535c0.957,0,1.732,0.776,1.732,1.732V167.712z"/>
				<path d="M290.872,167.712c0,0.957-0.776,1.732-1.732,1.732h-0.535c-0.957,0-1.732-0.776-1.732-1.732v-0.535
					c0-0.957,0.776-1.732,1.732-1.732h0.535c0.957,0,1.732,0.776,1.732,1.732V167.712z"/>
				<path d="M299.872,167.712c0,0.957-0.776,1.732-1.732,1.732h-0.535c-0.957,0-1.732-0.776-1.732-1.732v-0.535
					c0-0.957,0.776-1.732,1.732-1.732h0.535c0.957,0,1.732,0.776,1.732,1.732V167.712z"/>
				<path d="M281.872,175.712c0,0.957-0.776,1.732-1.732,1.732h-0.535c-0.957,0-1.732-0.776-1.732-1.732v-0.535
					c0-0.957,0.776-1.732,1.732-1.732h0.535c0.957,0,1.732,0.776,1.732,1.732V175.712z"/>
				<path d="M290.872,175.712c0,0.957-0.776,1.732-1.732,1.732h-0.535c-0.957,0-1.732-0.776-1.732-1.732v-0.535
					c0-0.957,0.776-1.732,1.732-1.732h0.535c0.957,0,1.732,0.776,1.732,1.732V175.712z"/>
				<path d="M299.872,175.712c0,0.957-0.776,1.732-1.732,1.732h-0.535c-0.957,0-1.732-0.776-1.732-1.732v-0.535
					c0-0.957,0.776-1.732,1.732-1.732h0.535c0.957,0,1.732,0.776,1.732,1.732V175.712z"/>
				<path d="M281.872,183.712c0,0.957-0.776,1.732-1.732,1.732h-0.535c-0.957,0-1.732-0.776-1.732-1.732v-0.535
					c0-0.957,0.776-1.732,1.732-1.732h0.535c0.957,0,1.732,0.776,1.732,1.732V183.712z"/>
				<path d="M290.872,183.712c0,0.957-0.776,1.732-1.732,1.732h-0.535c-0.957,0-1.732-0.776-1.732-1.732v-0.535
					c0-0.957,0.776-1.732,1.732-1.732h0.535c0.957,0,1.732,0.776,1.732,1.732V183.712z"/>
				<path d="M300.728,155.444h-25.333c-3.682,0-6.667,2-6.667,6h38.667C307.395,157.444,304.411,155.444,300.728,155.444z"/>
				<path style="fill:none;stroke:#000000;stroke-miterlimit:10;" d="M307.372,188.944c0,2.761-2.239,5-5,5h-29
					c-2.761,0-5-2.239-5-5v-29c0-2.761,2.239-5,5-5h29c2.761,0,5,2.239,5,5V188.944z"/>
			</g>
		</g>
		<g>
			<g>
				<g>
					<path d="M193.872,473.444c0,2.209-1.791,4-4,4h-32c-2.209,0-4-1.791-4-4v-32c0-2.209,1.791-4,4-4h32c2.209,0,4,1.791,4,4
						V473.444z"/>
				</g>
				<g>
					<path style="fill:none;stroke:#FFFFFF;stroke-miterlimit:10;" d="M184.372,459.944c0,2.209-1.791,4-4,4h-12
						c-2.209,0-4-1.791-4-4v-8c0-2.209,1.791-4,4-4h12c2.209,0,4,1.791,4,4V459.944z"/>
					<polygon style="fill:#FFFFFF;" points="179.061,455.908 170.872,460.636 170.872,451.18 					"/>
					<line style="fill:none;stroke:#FFFFFF;stroke-miterlimit:10;" x1="163.872" y1="466.944" x2="185.872" y2="466.944"/>
				</g>
			</g>
		</g>
		<g>
			<g>
				<g>
					<path style="fill:none;stroke:#000000;stroke-miterlimit:10;" d="M192.344,330.944h-36.399c-1.001,0-1.573-3.257-1.573-4.369
						v-29.584c0-1.112,0.572-2.047,1.573-2.047h7.977l3.015,4h25.408c1.001,0,2.028,0.473,2.028,1.585v26.046
						C194.372,327.688,193.345,330.944,192.344,330.944z"/>
					<path d="M193.365,299.391c0-1.112-1.413-1.946-2.415-1.946h-24.711l-2.318-2.982l-8.399,0.426
						c-0.79,0.594-0.651,1.21-0.651,2.322v8.233h39.19L193.365,299.391z"/>
				</g>
			</g>
		</g>
		<g>
			<g>
				<g>
					<g>
						<path d="M302.902,446.801c5.357,8.855,3.401,19.648-5.016,25.735c-7.318,5.293-17.334,3.712-23.664-2.228
							c-6.598-6.191-6.844-16.335-2.228-23.664c5.351-8.496,16.772-10.063,25.094-5.423c1.545,0.861,2.926-1.505,1.383-2.366
							c-9.288-5.179-21.614-3.589-28.091,5.367c-6.336,8.761-5.455,20.18,1.905,28.024c7.324,7.805,19.676,7.941,28.024,1.905
							c9.194-6.649,10.605-19.399,4.959-28.732C304.354,443.909,301.985,445.285,302.902,446.801L302.902,446.801z"/>
					</g>
				</g>
				<path style="fill:none;stroke:#000000;stroke-width:7.3059;stroke-miterlimit:10;" d="M298.594,455.211
					c1.275,7.773-5.35,14.398-13.123,13.123c-4.707-0.772-8.503-4.569-9.275-9.275c-1.275-7.773,5.35-14.398,13.123-13.123
					C294.026,446.707,297.822,450.504,298.594,455.211z"/>
			</g>
		</g>
		<g>
			<g>
				<g>
					<path style="fill:none;stroke:#020202;stroke-miterlimit:10;" d="M82.372,599.944c0,2.209-1.791,4-4,4h-32
						c-2.209,0-4-1.791-4-4v-19c0-2.209,1.791-4,4-4h32c2.209,0,4,1.791,4,4V599.944z"/>
					<path style="fill:none;stroke:#020202;stroke-width:0.8413;stroke-miterlimit:10;" d="M46.904,581.491
						c0,0,13.098,12.899,14.119,13.501c1.04,0.614,3.777,0.587,4.832,0c1.194-0.665,13.338-13.593,13.338-13.593"/>
				</g>
			</g>
		</g>
		<g>
			<g>
				<polygon points="297.438,307.937 285.872,314.615 285.872,292.926 				"/>
				<polygon style="fill:none;stroke:#000000;stroke-miterlimit:10;" points="287.806,314.691 299.372,308.013 299.372,319.284 				
					"/>
				<polygon points="295.717,327.011 289.039,315.444 310.728,315.444 				"/>
				<polygon style="fill:none;stroke:#000000;stroke-miterlimit:10;" points="288.963,317.378 295.641,328.944 284.371,328.944 				
					"/>
				<polygon points="274.306,324.763 285.872,318.086 285.872,339.775 				"/>
				<polygon style="fill:none;stroke:#000000;stroke-miterlimit:10;" points="285.938,318.01 274.372,324.688 274.372,313.417 				
					"/>
				<polygon points="279.074,303.878 285.751,315.444 264.062,315.444 				"/>
				<polygon style="fill:none;stroke:#000000;stroke-miterlimit:10;" points="285.827,316.511 279.149,304.944 290.42,304.944 				
					"/>
			</g>
		</g>
		<g>
			<g>
				<g>
					<path d="M81.96,730.181c1.253,12.649-9.29,23.192-21.939,21.939c-9.36-0.927-16.931-8.498-17.858-17.858
						c-1.253-12.649,9.29-23.192,21.939-21.939C73.463,713.25,81.034,720.821,81.96,730.181z"/>
				</g>
				<g>
					<path style="fill:#FFFFFF;" d="M50.573,741.409c-1.074-1.068-0.755-13.167-0.47-14.353c0.246-1.026,10.424-8.871,12.21-8.871
						s11.959,7.869,12.21,8.871c0.426,1.702,0.37,13.752-0.47,14.353C72.963,742.189,51.43,742.262,50.573,741.409z"/>
					<g>
						<path d="M67.282,729.921c0,3.045-5.513,11.726-5.513,11.726s-5.513-8.681-5.513-11.726s2.468-5.513,5.513-5.513
							C64.814,724.408,67.282,726.876,67.282,729.921z"/>
						<path style="fill:#FFFFFF;" d="M64.398,728.44c0.358,1.887-1.266,3.511-3.154,3.154c-1.048-0.199-1.906-1.056-2.105-2.105
							c-0.358-1.887,1.266-3.511,3.154-3.154C63.342,726.534,64.199,727.391,64.398,728.44z"/>
					</g>
				</g>
			</g>
		</g>
		<g>
			<g>
				<g>
					<path d="M189.704,608.109h-31.497c-2.348,0-4.252-1.904-4.252-4.252V572.36c0-2.348,1.904-4.252,4.252-4.252h31.497
						c2.348,0,4.252,1.904,4.252,4.252v31.497C193.956,606.205,192.053,608.109,189.704,608.109z"/>
				</g>
				<polygon style="fill:#FFFFFF;" points="174.863,582.61 183.547,586.532 183.547,596.526 174.863,592.858 				"/>
				<polygon style="fill:#FFFFFF;" points="172.933,572.11 164.248,575.652 164.248,596.526 172.933,592.858 				"/>
				<polygon style="fill:#FFFFFF;" points="164.534,598.804 173.503,595.008 182.372,598.804 173.453,602.346 				"/>
			</g>
		</g>
		<rect x="28.623" y="220.593" style="fill:none;" width="66.667" height="21.333"/>
		<text transform="matrix(1 0 0 1 36.0367 232.6885)" style="font-family:'Avenir-Book'; font-size:16;">Boost+</text>
		<rect x="122.055" y="220.039" style="fill:none;" width="103.803" height="48.315"/>
		<text transform="matrix(1 0 0 1 129.6372 232.1348)"><tspan x="0" y="0" style="font-family:'Avenir-Book'; font-size:16;">BoomSound</tspan><tspan x="14.087" y="19.2" style="font-family:'Avenir-Book'; font-size:16;">Connect</tspan></text>
		<rect x="253.956" y="220.593" style="fill:none;" width="66.667" height="21.333"/>
		<text transform="matrix(1 0 0 1 255.0638 232.6622)" style="font-family:'Avenir-Book'; font-size:15.9651;">Calendar</text>
		<rect x="28.623" y="366.713" style="fill:none;" width="66.667" height="21.333"/>
		<text transform="matrix(1 0 0 1 41.9484 378.8087)" style="font-family:'Avenir-Book'; font-size:16;">Clock</text>
		<rect x="125.093" y="366.713" style="fill:none;" width="97.727" height="21.333"/>
		<text transform="matrix(1 0 0 1 127.1329 378.8087)" style="font-family:'Avenir-Book'; font-size:16;">File Manager</text>
		<rect x="253.956" y="366.713" style="fill:none;" width="66.667" height="40.205"/>
		<text transform="matrix(1 0 0 1 260.3211 378.8086)"><tspan x="0" y="0" style="font-family:'Avenir-Book'; font-size:16;">Google </tspan><tspan x="2.376" y="19.2" style="font-family:'Avenir-Book'; font-size:16;">Photos</tspan></text>
		<rect x="28.623" y="509.307" style="fill:none;" width="66.667" height="21.333"/>
		<text transform="matrix(1 0 0 1 44.9244 521.4025)" style="font-family:'Avenir-Book'; font-size:16;">Help</text>
		<rect x="124.35" y="509.307" style="fill:none;" width="99.213" height="21.333"/>
		<text transform="matrix(1 0 0 1 129.3566 521.4025)" style="font-family:'Avenir-Book'; font-size:16;">HTC Connet</text>
		<rect x="253.956" y="509.307" style="fill:none;" width="66.667" height="21.333"/>
		<text transform="matrix(1 0 0 1 257.6175 521.4025)" style="font-family:'Avenir-Book'; font-size:16;">Ice View</text>
		<rect x="28.623" y="642.577" style="fill:none;" width="66.667" height="21.333"/>
		<text transform="matrix(1 0 0 1 46.8443 654.6729)" style="font-family:'Avenir-Book'; font-size:16;">Mail</text>
		<rect x="127.982" y="642.577" style="fill:none;" width="91.948" height="53.972"/>
		<text transform="matrix(1 0 0 1 128.7486 654.6729)"><tspan x="0" y="0" style="font-family:'Avenir-Book'; font-size:16;">Sense Home </tspan><tspan x="9.792" y="19.2" style="font-family:'Avenir-Book'; font-size:16;">BlinkFeed</tspan></text>
		<rect x="15.289" y="777.134" style="fill:none;" width="93.333" height="37.075"/>
		<text transform="matrix(1 0 0 1 16.7486 789.2296)"><tspan x="0" y="0" style="font-family:'Avenir-Book'; font-size:16;">Sense Home </tspan><tspan x="18.856" y="19.2" style="font-family:'Avenir-Book'; font-size:16;">Widget</tspan></text>
		<rect x="140.623" y="777.134" style="fill:none;" width="66.667" height="21.333"/>
		<text transform="matrix(1 0 0 1 143.5963 789.2296)" style="font-family:'Avenir-Book'; font-size:16;">Weather</text>
		<rect x="230.46" y="641.904" style="fill:none;" width="113.658" height="41.717"/>
		<text transform="matrix(1 0 0 1 242.0813 654.001)"><tspan x="0" y="0" style="font-family:'Avenir-Book'; font-size:16;">Sense Home </tspan><tspan x="20.456" y="19.2" style="font-family:'Avenir-Book'; font-size:16;">Theme</tspan></text>
	</g>
</g>
</svg>
